<!-- by TradingView --><svg width="18" height="18" viewBox="0 0 18 18" xmlns="http://www.w3.org/2000/svg"><path fill="#F0F3FA" d="M0 0h18v18H0z"/><path d="M4 4h10v10H4V4Zm6.7 4.85C10.34 8.21 9.6 8 9 8H7.5v.2s.36.05.4.07c.08.05.1.19.1.4v2.67c0 .21-.02.35-.1.4-.04.01-.03.03-.03.04 0 .01 0 .03-.06.04a.43.43 0 0 1-.2-.1.91.91 0 0 1-.17-.29L6.2 8h-.18l-1.17 3.42c-.05.15-.11.26-.2.32a.63.63 0 0 1-.33.08V12h1.13v-.18h-.18c-.05 0-.1-.02-.15-.07-.05-.03-.07-.09-.07-.16l.01-.08.01-.04.02-.04.25-.78h1.3l.26.78.04.11.01.1c0 .07-.03.11-.05.13a.18.18 0 0 1-.13.05h-.22V12h2.65c.94 0 1.79-.83 1.79-1.96a2.61 2.61 0 0 0-.3-1.19ZM5.4 10.4l.58-1.7.57 1.7H5.4Zm3.68 1.4c-.22 0-.39-.03-.46-.1-.08-.08-.12-.27-.12-.56V8.21h.18l.18-.02c.93 0 1.56.79 1.56 1.85.02.89-.52 1.76-1.34 1.76Zm4.03-1.7a1.39 1.39 0 0 0-.75-.27c.23-.05.44-.14.62-.26.18-.14.28-.37.28-.7 0-.29-.1-.52-.29-.65a1 1 0 0 0-.62-.22H10.7v.18h.02c.16 0 .28.04.37.08.1.05.14.19.14.4v2.68c0 .21-.06.35-.14.4a.92.92 0 0 1-.36.08h-.03V12h1.74c.27 0 .5-.1.7-.3.2-.18.3-.45.3-.8 0-.35-.12-.62-.34-.8Zm-1.37 1.24V9.95c.28 0 .54.03.79.1.23.07.35.32.35.77 0 .26-.05.49-.14.67-.1.2-.26.3-.5.3-.15 0-.27-.02-.36-.08-.09-.05-.14-.17-.14-.37Zm.69-1.7c-.2.08-.43.11-.7.11V8.18h.41c.22 0 .38.08.45.22.08.14.12.32.12.57 0 .38-.09.6-.28.68Z" fill="#002569"/></svg>