<!-- by TradingView --><svg width="18" height="18" viewBox="0 0 18 18" xmlns="http://www.w3.org/2000/svg"><path fill="#E5013F" d="M0 0h18v18H0z"/><path d="M11.64 4.53a1.7 1.7 0 0 0-1.18 1.59c0 .93.8 1.68 1.77 1.68.98 0 1.77-.75 1.77-1.68a1.73 1.73 0 0 0-1.8-1.69c-.48-.15-1.57-.4-2.67-.43-1.47-.03-4.95.3-5.15 3.06-.05.76.57 2.43 3.45 3.05 3.6.78 3.11 3.6.38 3.67a6.64 6.64 0 0 1-2.03-.39 1.74 1.74 0 0 0 1.36-1.68c0-.96-.8-1.73-1.77-1.73-.98 0-1.77.77-1.77 1.73 0 .9.71 1.65 1.62 1.72.44.23 1.5.59 3.16.57 2.3-.03 5.41-.97 5.21-3.22-.17-1.85-1.93-2.52-3.5-3.12l-.96-.39c-1.7-.75-1.81-2.73.34-3 .27 0 .94.04 1.77.26Z" fill="#fff"/></svg>