<!-- by TradingView --><svg width="18" height="18" viewBox="0 0 18 18" xmlns="http://www.w3.org/2000/svg"><path fill="#F0F3FA" d="M0 0h18v18H0z"/><path d="M11.62 4.74a5 5 0 1 1-.75-.38c-.03.08-.06.15-.1.21a4.5 4.5 0 0 0-1.11-.29c-1.15.36-2.08 1.8-2.44 3.7a6.7 6.7 0 0 0 1.7.21c2.12 0 3.84-.92 3.84-2.05a4.54 4.54 0 0 0-1.26-1.2h-.01l.13-.2Zm-7 3.24a4.56 4.56 0 0 0 .96 3.67 6.58 6.58 0 0 1-.38-2.68 2 2 0 0 1-.58-.99Zm.53-1.46c.09.24.24.46.43.63.36-1.01.99-1.9 1.82-2.59a4.55 4.55 0 0 0-2.25 1.96ZM9.2 10.8c0 .89.2 2.13.64 2.45a4.53 4.53 0 0 0 3.6-5.7c-.09 1.4-1.98 2.56-4.34 2.63a6.97 6.97 0 0 1-2.02-.22c.01 1.1.25 2.16.69 3.16a2.38 2.38 0 0 0 .17.04 8.12 8.12 0 0 1-.55-2.94c.6.12 1.2.18 1.82.18a4.3 4.3 0 0 0-.01.4Zm-.67-4.6a.78.78 0 1 1 0 1.56.78.78 0 0 1 0-1.56Z" fill="#3794D8"/></svg>