<!-- by TradingView --><svg width="18" height="18" viewBox="0 0 18 18" xmlns="http://www.w3.org/2000/svg"><path fill="#F0F3FA" d="M0 0h18v18H0z"/><path d="M10.61 13c-.4 0-.54-.34-.54-.34L7.5 5.9s-.31-.9.64-.9h3.63c.44 0 .54.3.54.3l2.63 6.86s.35.84-.65.84" fill="url(#auqhw0iqy)"/><path d="M4.95 13c-.72 0-.64-.8-.64-.8L7.1 5.36S7.23 5 7.66 5h3.63s.83 0 .65.87L9.1 12.74S9 13 8.61 13" fill="url(#buqhw0iqy)"/><path d="M3.64 13s-.45-.04-.61-.48c-.07-.18 0-.43 0-.43l3.41-7.65c.19-.4.6-.44.6-.44h3.66a.8.8 0 0 1 .64.82L7.7 13" fill="url(#cuqhw0iqy)"/><defs><linearGradient id="auqhw0iqy" x1="13.68" y1="15.45" x2="10.86" y2="7.07" gradientUnits="userSpaceOnUse"><stop offset=".17" stop-color="#EC0689"/><stop offset=".77" stop-color="#4449A6"/></linearGradient><linearGradient id="buqhw0iqy" x1="7.52" y1="16" x2="8.43" y2="4.16" gradientUnits="userSpaceOnUse"><stop offset=".31" stop-color="#EC0788"/><stop offset=".81" stop-color="#4449A6"/></linearGradient><linearGradient id="cuqhw0iqy" x1="7.17" y1="18.13" x2="7.17" y2="-1.62" gradientUnits="userSpaceOnUse"><stop offset=".32" stop-color="#EC0689"/><stop offset=".63" stop-color="#FBC718"/></linearGradient></defs></svg>