<!-- by TradingView --><svg width="18" height="18" xmlns="http://www.w3.org/2000/svg"><path fill="#F0B90A" d="M0 0h18v18H0z"/><path d="M6.67 8.061L9 5.776l2.332 2.286 1.355-1.33L9 3.118 5.314 6.732l1.356 1.33zM5.712 9L4.356 7.67 3 9l1.356 1.33L5.712 9zm.958.939L9 12.224l2.332-2.286 1.356 1.329L9 14.883 5.314 11.27l-.002-.002L6.67 9.939zm6.974.391L15 9l-1.356-1.33L12.288 9l1.356 1.33z" fill="#0B0E11"/><path d="M10.375 9L9 7.65l-1.017.997-.117.115-.24.236L7.622 9l.002.002L9 10.35 10.376 9z" fill="#0B0E11"/></svg>