<!-- by TradingView --><svg xmlns="http://www.w3.org/2000/svg" width="18" height="18" viewBox="0 0 18 18"><path fill="#F8F9FD" d="M0 0h18v18H0z"/><path d="M4 10.8V13a6.83 6.83 0 0 0 5.96-3.47l.3-.46.06-.07A4.66 4.66 0 0 1 14 7.2V5a6.84 6.84 0 0 0-5.94 3.44c-.1.17-.2.33-.32.49L7.68 9A4.67 4.67 0 0 1 4 10.8z" fill="#2A54FF"/><path opacity=".4" d="M4 10.8V13a6.83 6.83 0 0 0 5.96-3.47l.3-.46.06-.07A4.66 4.66 0 0 1 14 7.2V5a6.84 6.84 0 0 0-5.94 3.44c-.1.17-.2.33-.32.49L7.68 9A4.67 4.67 0 0 1 4 10.8z" fill="url(#ar4051014)"/><path d="M14 10.8V13a6.83 6.83 0 0 1-5.96-3.47l-.3-.46L7.68 9A4.66 4.66 0 0 0 4 7.2V5a6.84 6.84 0 0 1 5.94 3.44c.1.17.2.33.32.49l.06.07A4.67 4.67 0 0 0 14 10.8z" fill="#2A54FF"/><defs><linearGradient id="ar4051014" x1="6.92" y1="11" x2="11.34" y2="6.84" gradientUnits="userSpaceOnUse"><stop stop-opacity="0"/><stop offset=".49"/><stop offset="1" stop-opacity="0"/></linearGradient></defs></svg>