<!-- by TradingView --><svg width="18" height="18" xmlns="http://www.w3.org/2000/svg"><path fill="#4CBA64" d="M0 0h18v18H0z"/><path d="M11.564 4.333c-.123.13-.222.284-.288.453a1.457 1.457 0 000 1.069c.066.17.165.323.288.453l2.558 2.686-2.564 2.692-1.304-1.37a1.299 1.299 0 00-.94-.409c-.353 0-.691.147-.94.409l3.182 3.342L16 8.992l-4.436-4.659z" fill="#fff"/><path d="M11.564 9.957c.504 0 .912-.429.912-.957 0-.529-.409-.957-.912-.957-.503 0-.912.428-.912.957 0 .528.409.957.912.957zm-5.128 3.709c.25-.262.39-.617.39-.987s-.14-.725-.39-.987L3.88 9.006l2.564-2.692 1.303 1.37a1.3 1.3 0 00.94.408c.352 0 .69-.147.94-.408L6.444 4.34 2 9.008l4.436 4.658z" fill="#fff"/><path d="M6.436 9.957c.504 0 .912-.429.912-.957 0-.529-.408-.957-.912-.957-.503 0-.911.428-.911.957 0 .528.408.957.911.957z" fill="#fff"/></svg>