<svg width="18" height="18" viewBox="0 0 18 18" fill="none" xmlns="http://www.w3.org/2000/svg">
<rect width="18" height="18" fill="url(#paint0_linear_1908_9749)"/>
<!-- by TradingView --><path fill-rule="evenodd" clip-rule="evenodd" d="M4 7.57617V6.24717C4 6.03179 4.13479 5.83264 4.31431 5.72419L8.64189 3.10978C8.88864 2.96071 9.19431 2.96365 9.43836 3.11742L11.6667 4.56892V6.21116L9.33744 4.73201C9.15526 4.61985 8.92877 4.61878 8.74562 4.72922L4 7.57617ZM12.5 5.01653L13.7119 5.7785C13.891 5.8876 14.0007 6.08716 14 6.30253L14 11.6396C13.999 11.9356 13.8241 12.2073 13.5726 12.3476L11.1675 13.7513L9.80585 12.8698L12.212 11.4373C12.3975 11.3312 12.4991 11.1294 12.5 10.9097V5.01653ZM9.28921 14.9136L10.3271 14.229L5.8305 11.4449C5.64488 11.339 5.50102 11.1372 5.5 10.9175V7.606L4.00002 8.5257L4.00002 11.5475C3.99847 11.8436 4.1534 12.1167 4.40371 12.2593L8.70744 14.9252C8.88954 15.0289 9.11108 15.0245 9.28921 14.9136ZM6.66667 6.69605L8 6V7.55779C8.30301 7.41386 8.64197 7.33332 8.99973 7.33332C10.2882 7.33332 11.3328 8.37799 11.3328 9.66665C11.3328 10.9553 10.2882 12 8.99973 12C7.73201 12 6.70045 10.9888 6.66748 9.72886H6.66667V9.66665V6.69605ZM8 9.61896V9.71435C8.02489 10.2445 8.46254 10.6667 8.99879 10.6667C9.55103 10.6667 9.9987 10.2189 9.9987 9.66666C9.9987 9.11437 9.55103 8.66666 8.99879 8.66666C8.46254 8.66666 8.02489 9.08883 8 9.61896Z" fill="url(#paint1_linear_1908_9749)"/>
<defs>
<linearGradient id="paint0_linear_1908_9749" x1="3.34858" y1="3.12159" x2="21.9042" y2="24.4339" gradientUnits="userSpaceOnUse">
<stop stop-color="#1A1E21"/>
<stop offset="1" stop-color="#06060A"/>
</linearGradient>
<linearGradient id="paint1_linear_1908_9749" x1="4" y1="6.28603" x2="14" y2="12.178" gradientUnits="userSpaceOnUse">
<stop stop-color="#FCD170"/>
<stop offset="1" stop-color="#EAB12C"/>
</linearGradient>
</defs>
</svg>
