<!-- by TradingView --><svg width="18" height="18" viewBox="0 0 18 18" xmlns="http://www.w3.org/2000/svg"><path fill="#F0F3FA" d="M0 0h18v18H0z"/><path d="M5.39 8.87c.36.15.61.54.61.97 0 .8-.6 1.16-1.28 1.16H3V7h1.67c.6 0 1.19.3 1.19 1.02 0 .4-.16.68-.47.85Zm-.77-1.11H4v.85h.62c.24 0 .4-.17.4-.44 0-.25-.17-.41-.4-.41ZM4 10.24h.67c.26 0 .43-.16.43-.45 0-.3-.12-.46-.43-.46H4v.91Z"/><path d="M10 8.75c0 1.17.8 2.25 2.08 2.25A1.9 1.9 0 0 0 14 9.45h-1.13c-.14.36-.34.65-.78.65-.76 0-1.08-.71-1.08-1.35 0-.63.32-1.35 1.08-1.35.44 0 .65.28.78.66H14a1.89 1.89 0 0 0-1.92-1.56C10.78 6.5 10 7.56 10 8.75Z" fill="#F26722"/><path d="M9.8 7H9v2.47A55.6 55.6 0 0 1 7.1 7H6v4h1V8.54c.79.97.9 1.07 2 2.46h1v-.35A3.12 3.12 0 0 1 9.8 7Z"/><circle cx="14.5" cy="10.5" r=".5" fill="#F4671E"/></svg>