<!-- by TradingView --><svg width="18" height="18" viewBox="0 0 18 18" xmlns="http://www.w3.org/2000/svg"><path fill="url(#aw5r4btzg)" d="M0 0h18v18H0z"/><path d="M10.37 12.22c.2-.14.23-.42.09-.62-.17-.25-.53-.28-.79-.1a3 3 0 1 1 .04-4.96c.24.16.58.15.76-.08.17-.2.15-.5-.05-.65a4 4 0 1 0-.04 6.41ZM12.5 5a.5.5 0 0 0-.5.5v7c0 .27.22.5.5.5a.5.5 0 0 0 .5-.5v-7a.5.5 0 0 0-.5-.5Z" fill="#fff"/><defs><linearGradient id="aw5r4btzg" x1="6.85" y1="0" x2="5.35" y2="18" gradientUnits="userSpaceOnUse"><stop stop-color="#EA129E"/><stop offset="1" stop-color="#5B02D6"/></linearGradient></defs></svg>