<!-- by TradingView --><svg xmlns="http://www.w3.org/2000/svg" width="18" height="18"><path fill="url(#aohinvluq)" d="M0 0h18v18H0z"/><path fill-rule="evenodd" d="M4 9a5 5 0 019.68-1.76l-.08.08L11.87 9l1.8 1.75h.01A5 5 0 014 9zm5.1-3.71c1.3 0 2.44.66 3.1 1.66l-1.22 1.19-.5-.5A2 2 0 007 9a2 2 0 003.47 1.35l.5-.49 1.23 1.19a3.71 3.71 0 11-3.1-5.76zm.43 4.25l.56-.54-.57-.55H9.5a.75.75 0 10.01 1.09h.01z" fill="#fff"/><defs><linearGradient id="aohinvluq" x1="2.59" y1="2.17" x2="15.07" y2="16.84" gradientUnits="userSpaceOnUse"><stop stop-color="#07C7CD"/><stop offset="1" stop-color="#1EE2B9"/></linearGradient></defs></svg>