<!-- by TradingView --><svg width="18" height="18" viewBox="0 0 18 18" fill="none" xmlns="http://www.w3.org/2000/svg">
<rect width="18" height="18" fill="#F0F3FA"/>
<path d="M5 4.9213C5 4.41248 5.418 4 5.93364 4H8.93301C11.7314 4 14 6.23858 14 9C14 11.7614 11.7314 14 8.93302 14H5.93364C5.418 14 5 13.5875 5 13.0787V4.9213Z" fill="url(#paint0_linear_1946_9826)"/>
<path fill-rule="evenodd" clip-rule="evenodd" d="M7.53698 4H5.93364C5.418 4 5 4.41248 5 4.9213V6.4742C6.93844 6.39369 7.49251 4.87939 7.53698 4Z" fill="url(#paint1_linear_1946_9826)"/>
<path fill-rule="evenodd" clip-rule="evenodd" d="M8.00001 14H5.93364C5.418 14 5 13.5875 5 13.0787V12.6153C5.62201 12.677 6.80352 12.6127 8.00001 12.0036V14Z" fill="url(#paint2_linear_1946_9826)"/>
<path fill-rule="evenodd" clip-rule="evenodd" d="M11.2517 4.5531C12.8839 5.38348 13.9999 7.06313 13.9999 9.00001C13.9999 11.0309 12.7729 12.779 11.0105 13.5617C10.7576 12.8665 10.3707 11.6518 9.89774 9.80275C9.24295 7.24307 10.443 5.32709 11.2517 4.5531Z" fill="url(#paint3_linear_1946_9826)"/>
<path fill-rule="evenodd" clip-rule="evenodd" d="M11 13.5664C10.3688 13.845 9.66923 14 8.93301 14H8V8.97044C7.89631 8.89423 7.57526 8.64488 7.57079 8.25718C7.56633 7.86947 7.82565 7.63671 7.95587 7.56879C7.96704 7.47149 8.02285 7.23285 8.15679 7.05662C7.96704 6.90242 7.51833 6.43322 7.24152 5.78998C7.21734 5.74409 7.18348 5.62147 7.24152 5.49811C7.30801 5.35679 7.49168 5.49299 7.70662 5.65238C7.72621 5.66691 7.74607 5.68164 7.76612 5.69636C7.8982 5.77163 8.21483 5.96841 8.42467 6.15345C8.48315 6.0488 8.68486 5.85345 9.02388 5.9092C9.05423 5.80415 9.19153 5.5668 9.49785 5.56248C9.80418 5.55817 9.93546 5.80056 9.96281 5.9092C10.0759 5.8802 10.3534 5.88846 10.5591 6.15345C10.6557 6.06718 10.9266 5.85497 11.2373 5.69636C11.3322 5.60009 11.5579 5.42566 11.7023 5.49811C11.8467 5.57055 11.7625 5.80236 11.7023 5.9092C11.5036 6.2682 11.0514 7.00029 10.8326 7.05662C10.8781 7.12629 10.9803 7.32626 11.024 7.56879C11.1644 7.63698 11.443 7.87013 11.4343 8.25718C11.4255 8.64422 11.1094 8.85254 11 8.90832V13.5664Z" fill="url(#paint4_linear_1946_9826)"/>
<path d="M9.11712 7.54701C8.81663 7.71504 8.51331 7.59732 8.41523 7.50671V7.78006C8.4593 7.86505 8.54869 8.09803 8.5537 8.35007C8.55871 8.60211 8.43893 8.78043 8.37842 8.83808V9.079C8.52449 9.31374 8.96311 9.78075 9.54906 9.77087C10.135 9.76099 10.5027 9.30551 10.6133 9.079V8.83808C10.5549 8.77837 10.4355 8.59717 10.4255 8.35007C10.4189 8.1873 10.514 7.92447 10.6133 7.78006V7.54701C10.3228 7.70021 10.0791 7.61084 9.99353 7.54701C9.96223 7.66232 9.82952 7.89294 9.54906 7.89294C9.26861 7.89294 9.14424 7.66232 9.11712 7.54701Z" fill="#B3D2FF"/>
<path d="M9.61961 9.07701C9.63474 8.74856 9.85028 8.54203 9.97006 8.46583C10.0082 8.44154 10.0593 8.41731 10.0404 8.3352C10.0215 8.25308 9.92423 8.22697 9.86074 8.25588C9.66405 8.34546 9.30599 8.29321 9.15154 8.25588C9.09718 8.24275 9.02765 8.26562 9.00024 8.3352C8.9801 8.38631 9.02322 8.45127 9.06171 8.46583C9.28865 8.55168 9.38636 8.90905 9.40685 9.07701C9.41158 9.11433 9.4386 9.17965 9.51086 9.17965C9.58029 9.17965 9.6133 9.10811 9.61961 9.07701Z" fill="#003580"/>
<path d="M7.21706 11.0695L6.40373 11.4573C6.35286 11.4845 6.20681 11.5284 6.12398 11.4071C6.04152 11.2865 6.10703 11.1708 6.16213 11.1186L6.84877 10.6104C6.94626 10.5288 7.20415 10.3997 7.36375 10.6104C7.52575 10.8242 7.36375 10.9983 7.21706 11.0695Z" fill="white"/>
<path d="M7.21706 7.05883L6.40373 6.67096C6.35286 6.64377 6.20681 6.59994 6.12398 6.72115C6.04152 6.84182 6.10703 6.95746 6.16213 7.00974L6.84877 7.51791C6.94626 7.59947 7.20415 7.72855 7.36375 7.51791C7.52575 7.3041 7.36375 7.13004 7.21706 7.05883Z" fill="white"/>
<path d="M6.00925 8.75618C5.74838 8.89041 5.70732 9.04354 5.71939 9.10333C5.71939 9.26533 5.91263 9.38683 6.00925 9.42733C6.08896 9.47765 6.4699 9.61248 6.65106 9.42733C6.83221 9.24219 6.7494 8.90082 6.65106 8.75618C6.55271 8.61153 6.33532 8.58839 6.00925 8.75618Z" fill="#B3D2FF"/>
<path d="M11.7085 11.0053L12.5218 11.3932C12.5727 11.4204 12.7187 11.4642 12.8016 11.343C12.884 11.2223 12.8185 11.1067 12.7634 11.0544L12.0768 10.5462C11.9793 10.4647 11.7214 10.3356 11.5618 10.5462C11.3998 10.76 11.5618 10.9341 11.7085 11.0053Z" fill="white"/>
<path d="M11.7085 6.99468L12.5218 6.60681C12.5727 6.57962 12.7187 6.5358 12.8016 6.657C12.884 6.77768 12.8185 6.89331 12.7634 6.94559L12.0768 7.45376C11.9793 7.53532 11.7214 7.6644 11.5618 7.45376C11.3998 7.23995 11.5618 7.06589 11.7085 6.99468Z" fill="white"/>
<path d="M12.9163 8.69203C13.1772 8.82626 13.2182 8.97939 13.2061 9.03918C13.2061 9.20118 13.0129 9.32269 12.9163 9.36319C12.8366 9.4135 12.4556 9.54833 12.2745 9.36319C12.0933 9.17804 12.1761 8.83668 12.2745 8.69203C12.3728 8.54738 12.5902 8.52424 12.9163 8.69203Z" fill="#B3D2FF"/>
<defs>
<linearGradient id="paint0_linear_1946_9826" x1="9.5" y1="4" x2="9.5" y2="14" gradientUnits="userSpaceOnUse">
<stop stop-color="#0062EE"/>
<stop offset="1" stop-color="#00398A"/>
</linearGradient>
<linearGradient id="paint1_linear_1946_9826" x1="5.32135" y1="4.22396" x2="6.58299" y2="5.87623" gradientUnits="userSpaceOnUse">
<stop stop-color="#81B5FF"/>
<stop offset="1" stop-color="#4491FF"/>
</linearGradient>
<linearGradient id="paint2_linear_1946_9826" x1="6.35426" y1="12.2968" x2="6.48741" y2="13.9048" gradientUnits="userSpaceOnUse">
<stop stop-color="#81B5FF"/>
<stop offset="1" stop-color="#4F97FF"/>
</linearGradient>
<linearGradient id="paint3_linear_1946_9826" x1="11.8547" y1="4.5531" x2="11.8547" y2="13.5617" gradientUnits="userSpaceOnUse">
<stop stop-color="#00398A"/>
<stop offset="1" stop-color="#0062EE"/>
</linearGradient>
<linearGradient id="paint4_linear_1946_9826" x1="9.49576" y1="5.43896" x2="9.49576" y2="14" gradientUnits="userSpaceOnUse">
<stop stop-color="white"/>
<stop offset="1" stop-color="#C0DAFF"/>
</linearGradient>
</defs>
</svg>
