<!-- by TradingView --><svg width="18" height="18" fill="none" xmlns="http://www.w3.org/2000/svg"><g clip-path="url(#clip0)"><path fill="#F0F3FA" d="M0 0h18v18H0z"/><path fill-rule="evenodd" clip-rule="evenodd" d="M7.016 4.377c-2.129.847-2.576 3.18-1.21 4.608-1.378 1.428-.994 3.786 1.192 4.646a5.464 5.464 0 003.999-.02c2.107-.848 2.616-3.202 1.219-4.643 1.347-1.43.894-3.748-1.227-4.592a5.427 5.427 0 00-3.973 0zm.856 1.72a3.088 3.088 0 012.26 0c1.073.426 1.146 1.736.125 2.251l-1.255.633-1.254-.633c-1.02-.515-.948-1.825.124-2.252zm2.262 5.798a3.122 3.122 0 01-2.286.013c-1.08-.425-1.145-1.75-.109-2.276l1.273-.648 1.264.634c1.027.515.945 1.84-.142 2.277z" fill="#2DB969"/></g><defs><clipPath id="clip0"><path fill="#fff" d="M0 0h18v18H0z"/></clipPath></defs></svg>