<!-- by TradingView --><svg width="18" height="18" viewBox="0 0 18 18" xmlns="http://www.w3.org/2000/svg"><path fill="#D6002A" d="M0 0h18v18H0z"/><path d="M5.68 11.59c-.28.29-.72.41-1.18.41-.4 0-.8-.1-1.11-.4a1.27 1.27 0 0 1-.39-.9h.7c0 .18.07.35.2.48.15.16.4.2.62.2.26 0 .5-.05.65-.2.08-.1.15-.19.15-.37 0-.28-.22-.42-.45-.46-.25-.05-.58-.06-.82-.1-.52-.09-.95-.44-.95-1.08 0-.3.13-.56.32-.76.25-.25.66-.41 1.1-.41.58 0 1.4.38 1.42 1.1h-.7c-.02-.34-.47-.49-.73-.49-.2 0-.45.05-.6.21a.46.46 0 0 0-.13.33c0 .25.16.38.38.42.24.03.57.06.81.1.56.08 1.03.45 1.03 1.11 0 .36-.13.61-.32.8ZM10.08 12l-.44-.4c-.34.26-.77.4-1.22.4C7.66 12 7 11.56 7 10.84c0-.47.3-.8.76-1.05-.27-.26-.46-.47-.46-.83 0-.6.53-.96 1.18-.96.62 0 1.19.34 1.19.94 0 .5-.34.78-.82 1.03l.75.72c.14-.23.1-.62.1-.87h1.14v.58h-.5c-.02.3-.08.48-.26.74L11 12h-.92ZM8.2 10.21c-.29.15-.51.28-.51.6 0 .4.36.6.77.6.25 0 .53-.05.72-.23l-.98-.97Zm.27-1.66c-.25 0-.48.14-.48.4 0 .25.23.43.41.59.27-.13.55-.25.55-.57 0-.26-.2-.42-.48-.42ZM13.58 10.55h-.83V12H12V8h1.58c.93 0 1.42.51 1.42 1.28s-.5 1.27-1.42 1.27Zm-.03-1.82h-.8v1.09h.8c.49 0 .7-.23.7-.53 0-.3-.2-.56-.7-.56ZM3 6h12v1H3z" fill="#fff"/></svg>