<!-- by TradingView --><svg xmlns="http://www.w3.org/2000/svg" width="18" height="18"><path fill="#F0F3FA" d="M0 0h18v18H0z"/><path d="M7.55 6H5.82l.94 1.05h1.16L7.55 6zM5.4 6H2c.49.17 1.46.55 2.61 1.05h1.75L5.4 6zm-.1 1.35l.65.3 1.04.1-.36-.4H5.3zm1.45.67l.15.08v-.01l.52.13-.13-.14-.54-.06zM9.65 14l.6-.62-.3-.72-.3.42V14zm.82-.85l.72-.76-.6-.66-.44.63.05.12.27.67zm.92-.97l.8-.84-.97-.54-.46.67.63.7zm1.02-1.07l.95-1-1.42-.37-.55.81 1.02.56zm1.18-1.24l1.01-1.06-1.89-.19-.59.86 1.47.4zm1.28-1.33L16 7.34h-2.42l-.68 1 1.97.2zM9.35 6v1.05h-1.1L7.85 6h1.5zm.46 6.32l-.16.23v-.61l.16.38zM7.03 7.35l.4.44.8.08-.2-.52h-1zm1.3.83l-.6-.06.22.25.5.13-.11-.32zm.47.41l-.13-.37.68.06v.46l-.55-.15zm-.23.25l-.25-.07.16.18.17.1-.08-.2zm.47.42l-.11-.32.42.11v.38l-.3-.17zm.2.52l-.04-.1.15.1v.14l-.11-.13zm.41 1.24l.1-.23-.1-.1v.33zm.2-.54l-.2-.23v-.31l.34.18-.13.36zm.12.56l-.17.45.21.54.37-.53-.41-.46zm.58.2l-.46-.51.17-.46.7.39-.4.58zm.57-.83l.52-.75-1.05-.28-.23.6.76.43zm-1.02-.57l.2-.54-.65-.17v.47l.45.24zm-.45-1.02l.75.2.23-.6-.98-.1v.5zm0-.8l1.09.1.29-.77H9.65V8zm-1.3-.67l.2.55.8.08v-.63h-1zm3 0l-.3.8 1.51.15.66-.95h-1.87zm1.02 1.24l-1.43-.15-.25.66 1.13.3.55-.81z" fill="url(#ad4y51kk2)"/><defs><linearGradient id="ad4y51kk2" x1="2" y1="7.92" x2="16.33" y2="7.92" gradientUnits="userSpaceOnUse"><stop stop-color="#1F4673"/><stop offset=".52" stop-color="#0281D0"/><stop offset=".53" stop-color="#224069"/><stop offset="1" stop-color="#027BC5"/></linearGradient></defs></svg>