<!-- by TradingView --><svg width="18" height="18" viewBox="0 0 18 18" xmlns="http://www.w3.org/2000/svg"><path fill="#00C1FF" d="M0 0h18v18H0z"/><path d="m6.35 13.06-.2.15A4.74 4.74 0 0 1 4.3 7.62a4.79 4.79 0 0 1 3.44-2.9A4.1 4.1 0 0 0 5.4 7.03a4.08 4.08 0 0 0 .8 4.16l.54-.33C8.37 9.86 10.9 8.28 12.65 4c-.65 3.07-1.48 5.48-5.81 8.7l-.24.18-.08.06-.17.12Zm3.75-.4a4.14 4.14 0 0 0 3.71-2.6c.09-.24.15-.48.19-.71 0 .54-.09 1.1-.29 1.64a4.8 4.8 0 0 1-6.23 2.69l-.07-.03-.17-.07.06-.05.05-.05c.4-.36.75-.7 1.1-1.03C11.3 9.68 12.49 7.7 12.74 4c.7 4-1.15 6.59-2.29 8.17l-.35.5Z" fill="#09121D"/></svg>