<!-- by TradingView --><svg width="18" height="18" viewBox="0 0 18 18" xmlns="http://www.w3.org/2000/svg"><path fill="#F0F3FA" d="M0 0h18v18H0z"/><path d="M13 5.02c-.28.35-.52.55-.77.92-.05.07-.12.06-.2.06H8.5c-.72 0-1.5.68-1.5 1.5v5.06c0 .08-.02.17-.07.23-.33.39-.58.82-.91 1.21H6V6.86c0-.13.02-.26.05-.39.03-.1.06-.21.1-.28.1-.24.47-.88 1.31-1.13.1-.03.21-.04.31-.06H13l.01.02Z" fill="url(#a4a5vvtgx)"/><path d="M14 5.02c-.28.35-.5.52-.75.9-.05.06-.1.08-.19.08H8.43c-.6 0-1.21.48-1.4 1.13C7 7.23 6.7 5.36 8.26 5H14l.01.02Z" fill="url(#b4a5vvtgx)"/><path d="M8.03 7.99C8 7.96 8 7.92 8 7.89v-.67c.01-.16.07-.22.24-.22h3.64c.04 0 .09 0 .11.04.02.05 0 .09-.03.13l-.46.51a7.8 7.8 0 0 1-.2.23.28.28 0 0 1-.22.09H8.14l-.1-.01Z" fill="url(#c4a5vvtgx)"/><path d="M10.39 9c-.32.32-.6.69-.91 1H8.2s-.2.03-.2-.19v-.62c0-.07.02-.19.2-.19h2.19Z" fill="url(#d4a5vvtgx)"/><defs><linearGradient id="a4a5vvtgx" x1="10.19" y1="5.31" x2="9.02" y2="13.33" gradientUnits="userSpaceOnUse"><stop stop-color="#5B17B7"/><stop offset=".33" stop-color="#982BDC"/><stop offset="1" stop-color="#3922B4"/></linearGradient><linearGradient id="b4a5vvtgx" x1="9.24" y1="6.05" x2="7.48" y2="6.99" gradientUnits="userSpaceOnUse"><stop stop-color="#B64AE3"/><stop offset="1" stop-color="#8F36D1"/></linearGradient><linearGradient id="c4a5vvtgx" x1="9.5" y1="7.44" x2="9.26" y2="7.89" gradientUnits="userSpaceOnUse"><stop stop-color="#AB42DD"/><stop offset="1" stop-color="#8A33D1"/></linearGradient><linearGradient id="d4a5vvtgx" x1="8.82" y1="9.13" x2="8.44" y2="10.07" gradientUnits="userSpaceOnUse"><stop stop-color="#8E36D9"/><stop offset="1" stop-color="#7229C9"/></linearGradient></defs></svg>