<!-- by TradingView --><svg width="18" height="18" fill="none" xmlns="http://www.w3.org/2000/svg"><path fill="#F50" d="M0 0h18v18H0z"/><path d="M4.914 5.569c-.001-.117 0-.247.06-.331a.57.57 0 00.02-.031c.037-.057.08-.126.208-.217-.302-.108-.47-.25-.494-.389-.063-.369.936-.708.923-.74-.013-.033-.42.012-.532.045-.565.131-.966.485-.966.93 0 .375.45.615.781.733zm3.315-.651a1.33 1.33 0 01-.61.465c.039.03.089.065.152.102.482.295 1.403-.587 1.251-.688-.11-.072-.648.07-.793.12zm1.566 1.95c-.237 1.418-2.237 1.995-2.65 2.493-.271-.171 1.302-1.609 1.54-2.113.331-.709-.04-1.185.369-1.417.344-.196.89.142.74 1.038zm-3.318.45c-.249-.263-.123-.476-.202-.542-.093-.077-.126-.194.065-.164.19.03.323-.006.441-.085.185-.124.138-.465.493-.518.355-.052.623.046.55.484-.093.573-1.004 1.187-1.347.825zm-.146-1.246c.216-.175.367-.17.43-.092.11.138-.008.39-.234.452-.063.016-.35.053-.407-.017-.059-.07.015-.185.21-.343zM5.052 7.464c-.044.077-.177.217-.295.19a.398.398 0 00-.296.046c-.079.046-.375.177-.387.027a.504.504 0 01.308-.479c.217-.085.427-.137.54-.111.111.026.261.098.13.327zm.19-1.618c.146-.053.113.065.034.17-.079.105-.04.282-.085.334-.046.053-.243.005-.303-.078-.099-.138.21-.374.355-.426zm.067-.63c.138-.104.526-.229.605-.26.078-.034.328-.165.413-.087.086.08-.098.164-.15.276-.053.111-.1.419-.086.583.013.164-.217-.066-.27-.197-.053-.13-.032-.17-.19-.124-.158.045-.46-.085-.322-.19zm2.379.347a1.644 1.644 0 01-.152-.095c-.314.085-.776.06-.814-.352-.026-.282.112-.392.3-.503-.328-.072-.913.048-1.332.237-.539.242-.559.36-.624.452-.066.092-.027.34-.046.407-.02.065-.106.17-.21.3a.526.526 0 00-.126.348.42.42 0 00.125.216c-.039.072-.177.433-.203.459-.06 0-.119.085-.145.111-.086.013-.486.177-.46.596.036.575.9.802 1.374.794a1.6 1.6 0 00.528-.12c-1.371 2.097.518 4.172 1.263 4.593-.167-.266-1.78-2.386 1.484-4.127 2.62-1.397 1.643-3.563.548-3.863-.29.452-1.009.838-1.51.547zm5.37 5.092c-.006.143.247.325.548.276.3-.05.398-.254.394-.344-.005-.133-.168-.433-.443-.536.024.328-.49.342-.5.604zm-.586-.117c-.078-.423.93-.357.673-.22 0 0-.19.095-.226.2-.098.28-.405.245-.447.02zm-.28 2.054c-.178.059-.444.074-.592.015-.25-.1.207-.103.488-.369.162-.152.208-.427.474-.25.246.163-.193.545-.37.604zm-.844-.747a.217.217 0 01.03-.246c.058-.057.165-.121.391-.137.19-.013.288-.078.33-.098.044-.02.09.43-.307.543-.215.06-.396.021-.444-.062zm-.21-1.635c.01.165-.174.28-.259.22-.085-.061-.05-.428.022-.683.216-.77.875-1.056 1.058-1.03-.013.097-.466.197-.646.569-.23.477-.185.759-.175.924zm-.84.87c-.636.804-1.902-.403-.369-1.404.477-.31.79-.747.944-.962.05.284-.423.903-.536 1.247-.2.605.26.737-.04 1.118zm-1.97 2.347c-.571-.36-.321-1.136-.262-.857.131.612.913.566 1.223.727.277.143-.3.546-.96.13zm4.13-4.605c.162.045.078.173.024.143s-.217-.005-.345.068a2.11 2.11 0 00-.409.384.498.498 0 00-.074.3c-.04-.05-.052-.165-.025-.27.04-.152.222-.379.43-.521.206-.143.398-.104.398-.104zm-.37 1.234c.129-.037.276-.132.212-.024a.49.49 0 01-.454.23c-.192-.015-.428-.177-.419-.344.009-.152.113-.162.163-.123.05.04.172.357.498.261zm1.114 2.186c.084-.283-.129-.658-.158-.707-.03-.049-.065-.083-.059-.143.004-.058.212-.27.261-.314.138.025.215-.026.248-.069a.359.359 0 00.2-.06 1.107 1.107 0 01-.19.038c-.183 0-.526-.09-.521-.328.006-.282.419-.409.511-.69 0 0 .16-.026.361.28 0-.178-.095-.273-.175-.34-.099-.084-.281-.045-.281-.045-.271-.25-.488-.196-.582-.192-.118.007-.261.084-.41.123l.074-.127a.161.161 0 01-.041.005.049.049 0 01-.017-.004l.004.002a.557.557 0 01-.069.08c-.103.093-.108.094-.25.138-.143.044-.395-.064-.41-.217-.015-.151.128-.274.36-.496.232-.221.44-.152.513-.122 0 0 .121.067.12.14.013 0 .027.006.039.011a.482.482 0 00-.272-.525c-.133-.064-.272.093-.267.059.005-.034.138-.634-.079-1.313-.315-.889-1.024-1.62-2.12-2.058.55.337 2.114 2.649-1.015 4.281-2.872 1.498-1.966 3.318-1.045 3.872-1.915-.467-3.336-2.177-3.336-4.217 0-.228.018-.451.052-.67-.088-.015-.23-.21-.326-.185a4.637 4.637 0 00-.078.855c0 2.592 2.123 4.694 4.742 4.694a4.81 4.81 0 001.11-.13c-.1-.1-.166-.205-.225-.303l-.016-.032c-.263-.538.131-1.285.131-1.285s.8.586 1.172.56c.04.053.256.399.155.766.337-.089.724-.21.99-.36.104.08.32.207.415.252.277.133.459.08.533-.009.064-.076.137-.58-.196-.9.065-.102.114-.207.146-.315zm-2.095.645c-.41.02-1.035-.349-1.035-.349-.015.024-.286.535-.114.954.173.417.656.495.883.421.252-.08.581-.412.266-1.026zM7.655 4.024c.056.176-.079.387-.38.57-.303.183-.473.268-.441.51.013.104.092.362.552.283.46-.079.762-.38.953-.753.19-.374.205-.948-.676-1.106-.717-.117-1.234.138-1.234.163.013.053 1.08-.126 1.226.333zm5.713 5.579c0-.018.01-.217.01-.299 0-2.321-1.84-4.217-4.155-4.338.053-.08.102-.214.14-.34 2.444.189 4.367 2.211 4.367 4.678 0 .117-.017.402-.02.428-.078-.077-.234-.02-.342-.13z" fill="#fff"/></svg>