<!-- by TradingView --><svg width="18" height="18" viewBox="0 0 18 18" xmlns="http://www.w3.org/2000/svg"><path fill="#F0F3FA" d="M0 0h18v18H0z"/><path d="M8.5 3c1.86 0 3.2 2.46 3.46 3.6-.71-1.48-1.65-2.33-2.48-2.33-.84 0-2.63 1.19-2.68 3.94-.04 2.2 1.65 4.2 2.5 4.92-.58-.38-2.78-2.17-2.95-4.5a7.28 7.28 0 0 1 1.36-4.36 5.08 5.08 0 0 0-1.75 3.65A7.08 7.08 0 0 0 9 14c-2.97-1.43-3.64-4.8-3.51-6.37C5.8 3.97 7.53 3 8.49 3Z" fill="#C9C9C9"/><path d="M14.79 11.88c-1.06 1.4-3.57 1.37-4.75.92 1.75.3 2.84-.55 3.04-.92.6-1.1.06-1.81-2.4-3.4C8.7 7.2 5.3 7.14 3.61 7.6c.98-.64 4.66-.78 6.92.3 1.1.53 2.72 1.57 3.37 2.54-.6-1.37-2.16-2.14-2.86-2.54C8.07 6.16 4.21 6.34 3 6.76c2.98-1.42 7.14.06 8.64.84 3.38 1.74 3.69 3.56 3.15 4.28Z" fill="#C9C9C9"/><path d="M11.59 5.58c-.64-1.03-1.76-2.34-3.08-2.4-1.85-.08-2.76 2.88-3.05 4.86 0-.15 0-.29.02-.41C5.8 3.97 7.53 3 8.49 3c1.41 0 2.53 1.4 3.1 2.58Z" fill="#9C9C9C"/><path d="M10.04 12.8c1.18.45 3.69.48 4.75-.92.27-.36.33-1-.12-1.79.11.64.04 1.4-.57 1.99-.7.68-1.93.81-2.94.76-.34.04-.7.03-1.12-.04Z" fill="#060606"/><path d="M3.08 11.86c-.06-1.4 1-2.63 1.53-3.07-1.04 1.46-.85 2.17-.4 2.62.44.45 1.45.91 4.76-.56 2.65-1.17 3.83-3.16 4.1-4-.19.88-.28 1.57-2.63 3.55-1.87 1.59-4.67 2-5.83 2 .98.2 3.05.13 6.2-1.8 2.53-1.54 3.34-3.33 3.42-4.03 0 .88-.28 1.75-2.51 3.83a12.34 12.34 0 0 1-5.43 2.7c-1.05.17-3.16.16-3.21-1.24Z" fill="#C9C9C9"/><path d="M3.45 10.26c-.24.48-.4 1.03-.38 1.6.06 1.4 2.17 1.41 3.22 1.25.93-.19 3.02-.85 4.73-2.12-4.35 2.34-6.69 2.11-7.41 1.38-.47-.48-.35-1.44-.16-2.1Z" fill="#D46C47"/></svg>