<!-- by TradingView --><svg width="18" height="18" viewBox="0 0 18 18" xmlns="http://www.w3.org/2000/svg"><path fill="url(#afd3hkxkj)" d="M0 0h18v18H0z"/><path d="M10 6v6H9V6h1Z" fill="#34E834"/><path d="M4 10v2H3v-2h1ZM6 8v4H5V8h1ZM8 9v3H7V9h1Z" fill="#fff"/><path d="M15 9.67c-.1 1.4-.75 2.33-1.92 2.33C11.83 12 11 10.8 11 9c0-1.67.8-3 2.11-3 1.03 0 1.79.82 1.86 2h-.92c-.1-.63-.45-1-.96-1C12.27 7 12 8.04 12 9c0 1.18.39 2 1.08 2 .57 0 .9-.5.98-1.33H15Z" fill="#34E834"/><defs><linearGradient id="afd3hkxkj" x1="3.35" y1="3.12" x2="21.9" y2="24.43" gradientUnits="userSpaceOnUse"><stop stop-color="#1A1E21"/><stop offset="1" stop-color="#06060A"/></linearGradient></defs></svg>