<!-- by TradingView --><svg width="18" height="18" fill="none" xmlns="http://www.w3.org/2000/svg"><path fill="url(#a)" d="M0 0h18v18H0z"/><path fill-rule="evenodd" clip-rule="evenodd" d="M4 4.25A.25.25 0 0 1 4.25 4h2.5a.25.25 0 0 1 .25.25v2.5a.25.25 0 0 1-.25.25h-2.5A.25.25 0 0 1 4 6.75v-2.5Zm7 0a.25.25 0 0 1 .25-.25h2.5a.25.25 0 0 1 .25.25v2.5a.25.25 0 0 1-.25.25h-2.5a.25.25 0 0 1-.25-.25v-2.5ZM7.332 7A.332.332 0 0 0 7 7.332v3.336c0 .183.149.332.332.332h3.336a.332.332 0 0 0 .332-.332V7.332A.332.332 0 0 0 10.668 7H7.332ZM4 11.25a.25.25 0 0 1 .25-.25h2.5a.25.25 0 0 1 .25.25v2.5a.25.25 0 0 1-.25.25h-2.5a.25.25 0 0 1-.25-.25v-2.5Zm7.25-.25a.25.25 0 0 0-.25.25v2.5c0 .139.111.25.25.25h2.5a.25.25 0 0 0 .25-.25v-2.5a.25.25 0 0 0-.25-.25h-2.5Z" fill="#fff"/><defs><linearGradient id="a" x1="3.349" y1="3.122" x2="21.904" y2="24.434" gradientUnits="userSpaceOnUse"><stop stop-color="#1A1E21"/><stop offset="1" stop-color="#06060A"/></linearGradient></defs></svg>