<!-- by TradingView --><svg width="18" height="18" viewBox="0 0 18 18" xmlns="http://www.w3.org/2000/svg"><path fill="#F0F3FA" d="M0 0h18v18H0z"/><path d="M5.74 5.76c-.2-.81.34-1.63 1.16-1.75a1.4 1.4 0 0 1 1.58 1.34l.05 1.16c.28-.02.56-.02.84 0l.05-1.16A1.4 1.4 0 0 1 11 4.01c.82.12 1.36.94 1.15 1.75l-.33 1.33c1.26.58 2.1 1.54 2.18 2.64v.96C13.94 12.53 11.72 14 9 14c-2.7 0-4.9-1.45-5-3.27v-.85c0-1.13.82-2.14 2.09-2.75l-.35-1.37Z" fill="#CA7D45"/><path d="m8.13 6.96-.06-1.59a.98.98 0 0 0-1.11-.94.99.99 0 0 0-.81 1.23l.42 1.7-.3.15c-1.19.58-1.85 1.46-1.85 2.37v.83c.04.73.5 1.44 1.33 1.98a6 6 0 0 0 3.25.89c1.3 0 2.44-.35 3.27-.9.83-.55 1.29-1.27 1.31-2v-.92c-.06-.88-.75-1.74-1.93-2.29l-.32-.15.42-1.66a.99.99 0 0 0-.8-1.23.98.98 0 0 0-1.12.94l-.06 1.58-.42-.02a7.07 7.07 0 0 0-.8 0l-.42.03ZM14 9.73v.97c-.06 1.83-2.28 3.3-5 3.3-2.7 0-4.9-1.45-5-3.27v-.85c0-1.13.82-2.14 2.09-2.75l-.35-1.37c-.2-.81.34-1.63 1.16-1.75a1.4 1.4 0 0 1 1.58 1.34l.05 1.16c.28-.02.56-.02.84 0l.05-1.16A1.4 1.4 0 0 1 11 4.01c.82.12 1.36.94 1.15 1.75l-.33 1.33c1.26.58 2.1 1.54 2.18 2.64Z" fill="#522D0B"/><path d="M9 13.58c2.58 0 4.67-1.42 4.67-3.17S11.57 7.24 9 7.24c-2.58 0-4.67 1.42-4.67 3.17s2.1 3.17 4.67 3.17Z" fill="#FBD984"/><path d="M9 12.87c2.58 0 4.67-1.29 4.67-2.88 0-1.6-2.1-2.88-4.67-2.88-2.58 0-4.67 1.29-4.67 2.88 0 1.6 2.1 2.88 4.67 2.88Z" fill="#CA7D45"/><path d="M7.04 10.73c.3 0 .54-.38.54-.85s-.24-.85-.54-.85c-.3 0-.54.38-.54.85s.24.85.54.85ZM10.96 10.73c.3 0 .54-.38.54-.85s-.24-.85-.54-.85c-.3 0-.54.38-.54.85s.24.85.54.85Z" fill="#522D0B"/></svg>