<!-- by TradingView --><svg width="18" height="18" fill="none" xmlns="http://www.w3.org/2000/svg"><path fill="#F0F3FA" d="M0 0h18v18H0z"/><path fill-rule="evenodd" clip-rule="evenodd" d="M6.254 4.004c1.908.043 5.479.865 7.202 1.924 1.724 1.06 1.58 2.314.657 3.87-.924 1.557-2.627 3.438-4.227 4-1.6.584-3.119-.13-4.104-1.751-.964-1.6-1.415-4.151-1.518-5.773-.123-1.621.103-2.335 1.99-2.27Z" fill="#0064FA"/><path d="M10.175 10.262c.742 0 1.547-.288 1.867-1.009.299-.598.335-1.484.097-2.102-.26-.848-1.127-1.167-1.944-1.167H6.887l-.37 1.012h3.657c.644 0 1.011.393 1.011 1.031 0 .175-.02.33-.058.467-.126.44-.505.768-.953.768H9V7.443H8v4.573h1v-1.754h1.175Z" fill="#fff"/></svg>