<!-- by TradingView --><svg width="18" height="18" viewBox="0 0 18 18" xmlns="http://www.w3.org/2000/svg"><path fill="#FF7028" d="M0 0h18v18H0z"/><path d="M11.19 4H5.56l.86 1.77C6.79 6.53 7.52 7 8.32 7H14c0-1.66-1.26-3-2.81-3Z" fill="url(#adwkl2q5f)"/><path d="M11.19 10H5.67l.75-1.77A2.13 2.13 0 0 1 8.32 7H14c0 1.66-1.26 3-2.81 3Z" fill="url(#bdwkl2q5f)"/><path d="M5.95 9.32 4 14h2.4c.8.02 1.55-.5 1.93-1.41l1.3-3.17-3.68-.1Z" fill="url(#cdwkl2q5f)"/><path d="M10.84 7H8.32c-.76 0-1.45.42-1.84 1.11l-.53 1.2-.29.69H9.4l1.44-3Z" fill="#fff"/><path d="M9.4 10H5.66a3.62 3.62 0 0 1 3 1.78L9.4 10Z" fill="url(#ddwkl2q5f)"/><defs><linearGradient id="adwkl2q5f" x1="6.25" y1="5.5" x2="13.48" y2="5.5" gradientUnits="userSpaceOnUse"><stop stop-color="#FFFBF9"/><stop offset="1" stop-color="#FFBA97"/></linearGradient><linearGradient id="bdwkl2q5f" x1="13.74" y1="8.04" x2="9.49" y2="8.07" gradientUnits="userSpaceOnUse"><stop stop-color="#FFFDFC"/><stop offset=".75" stop-color="#FFE2D4"/></linearGradient><linearGradient id="cdwkl2q5f" x1="5.23" y1="10.82" x2="8.58" y2="11.61" gradientUnits="userSpaceOnUse"><stop stop-color="#fff"/><stop offset="1" stop-color="#FFCBB1"/></linearGradient><linearGradient id="ddwkl2q5f" x1="6.4" y1="10" x2="8.92" y2="10.66" gradientUnits="userSpaceOnUse"><stop stop-color="#FF8446"/><stop offset="1" stop-color="#FFBFA0"/></linearGradient></defs></svg>