<!-- by TradingView --><svg xmlns="http://www.w3.org/2000/svg" width="18" height="18" viewBox="0 0 18 18"><path fill="#F0F3FA" d="M0 0h18v18H0z"/><path d="M14.29 10.7a5.48 5.48 0 0 0-2.8-6.3 4 4 0 0 1-1.16 1.68 5.7 5.7 0 0 1 3.79 2.05l-1.53-1.02.22.35a5.04 5.04 0 0 0-1.96-.47 3.88 3.88 0 0 1 3.44 3.72zm-2.08 3.01a5.48 5.48 0 1 1-1.32-9.58c-.23.42-.84 1.1-1.22 1.24 0-.3-.21-.52-.32-.6-.13.3-.45.83-1.62 1.2-.68.23-.71 1.06-.18 1.14-.13 0-.41-.04-.5-.12-.05.12-.87.78-1.06.51A.53.53 0 0 1 5.94 7c-.45.3-1.26 1.2-.84 2.27.08-.04.16-.1.25-.17.4-.3 1.04-.76 2.07-.85 1.02-.08 1.8.1 2.07.21-.11-.19-.43-.6-.85-.78 1.9-.38 6.16 2.07 3.57 6.04z" fill="#418ACA"/><path d="M8.46 6.46c-.2.24-.58.36-.77.36 0-.32.25-.45.58-.53.1-.02.26-.05.43-.17-.03.02-.1.16-.24.34z" fill="#418ACA"/><path d="M9.25 11.26c.91-1.05.27-1.9-.15-2.15l2.27.77c.3.65.84 2.06.17 3.01-1.01 1.44-3.5 1.97-5.61.9-1.53-.77-2.4-2.97-2.4-4.45.1.25.5.98 1.24 1.82.92 1.05 3.34 1.42 4.48.1z" fill="#161F42"/><path d="M10.03 11.13a1.76 1.76 0 0 0-.67-2l.2.08 1.42.56.63 1.3-.77 3c-1.38.07-3.88.17-2.8 0a3.73 3.73 0 0 0 2.67-1.67c.26-.5.2-1.1.13-1.33l-.23-.25-.06.47-.17.07c.03-.14.06-.32.07-.51l-.42.28z" fill="#0E1F66"/><path d="M6.82 9.74c-.84-.13-1.27-.54-1.38-.72a4.32 4.32 0 0 1 4.04-.58c-.13-.2-.27-.4-.9-.81 4.47-.35 6.06 5.08 2.9 6.57a5.62 5.62 0 0 1-5.8-.55c4.07 1.6 6.17-1.73 5.48-3.06-.1.22-.38.71-.82.9.45-2.54-2.06-2.69-3.37-2.44-.27.14-.47.29-.15.69z" fill="#232C66"/><path d="M12.26 13.67c1.8-2.88-1.27-5.55-3.03-5.55-.46-.4-.64-.49-.64-.49 4.56-.26 5.47 4.46 3.67 6.04zM12.6 7.65a5 5 0 0 0-1.8-.67c.92 0 1.65.25 2 .47-.03-.05-.09-.15-.28-.38.5.12 1.31.77 1.6 1.06-.27-.13-.97-.4-1.52-.48zM11.72 3.25c0 2.53-1.76 3.1-2.52 3.45.2-.2.32-.38.34-.7.7-.2 1.17-.71 1.56-1.35-.08.1-.29.17-.39.2a2.8 2.8 0 0 0 1-1.6zM8.96 5.92c-.2.86-.93.96-1.27.9.62-.07.78-.43.84-.6.04-.02.11-.04.43-.3zM5.87 7.73c-.23 0-.34.28-.38.43.06-.12.2-.34.34-.33.14 0 .14.14.13.2.06-.1.13-.3-.1-.3z" fill="#161F42"/></svg>