<!-- by TradingView --><svg xmlns="http://www.w3.org/2000/svg" width="18" height="18"><path fill="#131B35" d="M0 0h18v18H0z"/><path d="M13.38 11.69V7.5l.62-.3V12l-5 3-5-3V6l5-3 3.96 2.38-.52.3-3.44-2-4.38 2.65v5.36L9 14.33l4.38-2.64zm-3.29-.02h1.1l-.78-1.34c-.3.17-.47.17-.94.17l.62 1.17zm2.87-5.04l.51.3.52-.3V6l-.52-.3-.51.3v.63zm-3.42-.3a1.83 1.83 0 110 3.67H8.1v1.67h-1V9h2.45a.83.83 0 100-1.67H7.13v-1h2.41z" fill="url(#amk1ii44m)"/><defs><linearGradient id="amk1ii44m" x1="14.15" y1="5.9" x2="3.39" y2="9.97" gradientUnits="userSpaceOnUse"><stop stop-color="#C200FB"/><stop offset=".49" stop-color="#3772FF"/><stop offset=".49" stop-color="#3773FE"/><stop offset="1" stop-color="#5AC4BE"/></linearGradient></defs></svg>