<!-- by TradingView --><svg width="18" height="18" xmlns="http://www.w3.org/2000/svg"><path fill="url(#paint0_linear)" d="M0 0h18v18H0z"/><path d="M22.5 0h-27v9h27V0z" fill="url(#paint1_linear)"/><path d="M4.953 6.256c-.324-.155-.468-.26-.468-.493 0-.172.122-.36.405-.36.09 0 .175.005.449.093.018.006.036-.005.04-.027.005-.022.077-.338.081-.366.005-.017-.004-.039-.018-.045h-.004c-.274-.094-.409-.105-.54-.105-.525 0-.857.372-.857.86 0 .432.256.693.656.87.31.139.43.272.43.499 0 .244-.156.41-.444.41-.085 0-.216-.005-.548-.127a.032.032 0 00-.04.022L4 7.853c-.004.016 0 .039.018.044h.005c.341.133.507.144.629.144.629 0 .93-.421.93-.903 0-.422-.212-.688-.63-.882zm2.695-1.225c-.004-.017-.018-.022-.031-.022H7.1c-.013 0-.027.005-.031.022 0 .022-.746 2.894-.75 2.916-.005.022.004.044.017.05h.396c.018 0 .036-.017.04-.039.01-.028.167-.676.167-.676h.83l.176.687c.004.017.018.034.031.034h.41c.017 0 .03-.012.03-.034v-.016a540.32 540.32 0 00-.768-2.922zm-.647 1.885s.176-.754.212-.915c.054-.233.094-.438.112-.532.009-.04.022-.04.031 0 .023.1.068.316.122.532.072.305.22.915.22.915H7zm3.47-.405a.22.22 0 01.004-.205l.534-1.23c.018-.04.01-.067-.022-.067h-.373c-.023-.006-.045.01-.054.033-.01.028-.297.726-.44 1.07-.023.055-.04.055-.063 0-.176-.45-.405-1.026-.418-1.06-.014-.032-.036-.049-.068-.043h-.413c-.031 0-.05.022-.031.06.018.04.557 1.204.575 1.237a.22.22 0 01.004.21l-.61 1.42c-.014.033 0 .055.022.055h.4c.022.006.044-.016.053-.044l.477-1.17c.018-.044.045-.044.063 0l.476 1.17c.013.033.027.044.045.044h.436c.027 0 .04-.016.027-.055-.014-.039-.594-1.353-.625-1.425zm2.443-1.541c-.692 0-1.087.665-1.087 1.497 0 .887.346 1.58 1.087 1.58.742 0 1.088-.693 1.088-1.58 0-.832-.396-1.497-1.088-1.497zm0 2.65c-.508 0-.615-.588-.615-1.159 0-.549.13-1.07.615-1.07.486 0 .611.527.611 1.076.005.565-.103 1.153-.61 1.153zm-1.941 2.386h-.332c-.018 0-.032.016-.032.038v1c0 .434.014.978.041 1.378 0 .028-.004.022-.009 0L9.62 10.033c-.005-.01-.018-.022-.027-.022H9.04c-.019 0-.032.017-.032.039v2.911c0 .022.013.039.032.039h.344c.018 0 .032-.017.032-.039v-1.044c0-.473-.01-1.061-.027-1.456 0-.017.004-.022.009 0 .246.82 1.053 2.489 1.057 2.506.005.016.018.022.032.022h.481c.018 0 .032-.017.032-.039v-2.911c.005-.017-.01-.033-.027-.033zm-3.365.022c-.005-.017-.018-.028-.032-.022h-.521a.035.035 0 00-.032.022l-.762 2.916a.049.049 0 00.018.05h.4c.017 0 .035-.016.04-.038.01-.028.168-.678.168-.678h.839s.172.666.176.689c.005.016.019.033.032.033h.413c.013 0 .032-.011.032-.028v-.016c0-.04-.767-2.912-.771-2.928zm-.653 1.889s.177-.756.213-.917c.054-.233.095-.439.113-.539.01-.039.023-.039.032 0 .023.106.068.317.122.533.073.306.223.917.223.917l-.703.006zm7.041 1.039l-1.13-1.55s1.03-1.323 1.049-1.356c.018-.033.004-.05-.023-.05h-.399c-.032 0-.036.006-.059.039-.022.033-.936 1.211-.954 1.239-.018.028-.045.033-.045-.028v-1.211c0-.022-.005-.039-.027-.039h-.377c-.023 0-.027.011-.027.039v2.911c0 .028.009.039.032.039h.372c.018 0 .027-.017.027-.039v-1.394c0-.056.022-.067.045-.028.023.039.963 1.389.981 1.422.014.028.037.044.06.039h.448c.037.005.037-.011.027-.033zm-8.923-1.573c-.018 0-.018-.01 0-.022a.733.733 0 00.472-.722c0-.406-.3-.633-.712-.633H4.03c-.018 0-.032.016-.032.038v2.917c0 .022.01.039.028.039h.734c.576 0 .93-.367.93-.883-.005-.45-.322-.7-.617-.734zm-.626-1.022h.25c.213 0 .399.128.399.389a.5.5 0 01-.504.506h-.15v-.895h.005zm.245 2.272h-.245v-1.027h.24c.268 0 .5.16.5.51 0 .334-.223.517-.495.517z" fill="#fff"/><defs><linearGradient id="paint0_linear" x1="3.349" y1="3.122" x2="21.904" y2="24.434" gradientUnits="userSpaceOnUse"><stop stop-color="#1A1E21"/><stop offset="1" stop-color="#06060A"/></linearGradient><linearGradient id="paint1_linear" x1="8.998" y1="8.91" x2="8.999" y2="-5.515" gradientUnits="userSpaceOnUse"><stop stop-color="#20A9EC"/><stop offset=".543" stop-color="#17317E"/><stop offset="1" stop-color="#040347"/></linearGradient></defs></svg>