<!-- by TradingView --><svg width="18" height="18" xmlns="http://www.w3.org/2000/svg"><path fill="url(#paint0_linear)" d="M0 0h18v18H0z"/><path d="M8.455 7.79c.244.426-.302.558-.558.582-.388.038-.468-.184-.392-.463a.5.5 0 01.436-.378.546.546 0 01.514.259zM9.977 7.001c-.283 2.153 3.54 1.705 3.467 3.418.377-.487.539-1.808-.571-2.489-.99-.606-2.278-.274-2.896-.929zM12.18 6.19l-.076-.068c.025.023.05.047.075.068z" fill="#fff"/><path d="M13.068 7.759l-.003-.004a1.424 1.424 0 00-.117-.182.949.949 0 00-.524-.352 2.257 2.257 0 00-.427-.066c-.146-.01-.295-.017-.445-.025a4.169 4.169 0 01-.912-.132 2.562 2.562 0 01-.447-.17 1.908 1.908 0 01-.391-.281c-.232-.214-.415-.458-.598-.693a8.209 8.209 0 00-.554-.681 2.524 2.524 0 00-.679-.527 2.36 2.36 0 00-.844-.239c.305-.033.614.004.902.11.291.111.557.279.783.493.148.137.286.284.415.439.958-.187 1.734-.021 2.331.301l.014.007a2.942 2.942 0 01.606.434c.127.116.246.24.354.374l.008.01c.353.444.527.904.528 1.184zM13.067 7.758l-.002-.004.002.004zM7.175 4.684c.244.035.494.132.654.316.16.184.22.424.267.651.037.177.067.357.137.524.034.082.084.153.125.23.035.064.097.122.121.19a.06.06 0 01-.007.061c-.085.094-.315-.01-.402-.052a1.306 1.306 0 01-.395-.3c-.348-.383-.528-.935-.517-1.438.002-.06.008-.121.017-.182zM11.261 9.01c-.527 1.461 1.867 2.442.97 3.928.92-.377 1.357-1.516.975-2.42-.334-.794-1.322-1.083-1.944-1.509zM8.095 10.921a2.09 2.09 0 01.468-.264 2.74 2.74 0 01.522-.15c.355-.066.706-.083 1.001-.2.146-.057.28-.14.396-.244a.962.962 0 00.25-.374c.054-.15.075-.31.064-.47a1.707 1.707 0 00-.116-.499 1.142 1.142 0 01.296 1.039 1.08 1.08 0 01-.288.514c-.14.138-.31.242-.496.307-.178.062-.363.1-.551.112-.181.015-.356.02-.528.03a3.426 3.426 0 00-1.018.2zM11.472 13.49c-.053.043-.106.087-.165.126-.059.039-.12.073-.184.102a.963.963 0 01-.428.096c-.4-.007-.684-.304-.85-.639-.113-.228-.191-.474-.326-.692-.192-.31-.52-.561-.905-.515a.527.527 0 00-.39.225c-.23.353.1.847.52.777a.378.378 0 00.196-.084.416.416 0 00.127-.184.425.425 0 00.018-.233.32.32 0 00-.135-.2c.08.038.144.105.175.188a.526.526 0 01-.209.614.664.664 0 01-.428.093.787.787 0 01-.38-.164c-.13-.101-.226-.235-.343-.35a1.629 1.629 0 00-.469-.338 1.755 1.755 0 00-.377-.117 2.53 2.53 0 00-.197-.031c-.03-.003-.178-.035-.199-.016.204-.187.427-.352.664-.494.244-.144.505-.255.778-.33.283-.08.58-.102.87-.067.151.018.298.056.438.112.147.059.282.142.4.246.118.109.212.24.279.385a2 2 0 01.134.423c.086.435.054 1.11.629 1.21.03.005.06.01.09.012l.094.002c.065-.004.129-.013.192-.027.13-.03.259-.074.381-.13zM8.136 13.017l-.016-.012.016.012zM7.62 6.875a.627.627 0 01-.107.22.87.87 0 01-.358.271c-.127.055-.261.09-.398.104l-.09.009a.41.41 0 00-.379.299c-.01.042-.018.084-.023.126-.014.11-.016.225-.028.363-.03.236-.098.465-.203.678-.137.285-.29.515-.254.843.023.214.133.357.28.504.263.268.854.388.722 1.048-.08.394-.738.807-1.663.952.092-.014-.118-.365-.131-.388-.1-.154-.208-.3-.287-.466a1.767 1.767 0 01-.162-1.056c.066-.374.345-.66.577-.946.276-.34.566-.786.63-1.228.015-.107.025-.24.05-.374.023-.147.07-.29.138-.423a.86.86 0 01.181-.233.232.232 0 00.046-.283L4.686 4.263l2.118 2.594a.264.264 0 00.314.076.264.264 0 00.092-.067.177.177 0 00.005-.225c-.138-.175-.284-.354-.426-.53l-.533-.655-1.07-1.307-1.46-1.817 1.597 1.7 1.14 1.25.567.626c.189.21.377.414.566.636l.03.037.008.058a.682.682 0 01-.014.236z" fill="#fff"/><defs><linearGradient id="paint0_linear" x1="3.349" y1="3.122" x2="21.904" y2="24.434" gradientUnits="userSpaceOnUse"><stop stop-color="#1A1E21"/><stop offset="1" stop-color="#06060A"/></linearGradient></defs></svg>