<!-- by TradingView --><svg width="18" height="18" viewBox="0 0 18 18" xmlns="http://www.w3.org/2000/svg"><path fill="#F0F3FA" d="M0 0h18v18H0z"/><circle cx="9" cy="9" r="6" fill="url(#a3kp2pmyr)"/><path fill-rule="evenodd" d="M9 14.25a5.25 5.25 0 1 0 0-10.5 5.25 5.25 0 0 0 0 10.5ZM9 15A6 6 0 1 0 9 3a6 6 0 0 0 0 12Z" fill="#FFC202"/><path d="M9.44 11h-.88v.46c-.34.05-.67.14-.97.27l-.34-.51-.74.55.3.46a2.6 2.6 0 0 0-.71 1l-.38-.26-.44.65.66.44.04-.06h.83c.04-.83.88-1.69 2.19-1.69 1.3 0 2.15.86 2.19 1.69h.87l-.01-.17.01.01.66-.43-.44-.66-.45.3a2.64 2.64 0 0 0-.64-.82l.3-.46-.74-.55-.34.51c-.3-.13-.63-.22-.97-.27V11ZM8.26 5.56H7l1.05.88L7.63 8l1.26-.89 1.27.89-.42-1.56L11 5.56H9.53L8.89 4l-.63 1.56Z" fill="#FFC202"/><path fill="#FFC202" fill-opacity=".7" d="M6 9h6v1H6z"/><path d="M6.88 5.03a4.5 4.5 0 0 0-.86 7.34l.07-.63a3.99 3.99 0 0 1 .72-6.08l.07-.63Zm5.03 6.71a3.99 3.99 0 0 0-.72-6.08l-.07-.63a4.5 4.5 0 0 1 .86 7.34l-.07-.63Z" fill="#FFC202" fill-opacity=".6"/><defs><linearGradient id="a3kp2pmyr" x1="5.25" y1="4.5" x2="12.75" y2="13.31" gradientUnits="userSpaceOnUse"><stop stop-color="#EE978E"/><stop offset=".66" stop-color="#D8312A"/><stop offset="1" stop-color="#FD281A"/></linearGradient></defs></svg>