<!-- by TradingView --><svg width="18" height="18" viewBox="0 0 18 18" xmlns="http://www.w3.org/2000/svg"><path fill="#F0F3FA" d="M0 0h18v18H0z"/><circle cx="9" cy="9" r="5" fill="#EDF268"/><path fill-rule="evenodd" d="M9 13.94a4.94 4.94 0 1 0 0-9.88 4.94 4.94 0 0 0 0 9.88ZM9 14A5 5 0 1 0 9 4a5 5 0 0 0 0 10Z" fill="#04003A"/><path d="M7 12V9h-.5v3H7ZM8 12.5v-5h-.5v5H8ZM11 12.5v-5h-.5v5h.5ZM10 12.59V7h-.5v5.59h.5ZM9 12.68V6.5h-.5v6.18H9ZM7 12.47V6h.06v6.47H7ZM8 12.65V5h.06v7.65H8ZM9 12.65V5h.06v7.65H9ZM10 12.65V5h.06v7.65H10ZM11 12.65V5h.06v7.65H11Z" fill="#04003A"/><path d="M12.47 9.66a3.53 3.53 0 0 1-6.94 0A5.88 5.88 0 0 1 4.3 9.1 4.7 4.7 0 0 0 13.7 9v-.01a8.36 8.36 0 0 0-1.2-.47 5 5 0 0 0-1.44-.26c-.48 0-1.13.1-1.81.2-.78.12-1.6.25-2.3.25-.76 0-1.17-.21-1.41-.4a3.53 3.53 0 0 1 6.92 0c.56.15.98.33 1.24.47a4.7 4.7 0 0 0-9.4.16 5.6 5.6 0 0 0 2.65.8c.7 0 1.44-.13 2.14-.25.61-.1 1.2-.2 1.68-.2.57 0 1.22.2 1.7.37Z" fill="#04003A"/></svg>