<!-- by TradingView --><svg width="18" height="18" viewBox="0 0 18 18" xmlns="http://www.w3.org/2000/svg"><path fill="#F0F3FA" d="M0 0h18v18H0z"/><ellipse cx="9.01" cy="8.56" rx="5.64" ry="5.56" fill="#CE1126"/><path d="M9.01 13.97c3.04 0 5.5-2.42 5.5-5.41A5.45 5.45 0 0 0 9 3.15a5.45 5.45 0 0 0-5.5 5.4 5.45 5.45 0 0 0 5.5 5.42ZM5.03 6.82C5.36 6 6.63 4.32 9 4.27a4.43 4.43 0 0 1 4 2.55c.28.7.2 2.86-.94 3.27-.05-.42-.38-1.34-1.29-1.63.6.5 1.51 1.84.39 3.1-.09.18-.17.6.21.83.4-.13 1.12-.31.93 0-.19.3-.84.18-1.14.08A7.87 7.87 0 0 0 9 12.09c-.8 0-1.77.25-2.15.38-.3.1-.95.22-1.14-.08-.2-.31.54-.13.92 0 .38-.23.3-.65.22-.83-1.12-1.26-.21-2.6.39-3.1-.92.29-1.25 1.2-1.3 1.63-1.22-.83-1.31-2.32-.92-3.27Z" fill="#FCD316"/><path d="M3.16 9.17c-.4-1.33.02-1.7.27-1.72l.11.88-.38-.29v.29L5 9.36v1.02l-1.84-1.2ZM14.84 9.17c.39-1.33-.02-1.7-.27-1.72l-.11.88.38-.29v.29L13 9.36v1.02l1.84-1.2Z" fill="#CE1126"/><path d="M4.56 12.37c-.65-.04-.55-.73-.42-1.07l1.9.4c-.22.25-.83.71-1.48.67ZM13.43 12.42c.65-.04.55-.73.41-1.07l-1.9.4c.22.25.84.71 1.49.67ZM10.85 11.7c0 .99-.82 1.8-1.83 1.8-1.02 0-1.83-.81-1.83-1.8 0-1 .81-1.81 1.83-1.81 1 0 1.83.8 1.83 1.8Z" fill="#FCD316"/><path d="M6.92 13.86 4.38 12.4c.18 0 .62-.04.94-.18.32-.14.84-.43 1.06-.56.47.34.2.52 0 .56-.02-.05-.13-.15-.44-.15-.3 0-.38.22-.38.33.2.5.85.31 1.15.15 2-.81 3.79-.33 4.57 0 .78.33 1.2.1 1.2-.15 0-.2-.26-.3-.39-.33l-.65.15c-.15-.17.05-.99.65-.36.49.5 1.14.57 1.4.54l-2.39 1.47H6.92Z" fill="#CE1126"/><path d="m5.87 13.17-.2 1.66c2.54-1.2 5.54-.5 6.73 0l-.3-1.66-.4-.2-.42.52c-1.6-.67-3.78-.28-4.54 0l-.46-.52-.41.2Z" fill="#FCD316"/><path d="m11.67 12.85.53.26.32 1.89-.16-.08a9.4 9.4 0 0 0-2.83-.63 7.66 7.66 0 0 0-3.81.63l-.17.08.23-1.9.53-.25.46.52a7.8 7.8 0 0 1 1.92-.33c.82-.05 1.76.01 2.56.33l.42-.52Zm-5.7.39-.18 1.43a7.95 7.95 0 0 1 3.76-.57c1.12.08 2.1.34 2.72.58l-.25-1.44-.3-.14-.4.5-.07-.02a7.37 7.37 0 0 0-4.47 0l-.06.02-.46-.5-.3.14Z" fill="#CE1126"/><path fill-rule="evenodd" d="M9.01 12.67a1 1 0 0 0 1-.98 1 1 0 0 0-1-.98 1 1 0 0 0-1 .98 1 1 0 0 0 1 .98Zm0 .3c.72 0 1.3-.57 1.3-1.28 0-.7-.58-1.28-1.3-1.28-.72 0-1.3.57-1.3 1.28 0 .71.58 1.28 1.3 1.28Z" fill="#CE1126"/><path d="m9 4.65.41 1.24h1.34l-1.08.78.4 1.25L9 7.14l-1.08.78.41-1.25-1.08-.78H8.6L9 4.65Z" fill="#FCD316"/></svg>