<!-- by TradingView --><svg width="18" height="18" fill="none" xmlns="http://www.w3.org/2000/svg"><path fill="url(#a)" d="M0 0h18v18H0z"/><path d="M4 6h1.583l1.12 3.433c.074.226.136.474.136.474s.097-.269.196-.482l.613-1.473c.096-.207.257-.384.461-.508.204-.125.444-.194.689-.194.244 0 .484.07.688.194.205.124.365.3.462.508l1.5 3.33V12h-.978a.88.88 0 0 1-.46-.136.775.775 0 0 1-.304-.345l-.91-2.054-.866 2.049a.776.776 0 0 1-.304.353.876.876 0 0 1-.467.133h-.592a.815.815 0 0 1-.457-.14.715.715 0 0 1-.278-.361L4 6Z" fill="#fff"/><path d="M13.241 8.25 14 6h-1.707l-.759 2.25h1.707ZM11.28 9l-.86 2.499v.006c-.053.141-.139.346-.367.333a.252.252 0 0 1-.147-.038c.15.122.343.19.544.19h1.018a.798.798 0 0 0 .411-.153.703.703 0 0 0 .25-.338L12.99 9h-1.71Z" fill="#62CF7F"/><defs><linearGradient id="a" x1="3.349" y1="3.122" x2="21.904" y2="24.434" gradientUnits="userSpaceOnUse"><stop stop-color="#1A1E21"/><stop offset="1" stop-color="#06060A"/></linearGradient></defs></svg>