<!-- by TradingView --><svg width="18" height="18" fill="none" xmlns="http://www.w3.org/2000/svg"><path fill="#447EB7" d="M0 0h18v18H0z"/><path d="M2.063 11.9h3.918v-.965H3.539v-.048l1.127-1.11c.93-.92 1.24-1.378 1.24-2.081v-.008C5.906 6.699 5.122 6 3.983 6S2 6.768 2 7.86v.033h1.046l.003-.036c.015-.523.389-.913.941-.913.478 0 .814.338.818.812v.008c0 .402-.145.687-.84 1.387l-1.905 1.917v.832ZM8.785 12c1.367 0 2.196-1.153 2.196-2.998v-.008C10.981 7.149 10.152 6 8.785 6 7.42 6 6.59 7.15 6.59 8.994v.008c0 1.845.83 2.998 2.196 2.998Zm0-.973c-.672 0-1.057-.751-1.057-2.025v-.008c0-1.274.385-2.021 1.057-2.021.672 0 1.057.747 1.057 2.021v.008c0 1.274-.385 2.025-1.057 2.025ZM13.804 12C15.171 12 16 10.847 16 9.002v-.008C16 7.149 15.171 6 13.804 6c-1.367 0-2.196 1.15-2.196 2.994v.008c0 1.845.83 2.998 2.196 2.998Zm0-.973c-.672 0-1.057-.751-1.057-2.025v-.008c0-1.274.385-2.021 1.057-2.021.672 0 1.057.747 1.057 2.021v.008c0 1.274-.385 2.025-1.057 2.025Z" fill="#fff"/></svg>