<!-- by TradingView --><svg width="18" height="18" viewBox="0 0 18 18" xmlns="http://www.w3.org/2000/svg"><path fill="#FBC02D" d="M0 0h18v18H0z"/><path fill-rule="evenodd" d="M11.77 11.14c-.16-.01-.3-.04-.42-.09a1 1 0 0 1-.66-.8H9.4c.03.4.14.8.39 1.12.23.29.53.5.92.66.31.12.67.2 1.06.22v.57h.78v-.6c.3-.03.6-.1.85-.2a1.95 1.95 0 0 0 1.3-1.81v-.01c0-.53-.2-.95-.53-1.25-.33-.3-.83-.52-1.5-.66l-.12-.03v-1.7l.1.03c.38.14.56.41.65.8h1.28c-.1-.82-.5-1.45-1.27-1.76-.23-.1-.48-.16-.76-.2v-.61h-.78v.59c-.4.02-.75.1-1.06.23-.71.31-1.2.95-1.2 1.75 0 1.16.93 1.71 1.94 1.92l.32.07v1.76Zm0-3.05V6.51c-.15.01-.28.05-.4.1-.28.1-.52.34-.52.67 0 .52.5.71.92.81Zm.78 1.47v1.56c.09-.01.17-.03.24-.06.31-.12.54-.37.54-.72a.63.63 0 0 0-.23-.52c-.1-.1-.3-.18-.55-.26Zm-8.07 2.76H3l2.52-7H7.3l2.52 7H8.34l-.6-1.75H5.08l-.6 1.75Zm1.04-3.06H7.3l-.88-2.58H6.4l-.87 2.58Z" fill="#fff"/></svg>