<!-- by TradingView --><svg width="18" height="18" fill="none" xmlns="http://www.w3.org/2000/svg"><path fill="#2A8173" d="M0 0h18v18H0z"/><path d="M6.747 12h1.207v-1.184h.798V9.85h-.799V6.023h-1.79L3.73 9.807v1.009h3.017V12ZM4.835 9.883v-.032l1.908-2.878h.03v2.91H4.835ZM11.8 11.977c1.537 0 2.47-1.15 2.47-2.987v-.008C14.27 7.145 13.337 6 11.8 6c-1.54 0-2.472 1.145-2.472 2.982v.008c0 1.838.933 2.987 2.471 2.987Zm0-.969c-.757 0-1.19-.748-1.19-2.018v-.008c0-1.269.433-2.013 1.19-2.013.756 0 1.188.744 1.188 2.013v.008c0 1.27-.432 2.018-1.189 2.018Z" fill="#fff"/></svg>