<!-- by TradingView --><svg width="18" height="18" fill="none" xmlns="http://www.w3.org/2000/svg"><path fill="#2F68AE" d="M0 0h18v18H0z"/><path fill-rule="evenodd" clip-rule="evenodd" d="M5.902 4.171c-.22-.243-.56-.225-.76.041a.754.754 0 0 0 .033.922l3.523 3.908L5.18 12.86a.753.753 0 0 0-.042.922c.199.268.539.291.76.05l3.963-4.3.443-.48-.439-.487L5.902 4.17Zm6.901 1.017c.23-.229.263-.64.074-.918-.188-.279-.528-.319-.757-.09l-2.066 2.06-.416.414.684 1.008.416-.415 2.066-2.059Zm-2.08 5.628-.428-.397-.654 1.037.428.396 2.065 1.918c.236.219.574.164.755-.122.18-.286.136-.696-.1-.915l-2.066-1.917Z" fill="#fff"/></svg>