<!-- by TradingView --><svg width="18" height="18" fill="none" xmlns="http://www.w3.org/2000/svg"><path fill="#13A3D7" d="M0 0h18v18H0z"/><path d="M6.278 12c1.366 0 2.274-.7 2.274-1.736v-.008c0-.788-.567-1.286-1.435-1.367v-.024c.685-.14 1.22-.61 1.22-1.334v-.008C8.337 6.611 7.527 6 6.266 6c-1.228 0-2.051.66-2.132 1.664l-.004.048h1.123l.004-.036c.048-.45.437-.744 1.009-.744.576 0 .912.282.912.752v.008c0 .47-.397.792-1.01.792h-.652v.864h.669c.705 0 1.123.305 1.123.86v.008c0 .474-.406.807-1.034.807-.632 0-1.046-.309-1.098-.723l-.009-.044H4l.004.052c.081 1 .949 1.692 2.274 1.692ZM11.617 12C13.1 12 14 10.847 14 9.002v-.008C14 7.149 13.1 6 11.617 6c-1.484 0-2.384 1.15-2.384 2.994v.008c0 1.845.9 2.998 2.383 2.998Zm0-.973c-.73 0-1.148-.751-1.148-2.025v-.008c0-1.274.418-2.021 1.148-2.021s1.147.747 1.147 2.021v.008c0 1.274-.418 2.025-1.147 2.025Z" fill="#fff"/></svg>