<!-- by TradingView --><svg width="18" height="18" viewBox="0 0 18 18" xmlns="http://www.w3.org/2000/svg"><path fill="#A73632" d="M0 0h18v18H0z"/><path d="M8.22 7.5a.11.11 0 0 1-.03.03 265.9 265.9 0 0 1-4.5.8c-1.03.17-.88 1.49.27 1.3l4.91-.84c1.15-.2 1.13-.89.7-1.75-.24-.48-.47-.98-.7-1.48-.06-.16-.01-.24.15-.25.06 0 .11.02.15.05l3.07 2.46c.36.3.73.49 1.11.13.27-.25.3-.63 0-.87-.57-.47-1.68-1.36-3.36-2.68-.88-.69-2.5-.53-2.58.8-.03.5.36 1.25.67 1.84a21.54 21.54 0 0 1 .18.38.11.11 0 0 1-.04.08ZM9 12.68a109.04 109.04 0 0 1-3.25-2.56c-.2-.16-.35-.26-.47-.29-.58-.15-1.16.6-.64 1.02.6.5 1.76 1.44 3.5 2.8 1.15.91 2.99-.08 2.28-1.64a132.53 132.53 0 0 0-.66-1.48.15.15 0 0 1 .07-.12 6006.05 6006.05 0 0 1 4.44-.78c1.12-.2.9-1.49-.22-1.3l-5.14.88c-.75.13-.88.79-.6 1.41.26.6.54 1.18.82 1.76.06.13.04.23-.07.28a.12.12 0 0 1-.06.02Z" fill="#fff"/></svg>