<!-- by TradingView --><svg width="18" height="18" viewBox="0 0 18 18" xmlns="http://www.w3.org/2000/svg"><path fill="#1F226B" d="M0 0h18v18H0z"/><path d="M3.14 7 2 10h.52l.82-2.23.15 1.91c-.34 1-.15 2.32 1.73 2.32 1.5 0 3.63-.73 4.51-1.1l5.37-2.08.24.59.66-1.2-1.3-.56.22.7c-2.5 1.13-7.9 3.37-9.52 3.34-1.6-.03-1.57-1.3-1.35-1.93L5.22 7h-.53l-.74 1.82L3.82 7h-.68Z" fill="#fff"/><path d="m5.34 10 .27-3h.61l-.26 2.06L7.29 7h.64l-1.97 3h-.62ZM7.29 10 8.4 7h.55l-1.12 3H7.3ZM9.61 8.27 9.45 7h.6l.08.91.72-.91h.68l-1.22 1.27.14 1.73h-.67V8.7L8.96 10h-.65l1.3-1.73Z" fill="#fff"/></svg>