<!-- by TradingView --><svg width="18" height="18" fill="none" xmlns="http://www.w3.org/2000/svg"><path fill="#0091BA" d="M0 0h18v18H0z"/><path d="M3.496 11.9h1.197V6.1h-1.2L2 7.141v1.077l1.472-1.004h.024v4.685ZM8.27 12c1.464 0 2.353-1.153 2.353-2.998v-.008C10.623 7.149 9.734 6 8.27 6 6.805 6 5.917 7.15 5.917 8.994v.008c0 1.845.888 2.998 2.353 2.998Zm0-.973c-.72 0-1.133-.751-1.133-2.025v-.008c0-1.274.413-2.021 1.133-2.021s1.132.747 1.132 2.021v.008c0 1.274-.412 2.025-1.132 2.025ZM13.647 12C15.112 12 16 10.847 16 9.002v-.008C16 7.149 15.112 6 13.647 6c-1.464 0-2.352 1.15-2.352 2.994v.008c0 1.845.888 2.998 2.352 2.998Zm0-.973c-.72 0-1.132-.751-1.132-2.025v-.008c0-1.274.412-2.021 1.132-2.021s1.133.747 1.133 2.021v.008c0 1.274-.412 2.025-1.133 2.025Z" fill="#fff"/></svg>