<!-- by TradingView --><svg width="18" height="18" fill="none" xmlns="http://www.w3.org/2000/svg"><path fill="#0090BA" d="M0 0h18v18H0z"/><path fill-rule="evenodd" clip-rule="evenodd" d="M11.605 5H14l-2.225 5.732a.426.426 0 0 1-.401.264H9.022v-.003a.422.422 0 0 0 .357-.26L11.605 5ZM8.83 10.909a.405.405 0 0 1-.37-.229l-.48-1.233.817-2.102a.412.412 0 0 1 .382-.252c.167 0 .311.095.372.231l.477 1.229-.816 2.103a.412.412 0 0 1-.382.252Zm.174-3.905v.002a.424.424 0 0 0-.383.262L6.396 13H4l2.225-5.732a.426.426 0 0 1 .402-.264h2.377Z" fill="#fff"/></svg>