<!-- by TradingView --><svg width="18" height="18" viewBox="0 0 18 18" xmlns="http://www.w3.org/2000/svg"><path fill="#3179F5" d="M0 0h18v18H0z"/><path fill-rule="evenodd" d="M13.5 10.82a1.31 1.31 0 0 1-.23-.06c-.3-.1-.48-.45-.54-.76h-1.05c0 .71.38 1.26 1.07 1.52.22.09.48.14.75.17V12h.68v-.31c.28-.03.54-.09.77-.18.62-.24 1.06-.75 1.06-1.41v-.01c0-.42-.15-.74-.43-.97-.27-.24-.68-.41-1.23-.53l-.17-.03V7.23c.06 0 .1.02.16.04.3.1.5.4.52.73h1.06c-.08-.64-.4-1.24-1.04-1.49-.2-.08-.44-.13-.7-.16V6h-.68v.35c-.27.02-.53.08-.75.18-.58.24-.99.73-.99 1.36 0 .91.77 1.34 1.6 1.5l.14.04v1.39Zm0-2.4v-1.2a1.1 1.1 0 0 0-.2.06c-.24.09-.44.27-.44.53 0 .36.33.52.64.6Zm.68 1.16v1.24c.1 0 .2-.03.27-.06.26-.1.44-.28.44-.56 0-.17-.06-.3-.18-.4-.1-.09-.28-.16-.53-.22ZM2.96 11.5H2v-5h.9l2.28 3.22h.03V6.5h.97v5h-.82L3.07 8.26h-.1v3.24Zm8.04 0H7.14v-.68l2.53-3.38H7.14V6.5H11v.68l-2.6 3.38H11v.94Z" fill="#fff"/></svg>