<!-- by TradingView --><svg width="18" height="18" fill="none" xmlns="http://www.w3.org/2000/svg"><path fill="#1E4D81" d="M0 0h18v18H0z"/><path d="M2 11.9h4.144v-.965H3.602v-.048l1.174-1.11c.968-.92 1.29-1.378 1.29-2.081v-.008C6.067 6.699 5.25 6 4.065 6 2.88 6 2 6.768 2 7.86v.033h1.089l.003-.036c.016-.523.405-.913.98-.913.498 0 .848.338.852.812v.008c0 .402-.152.687-.875 1.387L2 11.068v.832ZM6.871 11.9h4.079v-.965H8.407v-.048l1.174-1.11c.968-.92 1.291-1.378 1.291-2.081v-.008C10.872 6.699 10.056 6 8.87 6s-2.065.768-2.065 1.86v.033h1.089l.004-.036c.015-.523.404-.913.98-.913.497 0 .847.338.851.812v.008c0 .402-.152.687-.875 1.387l-1.983 1.917v.832ZM13.83 12c1.284 0 2.17-.824 2.17-2.038v-.008c0-1.093-.77-1.884-1.835-1.884-.568 0-1.03.237-1.264.627h-.023l.136-1.632h2.648V6.1h-3.58l-.258 3.404h1.023c.066-.12.155-.233.268-.321.19-.157.436-.245.723-.245.607 0 1.038.43 1.042 1.04v.009c0 .618-.431 1.053-1.046 1.053-.54 0-.933-.338-1.014-.776l-.008-.028h-1.085l.004.06c.07.969.879 1.704 2.1 1.704Z" fill="#fff"/></svg>