<!-- by TradingView --><svg width="18" height="18" fill="none" xmlns="http://www.w3.org/2000/svg"><path fill="#C4162E" d="M0 0h18v18H0z"/><path d="M4.147 12c1.308 0 2.215-.824 2.215-2.038v-.008c0-1.093-.788-1.884-1.88-1.884-.579 0-1.052.237-1.292.627h-.024l.142-1.632h2.707V6.1H2.362l-.264 3.404h1.033c.07-.12.165-.233.276-.321.197-.157.449-.245.748-.245.623 0 1.068.43 1.072 1.04v.009c0 .618-.445 1.053-1.076 1.053-.555 0-.961-.338-1.048-.776l-.004-.028H2l.004.06C2.07 11.265 2.898 12 4.147 12ZM8.886 12c1.426 0 2.293-1.153 2.293-2.998v-.008C11.179 7.149 10.312 6 8.886 6c-1.43 0-2.297 1.15-2.297 2.994v.008c0 1.845.866 2.998 2.297 2.998Zm0-.973c-.698 0-1.092-.751-1.092-2.025v-.008c0-1.274.394-2.021 1.092-2.021.693 0 1.091.747 1.091 2.021v.008c0 1.274-.398 2.025-1.091 2.025ZM13.707 12C15.133 12 16 10.847 16 9.002v-.008C16 7.149 15.133 6 13.707 6c-1.43 0-2.297 1.15-2.297 2.994v.008c0 1.845.867 2.998 2.297 2.998Zm0-.973c-.698 0-1.092-.751-1.092-2.025v-.008c0-1.274.394-2.021 1.092-2.021.693 0 1.091.747 1.091 2.021v.008c0 1.274-.398 2.025-1.091 2.025Z" fill="#fff"/></svg>