<!-- by TradingView --><svg width="18" height="18" fill="none" xmlns="http://www.w3.org/2000/svg"><path fill="#2B4373" d="M0 0h18v18H0z"/><path fill-rule="evenodd" clip-rule="evenodd" d="M13.99 9.313a5.055 5.055 0 0 0 0-.626h-.956l-.493.626h1.45Zm-.029.312H12.26l-.51.625h2.094c.052-.204.092-.412.118-.625Zm-.21.938H10.19a.1.1 0 0 1-.075-.167l1.629-1.851a.5.5 0 0 1 .375-.17h1.843a5.013 5.013 0 0 0-.049-.313h-1.855a1 1 0 0 0-.733.32L9.31 10.556a1 1 0 0 1-.734.32H4.364a5.002 5.002 0 0 0 9.387-.313Zm-9.593-.313H7.35a1 1 0 0 0 .733-.32l2.014-2.172a1 1 0 0 1 .734-.32h2.92a4.921 4.921 0 0 0-.114-.313h-3.423a1 1 0 0 0-.74.328L7.515 9.61a1 1 0 0 1-.74.328H4.087c.02.105.043.21.07.312Zm-.148-.938A5 5 0 0 1 13.33 6.5H9.138a1 1 0 0 0-.749.338L6.497 8.975a1 1 0 0 1-.749.338H4.01Z" fill="#fff"/></svg>