<!-- by TradingView --><svg width="18" height="18" viewBox="0 0 18 18" xmlns="http://www.w3.org/2000/svg"><path fill="#06806B" d="M0 0h18v18H0z"/><path d="M9 14.04c.77 0 1.45-.12 2.05-.36 1.14-.46 1.95-1.41 1.95-2.66v-.01c0-.78-.28-1.39-.78-1.83a4.94 4.94 0 0 0-2.28-.98L8.7 7.94c-.65-.14-1.5-.41-1.5-1.2v-.02c0-.48.36-.83.8-1 .25-.1.58-.15.97-.15.37 0 .69.05.95.14.58.2.85.51.98 1.08h1.95a2.83 2.83 0 0 0-1.92-2.5 5.22 5.22 0 0 0-1.96-.33c-.75 0-1.41.12-1.98.36a2.78 2.78 0 0 0-1.83 2.56v.01c0 1.7 1.42 2.5 2.94 2.82l1.23.26c.63.14 1.05.3 1.28.5.23.18.34.43.34.74v.01c0 .52-.34.88-.8 1.05-.29.1-.64.15-1.09.15a3.3 3.3 0 0 1-1.1-.15c-.3-.1-.52-.26-.68-.44a1.22 1.22 0 0 1-.32-.62H5c.04.6.2 1.05.58 1.52.35.43.81.75 1.4.98.58.22 1.25.33 2.01.33Zm-.55.46h.96v-11h-.96v11Z" fill="#fff"/></svg>