<!-- by TradingView --><svg width="18" height="18" xmlns="http://www.w3.org/2000/svg"><path fill="#BCAC92" d="M0 0h18v18H0z"/><circle cx="9" cy="6.404" fill="#fff" r="2.869"/><circle cx="6.726" cy="9.546" fill="#fff" r="2.869"/><circle cx="11.274" cy="9.546" r="2.869" fill="#fff"/><path d="M9 10.348c.355 0 .643.288.643.643v3.152a.643.643 0 01-1.286 0V10.99c0-.355.288-.643.643-.643z" fill="#fff"/><ellipse cx="9" cy="11.211" rx="4.439" ry="1.51" fill="#fff"/><path d="M7.11 9.628c-.992.013-1.703.34-2.179.818a2.463 2.463 0 00-.719 1.684h.964c0-.254.11-.673.439-1.004.313-.314.876-.601 1.886-.52.28.022.521-.2.521-.481 0-.5.27-.933.594-1.267.334-.345.418-.352.75-.003.315.333.582.766.582 1.27 0 .281.24.503.52.48 1.01-.08 1.583.207 1.905.524.337.334.45.753.45 1.001h.965c0-.481-.2-1.155-.737-1.687-.482-.475-1.198-.802-2.19-.815-.173-.825-.717-1.433-1.365-1.913a.844.844 0 00-.994-.01c-.661.473-1.218 1.104-1.392 1.923z" fill="#BCAC92"/></svg>