<!-- by TradingView --><svg width="18" height="18" xmlns="http://www.w3.org/2000/svg"><path fill="#388E3C" d="M0 0h18v18H0z"/><path d="M5.02 9.341C4.71 4.01 8.171 2.92 10.037 3.005c2.143.098 3.176 1.685 2.925 2.592-1.59 2.942-.566 4.67 0 6.138.169 1.914-1.079 2.871-2.273 3.162-1.708.415-5.36-.224-5.67-5.556z" fill="#fff"/><path d="M11.526 6.33a.5.5 0 01.107.699 3.447 3.447 0 00-.637 1.919c-.016.688.183 1.319.597 1.755a.5.5 0 01-.726.688c-.638-.673-.891-1.584-.87-2.467.02-.882.313-1.784.83-2.487a.5.5 0 01.7-.107z" fill="#388E3C"/></svg>