<!-- by TradingView --><svg width="18" height="18" xmlns="http://www.w3.org/2000/svg"><path fill="#388E3C" d="M0 0h18v18H0z"/><path d="M11.878 11.213c0-1.392-.602-2.83-1.02-3.626-.2-.448-.702-.202-.914.033-1.006.87-1.324 1.307-1.435 1.925.53.192 1.248.804 1.248 1.69 0 1.052-.917 1.7-1.248 1.7-.33 0-.57.135-.57.52 0 .383.204.576 1.212.576 1.668 0 2.727-1.218 2.727-2.818z" fill="#fff"/><path d="M9.636 5.725c-.794-1.177-1.8-2-2.06-2.125-.86-.416-1.214.255-1.192.575.067.81-.04 2.675-.992 3.647-.953.973-1.39 1.984-1.39 2.751-.066 1.664 1.737 3.013 2.267 3.205.423.153.694-.064.76-.192v-.782c-.463-.384-.839-.658-.839-1.61 0-.95.7-1.537 1.043-1.603.344-.067.435-.176.534-.489.297-.939 1.668-2.264 1.999-2.52.264-.205-.02-.665-.13-.857z" fill="#fff"/><path d="M8.851 11.31c-.115-.972-.654-1.008-1.015-1.008-.362 0-.723.287-.796.787-.072.5.14.996.935 1.068.637.057.876-.585.876-.847zm3.794-.103c0-3.731-2.711-6.742-3.89-7.74 1.405 0 2.096.484 2.495.887.81.818 2.691 3.254 2.749 6.374.058 3.12-2.55 3.916-3.939 3.924 2.369-.726 2.585-2.488 2.585-3.444z" fill="#fff"/><path d="M7.695 9.293c.601-1.534 1.74-2.454 2.166-2.785l.549.743c-.397.308-1.367 1.102-1.872 2.39l-.843-.348z" fill="#388E3C"/><path d="M10.745 7.344c-.858-1.6-2.068-2.917-2.91-3.622L8.41 3c.92.77 2.21 2.177 3.132 3.895.92 1.716 1.507 3.806.902 5.9l-.005.017-.006.016c-.18.49-.446.965-.935 1.355-.483.385-1.145.655-2.068.817l-.153-.919c.835-.146 1.338-.375 1.663-.634.313-.249.495-.553.637-.933.5-1.756.026-3.572-.832-5.17z" fill="#388E3C"/></svg>