<!-- by TradingView --><svg width="18" height="18" xmlns="http://www.w3.org/2000/svg"><path d="M0 0h18v18H0V0z" fill="#FFD600"/><path d="M7 4.478a.468.468 0 00-.146-.338.512.512 0 00-.708 0A.468.468 0 006 4.478v5.548c.023.522.194 1.028.495 1.464.302.436.722.784 1.215 1.009l.79.358v1.665a.47.47 0 00.146.338.512.512 0 00.708 0 .468.468 0 00.146-.338v-1.665l.79-.358c.5-.228.926-.584 1.227-1.03.302-.444.47-.96.483-1.49v-5.5a.468.468 0 00-.146-.339.512.512 0 00-.708 0 .468.468 0 00-.146.338V6l-1.5.63V5.48a.468.468 0 00-.146-.338.512.512 0 00-.708 0 .468.468 0 00-.146.338v1.15L7 6V4.478z" fill="#fff"/></svg>