<!-- by TradingView --><svg width="18" height="18" xmlns="http://www.w3.org/2000/svg"><path fill="#A9ACB6" d="M0 0h18v18H0z"/><path d="M4.446 12.532h3.058V9.475H4.446v3.059-.002zm6.05 0h3.059V9.475h-3.059v3.059-.002zM7.503 7.509h2.993V4.517H7.503v2.992z" fill="#fff"/><path d="M7.003 4.499a.5.5 0 01.5-.5h2.993a.5.5 0 01.5.5v3.01a.493.493 0 01-.5.491H7.503a.493.493 0 01-.5-.491v-3.01zm1 .5V7h1.993V4.999H8.005zM4 9.503a.5.5 0 01.5-.5L7.503 9c.277 0 .5.229.5.505v2.994a.5.5 0 01-.5.5l-2.958-.002A.5.5 0 014 12.499V9.503zm1 2.494v-1.994L7.003 10v1.999L5 11.997zm4.996-2.492c0-.276.224-.505.5-.505l3.006-.004c.276 0 .5.229.5.505V12.5a.5.5 0 01-.5.5l-2.96.004c-.015.001-.03-.004-.046-.004a.495.495 0 01-.5-.494V9.505zm1 2.499V10l2.006.001V12l-2.006.004z" fill="#fff"/></svg>