<!-- by TradingView --><svg width="18" height="18" fill="none" xmlns="http://www.w3.org/2000/svg"><path fill="#D50000" d="M0 0h18v18H0z"/><path d="M9 5.828a2.954 2.954 0 00-5 2.034c-.011.577.156 1.14.489 1.658h2.155l.383-.638a.293.293 0 01.499-.006l.808 1.268 1.18-2.483a.293.293 0 01.522-.013l1.01 1.872h2.46C15.325 6.68 11.73 3.446 9 5.828z" fill="#fff"/><path d="M10.614 9.95l-.82-1.517-1.157 2.439a.293.293 0 01-.512.032l-.84-1.316-.224.374a.293.293 0 01-.251.142H4.952c.058.06-.252-.248 3.838 3.81a.293.293 0 00.414 0c4.027-3.996 3.78-3.75 3.838-3.81h-2.17a.293.293 0 01-.258-.154z" fill="#fff"/><path d="M4.31 9.81h2.184s.178-.063.157 0c-.022.064.495-.676.495-.676.02-.03.068-.072.096 0 .029.072.672 1.06.99 1.545.024.049.088.117.155 0 .066-.118.934-1.884 1.359-2.752.012-.045.057-.108.143 0s.978 1.883 1.073 1.883h2.706" stroke="#D50000"/></svg>