<!-- by TradingView --><svg width="18" height="18" xmlns="http://www.w3.org/2000/svg"><path fill="#D50000" d="M0 0h18v18H0z"/><path d="M5 14V9l2.333 2V9l2.599 2h.586L11 7h1l.5 4h.5v3H5z" fill="#fff"/><path d="M6.667 3.533l.493-.038.493-.038v.008C7.665 3.546 7.766 4 8 4h2.944c.175-.003.515-.031.734.128.248.18.322.329.322.718v.707h-1V5.08c0-.04-.002-.08-.046-.08H7.766c-.57 0-.84-.504-.96-.78-.088-.2-.121-.467-.14-.684v-.003z" fill="#fff"/><ellipse cx="11.5" cy="5.536" rx=".5" ry=".508" fill="#fff"/><ellipse cx="7.167" cy="3.517" rx=".5" ry=".517" fill="#fff"/></svg>