<!-- by TradingView --><svg width="18" height="18" fill="none" xmlns="http://www.w3.org/2000/svg"><path fill="#1B5E20" d="M0 0h18v18H0z"/><path d="m13.832 8.102-4.487-3.96a.492.492 0 0 0-.69 0L4.168 8.115a.555.555 0 0 0-.133.594c.077.21.265.291.478.291H5v3.505c0 .274.22.497.494.498.669.004 1.338 0 2.006-.003.276 0 .5-.225.5-.5V10h1.997v2.5a.5.5 0 0 0 .5.5h2a.5.5 0 0 0 .5-.5V9h.49c.213 0 .4-.095.478-.305a.555.555 0 0 0-.133-.593Z" fill="#fff"/><path fill-rule="evenodd" clip-rule="evenodd" d="M12.5 4a.5.5 0 0 1 .5.5V6l-2-2h1.5Z" fill="#fff"/></svg>