<!-- by TradingView --><svg width="18" height="18" fill="none" xmlns="http://www.w3.org/2000/svg"><path fill="#DE5340" d="M0 0h18v18H0z"/><path d="m11.5 7 .387-.317-.387-.472-.387.472L11.5 7Zm0 0 .387-.317v.001l.002.002.006.008.022.027.082.102c.07.089.17.216.29.374.238.313.557.748.877 1.228.319.479.645 1.013.893 1.525.24.494.441 1.034.441 1.505 0 1.667-1.34 3.045-3 3.045s-3-1.378-3-3.046c0-.47.2-1.01.44-1.504.249-.512.575-1.046.894-1.525a24.528 24.528 0 0 1 1.249-1.704l.022-.027.006-.008.001-.002h.001L11.5 7Z" fill="#fff" stroke="#DE5340"/><path d="M8 12v.417c0 .32-.263.583-.583.583h-.834c-.28 0-.583-.213-.583-.68V12h2ZM8 11.004c0-.703.405-1.33.923-1.805C9.523 8.647 10 7.915 10 7.113 10 5.393 8.657 4 7 4S4 5.394 4 7.113c0 .802.476 1.534 1.077 2.086.518.476.923 1.102.923 1.805h2Z" fill="#fff"/></svg>