<!-- by TradingView --><svg width="18" height="18" xmlns="http://www.w3.org/2000/svg"><path fill="url(#paint0_linear)" d="M0 0h18v18H0z"/><path d="M7.905 3.125A.2.2 0 018.091 3h2.114a.2.2 0 01.187.13l3.946 10.6a.2.2 0 01-.188.27H12.19a.2.2 0 01-.188-.13l-2.9-7.79-3.142 7.795a.2.2 0 01-.185.125H3.816a.2.2 0 01-.185-.275l4.274-10.6zM9 14a1 1 0 100-2 1 1 0 000 2z" fill="#fff"/><defs><linearGradient id="paint0_linear" x1="3.349" y1="3.122" x2="21.904" y2="24.434" gradientUnits="userSpaceOnUse"><stop stop-color="#1A1E21"/><stop offset="1" stop-color="#06060A"/></linearGradient></defs></svg>