<!-- by TradingView --><svg width="18" height="18" viewBox="0 0 18 18" xmlns="http://www.w3.org/2000/svg"><path fill="#F0F3FA" d="M0 0h18v18H0z"/><path d="M5.38 13.98a.14.14 0 0 1-.2-.04l-.16-.24a.14.14 0 0 1 .04-.2c.54-.42.98-.9 1.33-1.4a5.37 5.37 0 0 0 0-6.2c-.35-.5-.8-.98-1.33-1.4a.14.14 0 0 1-.04-.2l.17-.24a.14.14 0 0 1 .2-.04l7.3 4.44c.41.25.41.83 0 1.08l-7.3 4.44Z" fill="url(#apwuclob3)"/><defs><linearGradient id="apwuclob3" x1="13.93" y1="9.09" x2="2.06" y2="9.09" gradientUnits="userSpaceOnUse"><stop stop-color="#3568DD"/><stop offset="1" stop-color="#3568DD" stop-opacity=".6"/></linearGradient></defs></svg>