<!-- by TradingView --><svg width="18" height="18" fill="none" xmlns="http://www.w3.org/2000/svg"><path fill="url(#paint0_linear)" d="M0 0h18v18H0z"/><path d="M4.8 12.786a1.594 1.594 0 01-.585-2.18l3.36-5.808a1.603 1.603 0 012.187-.584 1.594 1.594 0 01.586 2.18l-3.361 5.807a1.603 1.603 0 01-2.186.585z" fill="#43B543"/><path d="M13.2 12.786a1.594 1.594 0 00.585-2.18l-3.36-5.808a1.603 1.603 0 00-2.187-.584 1.594 1.594 0 00-.586 2.18l3.361 5.807a1.603 1.603 0 002.186.585z" fill="#306A30"/><path fill-rule="evenodd" clip-rule="evenodd" d="M9 4a1.594 1.594 0 011.348 2.394L9 8.725l-1.348-2.33A1.594 1.594 0 019 4z" fill="#4BDC4D"/><defs><linearGradient id="paint0_linear" x1="3.349" y1="3.122" x2="21.904" y2="24.434" gradientUnits="userSpaceOnUse"><stop stop-color="#1A1E21"/><stop offset="1" stop-color="#06060A"/></linearGradient></defs></svg>