<!-- by TradingView --><svg width="18" height="18" viewBox="0 0 18 18" xmlns="http://www.w3.org/2000/svg"><path fill="#2075E8" d="M0 0h18v18H0z"/><path d="M9.83 3.19 14 5.2c.3.14.55.36.72.63.18.27.27.58.27.89V8h-1V6.72c0-.1.01-.19-.08-.23l-4.8-2.31a.3.3 0 0 0-.26 0L4.1 6.49C4 6.53 4 6.62 4 6.72V8H3V6.72c0-.31.1-.62.27-.89s.42-.49.72-.63L8.17 3.2a1.92 1.92 0 0 1 1.66 0ZM10 9c0-.65-.5-1-1-1s-1 .36-1 1 .43 1 1 1c.57 0 1-.35 1-1Zm3.92 2.51c.1-.04.08-.13.08-.23V10h1v1.28c0 .31-.1.62-.27.89s-.42.48-.72.63L9.83 14.8a1.92 1.92 0 0 1-1.66 0L4 12.8c-.3-.14-.55-.36-.72-.63a1.62 1.62 0 0 1-.27-.89V10h1v1.28c0 .1-.01.19.08.23l4.42 2.12V11C7.47 10.55 7 10.08 7 9s.67-2.02 2-2c1.33.02 2 1 2 2s-.56 1.59-1.5 2v2.63l4.42-2.12Z" fill="#fff"/></svg>