<!-- by TradingView --><svg width="18" height="18" xmlns="http://www.w3.org/2000/svg"><path fill="url(#paint0_linear)" d="M0 0h18v18H0z"/><path d="M14.927 10.513l-5.736 4.44a.22.22 0 01-.263.006L3.1 10.646a.26.26 0 01-.045-.366l5.795-7.2a.2.2 0 01.32 0l5.786 7.158c.066.084.056.212-.03.275z" fill="#FFF4FC"/><path d="M14.617 10.361l-5.522 4.223V3.531l5.396 6.671.126.16z" fill="url(#paint1_linear)"/><path d="M3.324 10.451l5.594 4.129V3.47L3.324 10.45z" fill="url(#paint2_linear)"/><path d="M8.918 10H3.666l-.342.451 5.594 4.13V10z" fill="url(#paint3_linear)"/><path d="M9.096 10h5.255l.267.361-5.522 4.22V10z" fill="url(#paint4_linear)"/><defs><linearGradient id="paint0_linear" x1="3.349" y1="3.122" x2="21.904" y2="24.434" gradientUnits="userSpaceOnUse"><stop stop-color="#1A1E21"/><stop offset="1" stop-color="#06060A"/></linearGradient><linearGradient id="paint1_linear" x1="9.094" y1="9.056" x2="14.619" y2="9.056" gradientUnits="userSpaceOnUse"><stop stop-color="#3B8270"/><stop offset="1" stop-color="#305C6E"/></linearGradient><linearGradient id="paint2_linear" x1="3.326" y1="9.056" x2="8.919" y2="9.056" gradientUnits="userSpaceOnUse"><stop stop-color="#4E7F98"/><stop offset="1" stop-color="#3BC0B5"/></linearGradient><linearGradient id="paint3_linear" x1="3.326" y1="12.436" x2="8.919" y2="12.436" gradientUnits="userSpaceOnUse"><stop stop-color="#30435C"/><stop offset="1" stop-color="#299AA9"/></linearGradient><linearGradient id="paint4_linear" x1="9.137" y1="12.393" x2="14.619" y2="12.393" gradientUnits="userSpaceOnUse"><stop stop-color="#2E2C29"/><stop offset="1" stop-color="#323232"/></linearGradient></defs></svg>