<!-- by TradingView --><svg width="18" height="18" viewBox="0 0 18 18" xmlns="http://www.w3.org/2000/svg"><path fill="url(#atzjryol5)" d="M0 0h18v18H0z"/><path d="m10.87 9.16.6 1.54c.03.08.05.19.07.3 0 .08-.02.19-.07.27a1 1 0 0 1-.2.2.52.52 0 0 1-.28.06.58.58 0 0 1-.53-.4l-.3-.88H7.9l-.3.88c-.06.27-.28.4-.53.4a.63.63 0 0 1-.42-.15.56.56 0 0 1-.18-.39c.02-.12.04-.22.07-.3l.62-1.53h-.4c-.14 0-.25-.14-.25-.3 0-.16.11-.33.25-.33h.61l.06-.15h-.67c-.14 0-.25-.16-.25-.32s.11-.31.25-.31h.89l.52-1.24a.91.91 0 0 1 .87-.63c.42 0 .7.25.86.63l.5 1.24h.86c.14 0 .25.15.25.31s-.11.31-.25.31h-.65l.06.16h.6c.17 0 .24.17.24.33s-.11.3-.25.3h-.38ZM14 9A5 5 0 1 1 4 9a5 5 0 0 1 10 0Zm-1 0c0-2.27-1.75-4-4-4a3.97 3.97 0 0 0-4 4 3.9 3.9 0 0 0 4 4c2.25 0 4-1.73 4-4ZM9 7.03 8.2 9.3h1.6L9 7.03Z" fill="#fff"/><defs><linearGradient id="atzjryol5" x1="4.06" y1="2.15" x2="13.61" y2="16.34" gradientUnits="userSpaceOnUse"><stop stop-color="#FF9B23"/><stop offset="1" stop-color="#FF6477"/></linearGradient></defs></svg>