<!-- by TradingView --><svg width="18" height="18" viewBox="0 0 18 18" xmlns="http://www.w3.org/2000/svg"><path fill="url(#awni31omr)" d="M0 0h18v18H0z"/><path d="M11.82 7.31 6.17 9.15c-.3.1-.61-.14-.56-.43l.53-2.6a.38.38 0 0 1 .15-.23l2.44-1.8a.46.46 0 0 1 .54 0l2.46 1.81c.07.05.12.12.14.2l.22.76c.05.19-.06.39-.27.45ZM5.3 10.43l-.28 1.32c-.04.17.05.33.22.41a8.94 8.94 0 0 0 7.51.02.42.42 0 0 0 .25-.47l-.68-3.29c-.04-.23-.31-.37-.56-.29l-6.18 2.02a.4.4 0 0 0-.28.28Z" fill="url(#bwni31omr)"/><defs><linearGradient id="awni31omr" x1="3.35" y1="3.12" x2="21.9" y2="24.43" gradientUnits="userSpaceOnUse"><stop stop-color="#1A1E21"/><stop offset="1" stop-color="#06060A"/></linearGradient><linearGradient id="bwni31omr" x1="12.95" y1="12.95" x2="8.48" y2="4.31" gradientUnits="userSpaceOnUse"><stop offset=".11" stop-color="#C65CFF"/><stop offset=".18" stop-color="#BA6BFF"/><stop offset=".33" stop-color="#9991FF"/><stop offset=".53" stop-color="#6CF"/><stop offset=".81" stop-color="#42F0DB"/><stop offset=".97" stop-color="#3FC"/></linearGradient></defs></svg>