<!-- by TradingView --><svg width="18" height="18" viewBox="0 0 18 18" xmlns="http://www.w3.org/2000/svg"><path fill="url(#adqij1t0j)" d="M0 0h18v18H0z"/><path fill-rule="evenodd" d="M12.55 6.9a1.45 1.45 0 1 0-1.45-1.45v.03l-.3-.03H6.75C5.78 5.45 5 6.23 5 7.2v4.07c0 .96.78 1.74 1.74 1.74h4.07c.96 0 1.74-.78 1.74-1.74V7.19c0-.1-.01-.2-.03-.29h.03Zm-.33-.03a1.45 1.45 0 0 1-1.09-1.1c-.1-.02-.21-.03-.32-.03H6.74c-.8 0-1.45.65-1.45 1.45v4.07c0 .8.65 1.45 1.45 1.45h4.07c.8 0 1.45-.65 1.45-1.45V7.19c0-.1-.01-.22-.04-.32Zm.04-2.29h.58v.58h.58v.58h-.58v.58h-.58v-.58h-.58v-.58h.58v-.58ZM6 11h1l.25-1h1l.25 1H10V9.29h.1l.88 1.71H12l-1.02-1.71c.24 0 .73-.23.73-1.15 0-.91-.78-1.14-1.17-1.14H9v2.5L8.25 7h-1L6 11Zm1.75-3 .38 1.5h-.76L7.75 8ZM10 7.5v1.21h.4c.14 0 .43-.11.43-.57 0-.45-.29-.64-.43-.64H10Z" fill="#FCFCFC"/><defs><linearGradient id="adqij1t0j" x1="3.35" y1="3.12" x2="21.9" y2="24.43" gradientUnits="userSpaceOnUse"><stop stop-color="#1A1E21"/><stop offset="1" stop-color="#06060A"/></linearGradient></defs></svg>