<!-- by TradingView --><svg width="18" height="18" xmlns="http://www.w3.org/2000/svg"><path fill="#F0F3FA" d="M0 0h18v18H0z"/><path d="M4.253 5.225C5.501 4.55 7.083 4.214 9 4.214c1.917 0 3.5.337 4.747 1.01.166.09.264.261.252.442l-.257 3.92c-.105 1.61-1.016 3.077-2.455 3.955L9.274 14.77a.531.531 0 01-.548 0l-2.013-1.228c-1.439-.878-2.35-2.346-2.455-3.956L4 5.665a.469.469 0 01.252-.44z" fill="url(#paint1_linear)"/><path d="M13.89 5.101l-4.54 7.827a.391.391 0 01-.663.002L4.11 5.14l.22-.115 4.576 7.79a.13.13 0 00.221-.001l4.54-7.826.222.113z" fill="#fff"/><path d="M13.512 11.467l-4.223-7.33a.287.287 0 00-.486-.003l-4.34 7.3.22.115 4.34-7.3a.026.026 0 01.045 0l4.222 7.33.222-.112z" fill="#fff"/><path d="M11.686 9.103c.307 0 .555-.234.555-.522 0-.289-.248-.523-.555-.523-.306 0-.555.234-.555.523 0 .288.249.522.555.522zM9.012 13.588c.307 0 .555-.234.555-.522 0-.288-.248-.522-.555-.522-.306 0-.554.234-.554.522 0 .288.248.522.554.522zM6.213 9.103c.306 0 .555-.234.555-.522 0-.289-.249-.523-.555-.523-.307 0-.555.234-.555.523 0 .288.248.522.555.522z" fill="#fff"/><path d="M9.139 13.007V15h-.252v-1.993h.252z" fill="#fff"/><path d="M13.005 12.326l-3.956.98-.03-.006c-2.257-.517-3.571-.816-3.944-.9l.058-.23c.372.082 1.677.38 3.914.892l3.894-.965.064.23z" fill="#fff"/><path d="M9 6.75c-.158 0-.313.13-.313.28v1.032l-1.562.939.17.352 1.393-.446V9.94l-.379.281v.282L9 10.315l.69.188v-.282l-.377-.281V8.907l1.369.47.193-.376-1.563-.939V7.029c0-.15-.154-.279-.312-.279z" fill="#fff"/><defs><linearGradient id="paint1_linear" x1="13.521" y1="4.914" x2="5.123" y2="12.411" gradientUnits="userSpaceOnUse"><stop stop-color="#01C1D2"/><stop offset=".225" stop-color="#009EB5"/><stop offset=".584" stop-color="#007BB7"/><stop offset=".868" stop-color="#384D78"/><stop offset="1" stop-color="#483B6B"/></linearGradient></defs></svg>