<!-- by TradingView --><svg width="18" height="18" viewBox="0 0 18 18" xmlns="http://www.w3.org/2000/svg"><path fill="#0056EF" d="M0 0h18v18H0z"/><path fill-rule="evenodd" d="M9 13.62a4.62 4.62 0 1 0 0-9.24 4.62 4.62 0 0 0 0 9.24ZM9 14A5 5 0 1 0 9 4a5 5 0 0 0 0 10Z" fill="#F1FAFF"/><path d="m9.5 7.08.63.8 1.23-.8 1.1 1.07-.6.58-.6-.58L9.92 9l-.65-.85-1.45.8-.83-.8-.99.63-.47-.68L7.1 7.08l.86.85 1.54-.85Z" fill="url(#adqx0nb2p)"/><path d="m9.5 9.38.63.8 1.23-.79 1.1 1.07-.6.58-.6-.59-1.33.86-.65-.85-1.45.8-.83-.8-.99.63-.47-.69 1.57-1 .86.83 1.54-.85Z" fill="url(#bdqx0nb2p)"/><path fill-rule="evenodd" d="M9 14.5a5.5 5.5 0 1 0 0-11 5.5 5.5 0 0 0 0 11Zm0 .5A6 6 0 1 0 9 3a6 6 0 0 0 0 12Z" fill="#F1FAFF"/><defs><linearGradient id="adqx0nb2p" x1="5.73" y1="8.23" x2="12.08" y2="8.23" gradientUnits="userSpaceOnUse"><stop stop-color="#F9FCFE"/><stop offset=".52" stop-color="#8EDAFF"/><stop offset="1" stop-color="#F2FAFE"/></linearGradient><linearGradient id="bdqx0nb2p" x1="5.73" y1="10.54" x2="12.08" y2="10.54" gradientUnits="userSpaceOnUse"><stop stop-color="#F9FCFE"/><stop offset=".52" stop-color="#8EDAFF"/><stop offset="1" stop-color="#F2FAFE"/></linearGradient></defs></svg>