<!-- by TradingView --><svg width="18" height="18" viewBox="0 0 18 18" xmlns="http://www.w3.org/2000/svg"><path fill="#F0F3FA" d="M0 0h18v18H0z"/><path d="M9.25 5.5a.75.75 0 1 0 0-1.5.75.75 0 0 0 0 1.5Z" fill="url(#aiywmbpby)"/><path d="M5.72 13h6.57c.4 0 .71-.2.71-.47 0-.26-.32-.55-.71-.55H6.3l1.54-2.13c.45-.65-.3-1.35-.86-.54l-1.86 2.67a.66.66 0 0 0-.12.36c0 .34.27.66.72.66Z" fill="#610467"/><path d="M7.25 6.73 12 12.67c0 .33 0 .33.57.33.25 0 .44-.2.43-.45a.67.67 0 0 0-.16-.4L7.98 6.1c-.54-.68-1.3-.08-.73.63Z" fill="url(#biywmbpby)"/><defs><linearGradient id="aiywmbpby" x1="9.75" y1="4" x2="9.75" y2="5.5" gradientUnits="userSpaceOnUse"><stop stop-color="#E4396A"/><stop offset="1" stop-color="#300F39"/></linearGradient><linearGradient id="biywmbpby" x1="10.33" y1="9.19" x2="9.68" y2="9.73" gradientUnits="userSpaceOnUse"><stop stop-color="#D12D6D"/><stop offset=".55" stop-color="#610467"/></linearGradient></defs></svg>