<!-- by TradingView --><svg width="18" height="18" viewBox="0 0 18 18" xmlns="http://www.w3.org/2000/svg"><path fill="#073066" d="M0 0h18v18H0z"/><path d="M10.71 13.64 9 11.92 10 10.89l1.42 1.42.9-.9-1.42-1.43 1.03-1.03 1.73 1.73c.44.44.44 1.15 0 1.58l-1.37 1.38c-.44.43-1.15.43-1.59 0Z" fill="url(#alqutbzme)"/><path fill-rule="evenodd" d="m4.34 12.32 1.34 1.34c.45.45 1.18.45 1.64 0l6.34-6.34c.45-.46.45-1.19 0-1.64l-1.34-1.34a1.16 1.16 0 0 0-1.64 0l-6.34 6.34a1.16 1.16 0 0 0 0 1.64Zm1.27-.82.88.89 5.81-5.82-.88-.88L5.6 11.5Z" fill="url(#blqutbzme)"/><path d="M5.92 4.32 4.39 5.84c-.4.41-.4 1.07 0 1.48l4.64 4.64 1.03-1.04-4.34-4.34.88-.88 3.3 3.29 1.08-1.09-3.59-3.58c-.4-.41-1.07-.41-1.47 0Z" fill="url(#clqutbzme)"/><defs><linearGradient id="alqutbzme" x1="11.49" y1="8.95" x2="11.49" y2="13.97" gradientUnits="userSpaceOnUse"><stop stop-color="#087FFD"/><stop offset="1" stop-color="#0BEFF8"/></linearGradient><linearGradient id="blqutbzme" x1="13.52" y1="6.5" x2="4.25" y2="6.5" gradientUnits="userSpaceOnUse"><stop stop-color="#001BFF"/><stop offset="1" stop-color="#08E0FE"/></linearGradient><linearGradient id="clqutbzme" x1="3.63" y1="6.7" x2="9.92" y2="6.7" gradientUnits="userSpaceOnUse"><stop stop-color="#0BF9FF"/><stop offset=".99" stop-color="#0092F6"/></linearGradient></defs></svg>