<!-- by TradingView --><svg width="18" height="18" viewBox="0 0 18 18" xmlns="http://www.w3.org/2000/svg"><path fill="#F0F3FA" d="M0 0h18v18H0z"/><path fill-rule="evenodd" d="M4 11.9 9.03 3 14 11.9 9.03 14 4 11.9Zm.84-.31 4.19-7.4 4.13 7.4-4.13 1.75-4.19-1.75Z" fill="url(#ae5ssd1x3)"/><path d="m7.73 7.93-1.94 3.38.95.43.9-1.44 1.34 2.36 1.09-.49-2.34-4.24Z" fill="url(#be5ssd1x3)"/><path d="m11.05 11.77-2.86-4.9.85-1.4 3.12 5.8-1.11.5Z" fill="url(#ce5ssd1x3)"/><defs><linearGradient id="ae5ssd1x3" x1="8" y1="3.6" x2="12.48" y2="13.33" gradientUnits="userSpaceOnUse"><stop offset=".06" stop-color="#20AAF5"/><stop offset=".34" stop-color="#00060A"/><stop offset=".63" stop-color="#2090CC"/><stop offset=".69" stop-color="#11A1EF"/><stop offset=".77" stop-color="#22668C"/><stop offset=".94" stop-color="#243642"/></linearGradient><linearGradient id="be5ssd1x3" x1="5.79" y1="11.41" x2="9.4" y2="11.41" gradientUnits="userSpaceOnUse"><stop stop-color="#181F26"/><stop offset=".55" stop-color="#2C85B7"/><stop offset="1" stop-color="#26ACF5"/></linearGradient><linearGradient id="ce5ssd1x3" x1="7.9" y1="7.37" x2="12.16" y2="7.37" gradientUnits="userSpaceOnUse"><stop offset=".39" stop-color="#23ABF6"/><stop offset="1" stop-color="#15232A"/></linearGradient></defs></svg>