<!-- by TradingView --><svg width="18" height="18" xmlns="http://www.w3.org/2000/svg"><path fill="#F0F3FA" d="M0 0h18v18H0z"/><path d="M5.524 11.643l1.994-1.263 3.546 2.131-1.985 1.29-3.555-2.158z" fill="#E9595C"/><path d="M8.618 4.578L4.89 6.683v4.063l3.728-2.021V4.578z" fill="#109E92"/><path d="M14 10.96l-2-1.205V8.349l1 .544V6.714L9.5 4.661v4.654l-.808.539 4.434 2.682L9 15l-5-2.987V6.04L9 3l5 3.04v4.92zM5 6.714v3.887l3.5-1.92V4.74L5 6.714zm2.538 3.806l-1.846 1.152L9 13.647l1.868-1.116-3.33-2.01z" fill="#000"/></svg>