<!-- by TradingView --><svg width="18" height="18" xmlns="http://www.w3.org/2000/svg"><path fill="#21222C" d="M0 0h18v18H0z"/><path d="M11.022 9.454c1.754.287 2.978.938 2.978 1.694C14 12.171 11.761 13 9 13s-5-.83-5-1.852c0-.756 1.224-1.407 2.978-1.694A9.28 9.28 0 009 9.667c.712 0 1.384-.073 1.976-.203l.046-.01zm-.757-3.045C11.855 6.605 13 7.16 13 7.815c0 .818-1.79 1.481-4 1.481s-4-.663-4-1.481c0-.655 1.146-1.21 2.735-1.406.389.07.816.11 1.265.11a7.17 7.17 0 001.225-.103l.04-.007z" fill="#fff"/><path d="M9 6.222c1.657 0 3-.497 3-1.11C12 4.496 10.657 4 9 4s-3 .497-3 1.111 1.343 1.111 3 1.111z" fill="#fff"/></svg>