<!-- by TradingView --><svg width="18" height="18" viewBox="0 0 18 18" xmlns="http://www.w3.org/2000/svg"><path fill="#F0F3FA" d="M0 0h18v18H0z"/><path d="m7.7 8.01 1.26-.8a.07.07 0 0 1 .07 0 42.5 42.5 0 0 1 1.96 1.18l.01.04v2.27c0 .1-.04.13-.12.17A61.75 61.75 0 0 0 9 12l-1.94-1.17a.13.13 0 0 1-.06-.1l.01-4.71c0-.02.01-.03.03-.01l.59.3.03.04V7.99a.02.02 0 0 0 .02.02.02.02 0 0 0 .02 0Zm2.6.72-1.27-.82h-.04c-.43.25-.8.51-1.22.78-.08.04-.1.03-.1.14v1.6l.02.02 1.29.82a.05.05 0 0 0 .05 0l1.28-.82c.02-.01.02-.03.02-.06V8.8c0-.03 0-.05-.03-.07Z" fill="#A77C52"/><path opacity=".7" fill-rule="evenodd" d="M9 15A6 6 0 1 0 9 3a6 6 0 0 0 0 12Zm0-1A5 5 0 1 0 9 4a5 5 0 0 0 0 10Z" fill="#A77C52"/></svg>