<!-- by TradingView --><svg xmlns="http://www.w3.org/2000/svg" width="18" height="18"><path fill="#172D6D" d="M0 0h18v18H0z"/><path d="M2 11l2.36-4H5.7l1.01 4H4.66l.2-1h.34l-.34-1.98L3.84 10h.36l-.26 1H2z" fill="#F2A00F"/><path fill-rule="evenodd" d="M9.6 6h.51l-.16 1h.69c.92 0 1.06.7.84 1.19-.14.31-.48.5-.67.5.97.6.33 1.8-.34 2.14-.29.14-.67.17-.95.17l-.06.34h-.51L9 11h-.67l-.06.34h-.51l.06-.34H7.1l.68-4h.58l.16-1h.5l-.15 1h.57l.16-1zm.37 1.68H8.72l-.1.68h1.35a.34.34 0 100-.68zM8.52 9.32h1.24c.19 0 .34.15.34.33 0 .19-.16.35-.35.35H8.41l.1-.68z" fill="#F2A00F"/><path d="M12.42 7.61c.3-.39.74-.61 1.2-.61H16l-.15 1h-2c-.52 0-.93.4-.93 1s.32 1 .83 1h1.76l-.15 1h-1.92c-1.4 0-1.96-2.19-1.02-3.39z" fill="#F2A00F"/></svg>