<!-- by TradingView --><svg width="18" height="18" xmlns="http://www.w3.org/2000/svg"><path fill="#4B4A48" d="M0 0h18v18H0z"/><path d="M10.493 7.333c0 .752-.633 1-1.266 1H8v-2h1.544c.484 0 .95.373.95 1zm.557 3.334c0 .819-.873 1-1.506 1H8v-2h1.544c.566 0 1.506.201 1.506 1zm1.372-3.614C12.31 5.835 11.49 5.167 10.68 5l.324-1h-.974l-.324 1h-2.03L7.35 4h-.974l.325 1H5v1.333l.673-.007c.24 0 .327.034.327.562v4.398c0 .007-.13.374-.497.374l-.308.006L5 13h1.702l-.325 1h.974l.324-1h2.03l.325 1h.974l-.324-1c.486 0 2.16-.467 2.305-2.092.117-1.307-.469-1.89-1.405-2.126.57-.303.927-.838.842-1.73z" fill="#F2C81E"/></svg>