<!-- by TradingView --><svg width="18" height="18" viewBox="0 0 18 18" xmlns="http://www.w3.org/2000/svg"><path fill="#042548" d="M0 0h18v18H0z"/><path d="M9 12h3.29L9 5.22V3l5 10H9v-1Z" fill="#0B76FF"/><path d="M9 12H5.73L9 5.22V3L4 13h5v-1Z" fill="#24C1FF"/><path d="M9 7.45V11H7.5L9 7.45Z" fill="#39FFF2"/><path d="M9 7.45V11h1.5L9 7.45Z" fill="#00E2C2"/><path d="m3 6.13 6 3.3v.35L3 8.2V6.13Z" fill="url(#a3p4nehjp)"/><path d="M15 5.17 9 9.43v.12l6-3V5.16Z" fill="url(#b3p4nehjp)"/><path d="m15 9.3-6 .48v-.12l6-1.74V9.3Z" fill="url(#c3p4nehjp)"/><path d="m15 6.54-6 3v.12l6-1.74V6.54Z" fill="url(#d3p4nehjp)"/><defs><linearGradient id="a3p4nehjp" x1="3" y1="7.96" x2="6.28" y2="7.96" gradientUnits="userSpaceOnUse"><stop stop-color="#fff" stop-opacity="0"/><stop offset="1" stop-color="#fff"/></linearGradient><linearGradient id="b3p4nehjp" x1="14.96" y1="7.35" x2="11.14" y2="7.35" gradientUnits="userSpaceOnUse"><stop stop-color="#FD76FD" stop-opacity="0"/><stop offset="1" stop-color="#FF51FF"/></linearGradient><linearGradient id="c3p4nehjp" x1="15.03" y1="8.85" x2="11.93" y2="8.85" gradientUnits="userSpaceOnUse"><stop stop-color="#9D6EFF" stop-opacity="0"/><stop offset="1" stop-color="#A18CFF"/></linearGradient><linearGradient id="d3p4nehjp" x1="14.99" y1="8.11" x2="11.46" y2="8.11" gradientUnits="userSpaceOnUse"><stop stop-color="#AE60D6" stop-opacity="0"/><stop offset="1" stop-color="#AB38E6"/></linearGradient></defs></svg>