<!-- by TradingView --><svg width="18" height="18" viewBox="0 0 18 18" xmlns="http://www.w3.org/2000/svg"><path fill="#F0F3FA" d="M0 0h18v18H0z"/><circle cx="9" cy="9.01" r="5.31" fill="#110532"/><path fill-rule="evenodd" d="M15 9A6 6 0 1 1 3 9a6 6 0 0 1 12 0Zm-2 0a4 4 0 1 1-8 0 4 4 0 0 1 8 0Zm1 0A5 5 0 1 1 4 9a5 5 0 0 1 10 0Zm-.22 0a4.78 4.78 0 1 1-9.56 0 4.78 4.78 0 0 1 9.56 0Z" fill="url(#al5w2srlq)"/><path d="M8.76 14.4a.27.27 0 1 1-.03.13 5.5 5.5 0 0 1-2.56-.79.27.27 0 1 1 .06-.12c.74.46 1.6.73 2.53.78Zm5.78-4.78a5.54 5.54 0 0 1-4.78 4.87v-.13a5.4 5.4 0 0 0 4.64-4.74h.14ZM6.58 4.03a.27.27 0 1 0 .05.13 5.4 5.4 0 0 1 7.8 4.58.27.27 0 1 0 .14 0 5.54 5.54 0 0 0-7.99-4.7Zm-1.23.83.09.1a5.4 5.4 0 0 0-1.4 6.1h.04a.27.27 0 1 1-.17.05 5.52 5.52 0 0 1 1.44-6.25Z" fill="url(#bl5w2srlq)"/><path d="M7 6.89v4.24h1.12V12h1.29v-.87c.53-.01 1.59-.2 1.59-1.21 0-.77-.58-.98-.87-1 .25-.06.74-.38.74-1.07 0-.86-1.14-.96-1.46-.96v-.9H8.12v.9H7Zm1.09.57h.98c.35 0 .63.25.63.57 0 .32-.28.58-.63.58h-.98V7.46Zm0 1.8h1.1c.39 0 .7.27.7.6 0 .33-.31.6-.7.6h-1.1v-1.2Z" fill="url(#cl5w2srlq)"/><path fill-rule="evenodd" d="M10.37 8.81c.24-.15.5-.46.5-.96 0-.86-1.14-1-1.46-1V6H8.12v.84H7v4.35h1.12v.8h1.29v-.8c.53-.01 1.59-.27 1.59-1.27 0-.57-.32-.84-.6-.94a.9.9 0 0 0-.27-.05.94.94 0 0 0 .24-.12Zm-1.13 3.03v-.65c0-.08.07-.18.17-.19.24 0 .6-.01.9-.2a.99.99 0 0 0 .52-.88c0-.35-.13-.55-.27-.67a.76.76 0 0 0-.44-.17c-.08 0-.15-.06-.16-.13-.01-.07.04-.14.12-.17.19-.05.62-.32.62-.93 0-.35-.23-.49-.52-.64-.3-.15-.64-.2-.77-.2-.1 0-.17-.08-.17-.17v-.7h-.95v.7c0 .09-.07.16-.17.16h-.95v4h.95c.1 0 .17.1.17.19v.65h.95ZM7.92 7.46c0-.09.07-.16.17-.16h.98c.44 0 .8.33.8.73 0 .4-.36.68-.8.68h-.98c-.1 0-.17-.06-.17-.15v-1.1Zm0 1.8c0-.09.07-.15.17-.15h1.1c.47 0 .87.32.87.75 0 .42-.4.75-.88.75h-1.1c-.09 0-.16-.07-.16-.15v-1.2Zm.17-1.76h.98c.35 0 .63.21.63.53 0 .32-.28.54-.63.54h-.98V7.5Zm0 1.76h1.1c.39 0 .7.27.7.6 0 .33-.31.6-.7.6h-1.1v-1.2Z" fill="url(#dl5w2srlq)"/><defs><linearGradient id="al5w2srlq" x1="13.28" y1="5.55" x2="5.84" y2="13.84" gradientUnits="userSpaceOnUse"><stop stop-color="#6604C1"/><stop offset=".46" stop-color="#9522AC"/><stop offset="1" stop-color="#CA4495"/></linearGradient><linearGradient id="bl5w2srlq" x1="9.41" y1="3.33" x2="8.71" y2="5.49" gradientUnits="userSpaceOnUse"><stop stop-color="#735352"/><stop offset=".45" stop-color="#EFD983"/><stop offset="1" stop-color="#B3A161"/></linearGradient><linearGradient id="cl5w2srlq" x1="6.72" y1="6.44" x2="8.64" y2="12.12" gradientUnits="userSpaceOnUse"><stop stop-color="#9C8C53"/><stop offset="1" stop-color="#DCC67A"/></linearGradient><linearGradient id="dl5w2srlq" x1="9" y1="6" x2="9" y2="12" gradientUnits="userSpaceOnUse"><stop stop-color="#F2DB87"/><stop offset=".5" stop-color="#26200D"/><stop offset="1" stop-color="#EFD885"/></linearGradient></defs></svg>