<!-- by TradingView --><svg width="18" height="18" xmlns="http://www.w3.org/2000/svg"><path fill="#F19019" d="M0 0h18v18H0z"/><path d="M9.504 5.23a.5.5 0 00-.508 0l-3.25 1.91a.5.5 0 00-.246.43v.708a19.22 19.22 0 00-1-.425v-.282a1.5 1.5 0 01.74-1.293l3.25-1.912a1.5 1.5 0 011.52 0l3.25 1.912c.459.27.74.761.74 1.293v3.356a1.5 1.5 0 01-.74 1.293l-3.25 1.912a1.5 1.5 0 01-1.52 0L5.24 12.22a1.5 1.5 0 01-.74-1.293v-.782c.33-.128.675-.277 1-.425v1.207a.5.5 0 00.246.431l3.25 1.912a.5.5 0 00.508 0l3.25-1.912a.5.5 0 00.246-.43V7.571a.5.5 0 00-.246-.431l-3.25-1.912z" fill="#fff"/><path fill-rule="evenodd" d="M10.216 7c.882 0 1.284.517 1.284 1.072 0 .376-.217.771-.536.94.153.109.387.44.33.847-.09.654-.703 1.55-1.822 1.55H8.89c-.11.498-.902.624-.856 0h-.788a.404.404 0 01-.41-.397c0-.219.183-.485.41-.485h.122l.989-2.645C7.865 7.882 7.865 7 8.6 7h.76c.11-.561.973-.588.857 0zm-1.55 2.645h1.14c.707 0 .369.882-.177.882H8.357l.31-.882zm1.314-.882H8.894l.294-.881h.777c.675 0 .576.881.015.881z" fill="#fff"/><path d="M4.05 8.265C4.636 8.265 6.4 9 6.4 9s-1.763.735-2.35.735h-.015a.735.735 0 010-1.47h.014z" fill="#fff"/></svg>