<!-- by TradingView --><svg width="18" height="18" viewBox="0 0 18 18" fill="none" xmlns="http://www.w3.org/2000/svg">
<rect width="18" height="18" fill="#F0F3FA"/>
<path fill-rule="evenodd" clip-rule="evenodd" d="M14 5.5354V13.3883C14 14.2784 13.2653 15 12.3589 15H5.64111C4.73475 15 4 14.2784 4 13.3883V4.61167C4 3.72157 4.73475 3 5.64111 3H11.404L14 5.5354ZM10.999 5.29065V3.5477L13.499 6H11.7541C11.3371 6 10.999 5.69251 10.999 5.29065ZM11.4647 7.44805C11.3674 6.57598 10.6874 6.30435 9.68539 6.30435L9.68698 5.07369C9.68658 5.03272 9.63823 4.99976 9.59455 5L9.07898 5C9.03509 5.00024 9.00348 5.03729 9.00389 5.07847V6.30435C8.92303 6.30479 8.84301 6.3041 8.76298 6.30341H8.76296C8.63998 6.30235 8.51696 6.30129 8.3908 6.30435V5.08129C8.39041 5.04031 8.35664 4.99976 8.31296 5H7.78975C7.74586 5.00023 7.70732 5.04478 7.70771 5.08595V6.30435H6.07883C6.03493 6.30457 5.99957 6.32169 5.99998 6.36288L5.99998 6.9224C6.0004 6.96393 6.04313 7.00092 6.08739 7H6.39724H6.74882C6.94247 7 6.97082 7.15625 6.99207 7.27341C6.99472 7.28798 6.99725 7.30195 6.99998 7.31494V10.7573C6.99998 10.8579 6.98798 11.0014 6.76718 11.0029L6.09923 11.0039C6.05495 11.0033 5.99998 11.0343 5.99998 11.0758V11.6361C5.99998 11.6774 6.05527 11.6998 6.09923 11.6996H7.70771V12.9263C7.70812 12.9673 7.74376 13.0002 7.78743 13L8.31197 13C8.35586 12.9998 8.3912 12.9629 8.3908 12.9217V11.6996H9.00389V12.9189C9.00428 12.9599 9.03994 13.0002 9.08363 13H9.6194C9.66328 12.9998 9.68737 12.9553 9.68698 12.9141L9.68726 11.6996C10.982 11.6996 12 11.3089 12 10.2081C12 9.27241 11.6122 8.85566 10.866 8.69083C11.2418 8.47826 11.5371 8.08616 11.4647 7.44805ZM10.4401 10.0713C10.4494 10.9861 8.91959 11.0006 8.3908 11.0039V9.27241C8.44506 9.27213 8.50966 9.27028 8.58191 9.2682C9.21398 9.25004 10.4318 9.21505 10.4401 10.0713ZM10.0985 7.78506C10.1055 8.52177 9.10711 8.4955 8.57228 8.48143H8.57227C8.50292 8.4796 8.44136 8.47798 8.3908 8.47826V7C8.42115 7 8.45592 6.99957 8.49431 6.9991C8.99006 6.99298 10.0906 6.97941 10.0985 7.78506Z" fill="#D6CD42"/>
</svg>
