<!-- by TradingView --><svg width="18" height="18" xmlns="http://www.w3.org/2000/svg"><path fill="#F0B90B" d="M0 0h18v18H0z"/><path d="M8.927 5.934a.152.152 0 01.22 0l.968 1c.06.063.06.165 0 .228L7.234 10.14a.152.152 0 01-.22 0l-.968-1a.165.165 0 010-.228l2.881-2.978zm1.853 1.927a.152.152 0 01.22 0l.967 1c.06.064.06.165 0 .228l-2.88 2.978a.152.152 0 01-.22 0l-.968-1a.165.165 0 010-.227l2.88-2.979zm2.487 1.286a.152.152 0 01.22 0l.967 1a.165.165 0 010 .228l-2.88 2.978a.152.152 0 01-.22 0l-.968-1a.165.165 0 010-.228l2.88-2.978zm1.187-1.522a.165.165 0 010 .228l-.967 1a.152.152 0 01-.22 0l-2.88-2.978a.165.165 0 010-.228l.967-1a.152.152 0 01.22 0l2.88 2.978zm-6.84 4.5c.06.063.06.165 0 .228l-.968 1a.152.152 0 01-.22 0l-2.88-2.978a.165.165 0 010-.227l.967-1a.152.152 0 01.22 0l2.88 2.977zm-4.068-4.5a.165.165 0 000 .228l.967 1c.06.063.16.063.22 0l2.88-2.978a.165.165 0 000-.228l-.967-1a.152.152 0 00-.22 0l-2.88 2.978z" fill="#000"/></svg>