<!-- by TradingView --><svg width="18" height="18" viewBox="0 0 18 18" xmlns="http://www.w3.org/2000/svg"><path fill="url(#an0ocsyz4)" d="M0 0h18v18H0z"/><path d="M5.93 4.84 9 3l3.07 1.84-1.13.68L9 4.36 7.06 5.52l-1.13-.68Zm6.14 2.32-1.13-.68L9 7.64 7.06 6.48l-1.13.68V8.5l1.94 1.16V12l1.13.68 1.13-.68V9.67l1.94-1.16V7.16Zm0 3.67V9.47l-1.13.68v1.36l1.13-.68Zm.8.48-1.94 1.16v1.36L14 11.99V8.32l-1.13.67v2.32ZM11.74 6l1.13.68v1.35L14 7.36V6l-1.13-.68-1.13.68Zm-3.87 6.96v1.36L9 15l1.13-.68v-1.36L9 13.64l-1.13-.68Zm-1.94-2.13 1.13.68v-1.36l-1.13-.68v1.36ZM7.87 6 9 6.68 10.13 6 9 5.32 7.87 6Zm-2.74.68L6.26 6l-1.13-.68L4 6v1.36l1.13.67V6.68Zm0 2.31L4 8.32v3.67l3.07 1.84v-1.36l-1.94-1.16V9Z" fill="#F0B90B"/><defs><linearGradient id="an0ocsyz4" x1="3.35" y1="3.12" x2="21.9" y2="24.43" gradientUnits="userSpaceOnUse"><stop stop-color="#1A1E21"/><stop offset="1" stop-color="#06060A"/></linearGradient></defs></svg>