<!-- by TradingView --><svg width="18" height="18" xmlns="http://www.w3.org/2000/svg"><path fill="url(#paint0_linear)" d="M0 0h18v18H0z"/><path d="M9 3.386L13.36 6.5 9 9.614 4.64 6.5 9 3.386zM6.36 6.5L9 8.386 11.64 6.5 9 4.614 6.36 6.5z" fill="#0E1014"/><path d="M14 7.028v4.73l-4.5 3.214v-4.73L14 7.029zm-3.5 3.73v2.27l2.5-1.785V8.972l-2.5 1.785zM4 7.028v4.73l4.5 3.214v-4.73L4 7.029zm3.5 3.73v2.27L5 11.243V8.972l2.5 1.785z" fill="#101215"/><defs><linearGradient id="paint0_linear" x1="13.179" y1="4.263" x2="2.559" y2="10.083" gradientUnits="userSpaceOnUse"><stop stop-color="#51D2EE"/><stop offset="1" stop-color="#1EEFD9"/></linearGradient></defs></svg>