<!-- by TradingView --><svg xmlns="http://www.w3.org/2000/svg" width="18" height="18"><path fill="url(#ajufq2bt4)" d="M0 0h18v18H0z"/><path d="M6.5 4a.5.5 0 00-.5.5c0 .28.23.5.5.5h1.92a.5.5 0 00.5-.5.5.5 0 00-.5-.5H6.5zm5.17 2.23a.5.5 0 00.3-.64.5.5 0 00-.65-.3L6.33 7.12a.5.5 0 00-.3.64c.1.26.39.4.65.3l4.99-1.83zm0 4.65a.5.5 0 00.3-.64.5.5 0 00-.65-.3l-4.99 1.83a.5.5 0 00-.3.64c.1.26.39.4.65.3l4.99-1.83zM9.57 13a.5.5 0 00-.5.5c0 .28.23.5.5.5h1.93a.5.5 0 00.5-.5.5.5 0 00-.5-.5H9.58zm2.1-4.49a.5.5 0 00.3-.64.5.5 0 00-.66-.29l-4.99 1.9a.5.5 0 00-.29.65c.1.26.4.39.66.29l4.99-1.9z" fill="#fff"/><defs><linearGradient id="ajufq2bt4" x1="3.35" y1="3.12" x2="21.9" y2="24.43" gradientUnits="userSpaceOnUse"><stop stop-color="#1A1E21"/><stop offset="1" stop-color="#06060A"/></linearGradient></defs></svg>