<!-- by TradingView --><svg width="18" height="18" xmlns="http://www.w3.org/2000/svg"><path fill="#319E31" d="M0 0h18v18H0z"/><path d="M14.124 8.935A4.6 4.6 0 0012.3 6.127a4.287 4.287 0 00-2.715-.852A4.573 4.573 0 005.302 8.57a4.765 4.765 0 002.359 5.579c-.113-.028-.225-.052-.328-.085-.515-.158-1-.4-1.437-.716a5.125 5.125 0 01-.711-.636 4.831 4.831 0 01-1.278-2.682 5.883 5.883 0 01-.056-.992c.014-.51.108-1.006.271-1.489a5.443 5.443 0 01.852-1.59A5.415 5.415 0 016.5 4.6a5.101 5.101 0 013.257-.711 4.867 4.867 0 014.231 3.786c.061.28.09.561.122.852.019.13.024.271.033.407h-.024.005zm-1.198-.108c-.094-.121-.178-.239-.28-.337a4.344 4.344 0 00-.516-.458 3.09 3.09 0 00-1.25-.543 3.463 3.463 0 00-1.104-.047c-.459.057-.902.204-1.306.43A3.688 3.688 0 006.74 10.03a3.333 3.333 0 00-.127 1.357c.014.108.028.216.028.328-.037-.066-.08-.131-.112-.201a3.337 3.337 0 01-.337-1.217 3.62 3.62 0 012.55-3.74c.45-.14.904-.168 1.367-.13.382.036.753.142 1.096.313a3.253 3.253 0 011.722 2.05v.037z" fill="#fff"/><path fill-rule="evenodd" d="M9.057 9.005c-.02 0-.057.042-.057.062v3.825c0 .078.033.103.094.103h.727s1.98.138 2.166-.993c.084-.513-.237-.912-.727-1.044-.013-.003-.024-.016-.036-.03a.292.292 0 00-.016-.018l.014-.016a.117.117 0 01.033-.032.856.856 0 00.201-1.499c-.456-.432-1.984-.358-1.984-.358h-.415zM10 10.58c0 .058.034.087.1.087h.095c.225.003.36.005.57-.145a.447.447 0 00-.043-.77c-.188-.088-.303-.086-.498-.084h-.1c-.085 0-.124.044-.124.122v.79zm.095 1.747c-.052 0-.095-.03-.095-.087v-.796c0-.068.043-.102.11-.102.222-.01.308-.008.524.047.355.114.423.444.292.657-.176.288-.39.285-.666.28h-.165z" fill="#fff"/></svg>