<!-- by TradingView --><svg width="18" height="18" viewBox="0 0 18 18" xmlns="http://www.w3.org/2000/svg"><path fill="url(#am5xvy5g5)" d="M0 0h18v18H0z"/><path d="M13.69 6.5c0-1.3-.83-2.5-3.12-2.5h-6.1a.48.48 0 0 0-.47.5v9c0 .28.21.5.48.5h6.19c2.38 0 3.33-1.32 3.33-2.7 0-1.38-1.26-2.4-2.57-2.4 1.31 0 2.26-1.1 2.26-2.4ZM8.54 10h2.4a.9.9 0 0 1 .87.91c0 .5-.4 1.09-.87 1.09H6V6h4.65c.47 0 .85.5.85 1s-.36 1-.83 1H8.56c-.27 0-.54.29-.54.57L8 9.45c0 .28.27.55.54.55Z" fill="#fff"/><defs><linearGradient id="am5xvy5g5" x1="16.79" y1="4.2" x2="3" y2="16.05" gradientUnits="userSpaceOnUse"><stop stop-color="#F9A13C"/><stop offset="1" stop-color="#FF5291"/></linearGradient></defs></svg>