<!-- by TradingView --><svg width="18" height="18" viewBox="0 0 18 18" xmlns="http://www.w3.org/2000/svg"><path fill="#F0F3FA" d="M0 0h18v18H0z"/><path d="M14 9A5 5 0 1 1 4 9a5 5 0 0 1 10 0Z" fill="url(#awqejrj0j)" fill-opacity=".3"/><path fill-rule="evenodd" d="M9 13.65a4.65 4.65 0 1 0 0-9.3 4.65 4.65 0 0 0 0 9.3ZM9 14A5 5 0 1 0 9 4a5 5 0 0 0 0 10Z" fill="url(#bwqejrj0j)"/><path d="m6.2 11.4 2-1.8c.18.09.5.3.52.61l-1.77 1.95c-.25 0-.75-.17-.75-.76Zm.66.24a.15.15 0 1 0 0-.31.15.15 0 0 0 0 .3Z" fill="url(#cwqejrj0j)"/><path d="m8.78 9.4 2.06.87.43-.45-.07-.1.2-.16.22.27-.72.76-2.05-.88-.33.36-.19-.18.45-.49Z" fill="#737071"/><path d="M8.57 5.88c-.62.1-1.03.75-1.16 1.07l3.12 3.14c.85 0 1.12-.7 1.15-1.05l-3.1-3.16Z" fill="#B38C68"/><path d="M7.93 6.46c-.13.05-.25.5-.3.71l2.8 2.82c.52-.04.66-.3.66-.42.14-.03.46-.38.6-.55L8.62 5.9c-.1.05-.31.17-.31.28 0 .14-.21.22-.38.28Z" fill="url(#dwqejrj0j)"/><path d="M10.42 4 8.6 5.93l3.06 3.09 2.31-2.32V4h-3.55Z" fill="url(#ewqejrj0j)"/><defs><linearGradient id="awqejrj0j" x1="5.78" y1="5.21" x2="11.97" y2="12.79" gradientUnits="userSpaceOnUse"><stop stop-color="#99817E"/><stop offset=".25" stop-color="#948680"/><stop offset=".51" stop-color="#7C988B"/><stop offset=".77" stop-color="#7B90A1"/><stop offset="1" stop-color="#868A9F"/></linearGradient><linearGradient id="bwqejrj0j" x1="5.85" y1="4.97" x2="11.78" y2="13.02" gradientUnits="userSpaceOnUse"><stop stop-color="#FF413F"/><stop offset=".16" stop-color="#FD9819"/><stop offset=".36" stop-color="#FCC008"/><stop offset=".51" stop-color="#45C391"/><stop offset=".7" stop-color="#D69B70"/><stop offset=".86" stop-color="#A767E5"/><stop offset="1" stop-color="#6A8AEF"/></linearGradient><linearGradient id="cwqejrj0j" x1="6.94" y1="10.56" x2="7.83" y2="11.49" gradientUnits="userSpaceOnUse"><stop stop-color="#D02612"/><stop offset=".48" stop-color="#EB4F2E"/><stop offset="1" stop-color="#841F0C"/></linearGradient><linearGradient id="dwqejrj0j" x1="8.15" y1="6.55" x2="11.15" y2="9.5" gradientUnits="userSpaceOnUse"><stop stop-color="#0EBEFF"/><stop offset=".28" stop-color="#46CB85"/><stop offset=".51" stop-color="#FA4B4C"/><stop offset=".69" stop-color="#F9CD07"/><stop offset="1" stop-color="#AE63E4"/></linearGradient><linearGradient id="ewqejrj0j" x1="9.62" y1="4.82" x2="12.65" y2="7.94" gradientUnits="userSpaceOnUse"><stop stop-color="#79DBFF"/><stop offset=".29" stop-color="#77DC9B"/><stop offset=".55" stop-color="#EB6F69"/><stop offset=".73" stop-color="#FEE074"/><stop offset="1" stop-color="#C58FEC"/></linearGradient></defs></svg>