<!-- by TradingView --><svg width="18" height="18" xmlns="http://www.w3.org/2000/svg"><path fill="#E6BA41" d="M0 0h18v18H0z"/><path d="M5.772 6.663a.157.157 0 000 .222l.89.89a.157.157 0 00.223 0L8.89 5.773a.157.157 0 01.222 0l2.004 2.004a.157.157 0 00.222 0l.89-.89a.157.157 0 000-.223L9.112 3.546a.157.157 0 00-.222 0L5.772 6.663zm6.456 4.674a.157.157 0 000-.222l-.89-.89a.158.158 0 00-.223 0L9.11 12.227a.157.157 0 01-.222 0l-2.004-2.004a.158.158 0 00-.222 0l-.89.89a.157.157 0 000 .223l3.116 3.117a.157.157 0 00.222 0l3.117-3.117zM3.546 9.111a.157.157 0 010-.222l.89-.89a.157.157 0 01.223 0l.89.89a.157.157 0 010 .222l-.89.89a.157.157 0 01-.222 0l-.89-.89zm8.904 0a.158.158 0 010-.222l.89-.89a.157.157 0 01.223 0l.89.89a.157.157 0 010 .222l-.89.89a.157.157 0 01-.222 0l-.89-.89zm-4.452 0a.157.157 0 010-.222l.89-.89a.157.157 0 01.223 0l.89.89a.157.157 0 010 .222l-.89.89a.157.157 0 01-.222 0l-.89-.89z" fill="#000"/></svg>