<!-- by TradingView --><svg width="18" height="18" xmlns="http://www.w3.org/2000/svg"><path fill="#6C5A5A" d="M0 0h18v18H0z"/><path d="M6.51 8.701l-.843 1.782.39 1.46.997.264 1.233 1.233-.37.376-2.943-.79-.79-2.942.592-.593L7.348 6.92 6.51 8.7l-.843 1.782 2.62-2.624-.939-.94-.838 1.782zM7.86 9.713l2.62 2.62 1.464-.39.264-.997 1.233-1.233.376.37-.79 2.943-2.942.79-3.164-3.164.939-.94zm2.282-1.426l-2.62-2.62-1.464.39-.264.997L4.56 8.287l-.376-.37.79-2.943 2.942-.79.593.592 2.572 2.572-.94.94zm.805-2.494L9.713 4.56l.37-.376 2.943.79.79 2.942-3.164 3.165-.94-.94 2.62-2.624-.39-1.46-.996-.264z" fill="#fff"/></svg>