<!-- by TradingView --><svg width="18" height="18" viewBox="0 0 18 18" xmlns="http://www.w3.org/2000/svg"><path fill="url(#a3hequd4q)" d="M0 0h18v18H0z"/><path fill-rule="evenodd" d="M5 4.5c0-.28.22-.5.5-.5h5.61a.5.5 0 0 1 .34.13l1.67 1.52a.5.5 0 0 1 .02.72l-2.12 2.18L13.87 11c.1.09.12.22.13.36 0 .14 0 .27-.1.37l-2.13 2.13a.5.5 0 0 1-.36.15H5.5a.5.5 0 0 1-.5-.5v-9Zm5.25 3.4 1.81-1.86L10.92 5H6.86l3.4 2.9ZM6 5.58l3.56 3.04L6 12.27V5.58ZM6.69 13l3.63-3.73 2.49 2.13-1.6 1.6H6.69Z" fill="#fff"/><defs><linearGradient id="a3hequd4q" x1="16.23" y1="4.02" x2="2.73" y2="15.59" gradientUnits="userSpaceOnUse"><stop stop-color="#5ED1F9"/><stop offset="1" stop-color="#144FE5"/></linearGradient></defs></svg>