<!-- by TradingView --><svg width="18" height="18" viewBox="0 0 18 18" xmlns="http://www.w3.org/2000/svg"><path fill="#047FFF" d="M0 0h18v18H0z"/><path d="M4.58 5.52c-.3.16-.45.39-.49.48L9 9.04V15c.15.03.23-.01.26-.04 1.33-.81 4.06-2.5 4.36-2.66a.8.8 0 0 0 .38-.7V9.83l-1 .6v.82c0 .22-.05.33-.1.36l-2.67 1.65c-.27.16-.23.01-.23-.08V8.45C8.8 7.7 6.23 6.18 6.07 6.08c-.17-.1-.07-.25 0-.31l2.7-1.68c.16-.13.33-.05.41 0l.7.44.9-.57-1.39-.85a.85.85 0 0 0-.81 0c-1.21.73-3.7 2.25-4 2.41Z" fill="#fff"/><path d="M4 11.58V6.5l1 .55c0 1.25.02 3.8 0 4.1-.02.3.07.48.17.53l3.34 2.06v1.1l-3.9-2.4c-.54-.35-.63-.67-.6-.87ZM13.5 5.62l-2.2-1.37-.94.57c.7.41 2.13 1.29 2.4 1.5.25.2.24.55.24.7v2.82l1-.57V6.54c0-.51-.33-.83-.5-.92Z" fill="#fff"/></svg>