<!-- by TradingView --><svg width="18" height="18" viewBox="0 0 18 18" xmlns="http://www.w3.org/2000/svg"><path fill="url(#ac2h0xbrc)" d="M0 0h18v18H0z"/><path d="M13.95 12.8c-1.5 1.48-2.8 2.2-4.94 2.2A5.76 5.76 0 0 1 3 8.98 5.87 5.87 0 0 1 9.05 3c1.9 0 3.7.84 4.95 2.3l-1.5 1.4A4.67 4.67 0 0 0 9 5.03c-2.13 0-4 1.53-4 3.95A3.87 3.87 0 0 0 9 13c1.4 0 2.36-.57 3.43-1.65l1.52 1.45Z" fill="#fff"/><defs><linearGradient id="ac2h0xbrc" x1="3.35" y1="3.12" x2="21.9" y2="24.43" gradientUnits="userSpaceOnUse"><stop stop-color="#1A1E21"/><stop offset="1" stop-color="#06060A"/></linearGradient></defs></svg>