<!-- by TradingView --><svg width="18" height="18" xmlns="http://www.w3.org/2000/svg"><path fill="url(#paint0_linear)" d="M0 0h18v18H0z"/><path d="M9.14 12.855a5.46 5.46 0 001.042-.179c.421.136.867.166 1.301.09a.293.293 0 01.052-.005c.155 0 .359.095.655.295v-.329c0-.057.015-.112.042-.162a.313.313 0 01.114-.117c.129-.077.249-.165.358-.263.432-.385.676-.899.676-1.443a1.8 1.8 0 00-.08-.53c.131-.256.237-.525.314-.805.25.396.385.86.386 1.335 0 .74-.327 1.429-.892 1.933a2.94 2.94 0 01-.298.233v.769c0 .264-.29.417-.494.26a7.479 7.479 0 00-.6-.427 1.46 1.46 0 00-.184-.098c-.17.026-.344.04-.52.04a3.177 3.177 0 01-1.872-.597zm-3.733-1.538C4.515 10.521 4 9.437 4 8.274 4 5.898 6.129 4 8.729 4S13.5 5.898 13.5 8.274c0 2.375-2.172 4.274-4.771 4.274a5.23 5.23 0 01-.864-.071c-.123.03-.612.337-1.318.879-.255.197-.618.007-.618-.325V11.72a4.656 4.656 0 01-.522-.403zm2.458.176c.021 0 .043.001.065.005.255.045.517.068.782.068 2.196 0 3.788-1.392 3.788-3.292s-1.575-3.275-3.771-3.275C6.534 5 5 6.374 5 8.274c0 .919.283 1.609 1.01 2.256.182.162.382.31.597.438.12.071.195.205.195.35l-.097.93c.558-.393.908-.755 1.16-.755z" fill="#fff"/><ellipse cx="6.498" cy="8.5" rx=".498" ry=".5" fill="#fff"/><circle cx="8.724" cy="8.5" fill="#fff" r=".5"/><circle cx="10.951" cy="8.5" r=".5" fill="#fff"/><defs><linearGradient id="paint0_linear" x1="9" y1="0" x2="9" y2="18" gradientUnits="userSpaceOnUse"><stop stop-color="#1BC9FA"/><stop offset="1" stop-color="#1778F0"/></linearGradient></defs></svg>