<!-- by TradingView --><svg width="18" height="18" xmlns="http://www.w3.org/2000/svg"><path fill="#E72E2E" d="M0 0h18v18H0z"/><path d="M13.728 13.671A6.646 6.646 0 104.3 4.301a6.647 6.647 0 019.428 9.37zm-.057.057zM9 14.002a5.015 5.015 0 01-5.01-5.01c0-2.76 2.247-5.01 5.01-5.01 2.764 0 5.01 2.25 5.01 5.01A5.015 5.015 0 019 14.002zm-.008-9.236a4.223 4.223 0 000 8.44 4.223 4.223 0 000-8.436v-.004zm.743 5.634c.257.057.506.147.74.268a2.24 2.24 0 00.103-3.27 2.248 2.248 0 10-3.071 3.275c.233-.122.481-.214.738-.273a1.602 1.602 0 01-.856-1.412 1.603 1.603 0 013.206-.004 1.602 1.602 0 01-.86 1.416zm1.783 1.255a2.308 2.308 0 00-.462-.583 2.933 2.933 0 00.872-2.088 2.944 2.944 0 00-5.876 0c0 .818.336 1.556.876 2.088a2.262 2.262 0 00-.462.583 3.668 3.668 0 01-1.153-2.67 3.683 3.683 0 017.354 0 3.668 3.668 0 01-1.15 2.67z" fill="#fff"/></svg>