<!-- by TradingView --><svg width="18" height="18" viewBox="0 0 18 18" xmlns="http://www.w3.org/2000/svg"><path fill="#F0F3FA" d="M0 0h18v18H0z"/><path d="m13 11.07-2.38.6-.13.4.37 1.41A6.25 6.25 0 0 0 13 11.07ZM9.92 13.87l.45-1.4.28 1.12c-.15.1-.55.23-.73.28ZM10.19 11.8l-2.21.57L9.15 14c.17.01.42-.03.53-.05l.59-1.88-.08-.27ZM7.75 12.43l-1.43.38c1.02 1 2.12 1.2 2.55 1.18l-1.12-1.56Z" fill="#3E3A39"/><path d="m10.7 11.43 1.36-4.37c.78 1.56.63 3.25.47 3.9l-1.84.47Z" fill="#595758"/><path d="M6.13 12.61c-.98-1-1.16-3.1-1.13-4.03l2.6 3.66-1.47.37ZM10.36 11.5 8.43 4c1.63.8 2.9 2.54 3.32 3.3l-1.3 4.2h-.1Z" fill="#888"/><path d="M5.5 8.88c.38-1.96 2.07-3.56 2.88-4.11l1.75 6.8-2.3.6-2.32-3.3Z" fill="#68C6E0"/></svg>