<!-- by TradingView --><svg xmlns="http://www.w3.org/2000/svg" width="18" height="18"><path fill="url(#auxoau3l3)" d="M0 0h18v18H0z"/><path fill-rule="evenodd" d="M8.76 3.06a.5.5 0 01.48 0l5 2.76a.5.5 0 01.26.44v5.48a.5.5 0 01-.26.44l-5 2.76a.5.5 0 01-.48 0l-5-2.76a.5.5 0 01-.26-.44V6.26c0-.18.1-.35.26-.44l5-2.76zM9 3.7l4.81 2.66v5.3L9 14.31l-4.81-2.66v-5.3L9 3.69zm-.25 4.92L5 6.5l-.27.44 3.74 2.11.28-.44zm.47 0l3.67-2.07.27.44L9.5 9.05l-.28-.44zm-.56 5.03V9h.68v4.64h-.68z" fill="#fff"/><defs><linearGradient id="auxoau3l3" x1="3.35" y1="3.12" x2="21.9" y2="24.43" gradientUnits="userSpaceOnUse"><stop stop-color="#1A1E21"/><stop offset="1" stop-color="#06060A"/></linearGradient></defs></svg>