<!-- by TradingView --><svg width="18" height="18" viewBox="0 0 18 18" xmlns="http://www.w3.org/2000/svg"><path fill="url(#ah01uk2pl)" d="M0 0h18v18H0z"/><path d="M12.39 9.94c-.25-.15-.58-.09-.78.11-.54.54-1.28.8-2.11.84V12a4.38 4.38 0 0 0 3-1.37c.2-.21.13-.53-.11-.68ZM6.19 8c0 1.03.5 1.9 1.31 2.4v1.24A4 4 0 0 1 5 8c0-2.2 1.91-4 4.27-4 1.56 0 2.91.77 3.66 1.93.16.24.03.54-.24.65a.63.63 0 0 1-.74-.24A3.18 3.18 0 0 0 9.27 5.1C7.5 5.1 6.2 6.34 6.2 8Zm4.31 6a.5.5 0 1 0 0-1 .5.5 0 0 0 0 1ZM8 8.53c0-.3.22-.53.5-.53s.5.24.5.53v5.95c0 .28-.22.52-.5.52a.51.51 0 0 1-.5-.53V8.52ZM10.5 6a.5.5 0 0 0-.5.5v3a.5.5 0 0 0 1 0v-3a.5.5 0 0 0-.5-.5Z" fill="#F0F3FA"/><defs><linearGradient id="ah01uk2pl" x1="9" y1="0" x2="9" y2="18" gradientUnits="userSpaceOnUse"><stop stop-color="#4564FD"/><stop offset="1" stop-color="#3753DD"/></linearGradient></defs></svg>