<!-- by TradingView --><svg width="18" height="18" viewBox="0 0 18 18" xmlns="http://www.w3.org/2000/svg"><path fill="#F0F3FA" d="M0 0h18v18H0z"/><path d="M3.27 8.12c-.19 0-.27.08-.27.23v3.93c0 .17.08.22.27.22 2.08.02 4.62-1.65 6.73-2.97V5C7.92 6.3 5.3 8.14 3.27 8.12Z" fill="url(#auhqfajcm)"/><path d="M14.73 9.9c.19 0 .27-.08.27-.23V5.74c0-.17-.08-.23-.27-.23C12.63 5.5 10.1 7.17 8 8.5V13c2.08-1.3 4.69-3.14 6.73-3.1Z" fill="url(#buhqfajcm)"/><path d="M10 9.46V7.25c-.73.4-1.36.81-2 1.25v2.26c.7-.42 1.37-.88 2-1.3Z" fill="#194AAD"/><defs><linearGradient id="auhqfajcm" x1="7.14" y1="11.95" x2="6.13" y2="5.62" gradientUnits="userSpaceOnUse"><stop offset=".1" stop-color="#194AAD"/><stop offset=".5" stop-color="#248FCB"/><stop offset=".8" stop-color="#2BBFDF"/></linearGradient><linearGradient id="buhqfajcm" x1="12.27" y1="5.1" x2="10.93" y2="13.47" gradientUnits="userSpaceOnUse"><stop offset=".1" stop-color="#194AAD"/><stop offset=".5" stop-color="#248FCB"/><stop offset=".8" stop-color="#2BBFDF"/></linearGradient></defs></svg>