<!-- by TradingView --><svg xmlns="http://www.w3.org/2000/svg" width="18" height="18"><path fill="#101115" d="M0 0h18v18H0z"/><path d="M4.11 8c.04.33.1.66.17 1H8.5a.5.5 0 010 1H4.54c.1.34.22.67.36 1h2.6a.5.5 0 110 1H5.4a6.4 6.4 0 003.7 3l.1-.04c.72-.27 5.15-1.95 4.78-9.33a.32.32 0 00-.31-.29A9.06 9.06 0 019.4 4.08a.57.57 0 00-.6.01c-1.32.86-3.37 1.18-4.5 1.25a.3.3 0 00-.29.28C4 6.02 4 6.5 4.02 7H7.5a.5.5 0 010 1H4.11z" fill="url(#a4xe53as0)"/><defs><linearGradient id="a4xe53as0" x1="15.6" y1="9.5" x2="3.17" y2="9.5" gradientUnits="userSpaceOnUse"><stop stop-color="#8D8CE9"/><stop offset=".22" stop-color="#B087C0"/><stop offset=".42" stop-color="#F1926E"/><stop offset=".63" stop-color="#F1BF6D"/><stop offset=".84" stop-color="#DEEB7A"/><stop offset="1" stop-color="#B9EE8A"/></linearGradient></defs></svg>