<!-- by TradingView --><svg width="18" height="18" viewBox="0 0 18 18" xmlns="http://www.w3.org/2000/svg"><path fill="#39B0F4" d="M0 0h18v18H0z"/><path d="M9 3v1.57L5.74 6.64a.4.4 0 0 0-.2.33v3.98c0 .13.08.26.2.33l3.34 2c.12.07.27.07.39 0l3.14-1.86 1.39 1-4.34 2.48a.77.77 0 0 1-.77 0l-4.51-2.67a.76.76 0 0 1-.38-.65V6.3c0-.27.15-.53.38-.66L9 3Zm0 1.98v1.15L7.08 7.4C7 7.45 7 7.53 7 7.62v2.6c0 .08 0 .16.08.2l1.97 1.31c.08.05.18.05.26 0l2.03-1.3.9.65-2.8 1.7a.5.5 0 0 1-.51 0l-2.68-1.73a.5.5 0 0 1-.25-.43V7.18c0-.17.1-.34.26-.43L9 4.98ZM9 10a1 1 0 1 0 0-2 1 1 0 0 0 0 2Zm5-3a1 1 0 1 1-2 0 1 1 0 0 1 2 0Zm-3.25.5a.25.25 0 1 0 0-.5.25.25 0 0 0 0 .5Z" fill="#fff"/></svg>