<!-- by TradingView --><svg width="18" height="18" viewBox="0 0 18 18" xmlns="http://www.w3.org/2000/svg"><path fill="url(#akoakpcbm)" d="M0 0h18v18H0z"/><path d="m6.25 7 2.89-2.93c.1-.11.2-.07.24 0L10.6 7h1.97c.12 0 .18.1.2.12.36.97 1.07 3.36 1.16 3.57.1.2-.04.3-.12.31h-2.07a57.92 57.92 0 0 1-2.94 2.97c-.13.09-.24-.03-.27-.1L7.34 11H5.39c-.11 0-.17-.1-.19-.13-.37-.96-1.07-3.35-1.15-3.57-.1-.22.03-.3.1-.3h2.1Z" fill="#fff"/><path d="M12.44 7.44h-1.87L9.29 9.02l.51 1.54h3.72l-1.08-3.12ZM8.29 7.44h-3.8l1.06 3.12h1.91l1.35-1.6-.52-1.52Z" fill="#131619"/><path d="m6.87 7 2.26-2.36 1.13 2.56-1.13 1.4L8.6 7H6.87ZM11.34 11l-2.58 2.48-1.04-2.66 1.25-1.37.54 1.55h1.83Z" fill="#131619"/><defs><linearGradient id="akoakpcbm" x1="3.35" y1="3.12" x2="21.9" y2="24.43" gradientUnits="userSpaceOnUse"><stop stop-color="#1A1E21"/><stop offset="1" stop-color="#06060A"/></linearGradient></defs></svg>