<!-- by TradingView --><svg width="18" height="18" viewBox="0 0 18 18" xmlns="http://www.w3.org/2000/svg"><path fill="url(#a54tp5mqz)" d="M0 0h18v18H0z"/><path d="M8.95 4.19c-.06-.16.18-.27.24-.12l4.68 8.45c-.08 0-.16-.03-.24-.05l-4.16-.87c-.14 0-.17-.23-.04-.27l1.64-.47a.14.14 0 0 0 .09-.08.15.15 0 0 0 0-.12L8.96 4.2Z" fill="url(#b54tp5mqz)"/><path d="M8.71 4.2a.5.5 0 0 1 .04.08l1.5 4.4c.04.12-.13.22-.2.13-.43-.46-.83-.94-1.24-1.4-.07-.06-.16-.02-.2.05l-4.3 5.27c-.05.06-.1.14-.18.15-.06 0-.1-.04-.13-.1v-.07l4.71-8.5Z" fill="url(#c54tp5mqz)"/><path d="M7.4 9.23c.08-.02.19.04.16.14l-.52 1.81c-.02.08.04.15.11.15l6.74 1.43c.05.01.08.04.11.07v.1l-.06.07H4.4l3-3.77Z" fill="url(#d54tp5mqz)"/><defs><linearGradient id="a54tp5mqz" x1="3.35" y1="3.12" x2="21.9" y2="24.43" gradientUnits="userSpaceOnUse"><stop stop-color="#1A1E21"/><stop offset="1" stop-color="#06060A"/></linearGradient><linearGradient id="b54tp5mqz" x1="8.94" y1="4" x2="14.21" y2="12.3" gradientUnits="userSpaceOnUse"><stop stop-color="#307CC0"/><stop offset="1" stop-color="#58BFDC"/></linearGradient><linearGradient id="c54tp5mqz" x1="9.38" y1="6.12" x2="3.71" y2="12.63" gradientUnits="userSpaceOnUse"><stop stop-color="#388BC7"/><stop offset="1" stop-color="#58BFDC"/></linearGradient><linearGradient id="d54tp5mqz" x1="4.4" y1="13" x2="13.48" y2="13" gradientUnits="userSpaceOnUse"><stop stop-color="#ACADAD"/><stop offset=".47" stop-color="#DEDFDF"/><stop offset="1" stop-color="#B1B2B2"/></linearGradient></defs></svg>