<!-- by TradingView --><svg width="18" height="18" viewBox="0 0 18 18" xmlns="http://www.w3.org/2000/svg"><path fill="#E4323E" d="M0 0h18v18H0z"/><path d="M7.62 6h.73c.06 0 .12-.03.15-.09l.5-.88a.18.18 0 0 1 .32 0l.48.88c.04.05.1.09.16.09h.74c.13 0 .22-.14.15-.26L9.35 3.1a.22.22 0 0 0-.37 0L7.46 5.74c-.07.11.02.26.16.26Zm-3.45 7h3.34c.15 0 .23-.18.12-.29L7 12H5.9a.2.2 0 0 1-.17-.33l.27-.4a.26.26 0 0 0-.03-.33l-.44-.44a.17.17 0 0 0-.26.04l-1.25 2.2c-.06.12.02.26.15.26Zm9.66 0h-3.34a.17.17 0 0 1-.12-.29L11 12h1.1a.2.2 0 0 0 .17-.33l-.27-.4a.26.26 0 0 1 .03-.33l.44-.44a.17.17 0 0 1 .26.04l1.25 2.2a.17.17 0 0 1-.15.26ZM8.69 7.2v1.53c0 .15-.11.27-.24.27h-.48c-.14 0-.22-.12-.22-.27v-.45c0-.1-.1-.28-.2-.28H5.84c-.16 0-.23.3-.12.42l1.72 1.9c.1.12.31.11.31-.06 0-.14.08-.26.2-.26h.5c.13 0 .24.12.24.27v2.5c0 .2-.22.3-.35.16L4.37 8.5a.25.25 0 0 1 0-.33L5.41 7h3.1c.1 0 .18.09.18.2Zm.62 5.57V7.3c0-.17.13-.31.28-.31h2.89c.07 0 .14.03.2.1l.95 1.1.03.03c.08.15-.04.32-.15.46l-.06.1-.06.08c-.04.07-.09.13-.15.13h-.96c-.07 0-.15-.06-.15-.14v-.05c0-.1.06-.2.13-.26v-.01a.72.72 0 0 0 .09-.28c0-.1-.1-.26-.2-.26h-1.7c-.1 0-.2.17-.2.28v1.87c0 .21.26.32.39.17l.32-.3c.01-.02.03-.02.05-.02h.8c.2 0 .29.24.16.4l-2.3 2.53c-.13.15-.36.04-.36-.16Z" fill="#fff"/></svg>