<!-- by TradingView --><svg width="18" height="18" viewBox="0 0 18 18" xmlns="http://www.w3.org/2000/svg"><path fill="#008DE4" d="M0 0h18v18H0z"/><path d="M11.93 8.48c-.04.35-.12.73-.24 1.13-.32 1.13-1.5 1.39-2.63 1.39H5.91l-.53 1.99.01.01h3.76c.41 0 .8-.02 1.15-.07.51-.06 1-.22 1.46-.48 1.1-.6 1.7-1.7 2-2.86.14-.58.22-1.14.24-1.69.02-.79-.17-1.61-.8-2.16a3.21 3.21 0 0 0-1.67-.67 6.85 6.85 0 0 0-.95-.07 18025.2 18025.2 0 0 1-3.76 0l-.4 2h3.43c.94 0 2.24.24 2.08 1.48Zm-6.91-.44c-.45.1-.7.44-.81.92A27.4 27.4 0 0 0 4 10h3.7c.14 0 .26 0 .36-.02.4-.06.68-.3.82-.74l.08-.27A33.68 33.68 0 0 0 9.16 8H5.3c-.09 0-.18.01-.28.04Z" fill="#fff"/></svg>