<!-- by TradingView --><svg width="18" height="18" viewBox="0 0 18 18" xmlns="http://www.w3.org/2000/svg"><path fill="url(#azdjtkbsd)" d="M0 0h18v18H0z"/><path d="M8.29 9.12v-4.7c0-.42.3-.75.71-.75.42 0 .71.33.71.75V6.6c.25-.18.52-.39.72-.62V4.42C10.43 3.63 9.79 3 9 3c-.79 0-1.43.63-1.43 1.42v3.5c0 .5.31.95.72 1.2Z" fill="#fff"/><path d="m8.56 8.41 3.78-2.35c.33-.2.75-.08.95.27.19.36.07.82-.26 1.03l-1.75 1.09c.26.12.53.21.8.26l1.26-.78c.63-.39.85-1.25.48-1.93a1.27 1.27 0 0 0-1.8-.52l-2.8 1.75c-.42.26-.65.71-.66 1.18Z" fill="#fff"/><path d="m13.34 10.07-2.81-1.75c-.41-.26-.9-.25-1.28-.03l3.78 2.36c.33.2.45.66.26 1.02a.67.67 0 0 1-.95.27l-1.75-1.09c.02.3.09.6.18.9l1.26.77c.63.4 1.43.16 1.8-.52.36-.68.14-1.54-.49-1.93Z" fill="#fff"/><path d="M9.71 8.88v4.7c0 .42-.3.75-.71.75-.42 0-.71-.33-.71-.75V11.4c-.25.18-.52.4-.72.62v1.56c0 .79.64 1.42 1.43 1.42.79 0 1.43-.63 1.43-1.42v-3.5c0-.5-.31-.95-.72-1.2Z" fill="#fff"/><path d="m9.44 9.59-3.78 2.35a.67.67 0 0 1-.95-.27.78.78 0 0 1 .26-1.02l1.75-1.1a3.26 3.26 0 0 0-.8-.26l-1.26.78c-.63.39-.85 1.25-.48 1.93.36.68 1.16.91 1.8.52l2.8-1.75c.42-.26.65-.71.66-1.18Z" fill="#fff"/><path d="m4.66 7.94 2.81 1.75c.41.25.9.24 1.28.02L4.97 7.36a.78.78 0 0 1-.26-1.03c.2-.35.62-.48.95-.27l1.75 1.09c-.02-.3-.09-.6-.18-.89l-1.26-.78a1.26 1.26 0 0 0-1.8.52c-.36.68-.14 1.54.49 1.94Z" fill="#fff"/><defs><linearGradient id="azdjtkbsd" x1="3.35" y1="3.12" x2="21.9" y2="24.43" gradientUnits="userSpaceOnUse"><stop stop-color="#1A1E21"/><stop offset="1" stop-color="#06060A"/></linearGradient></defs></svg>