<!-- by TradingView --><svg width="18" height="18" viewBox="0 0 18 18" xmlns="http://www.w3.org/2000/svg"><path fill="url(#argxohpvv)" d="M0 0h18v18H0z"/><path d="m10.83 5.47-1.6 1.65a.32.32 0 0 1-.23.1.32.32 0 0 1-.23-.1l-1.6-1.65L4.9 5l3.34 3.44c.42.44 1.18.38 1.6-.06L13.11 5l-2.28.47Zm-.33 7.11v-1.94c0-.16.22-.34.4-.34h2.2L15 9h-4.63a1.1 1.1 0 0 0-1.07 1.09V14l1.2-1.42ZM7.12 10.3H4.9L3 9h4.55c.59 0 1.15.45 1.15 1v4l-1.2-1.42V10.6c0-.16-.2-.31-.38-.31Z" fill="#fff"/><defs><linearGradient id="argxohpvv" x1="3.35" y1="3.12" x2="21.9" y2="24.43" gradientUnits="userSpaceOnUse"><stop stop-color="#1A1E21"/><stop offset="1" stop-color="#06060A"/></linearGradient></defs></svg>