<!-- by TradingView --><svg width="18" height="18" viewBox="0 0 18 18" xmlns="http://www.w3.org/2000/svg"><path fill="url(#agm4zowsw)" d="M0 0h18v18H0z"/><path d="M12.1 3c-.47 0-1.1.35-1.1.84v6.26c0 1.53-.95 2.9-2.44 2.9C7.06 13 6 11.97 6 10.38c0-1.6.96-2.54 2.4-2.54l-.58.58c-.3.3-.3.82 0 1.14.3.3.82.3 1.14 0l1.49-1.96c.3-.3.3-.82 0-1.14L8.93 4.38a.83.83 0 0 0-1.14 0c-.3.3-.3.82 0 1.15l.6.6C5.96 6.14 4 7.86 4 10.39A4.59 4.59 0 0 0 8.54 15 4.53 4.53 0 0 0 13 10.38V3.84c0-.5-.42-.84-.9-.84Z" fill="#fff"/><defs><linearGradient id="agm4zowsw" x1="3.35" y1="3.12" x2="21.9" y2="24.43" gradientUnits="userSpaceOnUse"><stop stop-color="#1A1E21"/><stop offset="1" stop-color="#06060A"/></linearGradient></defs></svg>