<!-- by TradingView --><svg width="18" height="18" viewBox="0 0 18 18" xmlns="http://www.w3.org/2000/svg"><path fill="#C3A634" d="M0 0h18v18H0z"/><path d="m7.05 2.33-.16-.11a.06.06 0 0 0-.1.02v.04l.03.16-.02.63c0 .02 0 .03-.02.04l-.02.02a41.73 41.73 0 0 0-.17.65.3.3 0 0 1-.07.14l-.14.15c-.17.18-.15.21.07.1.17-.1.35-.21.53-.35.06-.04.16-.05.3-.04a.1.1 0 0 1 .06.03l.19.15c.02 0 .04.03.04.05.01.11 0 .22-.08.3a.85.85 0 0 0-.22.59c0 .03-.01.05-.04.07-.16.09-.17.27-.3.4l-.2.15-.02-.42a.1.1 0 0 0-.03-.07A.1.1 0 0 0 6.6 5c-.05 0-.1.03-.14.08-.12.14-.26.24-.44.31-.13.03-.23.13-.28.32a.59.59 0 0 1-.12.18c.02-.29-.11-.42-.4-.4-.06.02-.15.07-.28.19a.1.1 0 0 0-.04.05.51.51 0 0 1-.3.38c-.06.01-.09 0-.08-.07v-.02c.22-.4.22-.87.6-1.19.13-.11.24-.18.33-.21.64-.22.98-.64 1-1.26l.03-.62c0-.24.04-.46.1-.66.01-.03.03-.05.06-.07a.12.12 0 0 1 .09 0l.17.04c.03 0 .04.02.05.04l.1.24Z" fill="#E1B051"/><path d="m7.05 2.33.12.14a4 4 0 0 1 .45.79c.04.09.14.19.29.3.09.06 0 .1-.27.1a2 2 0 0 1-.47-.56.53.53 0 0 1-.08-.24.54.54 0 0 0-.17-.36.04.04 0 0 0-.04 0 .04.04 0 0 0-.03.03v.07a.32.32 0 0 1-.03-.16l-.03-.16a.06.06 0 0 1 .03-.06.06.06 0 0 1 .07 0l.16.11Z" fill="#B87C29"/><path d="M12.13 2.46c-.07.01-.1.05-.1.13 0 .12.07.2.07.32v.21c-.02.17.13.33.17.49.06.21.08.4.05.57-.04.16-.06.33-.08.5 0 .1-.04.16-.1.21a.05.05 0 0 0-.02.04.05.05 0 0 0 .02.04c.09.05.14.12.17.2a.04.04 0 0 0 .03.03.04.04 0 0 0 .04-.03.4.4 0 0 0 .05-.2.2.2 0 0 1 .06.08c.06.17.14.34.22.5.1.18.15.34.17.46.06.28.1.55.1.82.02.13.06.32.1.44.14.34.24.7.3 1.05v.7c0 .03 0 .05.02.07.08.1.1.23.06.38-.01.07 0 .12.05.17.02.02.03.04.03.07 0 .13-.05.24-.13.33a.64.64 0 0 0-.13.23c-.08.22-.24.44-.49.5a.15.15 0 0 0-.1.07c-.1.16-.12.3-.33.38h-.06c-.06-.05-.12-.04-.2.01.05-.15.1-.3.17-.46a.83.83 0 0 1 .15-.21c.1-.12.14-.27.1-.46a.1.1 0 0 1 .01-.07c.11-.16.17-.32.3-.47a.7.7 0 0 0 .16-.49.03.03 0 0 0-.02-.02.03.03 0 0 0-.03 0c-.2.21-.45.34-.61.58-.2.31-.45.58-.74.8-.04.04-.07.1-.06.16.02.15 0 .31.2.32.03 0 .05.02.05.05 0 .06-.02.11-.06.16a11.82 11.82 0 0 0-.27.43.04.04 0 0 0 .03.03h.05c-.06.03-.1.07-.18.08-.2.02-.32-.01-.37-.08.1-.14.2-.25.3-.33.08-.08.12-.19.1-.31a.05.05 0 0 0-.05-.04.4.4 0 0 0-.13.03.05.05 0 0 1-.05 0 .04.04 0 0 1-.02-.05.62.62 0 0 0 .01-.2l.01-.05.18-.3a.02.02 0 0 0 0-.02.02.02 0 0 0-.03 0 .76.76 0 0 1-.4.21c-.02 0-.04 0-.04-.03l-.01-.03a.48.48 0 0 0 .2-.13c.04-.04.06-.1.06-.18 0-.2.29-.43.42-.56a.17.17 0 0 0 .05-.15 4.1 4.1 0 0 1-.05-.35c0-.04 0-.07.05-.09h.03l.02.01.03.03c.02.02.04.01.06-.01l.11-.2V8.8a.58.58 0 0 1 .2-.55.35.35 0 0 0 .08-.21c0-.02 0-.04-.03-.06l-.1-.06a.06.06 0 0 1-.03-.06.5.5 0 0 1 .1-.26c.02-.01.02-.03 0-.04-.07-.06-.13-.2-.06-.29a.2.2 0 0 0 .03-.08c0-.02 0-.04-.02-.05-.1-.09-.1-.18-.05-.29V6.8l-.16-.17a.06.06 0 0 1-.02-.04c0-.05 0-.1-.04-.13a.03.03 0 0 0-.03-.01h-.01l-.01.02a.7.7 0 0 1-.09.15l-.02.01c-.01 0-.02 0-.02-.02l.04-.16c0-.03-.01-.04-.04-.04l-.24-.01h-.02a.03.03 0 0 0-.01.03v.01l.1.13v.03l-.01.01h-.1a5.02 5.02 0 0 0-.29-.12l-.16.01c-.03 0-.05-.01-.06-.04l-.01-.03a.05.05 0 0 0-.02-.03h-.04c-.2.03-.42.04-.64.01a.1.1 0 0 0-.1.05 2 2 0 0 1-.53.65c-.07.05-.15.08-.24.1a.15.15 0 0 0-.06.05c-.13.14-.25.1-.43.1-.2 0-.38 0-.57-.02a.3.3 0 0 0-.13-.05c-.01 0-.02 0-.03-.02l-.02-.03a1.2 1.2 0 0 0-.17-.51.06.06 0 0 0-.05-.03.06.06 0 0 0-.05.04l-.12.29-.03.03a.07.07 0 0 1-.08 0A.07.07 0 0 1 7.4 7l-.02-.18a.4.4 0 0 0-.02-.09l-.07-.17a.04.04 0 0 1 .04-.06h.04c.02 0 .04 0 .04-.03l.16-.34a.25.25 0 0 0 0-.26c-.02-.02-.03-.02-.05 0-.16.12-.28.26-.38.39-.04.04-.06.04-.07-.02 0-.01 0-.03-.02-.04-.01-.01-.03-.02-.05 0-.2.09-.35.2-.45.33a.3.3 0 0 1-.18.12c-.03 0-.04 0-.03-.03l.09-.2c.04-.1.1-.2.16-.28.03-.05.02-.1-.03-.14h-.05l-.25.22c0-.02.01-.04.03-.05.1-.1.17-.22.22-.38.05 0 .08 0 .09-.04.02-.1.06-.17.11-.24l.2-.15c.14-.13.15-.31.31-.4a.08.08 0 0 0 .04-.07c0-.23.08-.42.22-.58.08-.09.1-.2.08-.3a.07.07 0 0 0-.04-.07.71.71 0 0 1-.19-.14.1.1 0 0 0-.06-.03c-.14-.02-.24 0-.3.04-.18.14-.36.25-.53.34-.22.12-.24.1-.07-.1l.14-.14a.3.3 0 0 0 .08-.14 41.83 41.83 0 0 1 .16-.65l.02-.02a.06.06 0 0 0 .02-.04l.01-.63c0 .06.01.12.03.16.03.07.07.11.11.14A.08.08 0 0 1 7 2.8a.07.07 0 0 1-.04.06c-.15.06-.13.23-.05.33.08.09.13.19.15.3 0 .04.02.07.06.08.18.1.36.12.53.07.27 0 .36-.03.27-.1.35.03.7.08 1.01.15l.3.04c.19 0 .36.04.55.06.19.02.38.06.55-.03.1-.05.18-.11.24-.2.13 0 .23-.03.3-.1a.92.92 0 0 0 .17-.18.11.11 0 0 1 .04-.04.63.63 0 0 0 .34-.34c.04-.11.02-.23.02-.34l.03-.06c.15-.17.5-.13.67-.05Z" fill="#C89539"/><path d="M12.13 2.46c.13.07.23.2.28.39a3 3 0 0 1 .14 1.38 53.02 53.02 0 0 0-.17.94.04.04 0 0 1-.04.03l-.02-.01-.01-.02a.35.35 0 0 0-.17-.2.05.05 0 0 1-.02-.06l.02-.02c.06-.05.1-.12.1-.2.02-.18.04-.35.08-.51.03-.17.01-.36-.05-.57-.04-.16-.2-.32-.18-.49l.01-.21c0-.12-.06-.2-.07-.32 0-.08.03-.12.1-.13ZM7.64 3.65a.72.72 0 0 1-.53-.07.11.11 0 0 1-.06-.08.58.58 0 0 0-.15-.3c-.08-.1-.1-.27.05-.33a.07.07 0 0 0 .04-.06.07.07 0 0 0-.04-.07.25.25 0 0 1-.1-.14v-.07a.04.04 0 0 1 .03-.04.04.04 0 0 1 .04.01c.1.1.16.22.17.36.01.08.03.16.08.24a2 2 0 0 0 .47.55Z" fill="#85511C"/><path d="m10.8 3.84.04-.01c.08-.01.1.02.09.09 0 .02-.02.03-.04.05a.69.69 0 0 0-.29.54c0 .18.12.27.11.44v.02a.05.05 0 0 1-.05.02c-.05 0-.08-.03-.1-.07a.77.77 0 0 0-.12-.26.09.09 0 0 0-.04-.04.18.18 0 0 1-.13-.12 15.47 15.47 0 0 0-.23-.22.15.15 0 0 1-.06-.12.04.04 0 0 1 .03-.04.04.04 0 0 1 .04 0c.09.06.18.08.27.07.03 0 .05 0 .06-.02l.41-.33Z" fill="#B87C29"/><path d="M11.88 4.51c-.15.27-.36.56-.63.7a.05.05 0 0 1-.07-.02l-.05-.07a.09.09 0 0 0-.08-.04l-.22.03a.05.05 0 0 1-.04-.03v-.05c.13-.12.27-.26.33-.42.03-.1.09-.18.18-.24l.01-.02v-.02a.04.04 0 0 0-.03-.03h-.12l-.04-.02a.06.06 0 0 1-.02-.04c0-.03.02-.06.05-.09a1 1 0 0 0 .14-.13c.04-.05.1-.06.16-.05.13.02.27.03.41.02a.1.1 0 0 1 .06.02.1.1 0 0 1 .04.05c.03.07.03.14.02.2a.81.81 0 0 1-.1.25Z" fill="#85511C"/><path d="M7.43 5.17c.07-.22.17-.46.3-.72.02-.02.04-.03.07-.02.04.02.06.05.05.1-.01.17-.08.35-.2.52-.1.17-.1.35-.15.54a.05.05 0 0 1-.04.03c-.03 0-.05 0-.06-.02a.27.27 0 0 1-.03-.16c0-.09.03-.18.06-.27Z" fill="#B87C29"/><path d="m8.62 5.94-.32.2c-.09.04-.17.04-.24 0-.12-.05-.13-.21-.15-.33-.01-.05-.01-.1 0-.14l.06-.24c.02-.2.21-.34.39-.43.16-.08.32-.05.47.08.21.2.12.46.07.7 0 .02-.02.04-.05.04a.43.43 0 0 0-.23.12Z" fill="#E1B051"/><path d="M6.72 5.52a.75.75 0 0 0-.11.24c0 .03-.04.05-.09.04-.06-.26-.23-.4-.5-.4.18-.08.32-.18.44-.32.04-.05.09-.08.14-.08a.1.1 0 0 1 .1.06.1.1 0 0 1 .01.04l.01.42ZM12.02 5.78c.13-.01.2-.1.24-.24a.03.03 0 0 1 .01-.02.03.03 0 0 1 .03 0h.02l.04.04v.04a5.2 5.2 0 0 0-.04.8c0 .06-.03.07-.07.03-.05-.04-.08-.13-.1-.26a.09.09 0 0 0-.03-.06c-.11-.09-.23-.12-.26-.28a.8.8 0 0 1 .16-.65l.02-.02h.02v.02l-.06.19c-.01.02 0 .05.02.07.05.04.07.08.06.14a.1.1 0 0 1-.04.06.2.2 0 0 0-.07.07.05.05 0 0 0 .02.06h.03Z" fill="#B87C29"/><path d="M6.02 5.4c.27 0 .44.14.5.4a.95.95 0 0 1-.22.38l-.27.06c-.19-.18-.22-.4-.08-.63V5.6h-.03a.57.57 0 0 1-.14.14c-.03 0-.04 0-.04-.02.05-.19.15-.3.28-.32Z" fill="#0B0802"/><path d="m5.62 5.89-.01.04a.43.43 0 0 1-.13.1.14.14 0 0 0-.1.13c0 .1-.01.2-.04.29-.04.17.02.28.18.32.08.01.14 0 .18-.07a3 3 0 0 1 .27-.3l.06-.02c.06 0 .06.04 0 .12a57.27 57.27 0 0 1-.31.27.56.56 0 0 0-.12.13l-.1.15-.27.1v-.02c0-.01.01-.02.03-.02 0 0 .02 0 .03-.02v-.01a1.75 1.75 0 0 1-.05-.7l.06-.22c.03-.09.04-.17.04-.26a.35.35 0 0 0-.06-.21.07.07 0 0 0-.06-.03c-.11 0-.18.05-.21.13a.76.76 0 0 1-.13.22.91.91 0 0 0-.13.24c-.06.16-.14.31-.23.44 0 .02-.04.05-.09.1a.18.18 0 0 0-.05.14c0 .02 0 .04-.02.06a.19.19 0 0 0-.04.13c0 .02.01.03.04.02h.05a1.65 1.65 0 0 0 .39.17.05.05 0 0 1 .02.04v.02a1.1 1.1 0 0 0-.1.57c.02.22.07.4.15.55.01.02.03.04.06.05.03.01.04 0 .04-.02l.01-.07.17.27c-.16.26-.03.49.08.72a.11.11 0 0 1-.01.11 1 1 0 0 1-.37.31c-.12.06-.23 0-.3-.09l-.05-.03h-.07c-.06.03-.1.02-.13-.05-.08-.26-.16-.53-.23-.82a2.62 2.62 0 0 1 .1-1.56c.06-.13.1-.27.12-.42a2.66 2.66 0 0 1 .2-.6.1.1 0 0 0 .03-.06c0-.04.02-.08.08-.12.16-.07.27-.2.3-.38a.1.1 0 0 1 .04-.05c.13-.12.22-.17.29-.18.28-.03.4.1.4.39Z" fill="#EFE2AD"/><path d="M6.04 6.25c-.3-.04-.38-.21-.26-.52.06-.03.1-.08.14-.14h.02v.02c-.12.23-.1.45.1.64Z" fill="#FCF9F5"/><path d="M5.23 7.15a.13.13 0 0 0-.06.07.32.32 0 0 0-.1.17c.01-.1-.05-.1-.16 0-.15.12-.2.37-.2.55a1.1 1.1 0 0 1 .1-.6.05.05 0 0 0-.01-.03l-.02-.01a1.65 1.65 0 0 1-.37-.16.05.05 0 0 0-.05 0c-.03 0-.04 0-.04-.02 0-.05.01-.1.04-.13a.09.09 0 0 0 .02-.06c0-.06.02-.1.05-.14l.1-.1c.08-.13.16-.28.22-.44.04-.1.08-.17.13-.24.06-.06.1-.14.13-.22.03-.08.1-.13.2-.13.03 0 .05 0 .07.03.04.06.06.13.06.2 0 .1-.01.18-.04.27l-.06.22a1.75 1.75 0 0 0 .05.71c-.01.02-.02.02-.03.02-.02 0-.03 0-.03.02v.02Z" fill="#FAF2CD"/><path d="M5.74 5.7c0 .02.01.03.04.03-.12.3-.04.48.26.51l.26-.06a.1.1 0 0 0-.03.05.48.48 0 0 1-.24.15l-.06.01c-.24 0-.35-.26-.36-.46l.01-.04c.06-.06.1-.12.12-.18Z" fill="#5B4F40"/><path d="M6.28 5.73c-.02.03-.02.07 0 .08.02.02.06 0 .08-.03.03-.03.02-.06 0-.08-.02-.02-.06 0-.08.03Z" fill="#FCF9F5"/><path d="M8.12 7.34c-.05 0-.07.01-.07.06 0 .14 0 .27-.04.39a.76.76 0 0 0-.03.2c0 .14-.05.24.02.4v.34a7.45 7.45 0 0 0 .36.46c.14.14.15.29.03.43-.1.12-.17.23-.33.26-.23.05-.43.13-.61.24-.13.09-.29.12-.43.17-.1.03-.1.07 0 .11l.32.14c.3.13.6.14.93.08.21-.04.3-.26.41-.42.1-.15.31-.15.46-.28.1-.1.24-.19.4-.27a.1.1 0 0 0 .04-.06c.04-.1.08-.22.19-.29.26-.16.5-.28.75-.36.22-.08.41-.2.63-.3a.05.05 0 0 1 .07.02c.02.03.02.05 0 .08-.11.18-.2.38-.38.52l-.5.4c-.1.1-.1.28-.12.4-.01.13-.09.24-.22.34l-.4.25c-.08.04-.09.1-.02.15a.1.1 0 0 0 .07.03.1.1 0 0 1 .07.02l.2.17v.02a.04.04 0 0 1 0 .04l-.02.01c-.25.05-.5.1-.6.36a.07.07 0 0 0 .03.08l.03.02c.04 0 .08 0 .13-.02.18-.1.4-.17.6-.1.12.05.24.08.36.08s.23.04.33.12c.02.01.04.02.07.01a.2.2 0 0 0 .13-.06c.05.07.18.1.37.08.07 0 .12-.05.18-.08l.58-.35c.07-.05.13-.06.2-.01h.05c.2-.07.24-.22.34-.38a.15.15 0 0 1 .1-.07c.24-.06.4-.28.47-.5a.64.64 0 0 1 .14-.23c.08-.09.12-.2.13-.33 0-.03 0-.05-.03-.07-.05-.05-.06-.1-.05-.17a.43.43 0 0 0-.06-.38.1.1 0 0 1-.03-.06l.01-.71.2.6a2.93 2.93 0 0 1 .22 1.8c-.04-.1-.09-.08-.14.08-.05.17-.04.3-.13.46a.97.97 0 0 0-.1.4l-.06.6c0 .1-.06.18-.16.23a.1.1 0 0 0-.05.05c-.04.08-.05.15-.12.22-.13.12-.42.38-.47.56-.02.1-.1.14-.19.18.06-.07.1-.15.12-.24.02-.14.04-.22.06-.25l.15-.3c.19-.3.12-.66.08-1a.09.09 0 0 0-.03-.05.1.1 0 0 0-.06-.03.93.93 0 0 0-.44.07c-.25.1-.46.18-.68.38-.16.14-.26.35-.43.46-.2.13-.47.27-.82.4-.36.14-.72.28-1.08.4l-.3.14c-.35.2-.51.56-.91.65-.12.03-.24.08-.35.16-.15.1-.33.13-.5.16-.2.04-.38.12-.59.16l-.57-.2c-.21-.07-.4-.15-.55-.24-.23-.12-.43-.25-.6-.36a4.28 4.28 0 0 1-.7-.57c-.22-.21-.22-.49-.08-.74.1-.28.16-.53.17-.76l.06-.8c0-.07.04-.2.1-.4.08-.23.09-.47.03-.72 0-.03 0-.04.03-.05h.05c.08.09.19.15.3.1a1 1 0 0 0 .38-.32.11.11 0 0 0 .01-.1c-.1-.24-.24-.47-.08-.73 0 .05 0 .1-.02.15-.01.05 0 .1.02.14l.02.05c.02.11.1.2.2.26.15.08.3.14.46.19.14.04.28-.01.4-.16.1 0 .27.04.5.11.13.04.25 0 .34-.09a2.75 2.75 0 0 0 1.03-.3v-.04A.03.03 0 0 0 8.09 9a.03.03 0 0 0-.03 0c-.21.07-.44.11-.68.12-.09 0-.17.03-.26.06-.15.05-.44-.08-.57-.15-.01-.1.02-.16.1-.21a.12.12 0 0 0 .04-.05c.02-.05.06-.07.11-.07.07.01.17 0 .32-.03.1-.02.14-.06.14-.12v-.04a.08.08 0 0 0-.04-.03.18.18 0 0 1-.07-.08c-.01-.01 0-.02.01-.03h.04c.02.04.04.06.08.07.02.01.04 0 .07-.02.07-.05.1-.14.1-.26a.5.5 0 0 1 .23-.2c.03 0 .04-.02.03-.05a.72.72 0 0 0-.16-.33c-.08-.1-.21-.13-.32-.21-.13-.1-.31-.09-.46-.04-.01 0-.02 0-.02.02s0 .03-.02.03a.2.2 0 0 0-.1.03c-.1-.1-.21-.18-.35-.25-.23-.14-.52-.12-.77-.12l.1-.15c.02-.05.06-.1.11-.13a56.4 56.4 0 0 0 .31-.27c.06-.08.06-.12 0-.12.1-.02.18-.07.24-.15l.25-.22h.05c.05.05.06.1.03.14a2.55 2.55 0 0 0-.25.48c0 .02 0 .03.03.03a.3.3 0 0 0 .18-.12c.1-.13.25-.24.45-.34l.05.01.02.04c.01.06.03.06.07.02.1-.13.22-.27.38-.4.02-.01.03-.01.05.01.04.09.05.17 0 .26-.06.1-.11.22-.16.34 0 .02-.02.03-.04.03h-.04a.04.04 0 0 0-.04.06l.07.17a.4.4 0 0 1 .02.09l.02.18c0 .02.01.03.03.04a.07.07 0 0 0 .11-.02l.12-.3a.06.06 0 0 1 .05-.03.06.06 0 0 1 .05.03c.1.16.16.33.17.51 0 .01 0 .02.02.03l.03.02.13.05Z" fill="#E0C06E"/><path d="M9.52 6.44a.29.29 0 0 1-.14.03c-.02 0-.04 0-.06.02-.08.07-.14.16-.24.2a.55.55 0 0 1-.39.03c-.12-.18-.13-.35-.04-.51a.03.03 0 0 1 .03-.02.03.03 0 0 1 .02 0c.03.04.07.06.11.06.05 0 .06-.01.04-.05-.13-.3-.44.03-.5.15-.06.15-.01.28.16.4l.01.02v.05l-.04.01c-.13-.03-.32-.05-.4-.17a.67.67 0 0 1-.08-.2c0-.03 0-.05.02-.07l.28-.25.31-.2c.24-.06.43-.03.57.08a1.95 1.95 0 0 1 .34.38v.04Z" fill="#0B0802"/><path d="M5.6 5.93c.02.2.13.45.37.46a3 3 0 0 0-.27.31c-.04.06-.1.08-.18.07-.16-.04-.22-.15-.18-.32.03-.1.04-.2.04-.3 0-.06.04-.1.1-.13a.43.43 0 0 0 .13-.1Z" fill="#E1B051"/><path d="M8.7 6.72c-.03.03-.09.04-.2.03-.16-.12-.21-.25-.14-.4.05-.12.36-.45.5-.15.01.04 0 .06-.05.05a.15.15 0 0 1-.1-.05.03.03 0 0 0-.03-.01.03.03 0 0 0-.03.02c-.1.16-.08.33.04.51Z" fill="#FCF9F5"/><path d="M12.03 8.25a2.05 2.05 0 0 0-.43-.03h-.43c-.3-.02-.57.02-.84.13a11.32 11.32 0 0 0-1.05.48c-.04 0-.08 0-.11-.02a.76.76 0 0 0-.54-.05.1.1 0 0 1-.09 0 .37.37 0 0 1-.13-.17.13.13 0 0 0-.13-.08c-.13 0-.22-.03-.28-.12-.07-.16-.02-.26-.02-.4 0-.07.01-.14.03-.2.03-.12.04-.25.04-.4 0-.04.02-.06.07-.05l.57.02c.18 0 .3.04.43-.1a.15.15 0 0 1 .06-.04c.09-.03.17-.06.24-.11a2 2 0 0 0 .54-.65.1.1 0 0 1 .09-.05c.22.03.43.02.64-.02h.04l.02.04v.03c.02.03.04.04.07.04l.16-.01.08.01.2.1c.04.02.06.02.1.02a.03.03 0 0 0 .01-.02v-.03l-.09-.13v-.03a.03.03 0 0 1 .03-.01h.24c.03 0 .04.02.04.05l-.04.16c0 .01 0 .02.02.02h.02a.7.7 0 0 0 .09-.16v-.01a.03.03 0 0 1 .04 0h.01c.03.04.05.08.04.13 0 .02 0 .03.02.04l.15.17c.02.01.02.03.01.05-.06.1-.04.2.06.3l.01.04a.2.2 0 0 1-.03.08c-.07.09-.01.23.06.29.02.01.02.03 0 .04a.5.5 0 0 0-.1.26c0 .03 0 .05.03.06l.1.06.03.06c0 .08-.03.15-.08.21Z" fill="#FAF2CD"/><path d="M9.52 6.44c0 .03-.02.06-.04.09-.13.13-.28.3-.46.36-.21.06-.35-.02-.54-.05a.1.1 0 0 0 .03-.02c.02-.01.02-.03.01-.05l-.01-.02c.1 0 .16 0 .18-.03.14.04.27.03.4-.03.1-.04.15-.13.23-.2a.09.09 0 0 1 .06-.02c.05 0 .1-.01.14-.03ZM5.5 7.05c.26 0 .55-.02.78.12l-.08.05c-.04.1-.1.13-.2.1a1.64 1.64 0 0 0-.72-.06c-.03 0-.07 0-.1-.04 0-.02.02-.04.05-.07l.28-.1Z" fill="#5B4F40"/><path d="M6.28 7.17c.14.07.25.15.35.25l.03.06c-.03.15-.14.42-.3.5a.13.13 0 0 0-.06.06.13.13 0 0 1-.06.06l-.31.2c-.11.08-.27.11-.38.05-.17-.1-.31-.24-.42-.42v-.11c.02-.02.05-.02.07 0 .04.02.07.02.1 0 .1-.02.1-.05 0-.07a.52.52 0 0 1-.21-.11.48.48 0 0 1-.01-.25c0-.06.04-.11.1-.17.03.03.07.05.1.04.24-.03.48-.02.72.06.1.03.16 0 .2-.1l.08-.05Z" fill="#0B0802"/><path d="M7.46 8.17c0-.02-.02-.05-.07-.08-.02 0-.03-.02-.02-.05.02-.07 0-.13-.06-.18l-.26-.29a.38.38 0 0 0-.26-.13c-.03 0-.05.02-.04.06l-.1-.02-.02-.06a.2.2 0 0 1 .1-.03c.01 0 .02-.01.02-.03 0-.01 0-.02.02-.02.15-.05.33-.07.46.04.1.08.24.11.32.21.08.1.14.2.16.33 0 .03 0 .05-.03.06a.5.5 0 0 0-.22.2Z" fill="#EFE2AD"/><path d="M5.07 7.39c-.01.09 0 .17.02.25l.04.27v.02c-.22.16-.27.34-.15.52v.07c-.01.02-.02.03-.04.02a.12.12 0 0 1-.07-.05 1.47 1.47 0 0 1-.15-.55c0-.18.04-.43.19-.55.11-.1.17-.1.16 0ZM7.46 8.17c0 .12-.04.2-.11.26-.03.02-.05.03-.07.02-.04 0-.06-.03-.08-.07h-.04c-.02 0-.02.02-.01.03.01.03.04.06.07.08l.03.03.01.04c0 .06-.05.1-.14.12a.82.82 0 0 1-.32.03.28.28 0 0 1-.18-.14.09.09 0 0 1 0-.06.8.8 0 0 0 0-.23c0-.09.04-.17.1-.23a.09.09 0 0 0 .03-.06V7.5c0-.04 0-.06.04-.06.1.02.2.05.26.13l.26.29c.06.05.08.11.06.18-.01.03 0 .04.02.05.05.03.08.06.07.08Z" fill="#FCF9F5"/><path d="M6.66 7.48c.04.02.07.03.09.02v.49l-.03.06c-.06.06-.1.14-.1.23a.8.8 0 0 1 0 .23v.06c.05.08.1.12.18.14-.05 0-.09.02-.11.07 0 .02-.02.04-.04.05a.21.21 0 0 0-.1.2l-.34-.12-.34-.13a.84.84 0 0 0-.6 0c-.05.1-.04.2.02.28a.4.4 0 0 0 .2.14c.11.02.31.05.39.13.01.02.03.03.06.03h.3c-.13.14-.27.19-.4.15a2.42 2.42 0 0 1-.47-.2.38.38 0 0 1-.2-.25.16.16 0 0 0-.02-.05.17.17 0 0 1-.02-.14l.02-.15-.17-.27c-.12-.18-.07-.36.15-.52.1.18.25.32.42.42.11.06.27.03.38-.05l.31-.2a.13.13 0 0 0 .06-.06.13.13 0 0 1 .07-.07c.14-.07.26-.34.29-.49ZM5.09 7.64c.08.06.15.1.21.1.1.03.1.06 0 .09-.03.01-.06 0-.1-.01-.03-.02-.05-.02-.06 0-.01.02-.02.05-.01.09l-.04-.27Z" fill="#968C78"/><path d="M6.04 7.96c.09.04.17.05.18.03 0-.02-.06-.07-.15-.1-.1-.04-.17-.05-.18-.03-.01.02.06.07.15.1Z" fill="#5B4F40"/><path d="M12.03 8.25a.58.58 0 0 0-.2.55v.04l-.11.19c-.02.02-.04.03-.06 0l-.03-.02-.02-.01h-.03c-.04.02-.06.05-.05.09 0 .11.03.23.05.35a.17.17 0 0 1-.05.15c-.13.13-.41.37-.42.56 0 .08-.02.14-.06.18a.48.48 0 0 1-.2.13v.03c.01.02.03.03.06.03.14-.03.27-.1.39-.21h.02l.01.01v.02l-.18.3v.04c0 .07 0 .14-.02.2a.04.04 0 0 0 .02.05h.05a.4.4 0 0 1 .13-.03.05.05 0 0 1 .06.04.34.34 0 0 1-.12.31c-.09.08-.19.2-.3.33a.2.2 0 0 1-.12.06l-.07-.01a.52.52 0 0 0-.33-.12.99.99 0 0 1-.37-.08c-.2-.07-.41 0-.6.1a.17.17 0 0 1-.12.02.08.08 0 0 1-.05-.04.07.07 0 0 1 0-.06c.08-.26.34-.31.59-.36a.04.04 0 0 0 .03-.03.04.04 0 0 0-.01-.04l-.2-.17a.1.1 0 0 0-.07-.02.1.1 0 0 1-.07-.03c-.07-.05-.06-.1.02-.15l.4-.25c.13-.1.2-.2.22-.33.02-.13.02-.31.13-.4l.5-.41c.16-.14.26-.34.37-.52a.07.07 0 0 0 0-.08.05.05 0 0 0-.07-.02c-.22.1-.4.23-.63.3-.24.08-.5.2-.75.36-.11.07-.15.18-.2.3a.1.1 0 0 1-.04.05 2.5 2.5 0 0 0-.4.27c-.14.13-.34.13-.45.28-.1.16-.2.38-.4.42-.34.06-.63.05-.94-.08l-.33-.14c-.1-.04-.1-.08 0-.11.15-.05.3-.08.44-.17.18-.11.38-.2.6-.24.17-.03.25-.14.34-.26.12-.14.1-.29-.03-.43A7.45 7.45 0 0 1 8 8.73v-.34c.06.09.15.13.28.12a.14.14 0 0 1 .13.08c.03.07.07.12.13.16a.1.1 0 0 0 .09.01.76.76 0 0 1 .54.05c.03.02.07.02.1.02.04 0 .08-.02.1-.03.3-.16.62-.3.96-.45.27-.1.55-.15.84-.13h.43c.14 0 .29 0 .43.03Z" fill="#E7CF90"/><path d="M6.55 9.04c.13.07.42.2.57.15.09-.03.17-.06.26-.06a2.31 2.31 0 0 0 .7-.12.03.03 0 0 1 .02.02v.02a.05.05 0 0 1-.02.05c-.28.12-.47.18-.57.2-.23.02-.37.05-.44.07l-.31-.14-.33-.1c-.4-.07-.78-.19-1.16-.35.2-.07.4-.07.6 0a100.73 100.73 0 0 0 .68.26Z" fill="#0B0802"/><path d="M5.27 8.78c.38.16.77.28 1.16.36.13.02.24.06.33.1l.31.13c-.1.1-.2.13-.33.09-.24-.07-.4-.1-.5-.1h-.3c-.03 0-.05-.01-.06-.03-.08-.08-.28-.1-.39-.13a.4.4 0 0 1-.2-.14c-.06-.08-.07-.17-.02-.28Z" fill="#5B4F40"/><path d="m12.1 11.23-.57.35h-.07l-.01-.03a.04.04 0 0 1 0-.04l.27-.39c.04-.05.05-.1.06-.16 0-.03-.02-.05-.05-.05-.2 0-.18-.17-.2-.32 0-.06.02-.12.06-.15.3-.23.54-.5.74-.8.16-.25.42-.38.61-.58a.03.03 0 0 1 .03-.01H13v.02a.7.7 0 0 1-.16.49c-.13.15-.19.31-.3.47a.1.1 0 0 0-.01.07c.04.19 0 .34-.1.46a.83.83 0 0 0-.15.21c-.07.15-.12.3-.16.46Z" fill="#B87C29"/><path d="M5.08 10.5c-.06.01-.06.06 0 .15l.1.1c.3.25.46.5.86.65a.1.1 0 0 1 .06.06l.08.18c.04.15.14.27.28.39a.08.08 0 0 0 .07.01.08.08 0 0 0 .05-.04l.02-.02a.04.04 0 0 1 .06 0c.19.16.26.57.32.82l.01.03a.06.06 0 0 0 .09 0c.17-.18.28-.38.32-.63 0-.02.02-.03.05-.03h.02a.02.02 0 0 1 .01.01v.11c0 .03 0 .04.03.04a24.62 24.62 0 0 0 .2-.36c.03-.08.1-.14.2-.2.2-.09.4-.17.57-.3a2.49 2.49 0 0 1 .47-.3.03.03 0 0 0-.01-.03H8.9c.14-.06.24-.1.3-.14.15-.1.21-.05.16.12-.02.1-.07.22-.12.33a.4.4 0 0 1-.18.19c-.23.12-.37.33-.6.43-.26.12-.47.33-.55.6-.08.24-.23.44-.37.65-.11.17-.4.42-.64.49a.9.9 0 0 0-.21.09.05.05 0 0 1-.08-.03.88.88 0 0 1-.06-.24c-.03-.3-.12-.6-.26-.92a.9.9 0 0 0-.2-.28c-.32-.3-.63-.62-.95-.95-.14-.14-.2-.3-.3-.47a1.32 1.32 0 0 1-.1-.71l.02-.02h.05l.27.22Z" fill="#E1B051"/><path d="m5.08 10.5.3.21.2.17c.2.21.58.3.87.38.17.04.4.05.67.05a13.33 13.33 0 0 0 1.83-.16.03.03 0 0 1 0 .03h-.02c-.15.08-.3.17-.45.29-.17.13-.38.21-.57.3a.42.42 0 0 0-.2.2l-.16.33c0 .02-.02.03-.04.03s-.04-.01-.03-.04v-.1a.02.02 0 0 0-.01-.02h-.02c-.03 0-.05 0-.05.03-.04.25-.15.45-.32.63l-.03.02a.06.06 0 0 1-.07-.05c-.06-.25-.13-.66-.32-.82l-.03-.01H6.6l-.02.03a.08.08 0 0 1-.05.04.08.08 0 0 1-.07-.01.85.85 0 0 1-.28-.39 1.89 1.89 0 0 0-.08-.18.1.1 0 0 0-.06-.06c-.4-.15-.56-.4-.86-.65a.58.58 0 0 1-.1-.1c-.06-.09-.06-.14 0-.15Z" fill="#B87C29"/><path d="M13.8 10.72c.02.15.04.29.08.42.04.2.03.37.04.57 0 .2.07.45.08.68v.46c-.02.28-.58.72-.88.97-.25.22-.49.31-.71.29-.12-.08-.3-.08-.51 0-.07.02-.07 0-.03-.04.1-.1.17-.21.21-.36l.05-.06a.95.95 0 0 1 .25-.15c.09-.04.17-.09.2-.18.04-.18.33-.44.46-.56.07-.07.08-.14.12-.22a.1.1 0 0 1 .05-.05c.1-.05.15-.13.16-.23l.05-.6a.96.96 0 0 1 .11-.4c.1-.16.08-.3.13-.46.05-.16.1-.18.14-.08Z" fill="#C89539"/><path d="M12.38 13.5a.94.94 0 0 0-.25.15.13.13 0 0 0-.05.06.92.92 0 0 1-.2.36c-.05.05-.05.06.02.04.22-.08.39-.08.51 0 0 .07-.02.13-.07.2a.36.36 0 0 1-.17.1c-.28.09-.54.2-.77.31-.18.09-.37.1-.56.15-.06.02-.12 0-.17.05a.09.09 0 0 1-.07.02 1.4 1.4 0 0 0-.42.01c-.12.02-.25.04-.37.04-.83 0-1.7.03-2.54-.05a.76.76 0 0 1-.33-.1 13.3 13.3 0 0 1-.34-.23c.2-.04.4-.12.58-.16.18-.03.36-.06.51-.16.11-.08.23-.13.35-.16.4-.09.56-.46.9-.65.1-.05.2-.1.3-.13l1.1-.4c.34-.14.61-.28.81-.4.17-.12.27-.33.43-.47.22-.2.43-.27.68-.38a.93.93 0 0 1 .44-.07.1.1 0 0 1 .06.03c.02.01.03.03.03.05.04.34.11.7-.08 1l-.15.3c-.02.03-.04.11-.06.25a.53.53 0 0 1-.12.24Z" fill="#E7CF90"/></svg>