<!-- by TradingView --><svg width="18" height="18" viewBox="0 0 18 18" xmlns="http://www.w3.org/2000/svg"><path fill="#014A7F" d="M0 0h18v18H0z"/><path d="m4 14 1.52-6.79h1.66l.39-1.78h1.66l.31-1.4c4.88-.37 5.65 2.79 5.43 4.41A6.44 6.44 0 0 1 8.54 14H4Z" fill="#fff"/><path d="M14.16 7.35c-.55-2.46-2.93-2.77-4.05-2.64l-.17.72c3.38.07 3.56 2.62 3.2 3.84-.8 2.44-3.39 3.3-4.42 3.3H5.97L7.02 8h-.97l-1.16 5.28h3.23c1.86 0 2.88-.5 3.4-.8 1.14-.68 3.19-2.66 2.64-5.13Z" fill="#014A7F"/><path d="M10.37 6.14H8.09l-.22 1.07h2.33c.47 0 1.17.26 1.1 1.14-.06.94-.97 1.42-1.42 1.54l.49 1.56c.73-.29 2.16-1.39 2.22-3.01.06-1.63-1.53-2.3-2.22-2.3Z" fill="#014A7F"/><path d="M6.83 11.86 7.73 8h1.6c.43 0 1.19-.03 1.14.54-.05.61-.78.73-1.15.72H8.06l-.16.67h1.13l.5 1.82c-.16.05-.4.1-.5.1h-2.2Z" fill="#014A7F"/></svg>