<!-- by TradingView --><svg width="18" height="18" viewBox="0 0 18 18" xmlns="http://www.w3.org/2000/svg"><path fill="#F0F3FA" d="M0 0h18v18H0z"/><path fill-rule="evenodd" d="M9 15A6 6 0 1 0 9 3a6 6 0 0 0 0 12Zm0-.33A5.67 5.67 0 1 0 9 3.33a5.67 5.67 0 0 0 0 11.34Z" fill="#641491"/><path d="M13.98 9.44A5 5 0 0 1 4 9l2.99-.42-.45 3.26c-.01.09.06.16.14.15.4-.07 1.33-.2 2.82-.41l.2-.03c1.57-.22 2.24-1.2 2.47-1.87l1.81-.25ZM14 9.1c-1.78.25-3.54.5-5.33.78L8.85 8l-4.84.67.06-.48 1.1-.13c1.55-.17 3.24-.37 4.72-.5.49 0 .58.3.58.53 0 .2-.1.69-.14.91l.31-.04 3.34-.38a5.05 5.05 0 0 1 .02.52ZM9 4a5 5 0 0 0-4.88 3.91l3.05-.34.18-1.23L10.66 6c.75-.04 2.16.39 1.75 2.46l-.01.03 1.55-.18A5 5 0 0 0 9 4Z" fill="#641491"/></svg>