<!-- by TradingView --><svg xmlns="http://www.w3.org/2000/svg" width="18" height="18"><path fill="#170F24" d="M0 0h18v18H0z"/><path d="M11.6 9.06a.62.62 0 01-.07.14c0-.04.03-.15-.04-.28l-.03-.06a.14.14 0 00-.03-.04.14.14 0 00-.03-.04l-.01-.02h-.01l-.01-.02-.03-.03-.02-.02a.22.22 0 00.17 0h.02l.02-.02.01-.01v-.01l.04-.05.01-.02c.04.07.1.27.02.48z" fill="#fff"/><path d="M14.85 7.71a5.95 5.95 0 00-1.57-2.89v.04l.02.04.07.26c.08.41.1.78.08 1.06l-.04-.03-.04-.02-.02-.02-.06-.04-.06-.03-.05-.03-.06-.03L13.1 6l-.05-.03-.1-.04-.09-.04a52.42 52.42 0 00-.3-.12h-.02l-.05-.02h-.03l-.03-.02a7.6 7.6 0 01.25.24l.1.1.04.05.04.05c.02 0 .03.02.04.04l.08.1.04.05.04.06.14.2a3.39 3.39 0 01.45 1.09v.02c.06.22.1.44.1.67v.5c-.03.25-.08.5-.16.75a4.03 4.03 0 00-.48-.84V8.8a1.28 1.28 0 00-.08-.08L13 8.67l-.05-.06v.01l.04.12.04.2v.1l.02.14v.26l-.01.16v.03l-.03.22v.05H13l-.01.04V10l-.04.1-.01.06-.02.06-.02.05c-.02.08-.05.16-.1.23 0 .02 0 .04-.02.06a3.5 3.5 0 01-.4.66l-.06.07a5 5 0 01-.15.18l-.04.05-.07.07-.05.06-.13.12-.14.15-.08.07-.08.07.04-.05.04-.05.03-.04.01-.02.04-.06.06-.08.08-.12.05-.09.05-.09.05-.09.14-.3.03-.06.03-.07-.05.05-.33.36-.06.05-.07.07-.08.06-.32.24-.05.03-.04.03-.1.05-.06.04a.95.95 0 00-.07.04l-.13.07-.06.03-.05.03-.14.06.03-.03a2.28 2.28 0 00.3-.34l.07-.08.07-.13.02-.03.04-.08a1.23 1.23 0 01-.36.2c-.15.05-.28.07-.37.08a1.84 1.84 0 01-.25-.18l-.04-.03-.04-.03a2.04 2.04 0 01-.39-.52l-.01-.04-.04-.08-.01-.03a1.67 1.67 0 01-.06-.2l-.01-.05v-.05l-.02-.04v-.09l-.01-.05v-.09l.01-.24.02-.06.01-.06.01-.03.02-.08.02-.06.04-.08.01-.03.02-.03c0-.01 0-.02.02-.03a.71.71 0 01.06-.1l.06-.08.02-.03A1.15 1.15 0 0110 9.2l.02-.02.02-.03.03-.02a.5.5 0 01.05-.04l.05-.05h.02l.03-.04h.01l.04-.03.03-.02.03-.02.1-.06.04-.03.04-.03.03-.02.07-.03a.4.4 0 01.05-.02l.03-.02h.03c.15-.07.28-.1.39-.13h.02a4.3 4.3 0 00-1.9.23c-.91.7-.67 2.12-.64 2.3a2.89 2.89 0 00.82 1.55c.25.32.56.54.86.68l.03.02c.01 0 .03 0 .04.02.02 0 .03 0 .04.02h.04l.02.02h.02l.02.02h.01l.03.01h.02v.01a.3.3 0 01.05.02h.02l.02.01h.02l.07.03.09.02.06.02.07.02h.03l.06.02c.14.02.26.04.38.04a2.5 2.5 0 01-.21-.15l-.03-.02-.03-.02a2.16 2.16 0 01-.07-.06l.03.02v.01h.01l.02.02h.02l.1.08.04.03h.01v.01h.02l.03.03.03.03h.02l.01.02.06.03.04.02.02.01.02.02.02.01h.01l.01.01.03.02.02.01h.01l.01.01c.02 0 .03.02.05.03.02 0 .04.02.05.03l.05.02.03.01.03.02.06.02.05.03h.03l.02.02h.02l.01.01h.02v.01c.02 0 .03 0 .04.02h.01l.05.02h.02l.04-.02A6.03 6.03 0 0015 8.97a6.67 6.67 0 00-.15-1.26zm-2.67 3.35l-.01.02v-.02zM10.8 8.63zm-.36.07zm3.25-2.25l.1.1a2.19 2.19 0 00-.1-.1zm.28.31l.09.13-.1-.13zm.3.44l.1.2-.1-.2zm.24.49l-.08-.18.08.18.03.06-.03-.06zm.2.57z" fill="#fff"/><path d="M7.84 10.5c.03-.2.12-.59.4-.95.32-.42.7-.6.97-.71a4.3 4.3 0 011.9-.23l-.02-.02-.01-.01-.02-.01L11 8.5l-.03-.02-.04-.04-.03-.03c-.02 0-.03-.02-.04-.03a.95.95 0 00-.13-.08c-.01 0-.03 0-.04-.02-.01 0-.02 0-.03-.02-.02 0-.03 0-.05-.02l-.04-.01c-.25-.1-.48-.12-.67-.1h-.12l-.06.02h-.05l-.06.02h-.03l-.03.01v-.01a.56.56 0 01.09-.11l.03-.04a.8.8 0 01.33-.2.24.24 0 00-.06-.02l-.03-.01-.03-.02-.08-.02h-.04a.84.84 0 00-.1-.03 10.94 10.94 0 00-.22-.03h-.3a.94.94 0 00-.2.04l-.05.02c-.03 0-.05 0-.07.02-.02 0-.05 0-.07.02a.44.44 0 00-.08.02l-.02.01V7.8l.02-.02.01-.03s0-.02.02-.03l.01-.03.03-.03a.36.36 0 01.05-.07l.01-.02.01-.02a.83.83 0 01.06-.07l.02-.02.03-.02.02-.03.03-.02.03-.02.03-.03.03-.02.04-.03c.02 0 .03-.02.04-.03l.13-.06h.01l.13-.05.1-.03.09-.01h.04l.2-.01h.09l.04.01h.01l.02.01h.04l-.02.01H10l-.04.01h-.05l-.05.02-.05.02-.03.01-.01.01h-.02l-.02.02-.03.02-.02.02c-.02 0-.03.02-.04.03l-.03.02-.03.03-.01.01-.02.02c.63-.12.98 0 1.18.17.02 0 .03.02.04.03l.03.03.03.03.03.03.05.06c0 .02.02.03.03.05l.01.02.07.11.04.1.04.07.03.06.03.07.02.04.02.03.06.1.01.02.02.02v.01l.02.01.03.03h.02v.01h.02l.02.01h.09l.07-.04.02-.01.03-.02V8.4l.01-.01.01-.01.01-.01c.18-.22.12-.63-.16-1.02l-.08.2-.02.04a.77.77 0 01-.07.08l-.05-.07a3.76 3.76 0 00-.7-.65l-.08-.06-.04-.02-.08-.05a11.76 11.76 0 01-.11-.07l-.05-.02c-.02 0-.03-.02-.05-.03l-.14-.06-.04-.01-.05-.02-.06-.02-.08-.03-.04-.01-.08-.03-.05-.02a1.23 1.23 0 01-.13-.06l-.05-.03a.3.3 0 01-.05-.03l-.05-.03a1.51 1.51 0 01-.1-.07c-.02 0-.04-.02-.06-.04a.52.52 0 01-.05-.04l-.08-.07-.07-.07-.04-.04-.04-.05-.05-.05-.03-.04-.03-.04-.1-.14-.02-.03a.36.36 0 00-.02-.04l-.02-.04-.01.1v.17c0 .13.01.28.05.44l.01.07.02.06.01.04.01.03.07.2.01.02.07.15c-.13.02-.28.06-.45.12L8.36 7l-.08.04-.07.03-.16.09-.1.05-.07.06.03-.02h.04l.02-.02a1.7 1.7 0 01.44-.05l-.02.02c-.03 0-.06.02-.09.04l-.11.06-.04.01a.72.72 0 00-.1.06l-.13.09-.05.03-.12.09-.17.13-.12.1a.37.37 0 01-.04.04l-.08.07-.08.08c-.3.31-.48.62-.61.86v.01l-.02-.3c0-.13 0-.26.02-.39v.02h-.02a16.07 16.07 0 01-.05.07h-.01l-.01.02h-.01l-.01.01-.01.01-.03.03-.01.01-.01.01-.03.03-.05.06-.03.04-.06.07-.06.06-.08.1-.17.21-.08.13-.04.05-.04.06c0 .02-.02.03-.03.05l-.08.13-.04.06-.04.06-.02.04-.04.06v.01l-.01.02-.02.03-.02.04v.02l-.02.02-.01.02-.04.09-.02.03-.04.06-.01.04-.02.03-.03.07-.01.02-.04.08-.01.03s0 .02-.02.03c0 .03-.03.06-.04.1l-.02.04v.03l-.03.05-.06.15-.02.06-.01.05-.01.02-.02.06-.01.02-.03.1c-.04.1-.07.22-.1.34l-.03.13-.02.1-.01.1-.05.29-.03.68v.05c0 .26.03.49.06.69a5.98 5.98 0 004.2 1.69h.1a5.94 5.94 0 003.07-.91l.04-.03c.24-.15.47-.32.7-.5a3 3 0 01-2.37-.61l.03.03.03.04.03.03.05.06a4 4 0 00.13.13l.05.05.05.04.05.05.03.02.03.03.01.01.04.03.01.01.02.01.01.01.11.08.04.03h.01l.01.01.04.03.03.02.01.02h-.06a2.4 2.4 0 01-.19-.03l-.09-.01-.09-.02h-.03l-.07-.02-.06-.02a.53.53 0 00-.08-.02l-.07-.02-.03-.01-.02-.01h-.03l-.06-.03-.04-.01-.01-.01h-.01l-.02-.02h-.02l-.03-.01-.05-.03-.04-.02-.03-.01a3 3 0 01-2.43-2.85zm1.95 3.94l-.07-.04c.03 0 .05.03.07.04z" fill="#FF9E00"/><path d="M8.92 3a6.45 6.45 0 00-2.86 2.1l.22-.02.41-.04h.28c-.15.1-.26.2-.35.27 0 0-.54.48-.83.97-.01.01-.03.03-.03.05l-.1.17a3.53 3.53 0 00-.27.71l-.01.05a3.46 3.46 0 00.03 1.76 7.36 7.36 0 00-1.25 3.49l-.05-.08A5.93 5.93 0 013 9.06v-.11c0-.23.02-.46.04-.68v-.03l.04-.25c.12-.7.36-1.36.7-1.95l.05-.08.02-.04.08-.12.04-.06-.02.03.02-.03L4 5.7l.04-.05.02-.03.05-.05.25-.34.2-.25A6 6 0 018.91 3z" fill="#fff"/><path d="M5.69 5.45l.08.01a2.7 2.7 0 00-.35.22l-.1.08-.08.06-.24.23-.04.03-.03.04-.04.04c-.1.1-.18.21-.25.3a1.49 1.49 0 01.23-.56l.01-.02A7.6 7.6 0 003.8 6.93l-.13.18-.08.11-.07.11c-.14.21-.25.43-.25.43-.07.14-.15.3-.22.48 0-.09.02-.17.03-.25.12-.7.36-1.36.7-1.96l.05-.08.02-.04.08-.12.04-.05-.02.02.02-.03.04-.04c0-.02.02-.03.03-.05l.02-.02.05-.06.25-.34-.06.13s.02 0 .04-.03l.08-.08.05-.05.05-.05a.62.62 0 00.06-.05 1.57 1.57 0 01.2-.16c0-.02.02-.03.04-.04l.06-.05a.5.5 0 01.06-.04l.03-.02.02-.02.02-.01.03-.02.01-.01.02-.01.04-.02c.02-.01.03-.03.05-.03l.02-.02h.02l.01-.01.09-.05.14-.08.07-.04h.02l.06-.03.09-.04.06-.03.1-.05-.25.2-.05.03a.5.5 0 00-.05.05l-.05.04-.1.1-.04.03c0 .02-.02.03-.03.04l-.04.04-.18.2-.02.02-.02.03-.04.05-.02.03-.04.05-.07.1-.03.05-.05.07c0 .02-.02.03-.03.05l-.03.06h.05l.08-.02c.16-.04.36-.07.58-.07h.16l.06.01c.02-.02.04-.02.06-.02zm9.16 3.34v-.06c-.02-.04-.02-.09-.03-.13l-.02-.07-.02-.08-.05-.19-.02-.07-.02-.05-.01-.05v-.01l-.02-.04v-.01l-.02-.05a.53.53 0 00-.03-.07l-.02-.06-.04-.1-.02-.06-.08-.17-.05-.1a3.23 3.23 0 00-.2-.35l-.06-.1-.06-.08-.09-.12c-.03-.06-.07-.1-.11-.15l-.06-.06-.1-.1-.26-.23a4.26 4.26 0 00-.15-1.32l-.01-.04-.01-.05a5.78 5.78 0 011.57 2.9c.01.31.01.68-.01 1.07z" fill="#8774E2"/><path d="M14.99 9a5.92 5.92 0 01-2.76 5.03l-.04.03-.02-.01-.05-.02c-.02 0-.03 0-.05-.02h-.03V14h-.02c0-.01-.01-.02-.03-.02h-.02l-.05-.03-.06-.03-.03-.01-.04-.02-.04-.02-.05-.03c-.02 0-.03-.01-.05-.03h-.02a5.58 5.58 0 01-.05-.03l-.02-.02h-.02l-.02-.02-.02-.01-.04-.02a.7.7 0 01-.06-.04h-.01l-.02-.02-.03-.02-.03-.03h-.02v-.01l-.05-.03-.1-.08h-.01v-.01l-.02-.01-.01-.01h-.01l-.03-.03-.02-.02-.03-.02s-.01-.02-.03-.02a.66.66 0 01-.05-.05l-.05-.05a2.03 2.03 0 01-.18-.18l-.05-.05a.26.26 0 01-.03-.04l-.03-.03-.03-.04h.05a4.04 4.04 0 003.04-1.55c.56-.78.65-1.6.67-1.99a3.67 3.67 0 01.1 1.5 8.51 8.51 0 00.43-2.08c.02-.4.02-.76 0-1.08.1.4.14.84.14 1.28z" fill="#FF9E00"/><path d="M11.7 14.34c-3.3 1.59-6.16-.07-6.85-1.07.52-.47 2.79-.28 3.6-.63.81 1.2 2.48 1.66 3.25 1.7z" fill="#E93C5A"/></svg>