<!-- by TradingView --><svg width="18" height="18" xmlns="http://www.w3.org/2000/svg"><path fill="#5A2D8C" d="M0 0h18v18H0z"/><path d="M14 7.072v3.664c0 .165.005.33-.028.49-.084.37-.278.707-.556.968-.134.12-.295.203-.456.297l-3.17 1.832c-.334.17-.712.203-1.074.16a1.459 1.459 0 01-.528-.177l-3.348-1.93a1.674 1.674 0 01-.629-.66A1.62 1.62 0 014 10.961V7.006c.022-.385.195-.748.44-1.04.1-.122.22-.226.355-.307l3.11-1.8c.166-.093.333-.208.516-.269a2 2 0 01.968-.055c.14.039.284.083.417.16l3.387 1.958c.3.176.518.473.668.787.089.198.139.412.139.632zM8.966 5.714c-.24.351-.517.676-.828.968-.162.148-.317.313-.412.517a.818.818 0 00-.1.473c.022.22.184.418.39.495.21.088.45.066.667-.01a.225.225 0 01.111-.017c-.039.258-.195.478-.323.704v.038l.356.352c.028.028.056.066.095.077.133-.099.24-.236.361-.346.023-.033.078-.066.056-.11-.122-.22-.256-.44-.29-.699.023-.055.084-.01.123 0 .195.1.434.11.64.033a.644.644 0 00.39-.72 1.294 1.294 0 00-.38-.694 4.534 4.534 0 01-.778-.99.127.127 0 00-.078-.071zM6.948 9.289a1.221 1.221 0 00-.418 1.763c.129.19.308.338.518.432.307.126.653.128.962.006.156-.06.295-.165.411-.286.04-.044.106-.083.106-.154-.005-.072-.072-.11-.111-.165-.056-.044-.1-.11-.161-.143-.1-.044-.162.066-.223.12a.717.717 0 01-.968.006.686.686 0 01-.21-.616.696.696 0 01.344-.512.899.899 0 01.395-.088c.194.017.367.11.5.253l1.296 1.32a1.218 1.218 0 001.58.127 1.213 1.213 0 00.5-.93 1.218 1.218 0 00-.24-.802 1.241 1.241 0 00-.705-.463c-.362-.066-.768.006-1.046.259-.2.181-.378.385-.573.561-.205-.165-.361-.369-.556-.54a.975.975 0 00-.295-.186L8 9.223a1.18 1.18 0 00-1.057.072l.006-.006zm2.797.583a.72.72 0 01.556-.209.67.67 0 01.545.308.718.718 0 01-.105.897.694.694 0 01-.912.044c-.195-.165-.356-.357-.54-.528l-.006-.044.462-.468z" fill="#fff"/></svg>