<!-- by TradingView --><svg width="18" height="18" viewBox="0 0 18 18" xmlns="http://www.w3.org/2000/svg"><path fill="#F0F3FA" d="M0 0h18v18H0z"/><path d="m9.23 4.23 1.1 1.1c.06.06.06.17 0 .24l-1.2 1.2a.17.17 0 0 1-.25 0l-1.2-1.2a.17.17 0 0 1 0-.25l1.1-1.09a.32.32 0 0 1 .45 0Z" fill="#13B19E"/><path d="m7.35 5.9 1.2 1.2c.06.07.06.18 0 .24l-2.99 2.99a.17.17 0 0 1-.24 0l-1.1-1.1a.32.32 0 0 1 0-.45L7.1 5.9a.17.17 0 0 1 .25 0ZM12.68 7.67l1.1 1.1c.12.12.12.33 0 .45L10.9 12.1a.17.17 0 0 1-.25 0l-1.2-1.2a.17.17 0 0 1 0-.24l2.99-2.99a.17.17 0 0 1 .24 0Z" fill="#234858"/><path d="m9.12 11.23 1.2 1.2c.07.07.07.18 0 .25l-1.1 1.1a.32.32 0 0 1-.45 0l-1.1-1.1a.17.17 0 0 1 0-.24l1.2-1.2a.17.17 0 0 1 .25 0Z" fill="#13B19E"/><path d="m10.9 5.9 1.2 1.2c.07.06.07.17 0 .24l-1.2 1.2a.17.17 0 0 1-.24 0l-1.2-1.2a.17.17 0 0 1 0-.24l1.2-1.2a.17.17 0 0 1 .24 0Z" fill="#234858"/><path d="m9.12 7.68 1.2 1.2c.07.06.07.17 0 .24l-1.2 1.2a.17.17 0 0 1-.24 0l-1.2-1.2a.17.17 0 0 1 0-.24l1.2-1.2a.17.17 0 0 1 .24 0Z" fill="#13B19E"/><path d="m7.34 9.46 1.2 1.2c.07.06.07.17 0 .24l-1.2 1.2a.17.17 0 0 1-.24 0l-1.2-1.2a.17.17 0 0 1 0-.24l1.2-1.2a.17.17 0 0 1 .24 0Z" fill="#234858"/></svg>