<!-- by TradingView --><svg width="18" height="18" xmlns="http://www.w3.org/2000/svg"><path fill="#F0F3FA" d="M0 0h18v18H0z"/><path d="M4 11.698v-.758l4 2.234V9.913l.985-.64A.612.612 0 019 9.459v4.26c0 .71-.742.705-1.07.517-1.085-.623-3.33-1.907-3.577-2.018-.246-.112-.349-.392-.353-.519z" fill="url(#paint0_linear)"/><path d="M7 10.483L4 8.816v1.11l3 1.638v-1.08z" fill="#4273EB"/><path d="M4 7.59L8.011 9.92l.974-.633s-.108-.116-.233-.194L4.118 6.396A.361.361 0 004 6.65v.94z" fill="url(#paint1_linear)"/><path d="M8.61 3.762L4.117 6.396l.957.556 1.569-.87 3.868 2.383.902-.623c-.056-.084-.2-.211-.289-.259L7.706 5.498l1.341-.74L13 7.033l.922-.614c-.066-.136-.224-.238-.305-.288L9.423 3.762a.91.91 0 00-.814 0z" fill="url(#paint2_linear)"/><path d="M10.505 14.166V8.461l.906-.628c.074.08.094.213.094.261v5.426l-1 .646z" fill="url(#paint3_linear)"/><path d="M13 12.672V7.036l.906-.62c.075.078.094.21.094.258v5.096s0 .213-.15.321l-.85.581z" fill="url(#paint4_linear)"/><defs><linearGradient id="paint0_linear" x1="8.485" y1="9.687" x2="7.244" y2="13.858" gradientUnits="userSpaceOnUse"><stop stop-color="#7CD872"/><stop offset=".796" stop-color="#4073F3"/></linearGradient><linearGradient id="paint1_linear" x1="4" y1="7.083" x2="8.455" y2="9.534" gradientUnits="userSpaceOnUse"><stop stop-color="#6EC185"/><stop offset="1" stop-color="#4373EA"/></linearGradient><linearGradient id="paint2_linear" x1="6.965" y1="4.696" x2="11.563" y2="7.699" gradientUnits="userSpaceOnUse"><stop stop-color="#7BDF6A"/><stop offset="1" stop-color="#416FF6"/></linearGradient><linearGradient id="paint3_linear" x1="11.005" y1="7.833" x2="11.005" y2="14.166" gradientUnits="userSpaceOnUse"><stop stop-color="#7CD872"/><stop offset="1" stop-color="#4073F3"/></linearGradient><linearGradient id="paint4_linear" x1="13.5" y1="6.415" x2="13.5" y2="12.672" gradientUnits="userSpaceOnUse"><stop stop-color="#7CD872"/><stop offset="1" stop-color="#4073F3"/></linearGradient></defs></svg>