<!-- by TradingView --><svg xmlns="http://www.w3.org/2000/svg" width="18" height="18"><path fill="#496DDB" d="M0 0h18v18H0z"/><path fill-rule="evenodd" d="M13.83 8.33h-1.24c0-.68-.18-1.42-.5-2h1.6c.21 0 .55.01.65-.15C14.9 5.32 13.53 5 13 5c-.82-.02-1.83-.01-2.77 0a200.87 200.87 0 01-2.4-.01A57.94 57.94 0 004.78 5c-.44.02-1.26.35-1.23.88.02.33.2.45.52.45h1.84a5.43 5.43 0 00-.55 2H4.13c-.3 0-.56.02-.58.37v.6c.02.34.28.37.58.37h1.23c0 .65.09 1.4.34 2H4.07c-.19 0-.38.05-.5.23-.18.28-.02.84.34.9.34.11.73.2 1.09.2a100.87 100.87 0 003.97 0h1.06c.89.01 1.95.02 2.97 0 .33-.02.9-.05 1.19-.26.3-.19.4-.69.21-.99-.1-.13-.22-.11-.36-.1l-.15.02h-1.64c.25-.53.34-1.43.34-2h1.24c.28 0 .55-.02.57-.37v-.6c-.02-.27-.31-.37-.57-.37zm-4.85-2C7.9 6.36 7 6.76 6.95 8.05c-.02.22-.02.28.13.28h3.74c.26 0 .26-.02.23-.28-.06-1.32-1-1.66-2.07-1.72zm1.93 3.34H7.18c-.26 0-.26.02-.23.28.06 1.36 1 1.66 2.05 1.72 1.07-.03 2-.43 2.05-1.72.02-.22.02-.27-.14-.28z" fill="#fff"/></svg>