<!-- by TradingView --><svg xmlns="http://www.w3.org/2000/svg" width="18" height="18"><path fill="#F0F3FA" d="M0 0h18v18H0z"/><path d="M4.43 6.02c-.39.35-1.06.27-1.34.18l.3.23h-.25c.06.07.22.22.34.3.12.08.74.07 1.03.05-.15.2-.43.61-.43.74 0 .12.06.32.08.41.02.18.04.6 0 .9-.03.28-.42.8-.61 1.03.28-.17.47-.32.53-.37a2 2 0 00-.23.66c-.07.35-.42.72-.58.86l.28-.05-.12.19.12.09c.05 0 .16.02.21.18.07.2 1.04 1.04 1.48 1.42.43.38 1.84 1.1 2.6 1.3.62.16 1 .5 1.1.66.02-.09.08-.24.1-.2.03.04.08.2.1.27l.1-.13h.08c.14-.3.72-.5 1-.55.25-.1 1-.44 1.91-.92.91-.49 1.8-1.44 2.13-1.85l.17-.26.38-.17c-.19-.25-.56-.81-.55-1.06 0-.25-.07-.79-.11-1.03l.42.17c0-.07-.3-.41-.45-.58l.2-.05-.32-.1-.23-.38.55.17-.17-.23.28-.17-.36-.07.32-.32-.58.12.2-.34.26-.33c.02-.06-.07-.08-.12-.08l.08-.18h-.42l.2-.2h-.39v-.6l-.07-.25.26-.37-.3.11c.1-.74-.74-.63-1.16-.48-.01-.82-.92-1.07-1.38-1.1l.08.06c.75.25.92.93.91 1.24l-.24-.24a1.32 1.32 0 00-1.42-1 6.01 6.01 0 01-2.14-.24c.04.14.52.32.75.4-1.17.2-1.58-.41-1.64-.75-.24.2-.3.83-.3 1.12-.29.04-.5-.26-.58-.41-.22.14-.3.52-.32.69-.19-.07-.26-.46-.28-.65-.14.09-.26.6-.3.84-.93-.43-1.16.7-1.16 1.32z" fill="url(#apzaububa)"/><path d="M7.13 5.9c-.69.12-1.61.93-1.99 1.32-.2-.63-.46-1.91.15-2.07.62-.15 1.49.44 1.84.74zm4.53.2l.6-.9c.22-.07.43-.1.63-.05.59.16.34 1.44.14 2.07a6.26 6.26 0 00-1.37-1.11z" fill="#F0F3FA"/><path d="M13.72 6.32c-.21 0-.45 0-.65-.03a1.6 1.6 0 00-.93.13c.07.3.5.67.7.83-.14 0-.42.04-.38.1.04.06.19.13.26.15-.09.03-.13.07-.13.1.12.17.57.43.78.53-.03.1-.26.07-.38.05.08.27.49.42.68.45-.02.26 0 1.12 0 1.52.16-.2.32-.68.38-.9.08.39.22.67.34.86a.53.53 0 01-.04-.18 7.2 7.2 0 00-.1-1.03l.42.17c0-.07-.3-.41-.45-.58l.2-.05-.32-.1-.23-.38.55.16-.17-.23.27-.16-.36-.07.33-.32-.58.12.2-.34c.07-.09.23-.28.26-.34.02-.05-.07-.07-.12-.07l.08-.19h-.42l.2-.18h-.39v-.02z" fill="#5F534A"/><path d="M6.84 6.03c-.5.27-1.48.48-1.5-.84.12.19.48.57.93.56a1.56 1.56 0 01-.72-1.06l.03.01c.05-.24.17-.76.31-.85.02.2.1.6.27.65.02-.16.11-.54.33-.69.08.16.29.45.58.42 0-.3.06-.93.3-1.12.06.34.47.96 1.64.74-.24-.07-.7-.25-.76-.39.33.11 1.2.31 2.14.24.94-.08 1.35.64 1.43 1l.24.24c.01-.31-.16-1-.9-1.24l-.09-.06c.46.03 1.37.28 1.37 1.1l.05-.02c-.05.22-.13.45-.26.62-.25.33-.46.7-.54.84l-.09-.04-.07-.4-.15.18-.17-.25-.07.25-.44-.39c-.12.03-.5.08-1.07 0 .04.06.19.18.4.22-.4.07-1.32.17-1.8 0 .03.06.13.2.26.2-.24.03-.77.02-.98-.2 0 .06.03.2.12.23a.22.22 0 01-.19 0c0 .03.02.12.07.15a.57.57 0 01-.29-.1H7.2c-.08.01-.24.04-.35 0z" fill="#5E5149"/><path d="M4.42 6.03c-.3.26-.77.27-1.1.22L3.1 6.2l.22.18.07.05h-.25a3.01 3.01 0 00.34.3c.12.07.73.07 1.03.05-.15.2-.43.61-.43.73 0 .13.06.33.08.42.02.18.04.6 0 .9-.01.13-.1.32-.22.5-.13.2-.3.41-.4.53a5.17 5.17 0 00.52-.34l.06-.06.15.7c.03.1.11.07.15.03.01-.19.05-.65.05-.97 0-.23.08-.59.15-.88.06-.18.13-.35.22-.49a4.86 4.86 0 01-.05-3.06c-.27.29-.36.86-.36 1.23v.01h-.01z" fill="#72572F"/><path d="M14.4 11.34a2.66 2.66 0 00-.12-.57c-.04-.1-.22-.3-.59-.38a.98.98 0 00-.8.19c-.8.68-1.6.76-1.91.71l-1-.52c-.17-.07-.57-.2-.93-.2-.37 0-.72.13-.85.2-.19.13-.67.41-1.1.52-.45.11-1.4-.43-1.83-.71-.2-.1-.7-.24-1.1-.05-.32.15-.35.64-.31 1.03.25.29.92.88 1.3 1.21l.08.07c.43.38 1.84 1.1 2.6 1.3.62.16 1 .5 1.1.66.02-.09.07-.25.1-.2.03.03.08.2.1.27l.1-.13h.08c.14-.3.72-.5 1-.55.25-.11 1-.44 1.91-.92.91-.49 1.8-1.44 2.13-1.86l.05-.07zm-4.25-2.67c-.37.23-.28.55-.19.68.5.34 1.04-.3 1.22-.42.26-.19.39-.19.55-.22-.37-.1-1.22-.27-1.58-.04zm-2.55.2c.37.23.28.49.18.62-.49.34-.91-.01-1.08-.14-.27-.2-.57-.14-.73-.17.35-.28 1.27-.54 1.64-.3z" fill="#F0F3FA"/><path fill-rule="evenodd" d="M8.88 12.25c-.31-.28-.78-.88-.13-1.04h.76c.27.07.6.37-.18 1.04.2.13.8.24 1.08.28.09 0 .25.03.22.16-.02.13-.19.13-.27.12l-.43-.07c-.16.05-.54.13-.83.13-.3 0-.65-.08-.8-.13l-.47.07c-.05-.02-.15-.07-.15-.17 0-.09.1-.11.15-.11.32-.02.83-.19 1.05-.28zm-.26.44c.16-.05.5-.14.53-.2.13.08.4.21.52.2-.48.1-.9.04-1.05 0z" fill="#010101"/><path d="M7.76 10.28c-.03.24-.45.38-.92.32-.48-.05-.86-.21-.81-.52.03-.24.36-.39.92-.32.48.05.91.2.81.52zm2.71.02c.03.24.45.38.93.33.47-.06.85-.22.8-.53-.03-.23-.36-.38-.92-.32-.48.06-.91.2-.8.53z" fill="#020206"/><path d="M7.41 3l.02.1c.03.16.14.38.38.54.2.14.51.23.96.19a3.69 3.69 0 01-.45-.21.53.53 0 01-.07-.07.2.2 0 01-.05-.07l-.04-.11.12.04c.31.1 1.18.3 2.11.23a1.36 1.36 0 011.49 1.03l.11.12a1.26 1.26 0 00-.86-1.04l-.27-.18.22.01c.23.02.58.09.88.26.28.17.51.43.54.82.22-.07.5-.12.73-.07.14.03.26.08.35.19.06.09.1.2.1.35l.39-.15-.35.5.06.24v.56h.46l-.19.19h.38l-.1.2h.03l.06.05a.1.1 0 010 .09l-.04.07a2.3 2.3 0 01-.23.27l-.12.22.64-.13-.38.38.4.08-.35.2.24.33-.58-.17.14.24.5.14-.31.08a6.93 6.93 0 01.39.49l.01.06c0 .04-.03.06-.06.06l-.03-.01-.31-.13c.04.27.1.72.09.94 0 .05.01.12.05.21a5.33 5.33 0 00.49.81l.04.06-.43.19-.16.25a8 8 0 01-2.15 1.86c-.9.49-1.66.82-1.92.93h-.01c-.14.03-.35.1-.54.18-.2.1-.35.21-.41.34l-.02.04h-.1l-.15.2-.03-.12a2.76 2.76 0 00-.05-.16L9 14.8l-.03.13-.08-.11c-.1-.14-.46-.48-1.06-.63-.4-.1-.94-.34-1.45-.6a6.6 6.6 0 01-1.19-.72l-.07-.07-.8-.71a9.59 9.59 0 01-.54-.55.45.45 0 01-.08-.12c-.04-.13-.13-.14-.14-.13h-.03l-.18-.14.08-.12-.36.06.16-.14c.07-.06.2-.19.31-.34.12-.15.21-.32.24-.48.04-.18.09-.34.13-.45l-.33.22-.08-.09a5.1 5.1 0 00.52-.77c.05-.09.07-.17.08-.23.04-.28.02-.7 0-.88-.03-.1-.08-.3-.08-.43l.01-.07.04-.09.12-.2c.06-.1.13-.22.2-.3a7.83 7.83 0 01-.86-.04.3.3 0 01-.09-.04 2.46 2.46 0 01-.35-.3L3 6.37h.21l-.16-.13.06-.1c.13.05.36.09.6.08.24-.01.48-.07.66-.22 0-.32.06-.75.24-1.06.09-.16.21-.3.38-.36a.75.75 0 01.55.04 4.04 4.04 0 01.2-.65.4.4 0 01.12-.16l.09-.06v.1c.01.1.03.23.07.36a.68.68 0 00.1.19c.01-.08.04-.18.07-.27a.77.77 0 01.27-.36l.06-.04.03.06c.03.07.1.18.2.26.07.07.16.12.26.13a3.35 3.35 0 01.15-.88c.04-.09.1-.18.17-.23L7.4 3zm1.66 11.63zm5.46-5.68a7.3 7.3 0 00-.36-.42l-.06-.07.1-.02-.15-.05-.32-.53.53.16-.1-.14.2-.13-.33-.06.27-.26-.52.1.26-.44a5.47 5.47 0 00.25-.32h-.05l-.1-.01.09-.18h-.47l.19-.19h-.3v-.66l-.08-.26.17-.24-.22.08.02-.1c.02-.17-.01-.29-.07-.36a.42.42 0 00-.27-.15 1.6 1.6 0 00-.74.09l-.09.03v-.08c0-.39-.21-.64-.49-.8-.14-.09-.3-.15-.46-.19.56.32.7.9.7 1.2v.13l-.37-.35v-.02a1.34 1.34 0 00-.38-.64c-.21-.2-.53-.35-.98-.32a6.26 6.26 0 01-1.81-.12c.15.07.32.13.44.17l.21.07-.22.04c-.6.1-1.01 0-1.28-.18a1 1 0 01-.4-.5 1.59 1.59 0 00-.15.4c-.04.23-.06.46-.06.6v.05h-.06a.53.53 0 01-.41-.15 1 1 0 01-.19-.22.76.76 0 00-.16.26c-.05.13-.08.26-.08.34l-.01.07-.08-.02A.3.3 0 016 4.43a.79.79 0 01-.08-.19 1.6 1.6 0 01-.06-.23l-.09.23a4 4 0 00-.11.47l-.02.08-.07-.04c-.22-.1-.4-.1-.52-.06a.63.63 0 00-.32.3c-.17.3-.23.72-.23 1.03v.03l-.01.01c-.21.2-.5.26-.76.27-.14 0-.27 0-.4-.02l.23.18h-.27c.07.06.16.14.24.19l.04.02.1.01.27.02h.57l.13-.01-.07.1a6.2 6.2 0 00-.4.65l-.02.04c0 .12.06.32.08.4v.01c.02.18.04.62 0 .91a.92.92 0 01-.08.27 2.78 2.78 0 01-.32.5l.22-.16.1.08c-.05.06-.17.3-.23.64-.04.18-.15.37-.27.53a2.5 2.5 0 01-.2.23l.23-.04-.16.25.06.05c.08 0 .2.06.25.22l.06.08c.03.04.07.1.13.15a40.27 40.27 0 001.2 1.1l.07.07c.2.18.66.45 1.16.7.5.26 1.04.48 1.42.59.53.14.88.4 1.06.58a.8.8 0 01.01-.04.26.26 0 01.04-.07l.05-.03c.04 0 .06.02.08.03a1.24 1.24 0 01.07.17l.03-.05h.08c.09-.15.27-.27.46-.36.2-.1.41-.16.55-.19.27-.1 1.01-.43 1.91-.91a7.9 7.9 0 002.1-1.84l.18-.27.34-.15a5.43 5.43 0 01-.47-.78.67.67 0 01-.06-.25c.01-.24-.06-.78-.1-1.02l-.02-.1.36.14z"/><defs><linearGradient id="apzaububa" x1="9" y1="3.11" x2="9" y2="14.87" gradientUnits="userSpaceOnUse"><stop offset=".46" stop-color="#FBB86A"/><stop offset="1" stop-color="#FBE9B6"/></linearGradient></defs></svg>