<!-- by TradingView --><svg width="18" height="18" viewBox="0 0 18 18" xmlns="http://www.w3.org/2000/svg"><path fill="#F3FA30" d="M0 0h18v18H0z"/><path fill-rule="evenodd" d="M4.09 4.42c.1.1.27.11.36.02.09-.09.07-.25-.03-.35-.11-.1-.27-.12-.36-.03-.09.1-.08.25.03.36Zm7.8 7.85a.2.2 0 0 1 .16.07l.96.96c.05.04.1.06.15.06a.2.2 0 0 0 .14-.06.2.2 0 0 0 .06-.13.2.2 0 0 0-.06-.15l-.97-.98a.2.2 0 0 1-.07-.14c0-.05.02-.1.07-.14.07-.07.15-.08.24-.03a2.03 2.03 0 0 1 .25.24c.06.06.12.1.19.1.05 0 .1-.02.14-.06a.2.2 0 0 0 .06-.14.23.23 0 0 0-.08-.17l-.34-.34c-.06-.07-.07-.14-.03-.23.32-.6.5-1.2.54-1.8a4.24 4.24 0 0 0-1.89-3.92 4.33 4.33 0 0 0-4.58-.17.17.17 0 0 1-.11.02.17.17 0 0 1-.1-.05l-.45-.45c-.1-.1-.2-.11-.3-.04-.07.05-.09.11-.07.18.02.06.06.12.12.18l.3.3c.04.05.06.1.06.16a.2.2 0 0 1-.07.13.2.2 0 0 1-.13.06.2.2 0 0 1-.16-.07L5 4.73a.24.24 0 0 0-.17-.08.2.2 0 0 0-.14.05.19.19 0 0 0 0 .28l.96.97c.1.09.1.18 0 .28-.1.1-.18.1-.27.01l-.58-.57a.2.2 0 0 0-.29 0 .18.18 0 0 0-.06.13c0 .06.02.11.08.16l.66.67a.2.2 0 0 1 .06.11.2.2 0 0 1-.03.13 4.34 4.34 0 0 0 5.93 5.9.19.19 0 0 1 .12-.03c.04 0 .07.03.1.06.2.18.4.38.6.59.05.05.1.07.16.07a.2.2 0 0 0 .14-.05.19.19 0 0 0 .06-.14.22.22 0 0 0-.07-.16 36.9 36.9 0 0 1-.48-.48.22.22 0 0 1-.08-.17c0-.05.03-.1.07-.13a.2.2 0 0 1 .13-.06Zm-3.45-1.1c.36.1.74.1 1.15 0a.22.22 0 0 1 .2.06l.42.41c.05.06.11.09.17.09.06 0 .1-.02.14-.07a.2.2 0 0 0 .05-.15.23.23 0 0 0-.08-.16 2.85 2.85 0 0 1-.22-.22.2.2 0 0 1-.06-.16c0-.05.03-.09.07-.12a.2.2 0 0 1 .28 0l.68.68c.1.1.19.1.28 0 .1-.1.1-.2 0-.28a88.8 88.8 0 0 1-.68-.7.19.19 0 0 1-.06-.14c0-.05.03-.1.07-.13a.2.2 0 0 1 .14-.05c.06 0 .11.02.16.07l.4.4c.12.12.22.13.32.04.05-.05.07-.1.07-.15 0-.05-.03-.1-.08-.15l-.66-.67a.16.16 0 0 1-.04-.15c.08-.36.1-.68.05-.98a2.16 2.16 0 0 0-.98-1.51c-.28-.18-.58-.3-.9-.35a2.5 2.5 0 0 0-.96.05.16.16 0 0 1-.17-.04l-.59-.6c-.09-.08-.18-.08-.27 0-.1.1-.1.2 0 .3l.35.35c.08.09.1.19.01.3v.01c-.1.08-.2.07-.3-.02l-.78-.78a.23.23 0 0 0-.16-.07.2.2 0 0 0-.14.05.19.19 0 0 0-.07.13c0 .05.02.1.06.15l.81.82c.1.08.1.18.01.27-.08.1-.17.1-.28.02a1.77 1.77 0 0 1-.2-.2.25.25 0 0 0-.17-.1.2.2 0 0 0-.15.05.18.18 0 0 0-.07.15c0 .07.04.13.1.2a19.16 19.16 0 0 1 .45.47.2.2 0 0 1 0 .1v.02a6.2 6.2 0 0 0-.07.63c.02.65.26 1.18.7 1.6.3.27.63.45 1 .54Zm5.1 2.4.03-.03a.2.2 0 0 1 .3 0l.07.09a.2.2 0 0 1 0 .29l-.03.02a.2.2 0 0 1-.29 0l-.08-.08a.2.2 0 0 1 0-.3Z" fill="#27262A"/></svg>