<!-- by TradingView --><svg width="18" height="18" viewBox="0 0 18 18" xmlns="http://www.w3.org/2000/svg"><path fill="url(#amgyopk2d)" d="M0 0h18v18H0z"/><path d="M7.21 6.07a3.43 3.43 0 0 1 3.57-.01l1.04-1.02a4.35 4.35 0 0 0-5.62 0L7.2 6.07ZM6.06 10.77a3.41 3.41 0 0 1 0-3.53L5.02 6.18a4.34 4.34 0 0 0 .02 5.62l1.02-1.04ZM10.77 11.94a3.38 3.38 0 0 1-3.55 0L6.2 12.97C7.04 13.67 7.98 14 9 14a4.44 4.44 0 0 0 2.8-1.03l-1.04-1.03ZM11.95 7.23a3.42 3.42 0 0 1 0 3.52l1.02 1.06a4.33 4.33 0 0 0 0-5.62l-1.02 1.04ZM13 12a1 1 0 1 1 0 2 1 1 0 0 1 0-2ZM5 12a1 1 0 0 1 1 1 1 1 0 0 1-1 1 1 1 0 0 1-1-1 1 1 0 0 1 1-1ZM13 4a1 1 0 0 1 1 1 1 1 0 0 1-1 1 1 1 0 0 1-1-1 1 1 0 0 1 1-1ZM5 4a1 1 0 0 1 1 1 1 1 0 0 1-1 1 1 1 0 0 1-1-1 1 1 0 0 1 1-1ZM11.5 12 6 6.5l.5-.5 5.5 5.5-.5.5Z" fill="#fff"/><path d="M6.5 12 12 6.5l-.5-.5L6 11.5l.5.5Z" fill="#fff"/><defs><linearGradient id="amgyopk2d" x1="3.35" y1="3.12" x2="21.9" y2="24.43" gradientUnits="userSpaceOnUse"><stop stop-color="#1A1E21"/><stop offset="1" stop-color="#06060A"/></linearGradient></defs></svg>