<!-- by TradingView --><svg width="18" height="18" viewBox="0 0 18 18" xmlns="http://www.w3.org/2000/svg"><path fill="url(#avs2ndje2)" d="M0 0h18v18H0z"/><path d="M9 7.47 5 9l4-6v4.47Z" fill="url(#bvs2ndje2)"/><path d="M9 7.47 13 9 9 3v4.47Z" fill="url(#cvs2ndje2)"/><path d="m9 10.9-4-2 4-1.48v3.47Z" fill="url(#dvs2ndje2)"/><path d="m9 10.9 4-2-4-1.48v3.47Z" fill="#FBFCF7"/><ellipse cx="6.85" cy="6.33" rx=".5" ry=".46" fill="url(#evs2ndje2)"/><path d="M6.96 5.97c.05-.02.13.01.17.04.01.03.03.1-.02.12-.05.02-.05-.03-.1-.05-.06-.03-.1-.07-.05-.1Z" fill="#DADCF4"/><ellipse cx="9" cy="7.44" rx=".5" ry=".46" fill="url(#fvs2ndje2)"/><path d="M9.11 7.08c.05-.02.13.01.17.04.01.03.03.1-.02.12-.05.02-.05-.04-.1-.06-.06-.02-.1-.06-.05-.1Z" fill="#DADCF4"/><ellipse cx="11.08" cy="6.33" rx=".5" ry=".46" fill="url(#gvs2ndje2)"/><path d="M11.19 5.97c.04-.02.13.01.16.04.02.03.03.1-.01.12-.06.02-.05-.03-.11-.05-.06-.03-.1-.07-.04-.1Z" fill="#DADCF4"/><ellipse cx="10.86" cy="9.9" rx=".5" ry=".46" fill="url(#hvs2ndje2)"/><ellipse cx="7.04" cy="9.9" rx=".5" ry=".46" fill="url(#ivs2ndje2)"/><path d="M7.15 9.55c.04-.03.13.01.17.03.01.04.03.11-.02.13-.06.02-.05-.04-.1-.06-.06-.02-.1-.07-.05-.1Z" fill="#DADCF4"/><path d="m9.04 11.78-4-2.15 4 5.37v-3.22Z" fill="url(#jvs2ndje2)"/><path d="m9 11.78 4-2.15L9 15v-3.22Z" fill="#C8CCF7"/><defs><linearGradient id="avs2ndje2" x1="3.35" y1="3.12" x2="21.9" y2="24.43" gradientUnits="userSpaceOnUse"><stop stop-color="#1A1E21"/><stop offset="1" stop-color="#06060A"/></linearGradient><linearGradient id="bvs2ndje2" x1="5.07" y1="7.97" x2="8.11" y2="4.12" gradientUnits="userSpaceOnUse"><stop stop-color="#A795F2"/><stop offset="1" stop-color="#B7D0E1"/></linearGradient><linearGradient id="cvs2ndje2" x1="9" y1="4.19" x2="11.57" y2="8.73" gradientUnits="userSpaceOnUse"><stop stop-color="#E1F0F3"/><stop offset="1" stop-color="#B3DBF5"/></linearGradient><linearGradient id="dvs2ndje2" x1="8.95" y1="8.01" x2="5.69" y2="9.28" gradientUnits="userSpaceOnUse"><stop stop-color="#DEE1F9"/><stop offset="1" stop-color="#D6CDFB"/></linearGradient><linearGradient id="evs2ndje2" x1="7.3" y1="6.05" x2="6.65" y2="6.71" gradientUnits="userSpaceOnUse"><stop stop-color="#C0C7F2"/><stop offset="1" stop-color="#7890D6"/></linearGradient><linearGradient id="fvs2ndje2" x1="9.45" y1="7.16" x2="8.8" y2="7.82" gradientUnits="userSpaceOnUse"><stop stop-color="#C0C7F2"/><stop offset="1" stop-color="#7890D6"/></linearGradient><linearGradient id="gvs2ndje2" x1="11.52" y1="6.05" x2="10.87" y2="6.71" gradientUnits="userSpaceOnUse"><stop stop-color="#C0C7F2"/><stop offset="1" stop-color="#7890D6"/></linearGradient><linearGradient id="hvs2ndje2" x1="11.31" y1="9.63" x2="10.66" y2="10.29" gradientUnits="userSpaceOnUse"><stop stop-color="#C0C7F2"/><stop offset="1" stop-color="#7890D6"/></linearGradient><linearGradient id="ivs2ndje2" x1="7.49" y1="9.63" x2="6.84" y2="10.29" gradientUnits="userSpaceOnUse"><stop stop-color="#C0C7F2"/><stop offset="1" stop-color="#7890D6"/></linearGradient><linearGradient id="jvs2ndje2" x1="5.46" y1="9.95" x2="9.14" y2="14.24" gradientUnits="userSpaceOnUse"><stop stop-color="#6E89D3"/><stop offset="1" stop-color="#677FF0"/></linearGradient></defs></svg>