<!-- by TradingView --><svg width="18" height="18" viewBox="0 0 18 18" xmlns="http://www.w3.org/2000/svg"><path fill="#3E52B4" d="M0 0h18v18H0z"/><path d="m6.31 9.55-1.19 1.2-.56.55a5 5 0 1 1 .99 1.32l.53-.53 3.83-3.83a.74.74 0 0 1 1.46-.01l1.51 1.71c.08-.33.12-.62.12-.96 0-2.35-1.65-4-4-4-2.34 0-4 1.61-4 3.96 0 .25.03.56.08.77l.9-.91a.74.74 0 0 1 1.46-.02l.72.72-.53.53-.51-.5a.73.73 0 0 1-.81 0Zm3.96-.6-3.44 3.43c.7.46 1.51.62 2.17.62 1.7 0 2.96-.76 3.64-2.22l-1.62-1.83a.73.73 0 0 1-.75 0Zm.38-.96a.33.33 0 1 0-.02.67.33.33 0 0 0 .02-.67Zm-3.93.6a.33.33 0 1 0 0 .67.33.33 0 0 0 0-.66Z" fill="#fff"/></svg>