<!-- by TradingView --><svg width="18" height="18" fill="none" xmlns="http://www.w3.org/2000/svg"><path fill="#171024" d="M0 0h18v18H0z"/><path d="M5.929 4.27l-.033.012c-.004 0-.008.004-.012.004-.017.004-.03.012-.045.017-.021.008-.046.016-.066.028a.031.031 0 00-.016.008c-.004 0-.004.004-.009.004-.016.009-.032.013-.049.02a1.038 1.038 0 00-.098.046c-.012.008-.029.012-.041.02a1.415 1.415 0 00-.11.057l-.025.012c-.012.009-.025.013-.037.02-.012.009-.025.013-.037.021h-.004l-.061.037a.276.276 0 00-.045.029h.004s.004 0 .004-.005c.004 0 .004-.004.008-.004.025-.016.05-.028.078-.044.045-.03.094-.054.143-.078.025-.012.045-.025.07-.037a.031.031 0 01.02-.008c.017-.008.037-.016.053-.029.03-.016.062-.028.09-.044l.066-.029c.033-.016.066-.029.102-.045.03-.012.054-.02.082-.033a.073.073 0 01-.032.02zm-.7.347c.003 0 .003 0 0 0 .003 0 .003 0 0 0zm.7-.347l-.033.012c-.004 0-.008.004-.012.004-.017.004-.03.012-.045.017-.021.008-.046.016-.066.028a.031.031 0 00-.016.008c-.004 0-.004.004-.009.004-.016.009-.032.013-.049.02a1.038 1.038 0 00-.098.046c-.012.008-.029.012-.041.02a1.415 1.415 0 00-.11.057l-.025.012c-.012.009-.025.013-.037.02-.012.009-.025.013-.037.021h-.004l-.061.037a.276.276 0 00-.045.029h.004s.004 0 .004-.005c.004 0 .004-.004.008-.004.025-.016.05-.028.078-.044.045-.03.094-.054.143-.078.025-.012.045-.025.07-.037a.031.031 0 01.02-.008c.017-.008.037-.016.053-.029.03-.016.062-.028.09-.044l.066-.029c.033-.016.066-.029.102-.045.03-.012.054-.02.082-.033a.073.073 0 01-.032.02zm-.7.347c.003 0 .003 0 0 0 .003 0 .003 0 0 0zm.7-.347l-.033.012c-.004 0-.008.004-.012.004-.017.004-.03.012-.045.017-.021.008-.046.016-.066.028a.031.031 0 00-.016.008c-.004 0-.004.004-.009.004-.016.009-.032.013-.049.02a1.038 1.038 0 00-.098.046c-.012.008-.029.012-.041.02a1.415 1.415 0 00-.11.057l-.025.012c-.012.009-.025.013-.037.02-.012.009-.025.013-.037.021h-.004l-.061.037a.276.276 0 00-.045.029h.004s.004 0 .004-.005c.004 0 .004-.004.008-.004.025-.016.05-.028.078-.044.045-.03.094-.054.143-.078.025-.012.045-.025.07-.037a.031.031 0 01.02-.008c.017-.008.037-.016.053-.029.03-.016.062-.028.09-.044l.066-.029c.033-.016.066-.029.102-.045.03-.012.054-.02.082-.033a.073.073 0 01-.032.02zm-.7.347c.003 0 .003 0 0 0 .003 0 .003 0 0 0zm.7-.347l-.033.012c-.004 0-.008.004-.012.004-.017.004-.03.012-.045.017-.021.008-.046.016-.066.028a.031.031 0 00-.016.008c-.004 0-.004.004-.009.004-.016.009-.032.013-.049.02a1.038 1.038 0 00-.098.046c-.012.008-.029.012-.041.02a1.415 1.415 0 00-.11.057l-.025.012c-.012.009-.025.013-.037.02-.012.009-.025.013-.037.021h-.004l-.061.037a.276.276 0 00-.045.029h.004s.004 0 .004-.005c.004 0 .004-.004.008-.004.025-.016.05-.028.078-.044.045-.03.094-.054.143-.078.025-.012.045-.025.07-.037a.031.031 0 01.02-.008c.017-.008.037-.016.053-.029.03-.016.062-.028.09-.044l.066-.029c.033-.016.066-.029.102-.045.03-.012.054-.02.082-.033a.073.073 0 01-.032.02zm-.7.347c.003 0 .003 0 0 0 .003 0 .003 0 0 0zm.7-.347l-.033.012c-.004 0-.008.004-.012.004-.017.004-.03.012-.045.017-.021.008-.046.016-.066.028a.031.031 0 00-.016.008c-.004 0-.004.004-.009.004-.016.009-.032.013-.049.02a1.038 1.038 0 00-.098.046c-.012.008-.029.012-.041.02a1.415 1.415 0 00-.11.057l-.025.012c-.012.009-.025.013-.037.02-.012.009-.025.013-.037.021h-.004l-.061.037a.276.276 0 00-.045.029h.004s.004 0 .004-.005c.004 0 .004-.004.008-.004.025-.016.05-.028.078-.044.045-.03.094-.054.143-.078.025-.012.045-.025.07-.037a.031.031 0 01.02-.008c.017-.008.037-.016.053-.029.03-.016.062-.028.09-.044l.066-.029c.033-.016.066-.029.102-.045.03-.012.054-.02.082-.033a.073.073 0 01-.032.02zm-.7.347c.003 0 .003 0 0 0 .003 0 .003 0 0 0zM9 3.037H8.927h.086H9zM3.21 7.568c-.009.024-.013.053-.021.078l-.025.106c-.008.045-.02.09-.029.134-.008.037-.012.07-.02.106 0 .009-.004.017-.004.03-.004.024-.004.048-.008.068a3.19 3.19 0 00.012-.077c0-.008.004-.02.004-.029 0-.008.004-.016.004-.024.004-.012.004-.02.004-.033.004-.032.013-.061.017-.09l.012-.065.049-.212c.008 0 .004.004.004.008zm1.26 5.31v.013c.005-.004.005-.008 0-.013zm4.133-7.065v0zM4.82 12.4v-.008.008zm.004-.172v-.02-.02a.07.07 0 010 .04zm2.216.98c.008.012.016.02.024.033.008.008.012.02.02.028-.016-.02-.028-.04-.044-.061zm2.682 1.184l.066.04h.004c-.02-.008-.041-.024-.07-.04zm-1.884-3.947a4.4 4.4 0 00-.045.46c0-.003 0-.011.004-.015.004-.135.02-.266.045-.392-.004-.02-.004-.037-.004-.053zm.012 3.534zm1.368-5.143a2.191 2.191 0 00-.97.71c-.205.27-.34.597-.406.956.017.318.123 1.4 1.02 2.188a3.024 3.024 0 001.388.677 2.462 2.462 0 01-.855-.677c0-.004-.005-.004-.005-.009-.802-1.012-.761-2.66.168-3.502.017-.016.037-.032.054-.049.012-.012.028-.024.045-.036.004 0 .004-.005.008-.005.016-.016.037-.028.053-.04l.037-.025c.012-.008.02-.016.033-.024.04-.029.082-.053.123-.078l.04-.024a.875.875 0 01.087-.045c.012-.008.024-.012.036-.017.013-.008.03-.012.041-.02.017-.008.033-.012.05-.02l.032-.013a.197.197 0 01.045-.016c.013-.004.029-.008.041-.016.013-.004.029-.008.041-.013.045-.016.09-.028.131-.04.045-.013.086-.025.131-.033a66.833 66.833 0 01.12-.025c.036-.008.077-.012.114-.016h.008c.029-.004.053-.008.078-.008.029-.004.053-.004.078-.008.024 0 .049-.004.07-.004.02 0 .04 0 .06-.004-.09-.004-1.035-.102-1.896.236zm1.213 4.609c-.004 0-.004 0 0 0s.008.004.016.008l-.016-.008zm.057.024s-.004 0-.004-.004c-.004 0-.008-.004-.012-.004l.032.012c-.004 0-.008 0-.016-.004zm.086.033h-.004c-.012-.004-.025-.008-.041-.016-.004 0-.004 0-.008-.005l-.02-.008.06.025c.009.004.017.004.03.008-.005 0-.009-.004-.017-.004zm.823.163a3.456 3.456 0 01-.377-.045l-.057-.012c.033.008.062.012.09.016.033.005.062.013.086.017.074.012.14.016.189.024.008 0 .02 0 .028.004.008 0 .017 0 .025.004h.008c0-.004.008-.004.008-.008 0 .004 0 .004 0 0zm2.834-1.702s0 .004-.004.004c.004-.004.004-.008.008-.012 0 .004-.004.004-.004.008zm.226-.44s0 .003 0 0zm.532-3.054c0-.012-.004-.028-.004-.045 0-.008 0-.016-.004-.024.004.024.004.053.008.077.004 0 0-.004 0-.008zm-.14-.76c.021.323.025.687 0 1.078a7.797 7.797 0 01-.421 2.082 3.572 3.572 0 00-.008-1.065 2.99 2.99 0 00-.099-.429 3.681 3.681 0 01-.671 1.984c-1 1.392-2.658 1.535-3.035 1.555H10.561c.012.012.02.025.033.037l.028.033c.012.012.02.024.033.036.016.017.033.037.05.053a3.827 3.827 0 00.18.18l.049.045.053.049a2.124 2.124 0 00.172.139l.004.004.028.024c.082.061.152.114.21.151h.008l.057.037a.166.166 0 00.037.02c.004.004.008.008.016.008.008.005.017.009.025.017l.02.012c.004.004.008.004.012.008.005 0 .005.004.009.004.008.004.016.008.024.017l.025.012c.004 0 .008.004.008.004.004 0 .008.004.012.004a.3.3 0 01.05.029c.016.008.036.016.053.028.012.008.028.013.04.02l.033.017c.013.004.025.012.033.016l.058.025c.016.008.032.016.053.024.008.004.016.008.024.008l.029.013c.004 0 .008.004.008.004.004 0 .004.004.008.004.005 0 .009.004.013.004s.008.004.012.004.004.004.008.004c.012.004.025.008.041.016.004 0 .004.005.008.005.017.004.033.012.045.016h.004c.009.004.017.004.02.008a6.04 6.04 0 00.73-.539 5.953 5.953 0 001.925-5.804zm-.122.548c.016.065.037.13.05.192a1.887 1.887 0 00-.05-.192zm-.205-.572c-.024-.057-.053-.114-.078-.171.025.057.05.114.078.171l.029.066c-.012-.02-.02-.045-.029-.066zm-.25-.481c.037.065.078.134.115.204-.037-.074-.078-.139-.115-.204zm-.295-.441c.03.037.058.077.086.122-.024-.045-.057-.085-.085-.122zm-.274-.31c.033.028.066.06.103.098-.03-.037-.066-.066-.103-.098zm-.258-.229v.029c.057.04.123.085.184.138l.074.062a7.6 7.6 0 00-.258-.229zM5.257 10.38v-.008.008zm8.126-3.865a2.476 2.476 0 00-.291-.318c-.045-.041-.09-.082-.135-.119a2.356 2.356 0 00-.426-.282l-.07-.036c-.012-.004-.024-.013-.037-.017h-.008c.066.053.131.115.197.176l.061.061c.037.037.07.07.103.106.012.013.024.029.036.041.017.016.029.033.045.05a.288.288 0 01.033.04c.029.037.062.073.09.11.013.016.025.029.033.045.016.02.029.04.045.061.05.066.09.13.135.196.123.192.225.396.307.608a3.833 3.833 0 01.103.302l.049.18c.004.008.004.016.008.024a4 4 0 01.098.837 3.814 3.814 0 01-.164 1.078 4.031 4.031 0 00-.139-.302 3.014 3.014 0 00-.143-.25 2.794 2.794 0 00-.2-.289c-.005-.004-.005-.008-.009-.012a1.272 1.272 0 00-.07-.086c-.016-.016-.028-.037-.045-.053-.016-.016-.028-.037-.045-.053 0 .004.004.008.004.012.013.037.021.074.03.11.016.066.028.135.04.2 0 .004.004.013.004.02l.012.087c.005.044.009.09.009.134a3.312 3.312 0 01.569 1.2 4.813 4.813 0 00.328-1.53c.024-.564.07-1.519-.557-2.331zm-.34 2.922c0 .058 0 .119-.004.184 0-.008 0-.016.004-.024a.616.616 0 000-.16zm-.05.51v.005c.005-.012.005-.029.009-.041l.004-.016a2.009 2.009 0 00.033-.265 3.97 3.97 0 01-.045.318zm-.83 1.135s.003 0 .003-.004l.008-.02c0 .008-.004.016-.012.024zm-.558-2.514c-.004.004-.004.012-.012.029l-.033.044c-.004.005-.008.005-.008.009l-.004.004-.004.004c-.008.008-.017.012-.025.016-.004 0-.004.004-.008.004h-.004s-.004 0-.004.004c-.004 0-.008.004-.008.004a.224.224 0 01-.164 0l.02.017c.008.008.02.016.029.028l.012.013.008.008a.056.056 0 01.013.016l.028.049c.008.012.02.024.033.037a.45.45 0 01.066.343.617.617 0 00.077-.147.823.823 0 00-.012-.482zm-.917-.718c0-.004-.004-.009-.008-.013-.009-.008-.013-.016-.02-.024l-.013-.012-.004-.004c-.004-.005-.004-.005-.009-.005l-.004-.004-.004-.004c-.004 0-.004-.004-.008-.004-.004-.004-.008-.004-.008-.008-.004-.004-.008-.004-.012-.008h-.004l-.025-.012h-.004c-.004-.004-.008-.004-.016-.008 0 0-.005 0-.009-.005h-.004c-.004 0-.008-.004-.008-.004-.004 0-.008-.004-.012-.004h-.004c-.005 0-.013-.004-.017-.004h-.008c-.004 0-.004 0-.008-.004h-.008c-.07-.008-.136 0-.18.04h-.005v.005l-.004.004a.161.161 0 00-.04.061c0 .004-.005.004-.005.008v.025a.05.05 0 00.02.02c.005 0 .005.004.009.004.004 0 .004 0 .008.005.008.004.017.004.025.008.004 0 .012 0 .016.004h.012c.008 0 .017.004.025.004h.004c.012 0 .02.004.033.004h.032c.009 0 .017.004.025.004s.017 0 .025.004l.053.012.04.013a.435.435 0 01.11.065l.01.008c.004 0 .004.004.008.008l.004.004.004.004.008.009.017.016c.004.004.004.008.008.012a.313.313 0 00-.045-.224zM9.09 4.209c.009.004.02.004.037.008-.012-.004-.024-.004-.037-.008zm-4.595 7.249c-.004.016-.004.033-.008.049.008-.045.012-.09.02-.139l-.012.09zm4.78-8.413H9.262h.025-.012zm-.033 0c-.004 0 0 0 0 0zM5.929 4.27l-.033.012c-.004 0-.008.004-.012.004-.017.004-.03.012-.045.017-.021.008-.046.016-.066.028a.031.031 0 00-.016.008c-.004 0-.004.004-.009.004-.016.009-.032.013-.049.02a1.038 1.038 0 00-.098.046c-.012.008-.029.012-.041.02a1.415 1.415 0 00-.11.057l-.025.012c-.012.009-.025.013-.037.02-.012.009-.025.013-.037.021h-.004l-.061.037a.276.276 0 00-.045.029h.004s.004 0 .004-.005c.004 0 .004-.004.008-.004.025-.016.05-.028.078-.044.045-.03.094-.054.143-.078.025-.012.045-.025.07-.037a.031.031 0 01.02-.008c.017-.008.037-.016.053-.029.03-.016.062-.028.09-.044l.066-.029c.033-.016.066-.029.102-.045.03-.012.054-.02.082-.033a.073.073 0 01-.032.02zm-.7.347c.003 0 .003 0 0 0 .003 0 .003 0 0 0zm.7-.347l-.033.012c-.004 0-.008.004-.012.004-.017.004-.03.012-.045.017-.021.008-.046.016-.066.028a.031.031 0 00-.016.008c-.004 0-.004.004-.009.004-.016.009-.032.013-.049.02a1.038 1.038 0 00-.098.046c-.012.008-.029.012-.041.02a1.415 1.415 0 00-.11.057l-.025.012c-.012.009-.025.013-.037.02-.012.009-.025.013-.037.021h-.004l-.061.037a.276.276 0 00-.045.029h.004s.004 0 .004-.005c.004 0 .004-.004.008-.004.025-.016.05-.028.078-.044.045-.03.094-.054.143-.078.025-.012.045-.025.07-.037a.031.031 0 01.02-.008c.017-.008.037-.016.053-.029.03-.016.062-.028.09-.044l.066-.029c.033-.016.066-.029.102-.045.03-.012.054-.02.082-.033a.073.073 0 01-.032.02zm-.7.347c.003 0 .003 0 0 0 .003 0 .003 0 0 0zm.7-.347l-.033.012c-.004 0-.008.004-.012.004-.017.004-.03.012-.045.017-.021.008-.046.016-.066.028a.031.031 0 00-.016.008c-.004 0-.004.004-.009.004-.016.009-.032.013-.049.02a1.038 1.038 0 00-.098.046c-.012.008-.029.012-.041.02a1.415 1.415 0 00-.11.057l-.025.012c-.012.009-.025.013-.037.02-.012.009-.025.013-.037.021h-.004l-.061.037a.276.276 0 00-.045.029h.004s.004 0 .004-.005c.004 0 .004-.004.008-.004.025-.016.05-.028.078-.044.045-.03.094-.054.143-.078.025-.012.045-.025.07-.037a.031.031 0 01.02-.008c.017-.008.037-.016.053-.029.03-.016.062-.028.09-.044l.066-.029c.033-.016.066-.029.102-.045.03-.012.054-.02.082-.033a.073.073 0 01-.032.02zm-.7.347c.003 0 .003 0 0 0 .003 0 .003 0 0 0zm.7-.347l-.033.012c-.004 0-.008.004-.012.004-.017.004-.03.012-.045.017-.021.008-.046.016-.066.028a.031.031 0 00-.016.008c-.004 0-.004.004-.009.004-.016.009-.032.013-.049.02a1.038 1.038 0 00-.098.046c-.012.008-.029.012-.041.02a1.415 1.415 0 00-.11.057l-.025.012c-.012.009-.025.013-.037.02-.012.009-.025.013-.037.021h-.004l-.061.037a.276.276 0 00-.045.029h.004s.004 0 .004-.005c.004 0 .004-.004.008-.004.025-.016.05-.028.078-.044.045-.03.094-.054.143-.078.025-.012.045-.025.07-.037a.031.031 0 01.02-.008c.017-.008.037-.016.053-.029.03-.016.062-.028.09-.044l.066-.029c.033-.016.066-.029.102-.045.03-.012.054-.02.082-.033a.073.073 0 01-.032.02zm-.7.347c.003 0 .003 0 0 0 .003 0 .003 0 0 0zm.7-.347l-.033.012c-.004 0-.008.004-.012.004-.017.004-.03.012-.045.017-.021.008-.046.016-.066.028a.031.031 0 00-.016.008c-.004 0-.004.004-.009.004-.016.009-.032.013-.049.02a1.038 1.038 0 00-.098.046c-.012.008-.029.012-.041.02a1.415 1.415 0 00-.11.057l-.025.012c-.012.009-.025.013-.037.02-.012.009-.025.013-.037.021h-.004l-.061.037a.276.276 0 00-.045.029h.004s.004 0 .004-.005c.004 0 .004-.004.008-.004.025-.016.05-.028.078-.044.045-.03.094-.054.143-.078.025-.012.045-.025.07-.037a.031.031 0 01.02-.008c.017-.008.037-.016.053-.029.03-.016.062-.028.09-.044l.066-.029c.033-.016.066-.029.102-.045.03-.012.054-.02.082-.033a.073.073 0 01-.032.02zm-.7.347c.003 0 .003 0 0 0 .003 0 .003 0 0 0zm.7-.347l-.033.012c-.004 0-.008.004-.012.004-.017.004-.03.012-.045.017-.021.008-.046.016-.066.028a.031.031 0 00-.016.008c-.004 0-.004.004-.009.004-.016.009-.032.013-.049.02a1.038 1.038 0 00-.098.046c-.012.008-.029.012-.041.02a1.415 1.415 0 00-.11.057l-.025.012c-.012.009-.025.013-.037.02-.012.009-.025.013-.037.021h-.004l-.061.037a.276.276 0 00-.045.029h.004s.004 0 .004-.005c.004 0 .004-.004.008-.004.025-.016.05-.028.078-.044.045-.03.094-.054.143-.078.025-.012.045-.025.07-.037a.031.031 0 01.02-.008c.017-.008.037-.016.053-.029.03-.016.062-.028.09-.044l.066-.029c.033-.016.066-.029.102-.045.03-.012.054-.02.082-.033a.073.073 0 01-.032.02zm-.7.347c.003 0 .003 0 0 0 .003 0 .003 0 0 0z" fill="#170F24"/><path d="M11.605 9.057a.62.62 0 01-.077.147.449.449 0 00-.033-.285c-.012-.02-.02-.041-.033-.058a.141.141 0 00-.033-.036.143.143 0 00-.028-.05.056.056 0 01-.013-.016c-.004-.004-.004-.008-.008-.008l-.012-.012c-.008-.012-.02-.02-.029-.029-.008-.008-.016-.012-.02-.016a.224.224 0 00.172-.004c.004 0 .004 0 .004-.004h.004c.004 0 .004-.004.008-.004.008-.004.017-.012.025-.017l.004-.004s.004 0 .004-.004l.008-.008c.017-.016.025-.032.033-.045a.072.072 0 00.012-.028c.037.077.09.27.012.481z" fill="#fff"/><path d="M14.849 7.71a5.955 5.955 0 00-.414-1.22 9.702 9.702 0 00-.426-.763 6.023 6.023 0 00-.733-.906l.012.04.012.041c.025.082.045.172.066.262.086.408.098.771.086 1.06l-.045-.036c-.017-.008-.033-.02-.033-.02a.084.084 0 01-.024-.017l-.058-.036c-.02-.013-.037-.025-.057-.033-.02-.012-.037-.02-.057-.033l-.054-.028c-.004-.004-.008-.004-.012-.008 0 0-.004 0-.004-.004l-.05-.025c-.032-.016-.065-.033-.098-.045-.028-.012-.057-.028-.086-.04l-.061-.025a.198.198 0 00-.045-.016 2.306 2.306 0 00-.2-.074l-.021-.008c-.017-.004-.033-.012-.05-.016-.008-.005-.02-.005-.028-.009a.078.078 0 00-.033-.008h-.004c.066.057.131.114.197.176l.061.061c.037.037.07.07.103.106.012.012.024.029.036.04.017.017.03.034.045.05a.285.285 0 01.033.04l.086.11c.012.017.025.03.033.046.016.02.029.04.045.061l.135.196c.123.192.226.396.307.608a3.88 3.88 0 01.103.302l.049.18c0 .008.004.016.004.024.05.217.082.441.094.67a2.856 2.856 0 01-.012.494c-.025.257-.074.51-.147.75a4.03 4.03 0 00-.14-.301 3.016 3.016 0 00-.143-.25 2.813 2.813 0 00-.2-.29c-.005-.003-.005-.007-.009-.011a1.277 1.277 0 00-.07-.086c-.016-.016-.028-.037-.045-.053-.016-.017-.028-.037-.045-.053 0 .004.004.008.004.012.013.037.02.073.029.11.016.065.029.135.041.2 0 .008.004.012.004.02.004.03.008.058.008.086.004.045.008.09.008.135V9.278c0 .045 0 .09-.004.135v.028a.72.72 0 01-.004.16c0 .008 0 .016-.004.024v.008c-.004.07-.012.139-.024.212-.005.017-.005.037-.009.053 0 .005-.004.013-.004.017-.004.012-.004.024-.008.032V9.956c-.004.012-.004.024-.008.032a1.096 1.096 0 01-.029.11l-.012.05c-.008.02-.012.044-.02.065-.005.016-.013.032-.017.049a1.828 1.828 0 01-.094.232c-.008.017-.016.037-.025.053a3.494 3.494 0 01-.266.466 6.059 6.059 0 01-.143.2c-.017.02-.033.045-.053.07a4.992 4.992 0 01-.152.179l-.045.049c-.02.024-.041.045-.066.07-.016.02-.036.036-.053.056l-.123.127-.147.143-.078.073c-.024.025-.053.05-.082.074.012-.017.029-.033.041-.05l.041-.052.004-.004a.234.234 0 00.025-.033c.004-.008.012-.016.016-.025.012-.016.029-.036.041-.057v-.004l.057-.082c.025-.036.05-.077.074-.118.017-.028.033-.057.053-.085v-.005l.05-.085.049-.094c.053-.102.102-.2.143-.298.008-.02.02-.041.029-.061.008-.025.02-.05.028-.074-.016.016-.028.037-.045.053a4.296 4.296 0 01-.331.355c-.02.02-.041.037-.062.057-.024.02-.049.045-.074.066l-.073.061a3.511 3.511 0 01-.324.24c-.012.009-.028.021-.045.03-.016.008-.029.02-.045.028-.029.02-.061.037-.094.057-.02.012-.045.029-.066.04a.955.955 0 00-.065.038c-.045.024-.09.049-.131.069-.02.012-.045.02-.066.033l-.049.024c-.05.02-.094.041-.14.061l.034-.028a2.282 2.282 0 00.307-.339c.02-.024.037-.053.057-.082.029-.04.053-.085.078-.13l.016-.029c.017-.028.029-.057.045-.086a1.229 1.229 0 01-.143.098 1.417 1.417 0 01-.594.188 1.841 1.841 0 01-.25-.18c-.012-.012-.024-.02-.037-.032-.012-.012-.024-.02-.036-.033a2.043 2.043 0 01-.258-.298c-.05-.069-.09-.143-.132-.22-.004-.012-.012-.025-.016-.037l-.037-.081a1.673 1.673 0 01-.074-.237c-.004-.016-.008-.029-.008-.045-.004-.016-.004-.029-.008-.045-.004-.012-.004-.024-.008-.04 0-.009-.004-.017-.004-.025-.004-.013-.004-.029-.004-.041 0-.008 0-.02-.004-.029 0-.016-.004-.028-.004-.045-.005-.028-.005-.06-.005-.09 0-.081.009-.159.02-.24.005-.02.01-.045.013-.066a.34.34 0 01.017-.06c.004-.009.004-.021.008-.03.008-.024.012-.048.02-.073l.025-.065c.008-.029.02-.053.033-.078a.122.122 0 01.016-.032c.004-.013.012-.02.016-.033a.085.085 0 01.017-.024.71.71 0 01.061-.094c.02-.029.037-.057.062-.086.008-.008.012-.016.02-.029a.597.597 0 01.066-.077c.02-.025.045-.05.07-.074l.024-.024.024-.025c.009-.008.017-.016.025-.02a.498.498 0 01.05-.045c.015-.016.032-.029.052-.045a.057.057 0 01.017-.012c.012-.008.024-.02.037-.029.004-.004.008-.004.008-.008l.04-.028c.009-.009.021-.013.03-.02a1.904 1.904 0 00.119-.078c.016-.009.028-.02.044-.029.017-.008.029-.016.041-.024.013-.009.025-.017.037-.02l.004-.005c.025-.012.045-.024.066-.033h.004a.408.408 0 01.045-.02l.024-.012c.013-.004.02-.008.03-.012.15-.066.286-.098.388-.119.008 0 .012-.004.02-.004-.085-.012-1.036-.11-1.892.229-.917.71-.675 2.122-.643 2.302.12.702.492 1.216.815 1.543a2.46 2.46 0 00.86.686c.013.003.025.012.037.016.013.008.03.012.041.02.013.008.03.012.041.02.004 0 .004.005.008.005a.058.058 0 00.025.008l.02.008h.005l.016.008c.004 0 .008.004.008.004.004.004.013.004.017.008.004 0 .008.005.012.005 0 0 .004 0 .004.004.004 0 .008.004.016.004.009.004.013.004.02.008.005 0 .005 0 .01.004a.292.292 0 01.04.016h.004l.016.004c.009.004.013.004.021.009.008.004.016.004.029.008.02.008.045.012.065.02a.528.528 0 00.086.024c.02.005.041.013.066.017l.065.016c.013.004.025.004.037.008.02.004.041.008.057.013.136.024.263.04.377.045a2.5 2.5 0 01-.209-.151c-.008-.009-.02-.017-.028-.025l-.004-.004c-.009-.004-.017-.012-.025-.016a2.161 2.161 0 01-.09-.074l.012.012s.004 0 .004.004c.013.009.02.017.033.025l.004.004h.004v.004l.004.004.017.012h.004c.004 0 .004.005.008.005s.004.004.008.004c.033.024.07.053.107.077.012.008.024.017.037.029.004 0 .004.004.008.004s.004.004.004.004c.004.004.008.004.012.008.012.008.02.016.033.024l.004.005c.008.008.02.012.029.02l.016.012c.004.004.008.004.012.008h.004l.058.037c.012.008.024.017.037.02.004.005.008.009.016.009a.086.086 0 01.025.016l.02.012c.004.004.008.004.012.008.004 0 .004.004.008.004.009.005.017.009.025.017l.025.012c.004 0 .008.004.008.004.004 0 .008.004.012.004.016.009.033.017.05.029.016.008.036.016.053.028.012.009.028.013.04.02l.033.017c.013.004.025.012.033.016l.057.025c.017.008.037.016.054.025a.058.058 0 00.024.008.2.2 0 00.029.012c.004 0 .008.004.008.004.004 0 .004.004.008.004s.008.004.012.004c.005 0 .009.004.013.004s.008.004.008.004c.012.004.029.008.041.017.004 0 .008.004.008.004.017.004.033.012.045.016h.004c.008.004.017.004.02.008l.042-.024c.241-.155.47-.327.688-.515A5.953 5.953 0 0015 8.972a6.67 6.67 0 00-.151-1.261zm-2.67 3.348c-.005.008-.005.012-.009.02l-.004.004.012-.024zm-1.365-2.425zm-.36.07zm3.248-2.25l.102.094a2.188 2.188 0 00-.102-.094zm.274.31c.029.037.057.078.09.123-.028-.045-.061-.086-.09-.122zm.295.442c.037.065.078.134.115.204-.037-.074-.078-.14-.115-.204zm.246.481l-.078-.171c.029.057.053.114.078.171l.029.065c-.009-.02-.017-.044-.03-.065zm.209.572z" fill="#fff"/><path d="M7.837 10.502c.033-.208.127-.587.406-.955a2.2 2.2 0 01.97-.71c.857-.339 1.807-.24 1.893-.229-.004-.004-.008-.012-.017-.016l-.012-.012-.012-.012c-.02-.02-.041-.041-.066-.062-.008-.008-.016-.012-.024-.02-.017-.012-.033-.025-.05-.04-.008-.01-.016-.013-.024-.021-.017-.013-.029-.02-.045-.033a.953.953 0 00-.127-.078c-.012-.008-.025-.012-.037-.02-.012-.008-.024-.012-.037-.02-.012-.008-.028-.013-.04-.02l-.042-.017c-.25-.102-.487-.118-.675-.102h-.009c-.016 0-.032.004-.049.004h-.008c-.016 0-.033.004-.05.004a1.962 1.962 0 00-.065.012H9.71c-.012.004-.024.004-.037.008l-.057.013c-.012.004-.025.008-.037.008a.126.126 0 01-.033.008c.004-.004.008-.012.013-.016a.556.556 0 01.081-.106c.013-.013.021-.025.033-.037A.797.797 0 0110 7.829a.237.237 0 00-.057-.02c-.013-.005-.02-.009-.033-.013l-.033-.012c-.025-.008-.05-.016-.074-.02-.012-.005-.028-.009-.04-.013a.842.842 0 00-.099-.02.832.832 0 00-.106-.017 10.939 10.939 0 00-.115-.012c-.066-.004-.14-.004-.209-.004a.667.667 0 00-.09.008.936.936 0 00-.209.037l-.05.012c-.024.004-.044.013-.069.02-.02.009-.045.013-.065.021a.437.437 0 00-.078.029c-.008.004-.016.004-.025.008.004-.008.004-.012.009-.02l.012-.025a.234.234 0 01.029-.057c.004-.008.012-.02.016-.033 0 0 0-.004.004-.004a.124.124 0 01.02-.029.362.362 0 01.05-.069l.012-.02a.826.826 0 01.07-.082l.024-.024.025-.025.024-.024c.008-.009.017-.017.029-.025.008-.008.016-.016.024-.02l.03-.025.036-.024.037-.025c.016-.008.029-.02.045-.028.045-.025.086-.05.131-.066.004 0 .008-.004.008-.004.041-.016.082-.032.127-.045l.098-.024c.033-.004.062-.012.09-.016.017-.005.03-.005.046-.005.07-.004.135-.008.192-.004.02 0 .045.004.062.004.012 0 .024.005.036.005.013 0 .025.004.033.004.004 0 .012 0 .017.004L10 7.13c.004 0 .008 0 .012.004.008 0 .012.004.02.004h.009c-.008 0-.017 0-.02.004-.009 0-.017.004-.025.004h-.004c-.008 0-.02.004-.033.004-.008 0-.016.004-.025.004-.008 0-.016.004-.024.004l-.045.013c-.017.004-.033.012-.054.02a.198.198 0 01-.028.012s-.004 0-.004.004c-.004 0-.008.004-.013.004-.004 0-.008.004-.012.004l-.029.017c-.008.004-.016.008-.024.016-.008.004-.016.012-.025.016a.16.16 0 00-.04.033c-.009.008-.021.016-.03.025l-.024.024-.004.004a4.737 4.737 0 00-.012.012l-.013.013-.008.008c.635-.127.983-.004 1.188.163.012.008.025.02.037.033.012.008.024.02.033.032l.028.029.029.033.05.06c.007.013.02.025.028.042a.066.066 0 01.016.028c.02.037.041.07.062.106.016.033.032.062.049.094l.037.074c.008.02.02.04.028.061a.562.562 0 01.033.073c.004.013.012.025.016.033.005.012.013.02.017.033.02.036.04.073.061.102.004.008.013.016.017.024.008.008.012.017.016.02l.008.009c.004.004.008.004.008.008.005.004.009.004.009.008.008.004.012.008.02.017l.02.012c.005 0 .009.004.013.004s.008.004.012.004a.052.052 0 00.025.004h.048c.013 0 .021-.004.034-.004a.359.359 0 00.07-.033c.003-.004.007-.004.011-.008.005-.004.009-.008.013-.008.008-.008.016-.012.024-.02l.009-.009c.004-.004.004-.008.008-.008l.012-.012c.004-.004.008-.008.008-.012.176-.213.119-.625-.164-1.02-.016.056-.04.126-.082.203-.008.013-.012.025-.02.037a.766.766 0 01-.061.086c-.017-.025-.037-.045-.058-.07a3.759 3.759 0 00-.25-.273l-.036-.037a.487.487 0 00-.05-.045 3.134 3.134 0 00-.356-.298c-.029-.02-.057-.036-.082-.057-.012-.008-.029-.016-.04-.024l-.079-.05a.467.467 0 00-.115-.065l-.048-.024-.05-.025a1.326 1.326 0 00-.139-.06c-.016-.005-.028-.013-.045-.017-.016-.004-.029-.012-.045-.016-.02-.009-.045-.017-.065-.025l-.074-.024a.516.516 0 00-.041-.013c-.025-.008-.053-.02-.082-.032-.012-.004-.029-.013-.045-.017 0 0-.004 0-.004-.004a1.233 1.233 0 01-.131-.061l-.05-.024a.304.304 0 01-.049-.03c-.016-.007-.032-.02-.049-.028a1.51 1.51 0 01-.102-.069c-.02-.012-.037-.029-.057-.04a.52.52 0 01-.054-.046l-.077-.065c-.025-.025-.05-.045-.07-.07-.016-.016-.029-.032-.045-.044-.012-.017-.029-.029-.041-.045l-.004-.004c-.012-.017-.025-.029-.037-.045-.012-.017-.025-.029-.037-.045-.008-.012-.02-.025-.029-.037a1.186 1.186 0 01-.094-.139l-.024-.036a.36.36 0 00-.025-.041c-.008-.012-.016-.025-.02-.037-.005.033-.005.065-.009.098v.155c0 .13.017.278.05.437.004.02.008.045.016.065v.004c.004.02.012.041.016.062l.013.04c.004.013.008.025.008.033.02.07.045.13.07.188l.012.032c.024.053.045.102.07.147a2.22 2.22 0 00-.451.123c-.017.008-.037.012-.053.02-.025.008-.05.02-.074.033-.025.012-.05.02-.07.033a2.081 2.081 0 00-.168.09c-.032.016-.061.036-.09.052-.028.017-.053.037-.078.053l.033-.012.037-.012c.008-.004.016-.004.025-.008a.936.936 0 01.114-.029c.05-.008.103-.016.16-.02.057-.004.115-.004.164 0l-.025.012-.082.04c-.037.021-.078.042-.118.062-.009.004-.02.012-.033.016a.719.719 0 00-.094.058c-.045.024-.09.053-.136.085-.02.013-.036.025-.057.037-.037.025-.074.053-.115.082a2.47 2.47 0 00-.172.134c-.036.033-.077.066-.118.102a.371.371 0 01-.041.037l-.078.074L7.264 8a3.83 3.83 0 00-.614.857c0 .004-.004.009-.004.013a3.036 3.036 0 01.008-.686l-.012.012-.013.012-.02.02a.264.264 0 00-.033.038l-.004.004-.004.004c-.004 0-.004.004-.004.004-.004.004-.008.004-.008.008l-.009.008-.008.008a4.726 4.726 0 00-.012.012l-.029.03-.004.003-.004.004-.004.004-.004.004-.004.004-.004.005-.025.024c-.016.02-.037.037-.053.061-.008.008-.02.02-.029.033l-.061.07c-.017.02-.037.04-.054.065a5.854 5.854 0 00-.336.437l-.036.052c-.013.017-.025.037-.037.058-.012.02-.025.036-.037.057-.025.04-.053.081-.078.122l-.037.061c-.012.02-.024.045-.04.066-.009.012-.013.024-.021.032l-.037.066c-.004.004-.004.008-.008.012s-.004.008-.008.016-.013.02-.017.029c-.008.012-.012.024-.02.037-.004.008-.008.012-.008.02l-.013.024-.012.025c-.012.024-.029.053-.04.082 0 0 0 .004-.005.004a6.221 6.221 0 01-.012.024c-.013.025-.025.045-.037.07-.004.012-.012.02-.017.032-.004.012-.012.025-.016.033-.012.024-.02.045-.033.07-.004.003-.004.007-.008.016l-.037.081c0 .004-.004.008-.004.012-.004.005-.004.013-.008.017-.004.008-.008.02-.016.033-.013.028-.03.06-.041.097-.004.017-.013.029-.02.045-.005.008-.009.017-.009.025-.008.016-.012.033-.02.053-.021.049-.041.098-.062.155-.008.016-.012.037-.02.057-.005.017-.013.033-.017.045-.004.008-.004.016-.008.024-.008.02-.012.041-.02.058-.005.008-.005.012-.009.02-.012.033-.02.07-.032.102-.033.106-.066.22-.095.343-.008.04-.02.086-.028.127-.009.032-.013.06-.02.093-.005.033-.013.066-.017.098a3.178 3.178 0 00-.041.294 4.95 4.95 0 00-.033.682v.049c.004.261.029.494.062.69a5.976 5.976 0 004.202 1.694h.09a5.942 5.942 0 003.075-.91 6.03 6.03 0 00.729-.539 3 3 0 01-.81.028 3.056 3.056 0 01-1.553-.633c.013.013.02.025.033.037l.029.033c.012.012.02.024.033.037l.049.053c.04.045.086.09.13.134.017.017.033.033.05.045.016.017.033.029.05.045.015.017.036.033.052.05a.178.178 0 00.029.024c.008.008.016.016.029.024l.012.012.004.005c.012.008.02.016.033.024l.004.004.004.004.004.004.017.012c.004 0 .004.005.008.005s.004.004.008.004c.033.024.07.053.106.077.013.008.025.017.037.029.004 0 .004.004.004.004.004 0 .004.004.008.004.005.004.009.004.013.008.012.008.02.016.032.025l.005.004c.008.008.02.012.028.02l.017.012c.004.004.008.004.012.008h.004-.008s.004 0 .004.005h-.025c-.008 0-.016 0-.024-.005-.008 0-.017 0-.029-.004a2.397 2.397 0 01-.188-.024c-.029-.004-.058-.008-.086-.016-.029-.005-.058-.013-.09-.017-.013-.004-.025-.004-.037-.008a.31.31 0 01-.066-.016l-.065-.016a.528.528 0 00-.078-.02c-.004 0-.004 0-.008-.005-.025-.008-.045-.012-.066-.02-.008-.005-.016-.005-.028-.009-.009-.004-.013-.004-.02-.008a.06.06 0 00-.03-.008l-.061-.024c-.008-.005-.02-.009-.033-.013-.004-.004-.012-.004-.016-.008-.004 0-.004-.004-.008-.004-.009-.004-.013-.004-.02-.008l-.021-.008a.058.058 0 00-.025-.008c-.004 0-.004-.005-.008-.005-.017-.008-.029-.012-.041-.02s-.029-.012-.041-.02c-.012-.004-.025-.013-.037-.017a3.003 3.003 0 01-1.388-.677c-.95-.796-1.028-1.935-1.04-2.168zm1.95 3.935c-.02-.012-.041-.028-.066-.04.03.012.05.028.066.04.004 0 .004 0 0 0z" fill="#FF9E00"/><path d="M8.918 3a6.454 6.454 0 00-1.589.857 6.507 6.507 0 00-1.265 1.25c.09-.013.163-.021.217-.03.237-.028.34-.036.413-.04h.144c.045 0 .086 0 .13.004-.147.106-.261.204-.343.273 0 0-.545.474-.84.964-.008.016-.02.032-.029.049-.032.057-.065.114-.094.175a3.53 3.53 0 00-.27.71l-.012.045a3.458 3.458 0 00-.095 1.05c.017.277.066.514.123.71a7.36 7.36 0 00-1.245 3.49v.012l-.049-.086A5.93 5.93 0 013 9.065V8.94c0-.233.016-.457.041-.682 0-.008.004-.016.004-.024a5.938 5.938 0 01.737-2.204l.05-.082a2.022 2.022 0 01.098-.16c.012-.015.024-.036.037-.052-.005.008-.013.016-.017.024.008-.008.012-.02.02-.028l.033-.045c.013-.016.025-.033.037-.045l.004-.004c.004-.008.013-.016.017-.025.016-.016.028-.036.045-.053.074-.102.16-.22.254-.338.065-.082.13-.168.205-.254A5.994 5.994 0 018.91 3.008C8.91 3 8.914 3 8.918 3z" fill="#fff"/><path d="M5.69 5.453c.024.004.053.004.077.008-.074.04-.156.09-.237.147a2.37 2.37 0 01-.107.073c-.037.025-.07.053-.106.082 0 0-.005 0-.005.004-.024.016-.045.037-.07.057-.09.073-.171.151-.245.224l-.033.033-.037.037-.036.04c-.103.11-.185.213-.254.307.016-.086.04-.2.094-.323.04-.098.09-.175.135-.24.004-.009.012-.017.016-.025-.139.106-.282.229-.434.363a6.16 6.16 0 00-.462.466 7.817 7.817 0 00-.189.228c-.045.057-.086.115-.127.172a1.119 1.119 0 00-.078.114s-.037.053-.073.114c-.136.208-.25.429-.25.429a5.26 5.26 0 00-.221.473 5.938 5.938 0 01.737-2.204l.049-.081a.165.165 0 00.02-.037c.025-.041.05-.082.078-.123.013-.016.025-.036.037-.053l-.016.025c.008-.008.012-.02.02-.029.013-.016.02-.028.033-.045.012-.016.025-.032.037-.045l.004-.004c.004-.008.012-.016.016-.024.017-.016.029-.037.045-.053.074-.102.16-.22.254-.339-.053.102-.061.127-.057.13.004 0 .012-.008.037-.036l.074-.074c.02-.02.04-.036.057-.057a.49.49 0 01.049-.045.626.626 0 00.053-.049.923.923 0 01.099-.085c.032-.029.061-.053.094-.078l.004-.004.045-.037c.02-.016.045-.032.061-.049a.492.492 0 01.058-.04c.012-.009.024-.017.032-.025.009-.004.013-.008.02-.012.005-.004.013-.008.017-.013a.379.379 0 01.033-.02l.016-.012c.005-.004.009-.008.017-.008l.04-.025c.017-.008.03-.02.046-.028l.024-.013a.031.031 0 01.017-.008s.004 0 .004-.004h.004l.004-.004c.004 0 .004-.004.008-.004.025-.016.05-.029.078-.045.045-.029.094-.053.148-.077.024-.013.045-.025.07-.037a.031.031 0 01.02-.008c.016-.009.037-.017.053-.025.029-.016.061-.028.09-.045.012-.004.016-.008.066-.028l.102-.045c.004.008-.176.122-.254.188l-.05.04a.494.494 0 00-.048.045.488.488 0 00-.05.045l-.102.094-.037.037-.037.036-.036.037c-.062.066-.123.13-.18.204-.009.008-.013.017-.021.025-.008.008-.012.016-.02.024l-.037.05c-.009.007-.017.02-.025.028-.012.016-.025.037-.041.053-.025.033-.045.07-.07.102-.012.016-.02.033-.028.045-.017.024-.033.049-.045.073l-.029.05-.037.065.05-.013.077-.016a3.07 3.07 0 01.586-.061h.094c.025 0 .045 0 .066.004.02 0 .04.004.06.004.017-.02.038-.02.058-.02zM14.85 8.788c-.004-.02-.008-.037-.008-.053v-.008l-.025-.127c-.004-.02-.008-.045-.016-.065-.004-.029-.012-.053-.02-.082-.017-.065-.034-.126-.05-.192-.008-.024-.012-.049-.02-.07-.004-.015-.013-.036-.017-.052-.004-.017-.012-.033-.016-.05 0-.003-.004-.007-.004-.011l-.012-.037c0-.004-.005-.008-.005-.012-.004-.017-.012-.033-.016-.05a.529.529 0 00-.029-.073c-.008-.02-.016-.04-.02-.057l-.037-.094c-.008-.02-.016-.045-.029-.065-.024-.057-.053-.114-.077-.172-.017-.036-.037-.073-.054-.106a3.229 3.229 0 00-.114-.204 4.262 4.262 0 00-.086-.143c-.02-.032-.037-.061-.058-.09-.02-.028-.037-.057-.057-.085l-.086-.123c-.037-.053-.078-.102-.115-.147-.02-.024-.037-.045-.057-.065-.033-.033-.066-.065-.102-.098-.115-.102-.205-.184-.259-.228a4.257 4.257 0 00-.151-1.323l-.012-.04a.512.512 0 01-.013-.042c.275.278.52.58.733.907.172.277.316.534.426.763.18.388.32.796.414 1.22.012.319.016.682-.008 1.074z" fill="#8774E2"/><path d="M14.988 9.005a5.921 5.921 0 01-2.068 4.515 6.04 6.04 0 01-.688.513c-.012.008-.025.017-.041.025-.008-.004-.016-.004-.02-.008h-.005c-.016-.004-.032-.013-.045-.017-.004 0-.004-.004-.008-.004a.283.283 0 01-.04-.016c-.005 0-.009-.004-.009-.004-.004 0-.008-.004-.012-.004C12.048 14 12.044 14 12.04 14c-.005 0-.005-.004-.009-.004-.004 0-.008-.005-.008-.005-.008-.004-.016-.008-.029-.012-.008-.004-.016-.008-.024-.008l-.053-.024-.058-.025c-.012-.004-.02-.012-.033-.016l-.032-.017c-.013-.008-.029-.012-.041-.02-.017-.008-.037-.016-.053-.028-.017-.009-.033-.017-.05-.03-.004-.003-.008-.003-.012-.003s-.008-.004-.008-.004a5.583 5.583 0 01-.025-.012.083.083 0 01-.024-.017c-.004 0-.004-.004-.008-.004-.005-.004-.009-.004-.013-.008l-.02-.012a.086.086 0 01-.025-.017c-.004-.004-.008-.004-.016-.008a.697.697 0 01-.094-.057H11.4c-.005-.004-.009-.004-.013-.008l-.016-.012a.125.125 0 01-.029-.02l-.004-.005c-.012-.008-.02-.016-.033-.024-.004-.004-.008-.004-.012-.009-.004 0-.004-.004-.008-.004l-.004-.004c-.012-.008-.025-.016-.037-.028-.037-.025-.07-.053-.106-.078-.005 0-.005-.004-.009-.004-.004-.004-.004-.004-.008-.004l-.016-.012-.004-.004-.005-.004h-.004l-.004-.004c-.012-.009-.02-.017-.032-.025l-.005-.004a1.41 1.41 0 00-.04-.037c-.009-.008-.017-.016-.03-.024a.661.661 0 01-.052-.05l-.05-.044a2.029 2.029 0 01-.18-.18l-.049-.053a.264.264 0 01-.033-.037.209.209 0 00-.028-.032c-.013-.012-.02-.025-.033-.037H10.61c.377-.016 2.036-.163 3.035-1.555.561-.78.655-1.592.672-1.984a3.573 3.573 0 01.107 1.494 7.797 7.797 0 00.422-2.082c.024-.391.02-.755-.001-1.077a5.5 5.5 0 01.143 1.286z" fill="#FF9E00"/><path d="M11.697 14.344c-3.29 1.586-6.16-.076-6.844-1.077.52-.464 2.786-.28 3.598-.627.809 1.195 2.477 1.66 3.246 1.704z" fill="#E93C5A"/></svg>