<!-- by TradingView --><svg width="18" height="18" viewBox="0 0 18 18" xmlns="http://www.w3.org/2000/svg"><path fill="url(#aqe5oymrg)" d="M0 0h18v18H0z"/><path fill="#fff" d="M4 4h2v2H4zM7 4h2v2H7zM7 7h2v2H7zM10 4h2v2h-2zM13 4.5h1v1h-1zM13 7.5h1v1h-1zM13 10.5h1v1h-1zM13 13h1v1h-1zM10.5 7.5h1v1h-1zM7.5 10.51h1v1h-1zM10.5 10.5h1v1h-1zM10.5 13h1v1h-1zM4 13h1v1H4zM7.5 13h1v1h-1zM4 7h2v2H4zM4 10h2v2H4z"/><defs><linearGradient id="aqe5oymrg" x1="3.35" y1="3.12" x2="21.9" y2="24.43" gradientUnits="userSpaceOnUse"><stop stop-color="#1A1E21"/><stop offset="1" stop-color="#06060A"/></linearGradient></defs></svg>