<!-- by TradingView --><svg xmlns="http://www.w3.org/2000/svg" width="18" height="18"><path fill="#F0F3FA" d="M0 0h18v18H0z"/><path d="M7.5 10.88V4.72c0-.16 0-.2.15-.21.3-.04.6-.06.91-.05.57 0 1.13.14 1.64.38a2.37 2.37 0 011.35 1.83c.08.6-.15 1.12-.37 1.7-.01.06-.1.19-.14.21-.06.03-.07-.06-.12-.07h-.01l-.81-.27a.21.21 0 01-.08-.04c-.02-.01-.25 0-.12-.12.13-.13.4-.88.35-1.3a.98.98 0 00-.22-.5 1.46 1.46 0 00-1-.46c-.08 0-.07.05-.07.14v2.93c0 .07-.03.07-.08.11-.3.27-.88 1.73-1.19 2-.04.05-.08.1-.15.07-.08-.04-.04-.12-.04-.19z" fill="#00A0E9"/><path d="M7.5 14.7v-4.4c-.02-.21.2-.35.38-.5.43-.35.83-.7 1.24-1.05.28-.22.56-.45.81-.7a.14.14 0 01.17-.02 12.16 12.16 0 00.96.34c.03.02.04.05.05.08.02.07-.04.1-.08.15L10 9.49c-.34.3-.6.6-.96.9-.05.04-.05.09-.05.15v.5c0 .1 0 .12.09.05.29-.25.5-.5.78-.74l.4-.34a.16.16 0 01.2-.03l.83.33c.14.05.15.15.04.24L9.7 11.96c-.25.2-.4.43-.64.64a.18.18 0 00-.07.14v1.76c0 .1.04.13.13.13A5.63 5.63 0 009 3.37a5.8 5.8 0 00-5.63 5.37 5.56 5.56 0 004.08 5.58c.07.02.1.05.1.13v.27c0 .09-.02.1-.1.07a7.14 7.14 0 01-2.06-1 5.92 5.92 0 01-2.38-5.06 5.88 5.88 0 014.52-5.55 6.04 6.04 0 016.63 2.77 5.98 5.98 0 01-2.95 8.62c-1.1.44-2.3.55-3.45.3-.4-.08-.26-.07-.26-.16z" fill="#0064B1"/></svg>