<!-- by TradingView --><svg width="18" height="18" viewBox="0 0 18 18" xmlns="http://www.w3.org/2000/svg"><path fill="#1969FF" d="M0 0h18v18H0z"/><path d="M5.47 5.03 8.98 3l3.55 2.03v7.88L8.98 15l-3.51-2.1V5.04Z" fill="#fff"/><path d="M6.35 5.22 9 3.6l2.65 1.62L9 6.8 6.35 5.22ZM6.06 8.4V5.7L8.4 7.06 6.06 8.4ZM9.3 10.35v-2.7l2.35 1.36-2.36 1.34ZM11.94 8.4V5.7L9.6 7.06l2.35 1.34ZM8.7 10.35v-2.7L6.36 9.01l2.36 1.34Z" fill="#1969FF"/><path d="M6.06 12.6V9.47L9 11.1l2.94-1.63v3.13L9 14.4l-2.94-1.8Z" fill="#1969FF"/><path d="M4 13.56V11.7h.59v1.56l1.47.78v.66L4 13.56ZM14 4.44V6.3h-.59V4.74l-1.47-.78V3.3L14 4.44Z" fill="#fff"/></svg>