<!-- by TradingView --><svg width="18" height="18" viewBox="0 0 18 18" xmlns="http://www.w3.org/2000/svg"><path fill="#368CCB" d="M0 0h18v18H0z"/><path d="M14.72 6h-3.9L9.67 8.92H6V7.46h3.67L10.2 6H4.74a.26.26 0 0 0-.18.07c-.05.05-.06.11-.06.18v2.67h-.97L3 10.38h1.5v2.37c0 .14.1.25.24.25h2.62l.53-1.46H6v-1.16h3.04L7.9 13h1.78l1.15-2.63h3.92c.14 0 .26-.3.26-.44V6.27a.27.27 0 0 0-.08-.2.28.28 0 0 0-.2-.07ZM13.5 8.6c0 .12-.11.32-.24.32h-1.93l.74-1.46h1.2c.05 0 .11.02.15.06.05.04.08.1.08.15v.93Z" fill="#fff"/></svg>