<!-- by TradingView --><svg width="18" height="18" viewBox="0 0 18 18" xmlns="http://www.w3.org/2000/svg"><path fill="url(#a1gmgv5yf)" d="M0 0h18v18H0z"/><path d="M12.43 6.5c0 .16-.16.28-.34.26a6.12 6.12 0 0 0-1.2 0c-.82.08-1.5.34-2.12.56a6.28 6.28 0 0 1-2.1.48c-.3 0-.6-.02-.95-.08a.75.75 0 0 1-.59-.57 3.3 3.3 0 0 1-.07-.68C5.06 4.56 6.71 3 8.75 3c2.03 0 3.68 1.56 3.68 3.47v.02Z" fill="url(#b1gmgv5yf)"/><path opacity=".7" d="M5.43 8.22c-.22-.05-.42.11-.43.3 0 .05 0 .1.04.15l3.46 6.25c.06.1.21.1.27 0l4.17-6.9a.4.4 0 0 0-.28-.6 6.21 6.21 0 0 0-3.8.46 6.9 6.9 0 0 1-2.18.48c-.4 0-.79-.03-1.25-.14Z" fill="url(#c1gmgv5yf)"/><path d="M8.64 8.04c0-.07.04-.14.12-.16l.1-.04a9.15 9.15 0 0 1 2.08-.5 6.21 6.21 0 0 1 1.72.08.4.4 0 0 1 .28.6l-4.17 6.9a.15.15 0 0 1-.13.08V8.04Z" fill="url(#d1gmgv5yf)"/><defs><linearGradient id="a1gmgv5yf" x1="9" y1="0" x2="9" y2="18" gradientUnits="userSpaceOnUse"><stop stop-color="#FFC4A4"/><stop offset="1" stop-color="#FE858C"/></linearGradient><linearGradient id="c1gmgv5yf" x1="8.95" y1="7.49" x2="8.95" y2="15" gradientUnits="userSpaceOnUse"><stop stop-color="#1B0008"/><stop offset="1" stop-color="#1B0008" stop-opacity=".5"/></linearGradient><linearGradient id="d1gmgv5yf" x1="10.84" y1="7.31" x2="10.84" y2="18.21" gradientUnits="userSpaceOnUse"><stop stop-color="#150006"/><stop offset="1" stop-color="#1B0008" stop-opacity="0"/></linearGradient><radialGradient id="b1gmgv5yf" cx="0" cy="0" r="1" gradientUnits="userSpaceOnUse" gradientTransform="rotate(168 5.28 2.58) scale(14.0963 16.0127)"><stop/><stop offset=".12" stop-color="#1C0008"/><stop offset="1" stop-opacity="0"/></radialGradient></defs></svg>