<!-- by TradingView --><svg width="18" height="18" viewBox="0 0 18 18" xmlns="http://www.w3.org/2000/svg"><path fill="#F0F3FA" d="M0 0h18v18H0z"/><path d="m9 3.6 4.5 2.7v5.4L9 14.4l-4.5-2.7V6.3L9 3.6Z" fill="#DFF8DA"/><path d="M5.56 9.5 4.2 7.86l2.39-.48L5.56 9.5Z" fill="#3B896A"/><path d="M6.5 12.87V9.09l2.62-4.97 2.21 4.63-4.83 4.12Z" fill="#4ED9AB"/><path d="M12 12.94 9.07 11.2l2.36-1.93.57 3.68Z" fill="#3B896A"/><path d="m11.53 8.56-.9-1.88 2.67.6-1.77 1.28Z" fill="#4CDAC7"/><path d="M6.1 8.8 4.74 7.18l2.38-.48L6.1 8.8Z" fill="#4ED9AB"/><path fill-rule="evenodd" d="M14 6 9 3 4 6v6l5 3 5-3V6Zm-.63.36L9 3.72 4.62 6.36v5.28L9 14.28l4.38-2.64V6.36Z" fill="#4EDBC8"/></svg>