<!-- by TradingView --><svg width="18" height="18" xmlns="http://www.w3.org/2000/svg"><path fill="#F0F3FA" d="M0 0h18v18H0z"/><path d="M14.03 12.247a4.613 4.613 0 01-2.23 2.187v.003c-.852.397-1.762.532-2.542.558-.09.009-.28.004-.394 0h-.026c-.857-.024-2.365-.437-3.625-1.448-.878-.707-1.642-1.702-1.99-3.058-.378-1.482-.25-2.748.185-3.798.528-1.28 1.506-2.234 2.563-2.864.465-.278.99-.484 1.53-.619A6.95 6.95 0 019.23 3a5.386 5.386 0 011.6.26c.51.163 1 .399 1.478.695l.024.016c.515.383.884.764 1.127 1.116.304.44.42.85.392 1.184-.046.539-.207.866-.457 1.057.338.526.8 1.399.97 2.405.132.789.085 1.66-.335 2.514zm-2.51 1.59a3.955 3.955 0 001.917-1.882c.352-.712.39-1.445.278-2.115-.166-.985-.652-1.832-.958-2.283a3.863 3.863 0 01-.768-.007 18.202 18.202 0 01-.46-.047c-.34-.04-.702-.079-1.073-.079-1.385 0-2.484 0-2.78 1.156-.101.39-.003.763.205 1.06a1.528 1.528 0 00.857.611c.27.07.55.044.782-.117l.002-.002c.4-.266.798-.441 1.186-.486.383-.042.747.042 1.076.288.182.135.348.32.457.532v.002c.1.194.155.411.14.64a1.295 1.295 0 01-.268.7c-.184.25-.478.495-.913.72a4.204 4.204 0 01-1.634.443 4.52 4.52 0 01-1.709-.22 4.22 4.22 0 01-1.7-1.092 3.587 3.587 0 01-.919-1.683 4.415 4.415 0 01-.121-.848 4.308 4.308 0 01.182-1.408c.08-.25.189-.508.343-.789.292-.522.656-.929 1.083-1.237a4.025 4.025 0 011.448-.632l.009-.003a5.136 5.136 0 012.815.252 4.833 4.833 0 011.973 1.431c.121-.105.2-.27.222-.525.016-.194-.066-.453-.276-.756-.2-.292-.513-.614-.962-.948a5.983 5.983 0 00-1.323-.626 4.66 4.66 0 00-1.406-.226 6.108 6.108 0 00-1.564.189 5.104 5.104 0 00-1.351.542c-.95.567-1.826 1.417-2.293 2.551-.383.927-.495 2.054-.154 3.383.306 1.197.983 2.08 1.763 2.705 1.134.91 2.474 1.284 3.226 1.305h.028c.098.003.257.007.313 0h.025c.708-.02 1.534-.142 2.302-.5zm.523-6.945c.063.004.126.01.184.011a4.128 4.128 0 00-1.47-.975 4.46 4.46 0 00-2.437-.224 3.347 3.347 0 00-1.21.53c-.35.25-.65.585-.891 1.02a3.372 3.372 0 00-.416 1.281 3.46 3.46 0 00-.028.567c.01.204.04.437.105.726v.003c.124.541.404 1.004.757 1.375.422.446.947.758 1.428.917.495.164.992.22 1.46.187a3.543 3.543 0 001.372-.369c.338-.175.558-.352.686-.525a.647.647 0 00.14-.346.577.577 0 00-.067-.3.91.91 0 00-.267-.307.823.823 0 00-.609-.158c-.275.03-.579.165-.892.376-.399.275-.868.324-1.314.21a2.151 2.151 0 01-.69-.325 2.268 2.268 0 01-.547-.55 1.937 1.937 0 01-.301-1.6c.425-1.655 1.75-1.655 3.42-1.655.396 0 .784.044 1.146.084.145.016.287.033.441.047z" fill="#BFBFBF"/></svg>