<!-- by TradingView --><svg width="18" height="18" viewBox="0 0 18 18" xmlns="http://www.w3.org/2000/svg"><path fill="#1A172D" d="M0 0h18v18H0z"/><path d="M14 9.03a5 5 0 0 0-5.12-5.02c-.32 0-.7.21-.7.6 0 .4.24.65 1.31.75.9.09 1.77.78 1.9.92.22.2.25.48.14.7a.69.69 0 0 1-.62.39c-.3 0-.4-.04-.83-.32a1.91 1.91 0 0 0-1.2-.36A2.37 2.37 0 0 0 6.5 9.03a2.4 2.4 0 0 0 2.38 2.31 2.36 2.36 0 0 0 2.11-1.3c.14-.3-.06-.4-.17-.42H8.88c-.23 0-.7-.07-.7-.59 0-.51.41-.66.65-.66h3.37c.3.03.4.22.42.34.01 2.64-1.63 3.43-2.25 3.68-.52.21-1.05.35-1.62.35-.31 0-.59.23-.56.66.03.43.39.6.56.6A5.02 5.02 0 0 0 14 9.03Z" fill="#fff"/><circle cx="6.81" cy="5.25" fill="#008ACB" r=".62"/><circle cx="5.25" cy="6.81" fill="#008ACB" r=".62"/><ellipse cx="4.63" cy="9" rx=".63" ry=".62" fill="#008ACB"/><circle cx="5.25" cy="11.19" fill="#008ACB" r=".62"/><circle cx="6.81" cy="12.75" fill="#008ACB" r=".62"/></svg>