<!-- by TradingView --><svg width="18" height="18" viewBox="0 0 18 18" xmlns="http://www.w3.org/2000/svg"><path fill="#F0F3FA" d="M0 0h18v18H0z"/><rect x="4.8" y="4.98" width="8.34" height="8.14" rx=".5" fill="#090C17"/><rect x="5.14" y="5.31" width="7.65" height="7.47" rx=".5" fill="#69748E"/><rect x="5.67" y="5.94" width="6.67" height="6.45" rx=".5" fill="#02101E"/><path d="M4.33 7.2v4.05c0 .15.1.3.24.38l4.3 2.32c.08.05.18.05.27 0l4.3-2.32a.43.43 0 0 0 .23-.38V7.2c-.45.15-1.16.72-1.37 1.03v2.35L9.11 12.4a.23.23 0 0 1-.22 0l-3.2-1.81V8.24c-.2-.31-.9-.88-1.36-1.03Z" fill="#99B5DA"/><path d="M13.42 11.25a.2.2 0 0 1-.1.18l-4.3 2.32h-.03l-4.3-2.32a.2.2 0 0 1-.11-.18V7.32a1.74 1.74 0 0 0-.25-.11v4.04c0 .15.1.3.24.38l4.3 2.32c.08.05.18.05.27 0l4.3-2.32a.43.43 0 0 0 .23-.38V7.2c-.08.02-.16.06-.25.1v3.94Z" fill="url(#amlvvbyja)"/><path d="M4.5 12.3 7.96 10l.57.51-2.16 3.33a.4.4 0 0 1-.59.05l-1.32-1.23c-.1-.1-.09-.28.04-.36Z" fill="#3B3B3C"/><path d="m4.1 12.1 3.47-2.3.86.62-2.45 3.23a.4.4 0 0 1-.6.05l-1.3-1.24c-.12-.1-.1-.27.02-.36Z" fill="url(#bmlvvbyja)"/><path d="M7.57 9.8 4.1 12.1a.23.23 0 0 0-.03.36l.11.1c-.1-.1-.1-.27.03-.36L7.7 9.9l-.13-.1Z" fill="url(#cmlvvbyja)"/><path d="M4.06 12.14a.23.23 0 0 0 .01.32L5.4 13.7a.4.4 0 0 0 .6-.05l2.44-3.23-.16-.11-2.3 3.02a.4.4 0 0 1-.59.05l-1.31-1.24Z" fill="url(#dmlvvbyja)"/><path d="M13.5 12.3 10.05 10l-.57.51 2.16 3.33a.4.4 0 0 0 .6.05l1.3-1.23c.12-.1.1-.28-.02-.36Z" fill="#3B3B3C"/><path d="m13.9 12.1-3.47-2.3-.86.62 2.45 3.23a.4.4 0 0 0 .6.05l1.3-1.24c.12-.1.1-.27-.02-.36Z" fill="url(#emlvvbyja)"/><path d="m10.43 9.8 3.47 2.3c.12.09.14.26.03.36l-.11.1c.1-.1.1-.27-.03-.36L10.3 9.9l.13-.1Z" fill="url(#fmlvvbyja)"/><path d="M13.94 12.14c.08.09.08.23-.01.32L12.6 13.7a.4.4 0 0 1-.6-.05l-2.44-3.23.16-.11 2.3 3.02a.4.4 0 0 0 .59.05l1.31-1.24Z" fill="url(#gmlvvbyja)"/><path fill-rule="evenodd" d="M9 10.77c1.1 0 2-.86 2-1.93 0-1.07-.9-1.94-2-1.94s-2 .87-2 1.94c0 1.07.9 1.93 2 1.93Zm0-.64c.74 0 1.33-.58 1.33-1.3 0-.7-.6-1.28-1.33-1.28-.74 0-1.33.57-1.33 1.29 0 .7.6 1.29 1.33 1.29Z" fill="#94B8DE"/><ellipse cx="9" cy="8.84" rx="1" ry=".97" fill="#2DA0D6"/><ellipse cx="9" cy="8.84" rx=".67" ry=".64" fill="url(#hmlvvbyja)"/><path d="M5.29 6.11 8.98 4l3.7 2.11-1.03.8a.16.16 0 0 1-.18.01L8.98 5.5 6.49 6.92a.16.16 0 0 1-.18-.01l-1.02-.8Z" fill="#B1DBF2"/><defs><linearGradient id="amlvvbyja" x1="9" y1="7.21" x2="9" y2="13.99" gradientUnits="userSpaceOnUse"><stop stop-color="#9FC3DF"/><stop offset=".76" stop-color="#738FB7"/><stop offset="1" stop-color="#6981AE"/></linearGradient><linearGradient id="bmlvvbyja" x1="7.63" y1="10.25" x2="4.74" y2="12.92" gradientUnits="userSpaceOnUse"><stop stop-color="#243C49"/><stop offset="1" stop-color="#718FBB"/></linearGradient><linearGradient id="cmlvvbyja" x1="7.53" y1="10.07" x2="4.05" y2="12.41" gradientUnits="userSpaceOnUse"><stop stop-color="#BDD3EC"/><stop offset=".31" stop-color="#CEEAFF"/><stop offset="1" stop-color="#809DC2"/></linearGradient><linearGradient id="dmlvvbyja" x1="7.63" y1="10.25" x2="4.74" y2="12.92" gradientUnits="userSpaceOnUse"><stop stop-color="#021125"/><stop offset="1" stop-color="#365E81"/></linearGradient><linearGradient id="emlvvbyja" x1="10.37" y1="10.25" x2="13.26" y2="12.92" gradientUnits="userSpaceOnUse"><stop stop-color="#243C49"/><stop offset="1" stop-color="#718FBB"/></linearGradient><linearGradient id="fmlvvbyja" x1="10.47" y1="10.07" x2="13.95" y2="12.41" gradientUnits="userSpaceOnUse"><stop stop-color="#BDD3EC"/><stop offset=".31" stop-color="#CEEAFF"/><stop offset="1" stop-color="#809DC2"/></linearGradient><linearGradient id="gmlvvbyja" x1="10.37" y1="10.25" x2="13.26" y2="12.92" gradientUnits="userSpaceOnUse"><stop stop-color="#021125"/><stop offset="1" stop-color="#365E81"/></linearGradient><linearGradient id="hmlvvbyja" x1="8.73" y1="8.19" x2="9.31" y2="9.33" gradientUnits="userSpaceOnUse"><stop stop-color="#AEDCF3"/><stop offset="1" stop-color="#56CAE8"/></linearGradient></defs></svg>