<!-- by TradingView --><svg width="18" height="18" xmlns="http://www.w3.org/2000/svg"><path fill="url(#paint0_linear)" d="M0 0h18v18H0z"/><path d="M10 3.083c.344.058.678.145 1 .258v2.194c.305.177.585.393.833.64l-.708.707A3 3 0 1011.83 10H10V9h3c0 1.48-.804 2.773-2 3.465v2.194a5.95 5.95 0 01-1 .258v-2.043a4.01 4.01 0 01-2 0v2.043a5.952 5.952 0 01-1-.258v-2.194A3.998 3.998 0 015 9c0-1.48.804-2.773 2-3.465V3.341c.322-.113.656-.2 1-.258v2.043a4.007 4.007 0 012 0V3.083z" fill="#fff"/><defs><linearGradient id="paint0_linear" x1="13.5" y1="1.204" x2="4.498" y2="16.8" gradientUnits="userSpaceOnUse"><stop stop-color="#A33E97"/><stop offset="1" stop-color="#653293"/></linearGradient></defs></svg>