<!-- by TradingView --><svg width="18" height="18" viewBox="0 0 18 18" fill="none" xmlns="http://www.w3.org/2000/svg"><path fill="#DD1235" d="M0 0h18v18H0z"/><g opacity=".6"><circle cx="9" cy="9" r="8.88" stroke="#E0E3EB" stroke-width=".25"/><rect x="3.05" y="5.05" width="11.9" height="7.9" rx=".95" stroke="#E0E3EB" stroke-width=".1"/><rect x="2.05" y="6.05" width="13.9" height="5.9" rx=".95" stroke="#E0E3EB" stroke-width=".1"/><rect x="4.05" y="4.05" width="9.9" height="9.9" rx=".95" stroke="#E0E3EB" stroke-width=".1"/><rect x="5.05" y="3.05" width="7.9" height="11.9" rx=".95" stroke="#E0E3EB" stroke-width=".1"/><rect x="6.05" y="2.05" width="5.9" height="13.9" rx=".95" stroke="#E0E3EB" stroke-width=".1"/><circle cx="9" cy="9" r="4.88" stroke="#C1C4CD" stroke-width=".25"/></g><path d="m10.99 10 .03.03v.04L9.1 12.98a.04.04 0 0 1-.04.02H7.77l-.01-.02a.04.04 0 0 1 0-.04l1.93-2.9c0-.02.02-.04.04-.04h1.26ZM9.72 8l-.03-.03-1.93-2.91a.04.04 0 0 1 .01-.05L7.8 5h1.28l.02.02 1.93 2.9v.05S11 8 10.98 8H9.72Z" fill="#fff"/><path d="M10.14 5.06a.04.04 0 0 1 0-.04l.02-.02h1.34l.02.02 2.47 3.96a.04.04 0 0 1 0 .04l-2.47 3.96-.02.01-.02.01h-1.32l-.02-.02a.04.04 0 0 1 0-.04L12.6 9l-2.46-3.94ZM9 8.98 9 9v.02l-2.46 3.96-.04.02c-.01 0-.03 0-.04-.02L4.01 9.02a.04.04 0 0 1 0-.04l2.45-3.96L6.5 5l.04.02 2.45 3.96Z" fill="#fff"/></svg>