<!-- by TradingView --><svg width="18" height="18" viewBox="0 0 18 18" xmlns="http://www.w3.org/2000/svg"><path fill="#F0F3FA" d="M0 0h18v18H0z"/><path d="M15 9A6 6 0 1 1 3 9a6 6 0 0 1 12 0Z" fill="#5CA0EB"/><path d="M14.88 9A5.88 5.88 0 1 1 3.13 9a5.88 5.88 0 0 1 11.75 0Z" fill="#F0F3FA"/><path d="M14.76 9A5.76 5.76 0 1 1 3.24 9a5.76 5.76 0 0 1 11.52 0Z" fill="#5CA0EB"/><path d="M13.58 9a4.58 4.58 0 1 1-9.16 0 4.58 4.58 0 0 1 9.16 0Z" fill="#F0F3FA"/><path d="M13.47 9a4.47 4.47 0 1 1-8.94 0 4.47 4.47 0 0 1 8.94 0Z" fill="#5CA0EB"/><path d="M13.32 9a4.32 4.32 0 1 1-8.64 0 4.32 4.32 0 0 1 8.64 0ZM12.12 5.03c.06.05.15.04.2-.02.03-.05.01-.14-.05-.18-.06-.05-.15-.04-.19.01-.04.06-.02.14.04.19Z" fill="#F0F3FA"/><path d="M5.78 6.6A7 7 0 0 1 8.7 5.55c.2-.02.39-.02.58 0a6.83 6.83 0 0 1 2.98 1.09l.01.03V9.7c0 .27-.07.56-.21.88a4.36 4.36 0 0 1-2.78 2.3.88.88 0 0 1-.47.03c-1.36-.34-2.8-1.5-3.05-2.94a4.1 4.1 0 0 1-.04-.63V6.7c0-.06.02-.08.06-.1Z" fill="#5CA0EB"/><path d="M5.92 6.74c.87-.55 1.83-.9 2.85-1.01.15-.02.3-.02.47 0 1.02.12 1.97.46 2.84 1.01.05.03.04.07.04.12v2.72c0 1.02-.7 1.9-1.5 2.47-.37.27-.8.49-1.3.63-.32.1-.53.05-.87-.07-1.15-.41-2.32-1.42-2.54-2.68a4 4 0 0 1-.03-.62 315.15 315.15 0 0 0 .01-2.54l.03-.03Z" fill="#F0F3FA"/><path d="M6.05 6.78c.82-.51 1.82-.89 2.8-.96.33-.02.69.04 1.01.11a6.6 6.6 0 0 1 2.12.87c.04.02.05.06.05.11-.01 1.02-.02 1.87-.01 2.53 0 .76-.27 1.4-.8 1.95a4.13 4.13 0 0 1-2.17 1.25.3.3 0 0 1-.12 0c-1.29-.27-2.73-1.4-2.92-2.76-.02-.12-.03-.3-.03-.55V6.86c0-.03.02-.06.07-.08Z" fill="#5CA0EB"/><path d="m8.84 6.56-.09-.07c-.05-.05-.05-.07.03-.07.1 0 .16-.06.19-.15.01-.06.03-.06.06 0l.05.1.03.02.15.03c.05 0 .05 0 .02.04l-.1.08v.03l-.02.12c.05.08.03.1-.05.05-.1-.05-.17-.05-.25.02h-.03l-.02-.01v-.02l.04-.13a.04.04 0 0 0-.01-.04ZM8.2 6.77c-.02-.02-.08 0-.16.04a.01.01 0 0 1-.01-.01c.01-.05.01-.1 0-.14l-.01-.03a.32.32 0 0 1-.06-.05c-.03-.03-.02-.04.02-.04.08.01.13-.02.16-.1.02-.05.04-.06.06 0 .02.07.06.1.13.1.06 0 .07.02.02.06-.05.05-.07.1-.04.18a.02.02 0 0 1-.03.03.56.56 0 0 1-.08-.04ZM9.86 6.43c.02.08.07.1.15.11.05.01.06.03.01.06-.06.04-.07.1-.03.17a.03.03 0 0 1-.04.04l-.05-.04a.1.1 0 0 0-.11 0l-.07.04a.01.01 0 0 1-.02-.02.21.21 0 0 0 .02-.12c0-.01 0-.02-.02-.03l-.08-.07a.02.02 0 0 1 0-.03h.02c.09.02.15-.02.17-.1a.02.02 0 0 1 .02-.03.02.02 0 0 1 .03.02ZM7.3 6.89a.1.1 0 0 0-.03-.11c-.04-.05-.03-.08.03-.08.03 0 .05-.01.06-.05a.03.03 0 0 1 .07 0c0 .04.03.06.07.06.04 0 .05.02.02.07a.2.2 0 0 0-.03.13.15.15 0 0 0-.17 0 .02.02 0 0 1-.02 0 .02.02 0 0 1 0-.02ZM10.68 6.7l.07.01a.02.02 0 0 1 .01.01.02.02 0 0 1 0 .02l-.05.06v.12a.01.01 0 0 1-.02 0c-.04-.04-.09-.04-.14-.01-.04.03-.06.02-.04-.04v-.03a.04.04 0 0 0 0-.04l-.05-.05c-.02-.02-.01-.03 0-.03l.07-.02s.02 0 .03-.02l.04-.05h.03l.03.05a.04.04 0 0 0 .02.02ZM5.88 13.22a4.06 4.06 0 0 1-1.68-2.26l.02-.02.06-.04c.02-.01.03 0 .04.01a3.83 3.83 0 0 0 1.69 2.25.04.04 0 0 1-.01.04h-.02c-.02.04-.06.05-.1.02ZM12 13.14a3.86 3.86 0 0 0 1.68-2.22c0-.02.02-.03.04-.02l.06.03c.02.01.02.03.02.05-.3.96-.86 1.7-1.7 2.25h-.06l-.04-.04a.03.03 0 0 1 0-.02v-.03Z" fill="#F0F3FA"/><path opacity=".5" fill="#F0F3FA" d="M7 8h4v2H7z"/><path opacity=".5" d="M7.43 4.66c.24-.11.95-.36 1.67-.36.34 0 .73.08 1.1.2.38.13.7.28.87.37l.47-.88c-.22-.12-.6-.3-1.02-.43A4.7 4.7 0 0 0 9.1 3.3c-.91 0-1.77.3-2.1.46l.43.9Zm-1.23.61a5.28 5.28 0 0 0-1.9 3.35l-.99-.13c.12-.85.69-2.89 2.32-4.03l.57.81Zm7.27 2.23c.16.4.21.73.27 1.12l.99-.13c-.06-.4-.13-.84-.34-1.37a7.58 7.58 0 0 0-1.15-1.85l-.78.63c.55.69.84 1.2 1 1.6ZM10.33 14.49c-.31.06-.75.14-1.45.14-.46 0-1.13-.13-1.4-.18l.22-.98c.26.06.83.16 1.18.16.6 0 .94-.06 1.24-.12l.24-.05.17.99-.2.04Z" fill="#fff"/></svg>