<!-- by TradingView --><svg width="18" height="18" xmlns="http://www.w3.org/2000/svg"><path fill="#BB4E42" d="M0 0h18v18H0z"/><path d="M13.344 4.861a5.99 5.99 0 011.252 1.98v.004a5.972 5.972 0 01.117 3.996 5.994 5.994 0 01-6.173 4.138 6.001 6.001 0 01-2.53-.783c-.46-.26-.882-.58-1.255-.953a6 6 0 012.08-9.837 5.995 5.995 0 016.509 1.455zm-6.388.764H5v5.625h1V9h.784l1.124 2.25h1.079l-1.17-2.446c.757-.068 1.049-.878 1.049-1.589 0-.82-.349-1.373-1.114-1.513a4.098 4.098 0 00-.796-.077zm.862 1.714c-.007.57-.51.661-1.034.661H6V6.572h.872c.48.003.952.197.946.767zM10.165 7h-.991v5.75h.991v-2.29c.312.392.94.592 1.43.586 1.065.01 1.916-.916 1.905-1.98.013-1.082-.797-1.997-1.906-1.978-.514-.008-1.158.191-1.429.657V7zm1.338 1c.55 0 1.079.448 1.079 1.065s-.446 1.072-.988 1.072c-.54 0-.964-.306-1.098-.67A1.083 1.083 0 0111.503 8z" fill="#fff"/></svg>