<!-- by TradingView --><svg width="18" height="18" viewBox="0 0 18 18" xmlns="http://www.w3.org/2000/svg"><path fill="url(#afnxmsvss)" d="M0 0h18v18H0z"/><path fill-rule="evenodd" d="M15 9A6 6 0 1 1 3 9a6 6 0 0 1 12 0Zm-.5 0a5.5 5.5 0 1 1-11 0 5.5 5.5 0 0 1 11 0ZM6 10.73v-3.5l1-.58v3.33l1 .59V8.84l2 1.22v1.84l-1.02.6L6 10.73Zm2-2.84V6.07l.98-.57L12 7.23v3.5l-1 .59V7.98l-1-.57v1.68L8 7.9Z" fill="#fff"/><defs><linearGradient id="afnxmsvss" x1="9" y1="0" x2="9" y2="18" gradientUnits="userSpaceOnUse"><stop stop-color="#143F2B"/><stop offset=".23" stop-color="#25184D"/><stop offset=".53"/><stop offset=".84" stop-color="#300F6A"/><stop offset="1" stop-color="#10412C"/></linearGradient></defs></svg>