<!-- by TradingView --><svg width="18" height="18" viewBox="0 0 18 18" xmlns="http://www.w3.org/2000/svg"><path fill="url(#a2lh01rwj)" d="M0 0h18v18H0z"/><path d="m5.21 5.73.2-.23.03-.03c.05-.05.1-.1.16-.13a2.02 2.02 0 0 1 2.71.14c.85.8.77 2.08.1 2.94-.87 1.27-2.34 3.05-.3 4.64.37.29.64.52 1.8.86-.76.14-1.46.1-2.24-.1a3.77 3.77 0 0 1-1.72-1.89c-.45-1.37.79-3.41 1.38-4.2.82-1.09-.5-2.27-1.48-.95-.5.68-1.4 2.63-1.09 4.07.18.82.42 1.41 1.38 2.23-.18-.1-.35-.22-.52-.36a5.05 5.05 0 0 1-.4-7Z" fill="url(#b2lh01rwj)"/><path d="m12.79 12.27-.2.23-.03.03c-.05.05-.1.1-.16.13a2.02 2.02 0 0 1-2.71-.14c-.85-.8-.77-2.08-.1-2.94.87-1.27 2.34-3.05.3-4.64-.37-.29-.64-.52-1.8-.86.76-.14 1.46-.1 2.24.1.55.32 1.42.99 1.72 1.89.45 1.37-.79 3.41-1.38 4.2-.82 1.09.5 2.27 1.48.95.5-.68 1.4-2.63 1.09-4.07a3.56 3.56 0 0 0-1.38-2.23c.18.1.35.22.52.36a5.05 5.05 0 0 1 .4 7Z" fill="url(#c2lh01rwj)"/><defs><linearGradient id="a2lh01rwj" x1="3.35" y1="3.12" x2="21.9" y2="24.43" gradientUnits="userSpaceOnUse"><stop stop-color="#1A1E21"/><stop offset="1" stop-color="#06060A"/></linearGradient><linearGradient id="b2lh01rwj" x1="4" y1="9" x2="14" y2="9" gradientUnits="userSpaceOnUse"><stop stop-color="#0082FA"/><stop offset="1" stop-color="#00F2FE"/></linearGradient><linearGradient id="c2lh01rwj" x1="4" y1="9" x2="14" y2="9" gradientUnits="userSpaceOnUse"><stop stop-color="#0082FA"/><stop offset="1" stop-color="#00F2FE"/></linearGradient></defs></svg>