<!-- by TradingView --><svg width="18" height="18" xmlns="http://www.w3.org/2000/svg"><path fill="#F0F3FA" d="M0 0h18v18H0z"/><path d="M4.046 13.637V14h.365l1.18-1.272v-.364h-.367l-1.178 1.273z" fill="url(#paint0_linear)"/><path d="M7.477 14l.58-1.282v-.354H7.68l-.58 1.283V14h.377z" fill="url(#paint1_linear)"/><path d="M14 11.018v-.375l-1.235-.664h-.355v.376l1.235.663H14z" fill="url(#paint2_linear)"/><path d="M14 7.358v-.375h-.355l-1.235.663v.375h.355L14 7.358z" fill="url(#paint3_linear)"/><path d="M7.1 4v.353l.58 1.283h.377v-.353L7.477 4h-.378z" fill="url(#paint4_linear)"/><path d="M13.955 4.364V4h-.366L12.41 5.273v.363h.366l1.179-1.272z" fill="url(#paint5_linear)"/><path d="M10.428 7.571h-.417v.417h.417V7.57z" fill="#BE5095"/><path d="M9.943 12.364v.354l.58 1.282h.378v-.353l-.58-1.283h-.378z" fill="url(#paint6_linear)"/><path d="M10.9 4h-.377l-.58 1.283v.353h.377l.58-1.283V4z" fill="url(#paint7_linear)"/><path d="M13.955 14v-.363l-1.179-1.273h-.366v.364L13.59 14h.366z" fill="url(#paint8_linear)"/><path d="M4 10.643v.375h.356l1.235-.663v-.376h-.356l-1.234.664z" fill="url(#paint9_linear)"/><path d="M4.046 4v.364l1.178 1.272h.366v-.363L4.411 4h-.365z" fill="url(#paint10_linear)"/><path d="M7.57 10.428h.426v-.425H7.57v.425z" fill="#BD687B"/><path d="M4 6.983v.375l1.235.663h.356v-.375l-1.235-.663h-.355z" fill="url(#paint11_linear)"/><path d="M7.57 8.001H8v-.43h-.43v.43z" fill="#AC5E90"/><path d="M10.428 10.014h-.415v.414h.415v-.414z" fill="#C85C7F"/><defs><linearGradient id="paint0_linear" x1="5.59" y1="12.364" x2="3.957" y2="13.906" gradientUnits="userSpaceOnUse"><stop stop-color="#C27E64"/><stop offset="1" stop-color="#CD8D56"/></linearGradient><linearGradient id="paint1_linear" x1="7.839" y1="12.364" x2="6.582" y2="13.318" gradientUnits="userSpaceOnUse"><stop stop-color="#CB7365"/><stop offset="1" stop-color="#D57D56"/></linearGradient><linearGradient id="paint2_linear" x1="12.41" y1="9.979" x2="13.429" y2="11.3" gradientUnits="userSpaceOnUse"><stop stop-color="#D75080"/><stop offset="1" stop-color="#E34B76"/></linearGradient><linearGradient id="paint3_linear" x1="12.362" y1="7.9" x2="13.406" y2="6.53" gradientUnits="userSpaceOnUse"><stop stop-color="#CF4794"/><stop offset="1" stop-color="#D739A3"/></linearGradient><linearGradient id="paint4_linear" x1="7.099" y1="4" x2="8.441" y2="4.889" gradientUnits="userSpaceOnUse"><stop stop-color="#8554B2"/><stop offset="1" stop-color="#9C55A5"/></linearGradient><linearGradient id="paint5_linear" x1="12.44" y1="5.605" x2="14.042" y2="4.092" gradientUnits="userSpaceOnUse"><stop stop-color="#C43CAE"/><stop offset="1" stop-color="#CD2CC3"/></linearGradient><linearGradient id="paint6_linear" x1="9.962" y1="12.405" x2="11.209" y2="13.318" gradientUnits="userSpaceOnUse"><stop stop-color="#D66766"/><stop offset="1" stop-color="#E26A55"/></linearGradient><linearGradient id="paint7_linear" x1="9.943" y1="5.636" x2="11.241" y2="4.715" gradientUnits="userSpaceOnUse"><stop stop-color="#AD4AA9"/><stop offset="1" stop-color="#AD3EBB"/></linearGradient><linearGradient id="paint8_linear" x1="12.41" y1="12.364" x2="14.044" y2="13.906" gradientUnits="userSpaceOnUse"><stop stop-color="#E15A68"/><stop offset="1" stop-color="#EB5A55"/></linearGradient><linearGradient id="paint9_linear" x1="5.591" y1="9.979" x2="4.563" y2="11.284" gradientUnits="userSpaceOnUse"><stop stop-color="#AC757A"/><stop offset="1" stop-color="#AC8270"/></linearGradient><linearGradient id="paint10_linear" x1="4.046" y1="4" x2="5.674" y2="5.537" gradientUnits="userSpaceOnUse"><stop stop-color="#6466AA"/><stop offset="1" stop-color="#8563A1"/></linearGradient><linearGradient id="paint11_linear" x1="4.024" y1="6.996" x2="5.022" y2="8.308" gradientUnits="userSpaceOnUse"><stop stop-color="#857390"/><stop offset="1" stop-color="#986C8D"/></linearGradient></defs></svg>