<!-- by TradingView --><svg width="18" height="18" viewBox="0 0 18 18" xmlns="http://www.w3.org/2000/svg"><path fill="url(#air02fotj)" d="M0 0h18v18H0z"/><path d="M10 4v2.4l1.73-1.35L10 4Z" fill="#00D7BD"/><path opacity=".9" d="M11.73 5.06v2.55L14 6.41l-2.27-1.35Z" fill="#18D8CB"/><path opacity=".8" d="M10 6.4v2.41l1.73-1.2L10 6.4Zm1.73 1.2v2.42L14 8.82 11.73 7.6Z" fill="#2FDBCB"/><path opacity=".8" d="M10 8.81v2.4l1.73-1.2L10 8.82Z" fill="#2FDAD0"/><path d="M11.73 10v2.42l2.27-1.2L11.73 10Z" fill="#00D4D3"/><path opacity=".4" d="M3.97 6.33v2.4l2.26-1.2-2.26-1.2Z" fill="#8DE4D1"/><path opacity=".2" d="M6.88 7.25v2.38L8.93 8.4 6.88 7.25Z" fill="#BCE8E1"/><path opacity=".3" d="M5.27 8.74v2.4l2.07-1.2-2.07-1.2Z" fill="#A4E5DC"/><path opacity=".9" d="M6.56 10.56v2.4l2.26-1.2-2.26-1.2Z" fill="#18D9C5"/><path opacity=".7" d="M10.01 11.6V14l1.73-1.2L10 11.6Z" fill="#47DCD7"/><path opacity=".9" d="M7.2 6.03v2.4l2.11-1.2-2.1-1.2Z" fill="#1ADBBC"/><path opacity=".8" d="M10.01 4v2.4L8 5.2 10.01 4Z" fill="#2FDCBF"/><path opacity=".6" d="M7.2 5.02v2.4l-2.26-1.2 2.27-1.2Z" fill="#5EE0C7"/><path opacity=".6" d="M9.47 6.23V8.7L7.21 7.44l2.26-1.2Z" fill="#5EDFD0"/><path opacity=".95" d="M6.88 7.14V9.7L4.62 8.39l2.26-1.25Z" fill="#0CDAB6"/><path opacity=".6" d="M10.01 8.81v2.4l-2.48-1.2L10 8.82Z" fill="#5EDFD2"/><path opacity=".55" d="M5.26 9.37v2.4L3 10.58l2.26-1.2Z" fill="#6AE1CA"/><path d="M14 6.4v2.41l-2.29-1.2L14 6.4Z" fill="#00D5CD"/><path opacity=".95" d="M11.74 7.6v2.43L10 8.8l1.74-1.2Z" fill="#0CD7CA"/><path opacity=".9" d="M14 8.81v2.4l-2.26-1.2L14 8.82Z" fill="#18D6D8"/><path opacity=".7" d="M11.73 10.02v2.4L10 11.22l1.73-1.2Z" fill="#47DCD7"/><path opacity=".4" d="M9.47 11.02v2.4l-2.26-1.2 2.26-1.2Z" fill="#8DE3DC"/><path d="M11.73 5.05v2.56L10 6.41l1.73-1.36Z" fill="#00D7C1"/><defs><linearGradient id="air02fotj" x1="3.35" y1="3.12" x2="21.9" y2="24.43" gradientUnits="userSpaceOnUse"><stop stop-color="#1A1E21"/><stop offset="1" stop-color="#06060A"/></linearGradient></defs></svg>