<!-- by TradingView --><svg width="18" height="18" viewBox="0 0 18 18" xmlns="http://www.w3.org/2000/svg"><path fill="#F0F3FA" d="M0 0h18v18H0z"/><path d="M7.94 4.06A5.15 5.15 0 0 0 4.1 7.95a4.98 4.98 0 0 0 1.7 4.94c.52.44 1.1.77 1.1.61 0-.02-.05-.1-.13-.17a2.7 2.7 0 0 1-.67-2.2 3.1 3.1 0 0 1 1.44-2.4l.33-.19c.06 0 .02-.13-.13-.43-.3-.58-.41-.97-.41-1.5 0-.8.34-1.66.85-2.19.15-.15.17-.18.17-.3 0-.11 0-.12-.08-.12l-.33.06Z" fill="#388CE0"/><path d="M10.99 4.38c0 .02.04.1.1.19.27.38.4.8.43 1.27.03.58-.13 1.08-.4 1.33-.22.19-.4.2-.65.03-.19-.12-.2-.2-.08-.36.2-.27.33-.68.33-1.11 0-.44-.09-.69-.31-.9a.82.82 0 0 0-.83-.22c-.34.08-.66.45-.83.96a3.17 3.17 0 0 0 .2 2.44 2.95 2.95 0 0 0 .72.78l-.14.07c-.58.22-1.16.87-1.42 1.58-.16.46-.22.83-.2 1.26.02.53.12.77.41 1.1.23.25.67.37 1.2.32.6-.07 1.07-.29 1.47-.7.17-.2.2-.21.24-.17.03.03.02.06-.04.17a3.2 3.2 0 0 1-1.82 1.44c-.15.04-.21.07-.21.1 0 .11.93-.04 1.5-.24a5.16 5.16 0 0 0 3.1-3.18c.2-.6.24-.84.24-1.59 0-.58 0-.71-.07-1.01a5.11 5.11 0 0 0-2.58-3.48c-.24-.13-.36-.16-.36-.08Z" fill="#094B89"/></svg>