<!-- by TradingView --><svg width="18" height="18" viewBox="0 0 18 18" xmlns="http://www.w3.org/2000/svg"><path fill="url(#a3l4webrs)" d="M0 0h18v18H0z"/><path d="M8.5 4a5.13 5.13 0 0 0-3.55 2.02l.72-.05a4.36 4.36 0 0 1 2.61-1.44L8.5 4ZM8.5 14a4.92 4.92 0 0 1-3.56-2.08l.58-.06a4.53 4.53 0 0 0 2.57 1.57l.41.57ZM9.5 4a5.03 5.03 0 0 1 3.56 2.06l-.59.08a4.2 4.2 0 0 0-2.56-1.57L9.5 4ZM9.5 14a5.03 5.03 0 0 0 3.56-2.06l-.7.06a4.4 4.4 0 0 1-2.63 1.46l-.22.54ZM4.44 11.07a5.1 5.1 0 0 1 0-4.15l.35.45a4.82 4.82 0 0 0-.06 3.06l-.3.64ZM13.57 11.07c.79-1.83.32-3.52-.02-4.14l-.27.64c.45 1.2.1 2.52-.07 3.02l.36.48Z" fill="#fff"/><path d="m8.07 6.11.9-2.08 2 2.71 2.29-.23-1.34 3.08 1.37 1.87-3.35.38-.91 2.12-2-2.72-2.3.27L6.08 8.4 4.73 6.5l3.34-.4Z" fill="#fff"/><path d="m12.4 7.12-1.1.12a1.8 1.8 0 0 1-.08 1.59c.16.09.29.23.33.28l.86-2Z" fill="url(#b3l4webrs)"/><path d="m8.32 6.85.77-1.77c.45.59 1.4 1.87 1.66 2.26.26.4.17.87.09 1.06l-.74 1.63-.8-1.08.86-2.06-1.89.19c0-.12.03-.2.05-.23Z" fill="url(#c3l4webrs)"/><path d="m7.82 6.68-2.16.25.69.94c.4-.6 1.1-.74 1.4-.73 0-.24.04-.4.07-.46Z" fill="url(#d3l4webrs)"/><path d="m7.48 7.7 1.85-.2-.53 1.25-2.21.29 1.12 1.55c-.11.05-.32.09-.41.1l-1.73.2c.29-.67.91-2.12 1.12-2.57.2-.45.61-.6.79-.62Z" fill="url(#e3l4webrs)"/><path d="m8.87 9.28-1.32.17 1.07 1.47c.32.45.9.44 1.2.41l2.5-.3-1.08-1.48c-.1-.12-.2-.2-.24-.23l-.77 1.74-1.36-1.78Z" fill="url(#f3l4webrs)"/><path d="M8.02 11.03c-.09.05-.3.12-.38.14l1.28 1.74.44-1.03a1.9 1.9 0 0 1-1.34-.85Z" fill="url(#g3l4webrs)"/><defs><linearGradient id="a3l4webrs" x1="1.42" y1="12.31" x2="15.29" y2="5.48" gradientUnits="userSpaceOnUse"><stop stop-color="#1190D4"/><stop offset=".36" stop-color="#5060AE"/><stop offset=".69" stop-color="#AC4179"/><stop offset="1" stop-color="#E0375C"/></linearGradient><linearGradient id="b3l4webrs" x1="12.64" y1="7.12" x2="11.09" y2="8.81" gradientUnits="userSpaceOnUse"><stop stop-color="#BD3D6F"/><stop offset="1" stop-color="#924987"/></linearGradient><linearGradient id="c3l4webrs" x1="10.43" y1="6.56" x2="8.76" y2="8.56" gradientUnits="userSpaceOnUse"><stop stop-color="#A3447E"/><stop offset="1" stop-color="#7F5092"/></linearGradient><linearGradient id="d3l4webrs" x1="8.04" y1="6.68" x2="5.98" y2="7.27" gradientUnits="userSpaceOnUse"><stop stop-color="#8D4B8B"/><stop offset="1" stop-color="#6A579F"/></linearGradient><linearGradient id="e3l4webrs" x1="9.33" y1="7.5" x2="5.57" y2="10.88" gradientUnits="userSpaceOnUse"><stop stop-color="#8F4A89"/><stop offset="1" stop-color="#4865B2"/></linearGradient><linearGradient id="f3l4webrs" x1="10.84" y1="9.03" x2="8.49" y2="10.85" gradientUnits="userSpaceOnUse"><stop stop-color="#8C4B8A"/><stop offset="1" stop-color="#6D569C"/></linearGradient><linearGradient id="g3l4webrs" x1="8.74" y1="11.34" x2="7.96" y2="12.19" gradientUnits="userSpaceOnUse"><stop stop-color="#7A5195"/><stop offset="1" stop-color="#615AA4"/></linearGradient></defs></svg>