<!-- by TradingView --><svg width="18" height="18" viewBox="0 0 18 18" xmlns="http://www.w3.org/2000/svg"><path fill="url(#aqllv1rom)" d="M0 0h18v18H0z"/><path d="M4 5.99 9 3l5 2.99v6L9 15l-5-3.02V6Z" fill="url(#bqllv1rom)"/><path d="M10.61 5H8.46c-.16 0-.45.1-.46.44v4.65a1.5 1.5 0 1 0 1 0V8h1.21c.13 0 .4-.15.4-.5s-.26-.5-.4-.5H9V6h1.61c.16 0 .39-.16.39-.5 0-.34-.25-.5-.39-.5ZM9 11.5a.5.5 0 1 1-1 0 .5.5 0 0 1 1 0Z" fill="#fff"/><defs><linearGradient id="aqllv1rom" x1="3.35" y1="3.12" x2="21.9" y2="24.43" gradientUnits="userSpaceOnUse"><stop stop-color="#1A1E21"/><stop offset="1" stop-color="#06060A"/></linearGradient><linearGradient id="bqllv1rom" x1="3.84" y1="4.33" x2="10.7" y2="14.94" gradientUnits="userSpaceOnUse"><stop stop-color="#5FFACD"/><stop offset=".49" stop-color="#21BAFF"/><stop offset="1" stop-color="#5237FF"/></linearGradient></defs></svg>