<!-- by TradingView --><svg width="18" height="18" viewBox="0 0 18 18" xmlns="http://www.w3.org/2000/svg"><path fill="#005AD4" d="M0 0h18v18H0z"/><path fill-rule="evenodd" d="M11.27 11c0-.45-.23-.84-.58-1.07a2 2 0 0 0-3.38 0 1.27 1.27 0 0 0 0 2.14 2 2 0 0 0 3.38 0c.35-.23.58-.62.58-1.07Zm-3.19-1c-.45 0-.8.45-.8 1s.35 1 .8 1h1.84c.45 0 .8-.45.8-1s-.35-1-.8-1H8.08Z" fill="#fff"/><path d="M8.5 11a.53.53 0 1 1-1.06 0 .53.53 0 0 1 1.06 0ZM10.5 11a.53.53 0 1 1-1.06 0 .53.53 0 0 1 1.06 0ZM8 5.48A.5.5 0 0 1 8.51 5H9v5H8V5.48ZM9 5h1.52c.27 0 .48.22.48.5s-.21.5-.48.5H9V5ZM9 7h1.52c.27 0 .48.22.48.5s-.21.5-.48.5H9V7Z" fill="#fff"/><path fill-rule="evenodd" d="M9 15A6 6 0 1 0 9 3a6 6 0 0 0 0 12Zm0-.54A5.46 5.46 0 1 0 9 3.54a5.46 5.46 0 0 0 0 10.92Z" fill="#fff"/><path d="M13.46 10.62c.3-.85.37-1.77.17-2.65a.13.13 0 0 1 .1-.16c.06-.02.13.03.15.1a5 5 0 0 1-1.84 5.06.13.13 0 0 1-.18-.03.13.13 0 0 1 .03-.18 4.74 4.74 0 0 0 1.57-2.14ZM12.33 5.62c-.46-.45-1.01-.8-1.61-1.04a.13.13 0 0 1-.08-.17c.03-.06.1-.1.17-.07a5 5 0 0 1 2.83 2.79c.02.06-.01.14-.08.16a.13.13 0 0 1-.16-.07c-.25-.6-.61-1.15-1.07-1.6ZM10.07 4.25a.13.13 0 0 1-.15.1 4.74 4.74 0 0 0-3.68.79.13.13 0 0 1-.18-.03.13.13 0 0 1 .03-.17 5 5 0 0 1 3.88-.84c.07 0 .11.08.1.15ZM5.6 5.51c.05.05.05.13 0 .18a4.74 4.74 0 0 0-1.34 3.52c0 .07-.05.13-.12.13A.13.13 0 0 1 4 9.22a5 5 0 0 1 1.42-3.71.13.13 0 0 1 .18 0ZM4.23 9.98c.07-.01.13.03.15.1a4.74 4.74 0 0 0 2.24 3.02c.06.04.08.11.05.18a.13.13 0 0 1-.18.05 5 5 0 0 1-2.36-3.2.13.13 0 0 1 .1-.15ZM9.22 13.74c.65-.03 1.28-.2 1.86-.48.06-.03.14 0 .17.06.04.06.01.14-.05.17a5 5 0 0 1-3.97.19.13.13 0 0 1-.07-.17c.03-.07.1-.1.17-.07.6.23 1.25.33 1.9.3Z" fill="#fff"/></svg>