<!-- by TradingView --><svg width="18" height="18" viewBox="0 0 18 18" xmlns="http://www.w3.org/2000/svg"><path fill="url(#ay1cile1j)" d="M0 0h18v18H0z"/><path d="M9.18 4a4.8 4.8 0 0 1 3.03 1.17l-5.58 5.58L9.18 4Z" fill="url(#by1cile1j)"/><path d="M9.18 4a4.8 4.8 0 0 1 3.03 1.17l-5.58 5.58L9.18 4Z" fill="url(#cy1cile1j)"/><path d="m9.63 9.01 3.22-3.22a5.05 5.05 0 0 1 0 6.42l-3.22-3.2Z" fill="url(#dy1cile1j)"/><path d="m9.63 9.01 3.22-3.22a5.05 5.05 0 0 1 0 6.42l-3.22-3.2Z" fill="url(#ey1cile1j)"/><path d="m4.01 8.69 3.91-3.93-2.79 7.42c-.8-1-1.2-2.22-1.12-3.5Z" fill="url(#fy1cile1j)"/><path d="m4.01 8.69 3.91-3.93-2.79 7.42c-.8-1-1.2-2.22-1.12-3.5Z" fill="url(#gy1cile1j)"/><path d="m5.8 12.83 3.22-3.2 3.21 3.2a5 5 0 0 1-6.43 0Z" fill="url(#hy1cile1j)"/><path d="m5.8 12.83 3.22-3.2 3.21 3.2a5 5 0 0 1-6.43 0Z" fill="url(#iy1cile1j)"/><defs><linearGradient id="ay1cile1j" x1="3.35" y1="3.12" x2="21.9" y2="24.43" gradientUnits="userSpaceOnUse"><stop stop-color="#1A1E21"/><stop offset="1" stop-color="#06060A"/></linearGradient><linearGradient id="by1cile1j" x1="9" y1="4" x2="9" y2="14" gradientUnits="userSpaceOnUse"><stop stop-color="#FF8300"/><stop offset=".51" stop-color="#E91A00"/><stop offset="1" stop-color="#7C0000"/></linearGradient><linearGradient id="cy1cile1j" x1="13" y1="16" x2="6" y2="9" gradientUnits="userSpaceOnUse"><stop stop-color="#9D0097" stop-opacity=".85"/><stop offset="1" stop-color="#9D0097" stop-opacity="0"/></linearGradient><linearGradient id="dy1cile1j" x1="9" y1="4" x2="9" y2="14" gradientUnits="userSpaceOnUse"><stop stop-color="#FF8300"/><stop offset=".51" stop-color="#E91A00"/><stop offset="1" stop-color="#7C0000"/></linearGradient><linearGradient id="ey1cile1j" x1="13" y1="16" x2="6" y2="9" gradientUnits="userSpaceOnUse"><stop stop-color="#9D0097" stop-opacity=".85"/><stop offset="1" stop-color="#9D0097" stop-opacity="0"/></linearGradient><linearGradient id="fy1cile1j" x1="9" y1="4" x2="9" y2="14" gradientUnits="userSpaceOnUse"><stop stop-color="#FF8300"/><stop offset=".51" stop-color="#E91A00"/><stop offset="1" stop-color="#7C0000"/></linearGradient><linearGradient id="gy1cile1j" x1="13" y1="16" x2="6" y2="9" gradientUnits="userSpaceOnUse"><stop stop-color="#9D0097" stop-opacity=".85"/><stop offset="1" stop-color="#9D0097" stop-opacity="0"/></linearGradient><linearGradient id="hy1cile1j" x1="9" y1="4" x2="9" y2="14" gradientUnits="userSpaceOnUse"><stop offset=".51" stop-color="#E91A00"/><stop offset="1" stop-color="#7C0000"/></linearGradient><linearGradient id="iy1cile1j" x1="13" y1="16" x2="6" y2="9" gradientUnits="userSpaceOnUse"><stop stop-color="#9D0097" stop-opacity=".85"/><stop offset="1" stop-color="#9D0097" stop-opacity="0"/></linearGradient></defs></svg>