<!-- by TradingView --><svg width="18" height="18" viewBox="0 0 18 18" xmlns="http://www.w3.org/2000/svg"><path fill="#31CB9E" d="M0 0h18v18H0z"/><path d="m9.6 3.05 2.82 2.27c.13.1.11.3-.03.4L8.21 8.24l1.03-5.06c.03-.17.22-.25.35-.14Zm3.06 8.52L8.41 9l4.25-2.57c.15-.1.34.02.34.2v4.73c0 .18-.19.3-.34.2ZM9.6 14.95l2.83-2.27c.13-.1.12-.31-.02-.4L8.2 9.75l1.04 5.06c.03.17.22.25.35.14ZM8.44 3.55 7.32 9l1.12 5.46c.04.21-.2.36-.36.23L5.23 12.4a.63.63 0 0 1-.23-.5V6.1c0-.2.08-.38.23-.5l2.85-2.3c.17-.13.4.03.36.24Z" fill="#fff"/></svg>