<!-- by TradingView --><svg width="18" height="18" viewBox="0 0 18 18" xmlns="http://www.w3.org/2000/svg"><path fill="#F0F3FA" d="M0 0h18v18H0z"/><path d="M11 10.68V9.63L12.5 9l.08 2.33-1.58-.65Z" fill="#2891F9"/><path d="m8.17 9.01 3.33-1.7.2-1.73L6.46 7.6v1.4h1.7ZM12.56 14l1.44-.78L6.83 9.6l-1.58.71 7.3 3.68Z" fill="#2B6DEF"/><path d="M4 4.58 5.5 4v8.64l-1.5.58V4.58ZM11 4.76 12.5 4v3.3l-1.5.6V4.77Z" fill="#2891F9"/><path d="M14 4.73 12.5 4v3.28l1.5.63V4.73ZM7 4.58 5.5 4v8.64l1.5.58V4.58Z" fill="#2BBDF7"/><path d="m5.5 12.44-1.5.78 1.5.78 1.5-.78-1.5-.78ZM12.5 7.13 11 7.9l1.5.78L14 7.9l-1.5-.79Z" fill="#2B6DEF"/><path d="m5.5 7.58 7-3.58v1.54L5.5 9V7.58Z" fill="#2891F9"/><path d="m5.5 9 8.5 4.22v-3.6L12.5 9v2L7 8.26 5.5 9Z" fill="url(#aw2mpzjwm)"/><defs><linearGradient id="aw2mpzjwm" x1="6.31" y1="9.88" x2="14.08" y2="9.88" gradientUnits="userSpaceOnUse"><stop offset=".35" stop-color="#2B6DEF"/><stop offset=".76" stop-color="#2BBCF7"/></linearGradient></defs></svg>