<!-- by TradingView --><svg width="18" height="18" viewBox="0 0 18 18" xmlns="http://www.w3.org/2000/svg"><path fill="#181B1E" d="M0 0h18v18H0z"/><path fill-rule="evenodd" d="M15 8.38 11.4 5H6.6L3 8.38 9 14l6-5.63Zm-2 .12s-3.68-5.63-8 0c4.31 5.63 8 0 8 0Z" fill="#04CD58"/><path fill-rule="evenodd" d="M10.56 8.5c0-.82-.7-1.5-1.56-1.5-.86 0-1.56.68-1.56 1.5 0 .84.7 1.5 1.56 1.5.86 0 1.56-.66 1.56-1.5Zm-.8.04c0-.41-.35-.74-.76-.74a.74.74 0 0 0-.76.74c0 .4.34.73.76.73s.76-.33.76-.73Z" fill="#F0F3FA"/></svg>