<!-- by TradingView --><svg width="18" height="18" viewBox="0 0 18 18" xmlns="http://www.w3.org/2000/svg"><path fill="#080B3A" d="M0 0h18v18H0z"/><path fill-rule="evenodd" d="M10 3s-.05 2.65 1.35 4.26c1.4 1.61 1.65 2.66 1.65 3.4 0 .74-.64 3.34-3.72 3.34S5 11.32 5 9.58C5 7.85 6.48 4.48 10 3Zm-.66 1.22s.26 2.14 1.51 3.46c1.26 1.3 1.48 2.25 1.48 2.88 0 .63-.1 1.97-2.33 2.83 0 0 .5-.72.5-1.71 0-.51-.33-1.1-.72-1.8-.51-.91-1.11-2-1.11-3.23 0-1.68.67-2.43.67-2.43Zm-3.67 5.3c0-2.56 3-5 3-5S8 5.62 8 6.98c0 1.1.63 2.26 1.15 3.2.37.68.68 1.26.68 1.65 0 .53-.07 1.57-1.19 1.57-1.12 0-2.97-1.31-2.97-3.87Z" fill="#4DD9F6"/></svg>