<!-- by TradingView --><svg width="18" height="18" viewBox="0 0 18 18" xmlns="http://www.w3.org/2000/svg"><path fill="#F0F3FA" d="M0 0h18v18H0z"/><path d="m9 15 4-2.7V5.2L9 4 5 5.2v7.1L9 15Z" fill="#00328F"/><path d="M9 5.32 10.37 5l.37.08-1.74.4v-.16Zm0 .78v-.17l2.71-.64.36.08L9 6.1Zm0 .6v-.16l4.05-.96.36.08L9 6.7Zm0 .61v-.16l4.98-1.18.02.08v.08L9 7.31Zm0 .61v-.16l4.98-1.18.02.08v.08L9 7.92Zm0 .6v-.16l4.98-1.17.02.08v.08L9 8.53Zm0 .62v-.17l4.98-1.17.02.07v.09L9 9.14Zm0 .6v-.16l4.98-1.17.02.07v.08L9 9.74Zm0 .61v-.16L13.98 9l.02.08v.08l-5 1.18Zm0 .61v-.16l4.98-1.18.02.08v.08l-5 1.18Zm0 .6v-.16l4.98-1.17.02.08v.08l-5 1.18Zm0 .62V12l4.98-1.17.02.07V11l-5 1.18Zm0 .6v-.16l4.98-1.17.02.07v.08l-5 1.18Zm0 .61v-.16l4.98-1.18.02.08v.08L9 13.4ZM9 14v-.16l4.22-1-.34.25L9 14Z" fill="#00D4FF" fill-opacity=".65"/><path d="M7.88 7 9 6l1.12 1 1.33-.72V8H12v2h-2v1.95l.45-.39v-1.23H11v1.52L9.45 13V9.48h2v-.96h-4.9v.96h1.97V13L7 11.85v-1.52h.55v1.23l.43.4V10H6V8h.55V6.28L7.88 7Zm2.86 1v-.69l-.72.4L9 6.8l-1.02.9-.72-.39V8h3.48Z" fill="#F0F3FA"/></svg>