<!-- by TradingView --><svg width="18" height="18" xmlns="http://www.w3.org/2000/svg"><path fill="url(#paint0_linear)" d="M0 0h18v18H0z"/><path d="M8.897 3.402a.21.21 0 01.207 0L13.673 6a.203.203 0 010 .353L9.698 8.622a.917.917 0 00-.54-.304V7.085a.905.905 0 00.759-.888.908.908 0 00-.914-.902.908.908 0 00-.914.902c0 .443.325.81.752.886V8.32a.916.916 0 00-.533.302l-3.975-2.26a.202.202 0 010-.353l4.564-2.606zm4.789 3.273a.207.207 0 01.31.176L14 11.895c0 .073-.04.14-.103.177l-4.425 2.525a.207.207 0 01-.31-.176l-.004-4.328a.915.915 0 00.549-.312l1.105.627a.887.887 0 00-.02.354.912.912 0 001.032.767c.5-.07.847-.526.777-1.019a.912.912 0 00-1.032-.767.912.912 0 00-.624.38L9.862 9.51a.887.887 0 00-.014-.644l3.838-2.19zm-9.682.176a.205.205 0 01.31-.176l3.842 2.193a.886.886 0 00-.013.641l-1.083.615a.912.912 0 00-.623-.38.912.912 0 00-1.032.766c-.07.493.277.95.777 1.019.5.07.962-.274 1.033-.767a.887.887 0 00-.021-.354l1.105-.627c.135.16.326.273.543.311l-.004 4.33a.207.207 0 01-.31.175l-4.425-2.525A.203.203 0 014 11.895l.004-5.044z" fill="#fff"/><defs><linearGradient id="paint0_linear" x1="-1.505" y1="3.254" x2="20.354" y2="14.537" gradientUnits="userSpaceOnUse"><stop offset="0" stop-color="#F85F7D"/><stop offset="1" stop-color="#F14E10"/></linearGradient></defs></svg>