<!-- by TradingView --><svg width="18" height="18" viewBox="0 0 18 18" xmlns="http://www.w3.org/2000/svg"><path fill="#F0F3FA" d="M0 0h18v18H0z"/><circle cx="9.02" cy="8.98" r="5.02" fill="#F2E373"/><path d="M10.59 3c-.37.49-1.16.8-1.73.97a5.02 5.02 0 0 0-4.8 5.8c.45 1.39 1.4 2.33 2.68 2.4 1.35.08 2.66-.4 3.28-1.89.5-1.19 1.37-1.54 1.74-1.61H14.6l-.65-.5c-1.04-.9-2.65-.8-3.08-.42-.5.43-1.05.52-1.31.55-1.6 0-1.74-1.22-1.74-1.5v-.04c0-.32-.01-1.26 1.5-1.76.56-.2.9-.5 1.1-.84.32-.46.25-.9.17-1.16Z" fill="url(#abxss5sfy)"/><path d="M13.12 11.88a5.01 5.01 0 0 1-9.04-2c.3.89 1.2 2.32 2.9 2.29 1.82-.04 2.73-1.18 2.97-1.8.25-.64.86-1.47 1.8-1.7-.38.24-1.08.9-1.01 1.7.08.97.87 1.61 2.38 1.5Z" fill="url(#bbxss5sfy)"/><defs><linearGradient id="abxss5sfy" x1="6.25" y1="4.48" x2="11.26" y2="9.69" gradientUnits="userSpaceOnUse"><stop stop-color="#F5C859"/><stop offset="1" stop-color="#DE3633"/></linearGradient><linearGradient id="bbxss5sfy" x1="7.25" y1="10.92" x2="9.03" y2="14.03" gradientUnits="userSpaceOnUse"><stop stop-color="#F3BE56"/><stop offset="1" stop-color="#E04437"/></linearGradient></defs></svg>