<!-- by TradingView --><svg width="18" height="18" viewBox="0 0 18 18" xmlns="http://www.w3.org/2000/svg"><path fill="#F0F3FA" d="M0 0h18v18H0z"/><path d="M8.35 4.58a.48.48 0 0 1-.23-.35.3.3 0 0 0-.08-.18c-.07-.08-.1-.06-.08.03.03.19.1.35.2.5.05.07.04.09-.04.06-.31-.09-.63-.09-.95.01a11.83 11.83 0 0 0-1.2.48.04.04 0 0 0 .02.04l.18.02a.8.8 0 0 1 .46-.12c.05 0 .06.02.01.05-.08.06-.19.1-.32.13a4.1 4.1 0 0 0-1.73.84c-.15.13-.22.24-.23.33 0 .07.03.09.09.05.16-.09.33-.15.5-.2.07-.01.08 0 .02.06-.45.41-.76.92-.92 1.52-.02.09-.04.22-.05.4 0 .07.02.08.06.02l.24-.3c.02.06.02.11 0 .17a4.09 4.09 0 0 0 .07 2.5c.04.06.1.02.13-.03v-.04l.12-.92c.02-.1.04-.1.07 0 .11.35.24.71.38 1.08.1.24.1.48.12.73v.1c.01.18.06.2.14.03l.34-.68c.18.38.25.59.14.93l-.1.34v.03h.04c.04.02.06 0 .07-.02.02-.06.05-.1.1-.14.06-.05.1-.04.1.04.01.12.04.25.08.38.01.04.04.05.1.04a.08.08 0 0 0 .06-.06c.01-.06.05-.1.11-.1h.01a.07.07 0 0 1 .07.09c-.02.06-.01.13.01.19.03.06.07.07.12.02a.3.3 0 0 0 .11-.25v-.01l.04-.02c.03 0 .05 0 .06.03l.26.78c0 .02.01.03.03.04a.1.1 0 0 0 .14-.03.6.6 0 0 0 .07-.31c0-.16.02-.17.1-.03.12.22.27.44.44.66.1.11.14.1.14-.04v-.73c0-.1.03-.1.08 0l.44.94c.06.14.11.14.15-.01l.15-.54c.02-.08.04-.08.08-.01.09.14.15.3.2.46.05.17.13.19.24.04l.06-.07c.05-.07.08-.06.1.02l.06.32c.03.13.07.14.13.02a1.17 1.17 0 0 0 .12-.37v-.01c.02-.02.05-.02.08-.01l.02.02a.05.05 0 0 1 0 .02c.01.05.03.09.06.11.05.04.08.03.1-.03 0-.02 0-.03.02-.04.06-.04.09-.02.1.04.02.12.06.22.12.32.03.05.06.05.09 0 .1-.19.13-.4.12-.6 0-.03.01-.04.03-.04h.04l.01.02.08.29c.02.06.05.07.1.03.25-.15.54-.15.73 0 .04.01.07 0 .09-.02.17-.2.31-.4.43-.6.13-.23.33-.42.54-.6l.21-.19c.26-.25.42-.57.48-.96.03-.2.08-.38.15-.57-.2-.1.15-.21.24-.26.2-.25.39-.6.35-.93-.02-.12-.01-.24.02-.36.06-.3-.12-.52-.38-.66a8.26 8.26 0 0 1-1.28-.9.5.5 0 0 1-.17-.31c-.03-.39-.22-.56-.5-.78a.85.85 0 0 1-.27-.37 2.8 2.8 0 0 0-1.66-1.57l-.85-.3a.36.36 0 0 1-.14-.08l-.06-.06c-.08-.08-.1-.06-.05.03.06.14.14.28.24.4 0 .03-.02.04-.04.05L8.8 4.6a12.7 12.7 0 0 1-.54-.35l-.03.02v.05l.2.17c.18.12.34.2.5.22.14.2.07.26-.57-.14Z" fill="#060827"/><path d="M8.43 4.5c.17.12.33.2.49.22.3.18.61.35.93.5.23.12.48.4.75.87l-.21.03-.21-.24a.47.47 0 0 1-.08-.11c-.14-.3-.4-.49-.75-.59-.02 0-.04-.02-.07-.06-.17-.12-.31-.17-.42-.14-.2-.11-.37-.25-.5-.4.04 0 .07-.03.07-.08ZM9.64 5.68l.12.18-.13.01c-.05 0-.08 0-.12-.03A5.9 5.9 0 0 0 8.27 5a.5.5 0 0 0-.25-.05l-.26.02a8.35 8.35 0 0 1-.5-.08.15.15 0 0 1-.1-.07.05.05 0 0 1 .02-.06l.02-.01c.83-.2 1.32.24 1.98.58.18.1.3.22.46.34Z" fill="#DB2E9E"/><path d="M9.76 5.86c.09.05.15.11.18.2a.05.05 0 0 1-.01.06.06.06 0 0 1-.06.01c-.35-.08-.66-.2-.92-.37a1.6 1.6 0 0 0-.54-.22 1.5 1.5 0 0 0-.6-.01l-.5.09c-.12.02-.23.06-.34.12-.12.06-.23.12-.33.19l-.46.05c.1-.15-.06-.2-.48-.13.07-.1.17-.13.3-.11h.02l.01-.04c0-.02.02-.03.04-.03l1.12-.24c.04-.01.06-.04.04-.07-.02-.05-.1-.1-.24-.16.38-.08.77-.05 1.17.1.05.01.08 0 .07-.05 0-.03-.02-.05-.05-.06a1.6 1.6 0 0 1-.41-.21l.25-.02c.1 0 .18.02.25.05.45.23.87.5 1.25.83.03.02.06.04.1.03l.14-.01Z" fill="#771492"/><path d="M9.28 5.12c-.08.07-.17.06-.25-.05v-.04c.02 0 .02-.01 0 0L9 5.03c0 .02-.02.03-.04.02a.3.3 0 0 1-.1-.08c.1-.03.25.02.42.14Z" fill="#B21897"/><path d="M6.32 5.25c0-.08-.05-.1-.15-.06a.8.8 0 0 1 .46-.12c.05 0 .06.02.01.05-.08.06-.19.1-.32.13Z" fill="#9A9A9A"/><path d="M9.35 5.18c.36.1.6.3.75.59l.08.11.21.24a.28.28 0 0 0-.2.01l-.46-.52a.9.9 0 0 1-.38-.43Z" fill="#771492"/><path d="M7 5.2c.13.06.2.1.23.16.02.03 0 .06-.04.07l-1.13.24a.04.04 0 0 0-.03.03c0 .01 0 .02-.02.03-.14-.01-.24.02-.31.12l-.84.25h-.08c-.04-.02-.04-.04 0-.07l.54-.3c.22-.13.78-.3 1.67-.53Z" fill="#B21897"/><path d="M7.87 5.78a2 2 0 0 1-.38.06l-.02.01v.01c0 .03 0 .05-.03.06-.17.04-.3.1-.42.19l-.72.47c.33-.64.85-.9 1.57-.8Z" fill="#771492"/><path d="m6.74 8.1-.2.2c.05-.15.14-.34.29-.56.03-.05.03-.1 0-.17-.02-.06-.06-.07-.1-.02-.05.06-.1.1-.17.13a.2.2 0 0 0-.12.13l-.3.86c-.06-.1-.09-.26-.09-.47.14-.6.34-1.02.6-1.28.19-.2.57-.38 1.16-.57.03-.01.04-.03.03-.07v-.03c-.01-.02-.02-.03-.05-.02-.63.1-1.14.4-1.52.88a.16.16 0 0 1-.06.05l-.08.04c0-.07.01-.12.03-.14.26-.32.56-.6.9-.84.04-.03.04-.05.01-.08a.13.13 0 0 0-.05-.03c.11-.09.25-.15.42-.19.03 0 .04-.03.03-.06 0-.02 0-.02.02-.02a2 2 0 0 0 .38-.06c.27-.05.5-.07.7-.06.24.02.25.08.05.18l-.56.27a.28.28 0 0 0-.11.1L6.75 8.1ZM6.64 5.93c-.3.24-.52.5-.68.8-.47.15-.88.46-1.23.95.02-.25 0-.34-.06-.3l1.23-1c.04-.04.03-.05-.02-.05l-.69.08c.28-.26.6-.4.99-.43l.46-.05Z" fill="#B21897"/><path d="M7.76 7.72v-.38c.01-.05 0-.05-.04-.02-.27.32-.46.63-.57.95-.03.08-.09.14-.19.17A.6.6 0 0 0 7 8c.35-.8.8-1.4 1.36-1.83.2-.16.5-.2.88-.12l.03.02v.02a.04.04 0 0 1-.01.05c-.15.1-.31.13-.46.23-.22.15-.37.3-.45.42-.18.31-.38.62-.59.93Z" fill="#B21897"/><path d="M10.6 6.1c.07.03.09.09.05.16a.58.58 0 0 1-.25.03c-.07-.1-.11-.12-.14-.05 0-.09-.03-.12-.07-.1a.28.28 0 0 1 .2-.02l.21-.03Z" fill="#451DA9"/><path d="m7.02 6.1.05.04c.03.03.03.05 0 .08-.35.24-.65.52-.91.84-.02.02-.03.07-.03.14l-.28.6v.05l.01.04c.02.03.01.05-.01.06-.11.06-.16.16-.15.3l-.01.06a.33.33 0 0 1-.05-.02c-.04-.01-.05-.04-.04-.08.07-.3.16-.59.26-.88.1-.3.25-.54.44-.75l.72-.47Z" fill="#FD7E6E"/><path d="M6.05 8.2c-.15.37-.22.75-.2 1.15l-.05-.48.07-.58v-.05a.08.08 0 0 0-.04-.03.09.09 0 0 0-.1 0l-.03.03c0-.13.04-.23.15-.29.02-.01.03-.03.01-.06l-.01-.04V7.8l.28-.6.08-.04a.16.16 0 0 0 .06-.05c.38-.48.89-.78 1.52-.88.02 0 .04 0 .04.02l.01.03c0 .04 0 .06-.03.07-.59.19-.97.38-1.16.57a2.7 2.7 0 0 0-.6 1.28Z" fill="#271345"/><path d="M10.26 6.24c.03-.07.07-.05.14.05-.06.1-.15.19-.27.27a.44.44 0 0 0-.05-.2c-.02-.03-.01-.06.03-.08a.4.4 0 0 1 .15-.04Z" fill="#5A4937"/><path d="m10.65 6.26.75.2-.11.13a.14.14 0 0 1-.12.05l-.57-.05c-.05 0-.1 0-.13.03-.12.05-.25.1-.37.11a.12.12 0 0 0-.09.06l-.2.32v.05l.04.02c.05.02.06.06.04.11a.74.74 0 0 1-.24.32l-.02.02v.04c0 .05.03.07.07.05.07-.02.12-.01.16.03.03.03.03.06 0 .08-.16.17-.05.3-.07.5l-.06.6-.02-.62-.03-.03h-.03l-.02.02a.8.8 0 0 1-.16.35l-.03.02a.06.06 0 0 1-.06-.02l-.01-.03a3.27 3.27 0 0 1-.04-.8c.01-.1-.03-.11-.1-.06a.18.18 0 0 0-.08.15.1.1 0 0 1-.06.08h-.04c-.06-.76.3-1.23 1.08-1.43.12-.08.2-.17.27-.27.1 0 .19 0 .25-.03Z" fill="#CF462A"/><path d="M4.67 7.38a.87.87 0 0 0-.39.43c-.06-.04-.07-.09-.04-.14.2-.35.33-.58.4-.67.15-.26.34-.46.55-.6l.68-.07c.06 0 .07.01.02.04L4.67 7.38Z" fill="#F497C1"/><path d="m11.4 6.47.07.06c-.04.13-.13.18-.27.13a.3.3 0 0 0-.13-.01l-.93.12a.17.17 0 0 0-.11.07.16.16 0 0 0-.03.13c.06.2 0 .37-.14.5-.04.02-.04.05 0 .08.04.04.09.05.14.04.03 0 .04.03.04.09-.06.05-.1.1-.1.17-.06.03-.1.06-.1.1-.02.06 0 .07.06.05a.16.16 0 0 1 .13 0c.06.01.08.05.05.1a.36.36 0 0 0 0 .32c.19.35.18.83.7.8.06 0 .22-.05.5-.15.18-.06.36-.08.54-.06-.18.15-.32.33-.42.52a1.3 1.3 0 0 1-.2.3c-.1.11-.27.07-.49-.12-.11-.1-.13-.08-.07.05.07.13.16.26.27.39v.02h-.04a4.48 4.48 0 0 1-.64-.73c-.04-.06-.06-.05-.07.02-.01.1 0 .21.03.34l-.01.07h-.02a.04.04 0 0 1-.03 0l-.01-.01-.38-.93.05-.6c.02-.2-.09-.33.07-.5.03-.02.03-.05 0-.08-.04-.04-.1-.05-.16-.03-.04.02-.07 0-.07-.05v-.04l.02-.02c.11-.09.2-.2.24-.32.02-.05.01-.09-.04-.1a.08.08 0 0 1-.03-.03.04.04 0 0 1 0-.05l.2-.32a.12.12 0 0 1 .08-.06c.13-.02.25-.06.37-.11a.27.27 0 0 1 .13-.03l.58.05c.04 0 .08-.02.11-.05l.11-.12Z" fill="#D26A2D"/><path d="M11.47 6.53a.8.8 0 0 1 .32.25l.19.72-.53-.41a.08.08 0 0 0-.1 0l-.01.02c-.03.08-.13.11-.3.11-.14.02-.32 0-.54-.05l-.05.36c0 .04 0 .08.04.11.1.1.06.24.15.35.05.06.12.1.19.14.03.01.06.04.08.07.1.21.2.32.35.33.75.03 1.3.24 1.64.6a.64.64 0 0 1-.44.08.43.43 0 0 0-.18 0c-.1.03-.12.1-.07.2-.15-.03-.25-.1-.31-.22-.03-.04-.02-.07.04-.1a14 14 0 0 1 .28-.07c.07-.02.07-.04 0-.05a.81.81 0 0 0-.4.04c-.18-.02-.36 0-.54.06l-.5.16c-.53.02-.52-.46-.7-.8a.36.36 0 0 1 0-.33c.03-.05 0-.09-.05-.1a.16.16 0 0 0-.13 0c-.06.02-.08 0-.07-.05.01-.04.04-.07.1-.1a.41.41 0 0 0 .3-.27c.03-.06.02-.07-.03-.03l-.17.13c.01-.06 0-.1-.03-.09-.05.01-.1 0-.15-.04-.03-.03-.03-.06 0-.09.16-.12.2-.28.15-.49a.15.15 0 0 1 .03-.13.16.16 0 0 1 .11-.06l.93-.13a.3.3 0 0 1 .13.01c.14.05.23 0 .27-.13Z" fill="#F68239"/><path d="m5.95 6.73-.28.56c0-.07-.02-.12-.08-.14a.1.1 0 0 0-.11.03c-.35.37-.64.78-.87 1.22a.26.26 0 0 0-.03.13 1 1 0 0 1-.1.41c-.08.2-.08.37 0 .53l-.02.62a.04.04 0 0 1-.01.02.04.04 0 0 1-.03.02h-.05c-.03 0-.04-.02-.04-.05 0-.46 0-.93.03-1.42 0-.19.06-.41.15-.67a.58.58 0 0 0 .04-.18c0-.13.07-.18.18-.13.35-.49.75-.8 1.22-.95Z" fill="#1B50BE"/><path d="M11.8 6.78c.14.11.22.26.23.45 0 .04.01.09.03.13.07.13.16.24.26.34.38.34.83.66 1.35.95.13.08.2.19.2.32 0 .05-.02.07-.07.07a.3.3 0 0 1-.17-.08c-.24-.27-.53-.5-.85-.68a3.5 3.5 0 0 1-.8-.78l-.19-.72Z" fill="#F5C24C"/><path d="M11.98 7.5c.34.42.6.68.8.78.32.19.6.41.85.68-.34 0-.43-.07-.65-.22-.04-.03-.05-.02-.03.02.27.6.81.88.29 1.65.03-.09.01-.14-.04-.17-.03 0-.05 0-.06.03a.1.1 0 0 1-.04.05c-.04.02-.06.01-.04-.03.15-.47.11-.73-.16-1.16-.35-.36-.9-.57-1.64-.6-.14-.01-.26-.12-.35-.33a.15.15 0 0 0-.08-.07.52.52 0 0 1-.19-.14c-.09-.11-.05-.24-.15-.35a.13.13 0 0 1-.04-.11l.05-.36c.12.31.36.52.7.63.03 0 .04.02.03.04l-.03.05c-.01.04-.03.04-.07.02-.1-.06-.21-.1-.33-.15-.08-.03-.1-.01-.03.05.16.17.52.24.75.28.2.03.4.1.59.2.18.08.2.06.05-.08l-.55-.47c.02-.02.02-.06-.01-.11.13-.02.12-.1-.03-.27a.18.18 0 0 0-.07-.05c-.08-.02-.12 0-.11.05-.11-.1-.23-.15-.34-.14.16 0 .26-.03.29-.1 0-.02.01-.03.02-.03l.03-.02a.08.08 0 0 1 .06.02l.53.41Z" fill="#D26A2D"/><path d="M5.67 7.3c-.22.23-.33.49-.33.77a9.1 9.1 0 0 1-.11 1.45.55.55 0 0 1-.1-.32c0-.08-.03-.11-.11-.12a1.3 1.3 0 0 1 .05-.64c0-.03 0-.06-.03-.07h-.05a.63.63 0 0 0-.2.4l-.3.7c-.09-.16-.09-.33 0-.53a1 1 0 0 0 .09-.41c0-.05 0-.09.03-.13.23-.44.52-.85.87-1.22a.1.1 0 0 1 .12-.03c.05.02.07.07.07.14Z" fill="#01A3EE"/><path d="M7.76 7.72c-.15.4-.31.71-.5.92-.33.38-.56.69-.69.92.03-.25.15-.52.36-.82.05-.07.05-.12 0-.16-.04-.03-.04-.06-.01-.09l.04-.05c.1-.03.16-.09.2-.17.1-.32.29-.63.56-.95.03-.03.05-.03.05.02v.38Z" fill="#D7A9D8"/><path d="m5.67 7.3-.16.96c0 .04-.02.08-.04.12a.86.86 0 0 0-.1.5v.03l.04.01h.03l.02-.03.23-.58c.01-.02.02-.05.01-.07l.04-.02a.09.09 0 0 1 .13.02v.05l-.07.58a.96.96 0 0 0 .06.96c.02.02.04.02.06.01h.04A.1.1 0 0 0 6 9.77a.08.08 0 0 0 0-.06l-.15-.37c-.03-.4.04-.78.2-1.15 0 .2.02.36.07.47 0 .08.02.15.05.21l-.13.33a.26.26 0 0 0-.01.13l.1.67-.05-.02a.1.1 0 0 0-.07 0 .09.09 0 0 0-.06.05c-.06.2-.1.41-.02.6.09.24 0 .6-.02.84 0 .05.02.07.07.07h.06a.38.38 0 0 0-.04.13c-.01.07-.02.1-.04.13-.03.04-.09.05-.16.03l-.14-.93-.15-1c0-.06-.03-.07-.06-.02a.4.4 0 0 0-.08.16c0-.06-.03-.1-.09-.1l-.06-.43c.07-.4.1-.88.1-1.45.01-.28.12-.54.34-.78Z" fill="#3234AF"/><path d="M11.6 7.63a.3.3 0 0 0-.13-.13.5.5 0 0 0-.08-.14c0-.05.03-.07.1-.05.04.01.06.03.09.05.15.16.15.25.02.27Z" fill="#F5C24C"/><path d="M11.47 7.5a.3.3 0 0 1 .13.13c.03.05.03.09.01.1-.03.08-.06.12-.1.12a.1.1 0 0 1-.07-.02.1.1 0 0 1-.03-.05.2.2 0 0 0-.15-.17.12.12 0 0 1-.1-.08c0-.02 0-.04.02-.06.02-.02.05-.03.08 0 .1.1.16.11.2.03Z" fill="#5A4937"/><path d="M9.93 7.85c.01-.06.05-.12.1-.17l.17-.13c.05-.04.06-.03.04.03a.41.41 0 0 1-.3.27Z" fill="#F5C24C"/><path d="m6.55 8.3-.38.58a.48.48 0 0 1-.04-.21l.3-.86a.2.2 0 0 1 .13-.13.42.42 0 0 0 .17-.13c.04-.05.08-.04.1.02.03.06.03.12 0 .17-.15.22-.24.41-.28.57Z" fill="#DDCA9D"/><path d="M7 8a.6.6 0 0 1-.03.44l-.05.05c-.03.03-.03.06 0 .1.06.03.06.08 0 .15-.2.3-.32.57-.35.82l.11.66h-.1a.34.34 0 0 0-.16-.3.1.1 0 0 1-.05-.1c.01-.1 0-.17-.03-.25 0-.58.23-.95.53-1.43.04-.08.09-.12.13-.14Z" fill="#5C4FD7"/><path d="m5.02 9.08.19 1.07c.01.07.03.07.07.02.04-.06.04-.13.01-.22.06 0 .09.04.1.1.14.34.17.64.09.9-.06.18-.12.17-.17 0l-.1-.4a1.59 1.59 0 0 0-.16-.37 1.8 1.8 0 0 1-.16-1.24c.01-.06-.02-.12-.1-.17a.63.63 0 0 1 .2-.4h.05c.03.01.04.04.03.07a1.3 1.3 0 0 0-.05.64Z" fill="#1B50BE"/><path d="M9.79 9.57c.05.23.14.43.29.6l.24.95c-.03.15-.08.26-.13.31-.2-.57-.5-1.13-.9-1.68-.2-.28-.28-.6-.24-.98 0-.05.02-.05.05-.02l.69.82Z" fill="#5C4FD7"/><path d="M5.02 9.08c.08 0 .12.04.11.12 0 .1.03.2.1.32l.06.43c.03.09.03.16-.01.22-.04.05-.06.05-.07-.02l-.2-1.07Z" fill="#5ED6B0"/><path d="M12.9 9.13c.27.43.3.7.16 1.16-.02.04 0 .05.03.03a.1.1 0 0 0 .05-.05c0-.03.03-.04.06-.03.05.03.07.08.04.17-.28.26-.68.36-1.22.29a.6.6 0 0 1-.48-.37c-.02-.04 0-.06.04-.05l.57.16c.44.04.57 0 .37-.12-.3.01-1.12-.1-1.04-.53 0-.04.04-.06.08-.05l.87.29c.02 0 .03 0 .03-.03v-.04l-.01-.02-.78-.36c-.07-.03-.08-.07-.05-.14l.02-.04a.14.14 0 0 1 .1-.07.15.15 0 0 1 .1.02c.27.17.39.18.37.05-.05-.1-.03-.16.07-.19h.18c.16.03.3 0 .44-.08Z" fill="#F5C24C"/><path d="M9.79 9.57c.17.2.27.4.29.6a1.44 1.44 0 0 1-.3-.6Z" fill="#3234AF"/><path d="M13.54 10.42c-.08.11-.16.16-.23.14.2-.3.3-.59.32-.88 0-.05.02-.07.07-.07h.07c.04 0 .06.03.07.07.02.22-.2.54-.3.74Z" fill="#F5C24C"/><path d="M6.13 10.01c-.02.1-.01.25.03.44l-.11 1.1h-.06c-.05 0-.07-.02-.07-.07.02-.24.1-.6.02-.83a.92.92 0 0 1 .02-.61c.01-.03.03-.05.05-.06a.1.1 0 0 1 .08 0l.04.03ZM10.4 10.05c.33.5.58 1 .74 1.5.08.24.07.5-.03.76-.06-.06-.1-.08-.13-.07.05-.3 0-.58-.18-.83a.2.2 0 0 0-.1-.07c-.04-.02-.06-.04-.06-.08s0-.07-.03-.1c-.24-.34-.31-.7-.21-1.1Z" fill="#5C4FD7"/><path d="M6.58 10.22h.1c0 .4.04.81.14 1.22.03.17-.02.43-.18.78 0 .02-.02.03-.04.02l-.06-.02v-.02c.07-.26.1-.45.08-.57-.1-.49-.2-.94-.04-1.41Z" fill="#01A3EE"/><path d="M13.54 10.42c.01.05.04.06.08.04a.5.5 0 0 1-.24.26.32.32 0 0 1-.1-.07c-.02-.03-.01-.06.03-.09.07.02.15-.03.23-.14Z" fill="#5A4937"/><path d="m10.32 11.12.03.1a.1.1 0 0 0 .08.06c.06.01.11.05.15.12.14.26.27.54.4.84.02-.01.07 0 .13.07.02.01.03.03 0 .06l-.04.02c-.07.04-.1.1-.07.19-.02.25-.08.5-.17.73-.02.04-.04.04-.07 0a4.34 4.34 0 0 1-.57-1.88c.05-.05.1-.16.13-.3ZM11.29 13.51a.25.25 0 0 1-.25-.13l.13-.74c-.04-.02-.04-.05-.02-.07.03-.02.05-.02.08 0 .24.29.08.63.06.94Z" fill="#451DA9"/><path d="M11.04 13.38c.06.1.14.14.25.13.04 0 .05 0 .04.02-.04.22-.13.37-.28.45-.05.02-.07.01-.07-.04l-.02-.45a.4.4 0 0 0 .08-.11Z" fill="#271345"/><path d="m10.66 5.32-1.02-.4a2.5 2.5 0 0 1-.68-.4.13.13 0 0 1-.05-.1l.01-.03c.02-.02.04-.03.06-.01.24.14.53.26.86.35.21.06.49.26.82.6Z" fill="#DB2E9E"/><path d="M10.66 5.32a1.6 1.6 0 0 1 .6.96l-.01.03-.03.01h-.03a.9.9 0 0 1-.4-.26 12.17 12.17 0 0 0-1.15-1.14l1.02.4Z" fill="#771492"/><path d="M12.87 11.48a.98.98 0 0 1-.16.4c-.07.11-.13.1-.18-.03a.5.5 0 0 1-.01-.05c-.02-.07-.05-.08-.09 0l-.01.03c-.07.12-.11.11-.15-.03a.81.81 0 0 0-.28-.44 1.1 1.1 0 0 0-.67-.28 1.95 1.95 0 0 1-.38-.6c-.02-.06-.01-.07.05-.03.46.34.97.6 1.55.8.05.02.07 0 .05-.05v-.01c.01-.02.03-.02.05 0 .09.07.16.17.23.3ZM13.12 11.3c-.02-.11-.05-.17-.12-.17.01-.09 0-.15-.03-.2a.1.1 0 0 0-.1-.03c-.24.04-.48.04-.7-.02-.02 0-.03-.02-.03-.05a.04.04 0 0 1 .02-.03.04.04 0 0 1 .03 0 2.22 2.22 0 0 0 .93-.1.04.04 0 0 1 .03.03v.02l-.03.55Z" fill="#D38F2F"/><path d="m12.87 11.48.13-.35c.07 0 .1.06.12.17-.04.28-.15.51-.33.7a.17.17 0 0 1-.12.06.69.69 0 0 1-.54-.17c-.12-.11-.4-.38-.8-.81.22 0 .44.1.66.28.14.12.24.27.28.44.04.14.08.15.14.03l.02-.04c.04-.06.07-.06.09.01l.01.05c.05.13.1.14.18.02a.98.98 0 0 0 .16-.39Z" fill="#F5C24C"/><path d="M11.3 11.97c.02-.17 0-.34-.06-.5-.08-.2-.03-.23.13-.08.56.52.66 1.16.3 1.92a.08.08 0 0 1-.08.05h-.03l-.02-.02a.05.05 0 0 1 0-.05.35.35 0 0 0 0-.19 9.02 9.02 0 0 0-.21-.81.8.8 0 0 1-.03-.32Z" fill="#451DA9"/><path d="M8.5 7.7c.02-.04-.02-.06-.12-.06a.12.12 0 0 0-.1.06l-.15.22a.4.4 0 0 1-.27.02c.24-.52.44-.87.58-1.04.21-.25.85-.76 1.22-.6.06.02.06.04 0 .06-.56.13-.92.85-1.16 1.33Z" fill="#B21897"/><path d="m8.5 7.7-.63 1.95a.47.47 0 0 1-.07-.27l.05-.5c.02-.17.05-.34.1-.48l.18-.48.15-.22a.12.12 0 0 1 .1-.06c.1 0 .14.02.12.05Z" fill="#F497C1"/><path d="M9.05 9.95a.4.4 0 0 1-.05.2c-.03.04-.06.04-.09 0a.5.5 0 0 1-.09-.32L8.6 9.2c-.1-.26-.14-.48-.11-.66.04-.27.11-.54.21-.82.04-.1.07-.1.08.01l.28 2.22Z" fill="#5C4FD7"/><path d="M8.13 7.92a7.7 7.7 0 0 0-.18.48c-.05.14-.08.3-.1.49l-.05.49c-.09.27-.13.53-.11.79l-.23.42c-.06.1-.08.09-.09-.02 0-.63.06-1.26.21-1.9.06-.26.15-.5.28-.73a.4.4 0 0 0 .27-.02Z" fill="#8C45DE"/><path d="M6.89 10.75c-.08-.4-.07-.8.03-1.19.05-.23.17-.44.34-.63.04-.05.06-.04.05.02a13.15 13.15 0 0 0 .01 3.3h-.06a.1.1 0 0 1-.04-.04 2.5 2.5 0 0 1-.21-.73l-.12-.73ZM8.6 10.3l-.12-.13a.11.11 0 0 0-.1-.03.11.11 0 0 0-.06.03 6.12 6.12 0 0 0-.11 1.24c0 .2.13.33.13.54 0 .23.06.33.19.3.12.3.15.58.07.85-.04.16-.08.16-.1 0-.05-.25-.08-.45-.2-.66-.36-.56-.35-1.16-.36-1.8 0-.26.02-.51.08-.76a7.04 7.04 0 0 1 .24-.74.06.06 0 0 1 .06 0c.01 0 .02 0 .03.02.24.34.33.72.26 1.15Z" fill="#451DA9"/><path d="M7.8 9.38c0 .11.03.2.07.27l-.18.52c-.02-.26.02-.52.11-.8Z" fill="#9A9A9A"/><path d="M8.82 9.83c0 .12.03.23.1.32.02.04.05.04.08 0a.4.4 0 0 0 .05-.2.26.26 0 0 0 0 .14c0 .02.01.03.03.04h.04l.03-.04.03-.1c.03-.07.06-.07.1-.02.44.6.69 1.21.75 1.86.02.24 0 .47-.1.7.04-.14.06-.28.06-.41 0-.26-.18-.4-.22-.64 0-.04-.03-.07-.07-.07-.03 0-.06 0-.09.02a.08.08 0 0 0-.03.07c.01.24.11.43.12.66 0 .15.04.3.11.42 0 .02.02.03.03.04h.05l-.06.58c-.01.08-.03.08-.07 0l-.59-1.38c-.11-.27-.21-.7-.14-1.02a.32.32 0 0 0-.02-.21c-.04-.09-.07-.08-.09.01 0 .05-.02.09-.05.12-.05.05-.08.04-.07-.03l.02-.86Z" fill="#451DA9"/><path d="M8.6 10.3c.03.4.07.73.02 1.13l-.1.81c-.12.04-.18-.06-.18-.29 0-.21-.13-.34-.13-.54a6.12 6.12 0 0 1 .1-1.24.11.11 0 0 1 .12-.03c.02 0 .04.02.05.03l.13.14ZM7.61 11.58c0 .59.04 1.06.1 1.06.05 0 .1-.47.1-1.06 0-.58-.05-1.06-.1-1.06s-.1.48-.1 1.06Z" fill="#772ED9"/><path d="M6.4 11.7c.04.22.01.38-.1.49-.1.1-.15.08-.15-.06 0-.19 0-.38.04-.57a.34.34 0 0 1 .09-.18l.02-.02h.03l.02.01.02.02c.03.1.01.22.03.32Z" fill="#451DA9"/><path d="M9.94 12.53a.27.27 0 0 1-.05.08.06.06 0 0 1-.05 0c-.01 0-.02 0-.03-.03-.07-.13-.1-.27-.1-.42-.02-.23-.12-.42-.13-.66 0-.03 0-.05.03-.07a.11.11 0 0 1 .09-.02c.04 0 .06.03.07.07.04.23.22.38.22.64 0 .13-.02.27-.05.41Z" fill="#5C4FD7"/><path d="M9.35 13.04c0 .05-.01.1-.04.13l-.04.07c-.03.04-.05.04-.07-.01a2.62 2.62 0 0 1-.16-.99c.01-.13.04-.14.1-.01.1.24.18.5.2.8ZM10.23 12.75c.13.23.13.42 0 .59-.03.04-.06.04-.07-.02-.03-.19-.02-.37.01-.56.01-.05.03-.05.06 0Z" fill="#451DA9"/><path d="M10.65 9c-.23-.07-.33-.24-.3-.53l.02-.04a.1.1 0 0 1 .13 0c.06.05.1.11.14.18 0 .03.03.05.05.06.03.02.06.02.08.02.17-.01.32.05.46.18l.01.04c-.04.14-.12.2-.25.18a.65.65 0 0 1-.16-.03 2.02 2.02 0 0 0-.18-.06ZM10.9 7.5a.46.46 0 0 1-.12-.08c-.05-.05-.04-.08.01-.1a.16.16 0 0 1 .1-.03c.05.01.09.04.1.1 0 .03 0 .05-.02.08l-.03.02h-.04Z" fill="#F5C24C"/></svg>