<!-- by TradingView --><svg width="18" height="18" viewBox="0 0 18 18" xmlns="http://www.w3.org/2000/svg"><path fill="#F0F3FA" d="M0 0h18v18H0z"/><circle cx="9" cy="9" r="6" fill="#030202"/><path d="M12.85 7.17c-.01.15-.02.3-.07.45-.06.19-.1.38-.14.56 0 .03-.02.06-.05.07-.17.09-.34.16-.5.21-.27.09-.48.37-.64.57-.04.05-.06.05-.06-.02V7.73c.01-.52.86-.11.88-.83.01-.4-.26-.62-.64-.65-.04 0-.06-.03-.06-.07-.01-.1 0-.2.03-.3a.09.09 0 0 0-.05-.11l-.04-.01h-.46c-.13-.03-.18.03-.17.15l.02.21c0 .04-.03.08-.07.07h-.76c-.35 0-.53.26-.6.6-.11.46-.26.89-.3 1.37-.03.21-.07.42-.14.63-.03.08-.04.08-.05 0-.05-.49-.22-.92-.28-1.4-.03-.26-.1-.5-.18-.76-.1-.27-.32-.34-.58-.33H6.86c-.35-.02-.66-.15-1-.03a.07.07 0 0 1-.08-.03c-.17-.2-.28-.37-.56-.41-.08-.01-.11.02-.1.1l.1 1.27c.02.27.37.59.55.74.15.12.33.16.51.22l.07.05c.02.02.03.05.03.08a30.25 30.25 0 0 1-.03 1.87.14.14 0 0 1-.19.08A1.95 1.95 0 0 1 5.8 10c-.2-.16-.46-.11-.58.12-.15.27-.12.49.08.66.21.17.41.28.61.3.03 0 .05.02.06.05.06.2.1.41.39.31a.07.07 0 0 1 .08.03c.04.06.06.14.13.18.17.11.34.02.47-.11a.06.06 0 0 1 .06-.02c.25.07.59.16.6.47.04.46.04.97.02 1.55 0 .04-.02.05-.06.04-.32-.11-.58-.08-.8.1-.02.02-.04.02-.06 0-.37-.34-.76-.42-1.17-.24a.07.07 0 0 1-.08 0A5.62 5.62 0 0 1 9.58 3.37a5.62 5.62 0 0 1 3.02 9.93.12.12 0 0 1-.12.02.64.64 0 0 0-.52.04.08.08 0 0 1-.08 0c-.22-.14-.6-.12-.77.09-.02.02-.04.02-.06 0-.19-.22-.45-.27-.77-.16h-.02a.04.04 0 0 1-.04-.04 8.16 8.16 0 0 1 .14-1.57c.14-.14.3-.2.47-.2.03 0 .06-.02.08-.05l.1-.15a.11.11 0 0 1 .07-.05l.3-.1c.52-.16.83-.52.94-1.09a.1.1 0 0 1 .04-.06l.13-.1a.15.15 0 0 0 .06-.1l.05-.42c0-.03.02-.05.04-.07l.43-.41a.13.13 0 0 0 .04-.09l.03-.2v-.02l.02-.02.4-.3a.11.11 0 0 0 .04-.08l.01-.35c0-.04-.02-.07-.06-.07h-.05a.08.08 0 0 0-.08.07v.03c.04.19-.05.3-.25.34-.03.01-.05 0-.05-.04 0-.32-.03-.65-.09-1 0-.05-.03-.07-.08-.06l-.05.01c-.03 0-.05.02-.05.06Z" fill="#F2EAEA"/><path d="M10.6 7.05c-.08-.06-.14-.07-.2-.04a.48.48 0 0 0-.25.39c-.04.32-.1.64-.22.93-.26.68-.42 1.39-.6 2.07-.03.13-.08.25-.16.38a.09.09 0 0 1-.07.04.74.74 0 0 1-.35-.06.1.1 0 0 1-.06-.08c-.01-.24-.14-.43-.2-.67-.16-.58-.28-1.14-.37-1.68-.06-.36-.18-.68-.25-1.04-.06-.3-.53-.31-.5.05.04.9-.06 1.8 0 2.67.01.12.06.23.14.32.14.16.42.02.36.38-.01.05-.04.07-.09.08l-.48.01c-.13 0-.24-.1-.38-.13a1.07 1.07 0 0 1-.48-.25c-.02-.02-.02-.05 0-.06.1-.05.17-.13.17-.24.03-.82.04-1.6.02-2.34 0-.18-.06-.35-.17-.52a.13.13 0 0 0-.06-.05l-.36-.13c-.14-.05-.2-.15-.18-.3l.03-.2a.24.24 0 0 1 .28-.2c.61.12 1.26.1 1.89.09.1 0 .17.05.22.15.17.41.19.83.3 1.25.07.28.16.59.17.88a6.72 6.72 0 0 0 .04.35l.04.05c.14.1.25.06.32-.1.26-.53.24-1.13.4-1.68l.2-.73a.39.39 0 0 1 .38-.3l1.2.03c.35 0 .82.06.74.54-.03.2-.33.2-.47.23-.26.07-.4.27-.4.52-.01.66-.03 1.31.04 1.96.03.21.18.36.33.48.03.02.02.07 0 .09a6.7 6.7 0 0 1-1.5.53.06.06 0 0 1-.06-.05v-.1c0-.07.02-.1.08-.1.23-.01.52-.13.54-.4.02-.24.03-.46.02-.66-.01-.26.04-.51.03-.77a75.68 75.68 0 0 1-.05-1.54.15.15 0 0 0-.04-.05Z" fill="#DC8A7F"/><path d="M7.65 7.42c.2.82.34 1.65.5 2.48.04.23.12.49.24.77.02.03 0 .05-.02.07a.13.13 0 0 1-.05.02.1.1 0 0 1-.11-.07c-.07-.22-.07-.46-.36-.5-.12-.03-.23-.1-.24-.23-.02-.39-.06-.78-.02-1.16a8.57 8.57 0 0 0 .03-1.4c.02 0 .02 0 .03.02ZM10.35 7.94c.01-.04.02-.04.02 0a40.8 40.8 0 0 0-.08 2.18.07.07 0 0 1-.04.03c-.16.02-.35.03-.46.16-.08.09-.06.23-.05.34 0 .12-.11.17-.21.13a.05.05 0 0 1-.03-.07c.1-.15.15-.3.17-.45.06-.32.17-.62.25-.93.03-.16.08-.31.12-.46l.3-.93Z" fill="#F2EAEA"/><path d="M6.05 10.8a.09.09 0 0 1-.12.02l-.2-.16a1.28 1.28 0 0 1-.26-.25.34.34 0 0 1-.05-.12c0-.03 0-.05.02-.07v-.02c.04-.03.1-.04.2 0 .1.02.2.08.3.16l.22.16c.04.03.04.09.02.12l-.13.17Z" fill="#E59C74"/><path d="M11.56 10.56a.52.52 0 0 0 .2-.12c.07-.08.12-.2.21-.26.04-.02.05-.01.03.03-.06.11-.11.28-.22.34-.18.1-.34.2-.48.3a.46.46 0 0 1-.26.1c-.02 0-.05 0-.07-.03-.03-.03-.03-.07-.01-.1a.13.13 0 0 1 .07-.06c.18-.08.36-.15.53-.2Z" fill="#DC8A7F"/><path d="M6.28 10.94c-.05.13-.04.25.02.28.06.02.16-.05.21-.18.05-.12.05-.24-.02-.27-.06-.03-.16.05-.2.17Z" fill="#F2EAEA"/><path d="M10.67 10.81h-.03a.04.04 0 0 0-.03.05l.04.33c0 .02.02.03.04.03h.03c.02 0 .03-.02.03-.04l-.04-.34a.04.04 0 0 0-.04-.03Z" fill="#9A9A9A"/><path d="M6.63 11.32a.04.04 0 0 1-.03-.05l.03-.09a1.4 1.4 0 0 1 .1-.24.3.3 0 0 1 .04-.06l.04-.02.04.01.02.04a.3.3 0 0 1 0 .08v.12l-.04.13-.03.1-.05.02-.12-.04Z" fill="#F2EAEA"/><path d="M10.33 10.93c.03 0 .07.02.07.05l.01.07v.2c-.01.06-.04.1-.07.1l-.04.01c-.03 0-.06-.02-.1-.07a.57.57 0 0 1-.06-.2l-.01-.07c0-.03.02-.06.05-.06l.15-.03Z" fill="#EED8C9"/><path d="M7.5 11.28a1.9 1.9 0 0 0-.3-.06.07.07 0 0 1-.06-.05.1.1 0 0 1 0-.08.06.06 0 0 1 .06-.04 28 28 0 0 1 2.22-.02c.15 0 .3-.02.44-.04.03 0 .07.02.07.06v.14c.01.09-.06.16-.15.16-.2 0-.38.02-.54.07-.52.14-1.22.02-1.74-.14Z" fill="#E59C74"/><path d="m9.15 13.8-.07.2c-.07.14 0 .3.05.44a.04.04 0 0 1-.04.05l-.27.02c-.04 0-.07-.01-.07-.06a6.53 6.53 0 0 1-.05-.6c0-.16-.04-.17-.12-.04-.1.18-.15.37-.16.58 0 .06-.03.1-.1.09H8.3c-.07 0-.1-.04-.11-.1l-.09-.88c-.03-.37.02-.73 0-1.1 0-.22-.06-.44-.13-.65-.01-.05 0-.06.05-.05.19.03.38.04.57.02a.12.12 0 0 1 .13.1l.05.32c.03.15.07.16.12.01a4.11 4.11 0 0 0 .14-.42.13.13 0 0 1 .07-.04l.27-.05c.04-.01.08.02.08.06l.08.37c.03.1.07.1.1.01a.98.98 0 0 0 .08-.39.1.1 0 0 1 .05-.08.49.49 0 0 1 .24-.1c.04 0 .06.02.05.06 0 .1-.06.19-.05.3.01.26-.05.5-.06.77l.01 1.2c0 .13.04.25.1.37.05.08 0 .18-.08.2-.18.05-.38.08-.57.07-.03 0-.04-.02-.04-.04a1 1 0 0 0-.16-.65c-.02-.04-.04-.03-.05 0Z" fill="#5A534D"/><path d="M9.8 4c.36-.02.59.07.9.17.3.1.34.52 0 .62-.26.07-.6.08-.87.03-.2-.04-.4-.06-.6-.07a.3.3 0 0 1-.2-.08.18.18 0 0 1-.02-.24 1 1 0 0 1 .8-.43ZM10.83 5.5c-.24 0-.22-.18-.33-.34-.06-.08 0-.2.1-.23.17-.03.38-.04.62-.04.17 0 .31.1.38.26.1.2-.08.33-.25.34h-.52ZM4.5 8.7a.09.09 0 0 0 .1 0 .35.35 0 0 1 .26-.04c.06.01.08.05.07.1 0 .02 0 .03-.02.05a.09.09 0 0 1-.04.02.58.58 0 0 0-.3.21.08.08 0 0 1-.14-.02c-.04-.14-.12-.2-.25-.22-.04 0-.06-.02-.06-.06v-.05c0-.02 0-.04.02-.06a.08.08 0 0 1 .06-.02.5.5 0 0 1 .3.1ZM12.7 11.07c.2-.02.33-.1.51-.16a.1.1 0 0 1 .1.05c.05.07.01.14-.05.18-.1.04-.17.1-.22.18-.03.05-.07.06-.11.03a.66.66 0 0 0-.33-.1c-.04 0-.06-.03-.04-.07.02-.07.07-.1.14-.1ZM11.9 11.96c.1-.08.22-.1.36-.08a.1.1 0 0 1 .07.05c.02.03.01.06 0 .09a.1.1 0 0 1-.07.04.33.33 0 0 0-.26.21c-.08.2-.16.2-.26.01-.06-.1-.11-.26-.26-.27-.12-.02-.14-.07-.05-.16.12-.12.24-.11.35.03l.05.07a.05.05 0 0 0 .07.01ZM8.23 12.46l.01-.43c0-.07.1-.1.13-.04l.1.17v.04l-.04.36c0 .06-.08.08-.12.03l-.07-.08a.07.07 0 0 1-.01-.05ZM9.03 12.53c0 .22.06.39.12.38.07 0 .12-.17.11-.38 0-.2-.05-.38-.12-.38-.06 0-.11.17-.11.38ZM9.34 13.28c.02 0 .05.02.07.05a.2.2 0 0 1 .02.11v.1l-.01.06c0 .02-.02.04-.03.05a.11.11 0 0 1-.03.03.08.08 0 0 1-.04.01l-.02-.01c0-.05-.04-.4.04-.4Z" fill="#030202"/><path d="M10.66 4.43c.04.02.06.08.03.12a.2.2 0 0 1-.17.1c-.4 0-.78 0-1.15-.04-.23-.02-.25-.1-.06-.24.34-.24 1.01-.09 1.35.06Z" fill="#EED8C9"/></svg>