<!-- by TradingView --><svg width="18" height="18" viewBox="0 0 18 18" xmlns="http://www.w3.org/2000/svg"><path fill="url(#aoga4mepk)" d="M0 0h18v18H0z"/><path d="M5.74 7.05a.8.8 0 0 1 .75 0l5.05 2.87c.22.12.5.12.75 0l1.16-.76c.22-.13.55-.36.55-.62V6.46a.66.66 0 0 0-.36-.61L12.3 5.1a.8.8 0 0 0-.75 0l-1.2.74a.7.7 0 0 0-.34.6v1.28l-1-.65V6.1c0-.25.07-.48.3-.61l2.22-1.4a.8.8 0 0 1 .75 0l2.35 1.4c.25.13.38.36.38.61v2.82c0 .25-.13.48-.38.6l-2.33 1.4a.8.8 0 0 1-.75 0L6.49 8.1a.8.8 0 0 0-.75 0l-1.15.74c-.22.12-.59.36-.59.6v2.1c0 .25.14.48.39.6l1.35.77c.22.12.5.12.75 0l1.13-.76a.69.69 0 0 0 .38-.6v-1.28l1 .65v.98c0 .25-.04.48-.28.6l-2.25 1.4a.8.8 0 0 1-.75 0l-2.34-1.4a.72.72 0 0 1-.38-.6V9.08c0-.25.13-.48.38-.6l2.36-1.43Z" fill="#fff"/><defs><linearGradient id="aoga4mepk" x1="0" y1="0" x2="18" y2="18" gradientUnits="userSpaceOnUse"><stop stop-color="#8F34C2"/><stop offset="1" stop-color="#7442DB"/></linearGradient></defs></svg>