<!-- by TradingView --><svg width="18" height="18" viewBox="0 0 18 18" xmlns="http://www.w3.org/2000/svg"><path fill="url(#ao2vcplwl)" d="M0 0h18v18H0z"/><path d="m10.77 7.68-.46 1.38c-.52 1.46-1.09 1.92-1.31 1.92-.23 0-.8-.46-1.3-1.92-.1-.3-.22-.64-.3-.92l-.72-2.12A.39.39 0 0 1 6.81 6c.4 0 .79.65 1.3 1.52l.17.38c.2.45.48 1.09.72 1.1.24-.01.52-.65.72-1.1.07-.16.13-.3.18-.38.5-.87.88-1.52 1.3-1.52.04 0 .08 0 .12.02l-.55 1.66Zm.15.5a10.5 10.5 0 0 1 .46 2.5c.03.19.19.32.37.32h1.1c.1 0 .16-.08.15-.17-.22-1.45-.74-3.9-1.42-4.63l-.66 1.98ZM5 10.83c.22-1.45.74-3.92 1.42-4.63l.67 1.97a10.55 10.55 0 0 0-.47 2.52.37.37 0 0 1-.37.31h-1.1a.15.15 0 0 1-.15-.17Z" fill="#fff"/><path fill-rule="evenodd" d="M9 15A6 6 0 1 0 9 3a6 6 0 0 0 0 12Zm0-.35a5.65 5.65 0 1 0 0-11.3 5.65 5.65 0 0 0 0 11.3Z" fill="#fff"/><defs><linearGradient id="ao2vcplwl" x1="3.39" y1="2.32" x2="15.11" y2="15.9" gradientUnits="userSpaceOnUse"><stop offset=".03" stop-color="#D3606C"/><stop offset=".69" stop-color="#5B7CFD"/></linearGradient></defs></svg>