<!-- by TradingView --><svg width="18" height="18" viewBox="0 0 18 18" xmlns="http://www.w3.org/2000/svg"><path fill="url(#adm13edxg)" d="M0 0h18v18H0z"/><path d="M9.57 9.97c.13.18.26.36.41.53.28.31.6.56 1 .69.22.06.44.1.67.12.02 0 .03 0 .04.02.12.24.19.47.16.73l-.01.06s-.02.02-.02 0l-.15-.14c-.2-.14-.4-.23-.64-.25a.73.73 0 0 0-.7.48c-.1.25-.1.5-.03.76l.01.03v.02a.98.98 0 0 1-.26-.13c-.14-.1-.26-.24-.35-.38-.02-.02 0-.04 0-.06.08-.17.14-.34.2-.52a2 2 0 0 0 0-1.08c-.08-.28-.2-.54-.32-.81-.01-.04-.03-.06-.01-.07-.03-.01-.02-.01 0 0Z" fill="#30FFC0"/><path d="M9.02 13.28h-.04c-.12-.34-.29-.65-.43-.96-.1-.21-.18-.42-.2-.65 0-.01 0-.03.02-.01.41.18.85.18 1.26 0h.03c-.03.18-.08.33-.13.48-.1.28-.25.54-.38.81-.05.1-.1.2-.13.33ZM8.93 9.42c.02-.02.04-.02.04 0l.06.13c.12.3.26.59.39.89l.1.27c.02.03.02.04-.02.06-.36.13-.72.13-1.08 0-.03-.02-.04-.03-.03-.06.11-.33.27-.63.39-.94l.15-.35ZM12 11.33c0-.01 0-.01 0 0 .24 0 .46.03.69.07.02 0 .02.02.02.04.05.3.04.63-.02.94-.08.38-.24.71-.5 1-.4.44-.9.62-1.49.6a2.4 2.4 0 0 1-1.42-.56c-.03-.03-.03-.04-.03-.07.07-.2.16-.4.27-.6 0-.02 0-.02.02 0 .48.6 1.3.77 1.93.38.58-.35.82-1.07.54-1.8Z" fill="#30FFC0"/><path d="m8.43 9.98-.26.63c-.13.39-.2.77-.1 1.19.05.22.14.44.23.65.02.01.02.02 0 .05-.14.22-.31.39-.55.5l-.06.02-.01-.02c0-.07.04-.14.04-.2a1.1 1.1 0 0 0-.1-.68.69.69 0 0 0-.78-.36c-.26.04-.48.17-.66.35l-.03.03h-.01a.7.7 0 0 1-.02-.29c.02-.18.08-.34.16-.5.01-.02.04-.02.05-.02.18-.01.37-.04.55-.09.37-.09.68-.28.94-.54.2-.21.38-.44.56-.68l.05-.04c0-.02.02 0 0 0Z" fill="#30FFC0"/><path d="M5.28 11.16c-.02 0-.03 0-.02-.02.24-.27.42-.57.63-.86.13-.18.27-.36.46-.5 0-.02.02 0 .02.01.05.45.26.82.64 1.09v.02c-.16.07-.31.1-.47.12-.3.04-.6.05-.9.1-.13 0-.25.03-.36.04ZM8.63 9.2c.02 0 .04.02.02.03a.35.35 0 0 1-.09.1l-.54.75-.17.2c-.03.03-.04.03-.07 0a1.34 1.34 0 0 1-.5-.88c0-.04 0-.04.03-.05.31-.06.64-.1.97-.13l.35-.03ZM8.47 12.77h.03c.1.2.2.4.26.61.01.03-.01.04-.03.05-.25.2-.52.35-.83.46-.37.11-.75.15-1.12.06-.58-.13-1-.47-1.27-.98a2.32 2.32 0 0 1-.22-1.5c0-.03.01-.05.04-.05a5.58 5.58 0 0 1 .66-.06c-.28.72-.04 1.5.63 1.85.61.31 1.36.17 1.85-.44ZM8.43 8.03c-.13-.18-.26-.36-.41-.53a2.21 2.21 0 0 0-1-.69 3.9 3.9 0 0 0-.67-.12c-.02 0-.03 0-.04-.02a1.22 1.22 0 0 1-.15-.78h.02l.15.14c.2.15.4.24.64.25.31.01.59-.18.7-.48.1-.25.1-.5.03-.75L7.7 5V5c.09.02.18.07.26.13.14.1.26.23.35.37.02.03 0 .04 0 .07-.08.16-.14.33-.2.51a2 2 0 0 0 0 1.08c.08.29.2.54.32.82l.01.05c.02.01 0 .01 0 0Z" fill="#30FFC0"/><path d="M8.97 4.72H9c.11.34.28.65.43.96.09.21.18.42.2.65 0 .01 0 .03-.02.01a1.54 1.54 0 0 0-1.27 0h-.02c.02-.18.08-.33.13-.48.1-.28.25-.54.38-.81.05-.1.09-.2.13-.33ZM9 8.6h-.04l-.06-.14-.4-.9-.1-.28c-.02-.02-.02-.04.03-.05.36-.14.72-.14 1.08 0 .03.01.05.03.03.05-.11.34-.26.64-.39.96A2.8 2.8 0 0 0 9 8.6ZM5.98 6.67l-.01.01a5.82 5.82 0 0 1-.67-.08c-.02 0-.02-.02-.02-.04-.06-.3-.04-.63.02-.94.08-.38.24-.71.5-1 .4-.44.9-.62 1.48-.6.54.03 1 .22 1.43.56.02.03.04.04.02.07-.06.2-.15.4-.26.6 0 .02-.01.02-.02 0-.49-.6-1.3-.77-1.94-.38-.57.35-.82 1.07-.53 1.8ZM9.55 8.02l.27-.63c.13-.39.2-.77.1-1.19a3.85 3.85 0 0 0-.23-.65c-.02-.01-.02-.02 0-.05.14-.22.3-.39.54-.5.02 0 .04 0 .07-.02l.01.02c-.01.07-.04.14-.04.2-.02.24-.01.47.1.68.15.28.45.42.78.36.26-.04.48-.17.66-.35l.03-.03h.01c.03.1.03.2.01.29 0 .18-.07.34-.15.5-.02.02-.04.02-.06.02-.18.01-.36.04-.54.09-.37.09-.68.28-.94.54-.21.21-.38.44-.56.68-.03.02-.03.04-.06.04 0 .02 0 0 0 0Z" fill="#30FFC0"/><path d="M12.71 6.84c.01 0 .03 0 .01.02-.23.27-.41.57-.62.86a2.4 2.4 0 0 1-.46.5c-.01.02-.02 0-.02-.01a1.5 1.5 0 0 0-.64-1.09c-.02-.01-.02-.02 0-.02.15-.07.3-.1.47-.12.3-.04.6-.05.9-.1.13 0 .24-.02.36-.04ZM9.36 8.8c-.03 0-.04-.02-.03-.03a.35.35 0 0 1 .1-.1l.54-.75.17-.2c.03-.03.04-.03.07 0 .28.23.45.52.5.88 0 .04 0 .04-.03.05-.32.06-.64.1-.97.13l-.35.03ZM9.52 5.23h-.03c-.1-.2-.2-.4-.26-.61-.01-.03.01-.04.02-.05.25-.2.53-.35.84-.46.36-.11.74-.15 1.12-.06.58.13 1 .47 1.27.98.24.48.31.99.22 1.5 0 .03-.01.05-.04.05-.22.04-.43.06-.65.07h-.02c.3-.73.04-1.51-.62-1.86a1.49 1.49 0 0 0-1.85.44Z" fill="#30FFC0"/><path d="M10.13 8.99c.22-.03.44-.05.68-.1.4-.07.78-.21 1.08-.5.17-.15.31-.34.44-.53.02-.01.02-.03.04-.03a1.24 1.24 0 0 1 .76.28l-.21.07c-.2.1-.4.24-.52.43a.7.7 0 0 0 .06.84c.17.21.4.33.64.4l.04.02.01.01a.8.8 0 0 1-.24.16c-.16.07-.34.1-.51.11-.03 0-.04-.01-.05-.04a2.8 2.8 0 0 0-.36-.42 1.95 1.95 0 0 0-.94-.53A4.97 4.97 0 0 0 10.2 9h-.05C10.12 9 10.12 9 10.13 9Z" fill="#30FFC0"/><path d="M12.75 11.11c.01.02 0 .03-.01.03-.35-.07-.7-.07-1.06-.1a2.43 2.43 0 0 1-.68-.15v-.02c.38-.28.59-.64.63-1.1 0 0 .01-.02.02 0 .14.1.25.21.34.34.19.24.36.5.53.73.07.1.14.18.23.27ZM9.35 9.22c-.02-.01 0-.04.02-.04l.15.01.9.1.28.05c.03 0 .04.01.04.05-.05.36-.22.65-.5.88-.03.03-.05.01-.07-.01-.21-.25-.4-.5-.59-.77l-.23-.27ZM12.54 7.56l-.01-.02c.13-.19.26-.37.4-.54.03-.02.04 0 .06 0 .3.12.57.28.8.5.3.26.51.55.62.93.18.56.09 1.09-.24 1.58-.28.44-.7.75-1.2.95-.02.01-.04.01-.05-.02a4 4 0 0 1-.4-.53l.02-.01c.78-.12 1.33-.73 1.3-1.46-.02-.68-.52-1.26-1.3-1.38ZM7.87 9c-.22.03-.44.05-.68.1-.4.07-.78.21-1.08.5-.17.15-.31.33-.44.53l-.04.02a1.24 1.24 0 0 1-.76-.27v-.01l.21-.07c.22-.09.4-.22.53-.42a.7.7 0 0 0-.06-.85c-.17-.2-.4-.32-.64-.4l-.04-.01-.01-.01a.8.8 0 0 1 .25-.16c.15-.08.34-.1.5-.12.03 0 .04.02.06.04.1.16.22.3.35.43.26.27.59.44.94.53.29.08.57.12.86.14h.05V9Z" fill="#30FFC0"/><path d="M5.26 6.87c-.01 0 0-.02.02-.02.35.06.7.06 1.05.1.24.03.46.05.68.15v.02c-.38.27-.59.64-.63 1.09 0 .01 0 .03-.02.01-.13-.1-.25-.22-.34-.35-.18-.23-.35-.49-.52-.72-.1-.08-.16-.17-.24-.28ZM8.65 8.78c.02.01 0 .04-.02.04l-.15-.01-.9-.1-.28-.05c-.03 0-.04-.01-.04-.05.05-.36.22-.65.5-.88.03-.03.05-.01.07.01.21.25.4.5.59.77.1.08.17.17.23.27ZM5.46 10.43l.01.02-.4.53c-.03.03-.04.02-.06 0-.3-.1-.57-.27-.8-.49-.3-.26-.51-.56-.62-.93-.18-.56-.09-1.1.24-1.58.28-.44.7-.76 1.2-.95.02-.01.04-.01.05.01a4 4 0 0 1 .4.53c0 .02 0 .02-.02.02-.78.11-1.33.72-1.3 1.46.02.69.53 1.26 1.3 1.38Z" fill="#30FFC0"/><defs><linearGradient id="adm13edxg" x1="3.35" y1="3.12" x2="21.9" y2="24.43" gradientUnits="userSpaceOnUse"><stop stop-color="#1A1E21"/><stop offset="1" stop-color="#06060A"/></linearGradient></defs></svg>