<!-- by TradingView --><svg width="18" height="18" xmlns="http://www.w3.org/2000/svg"><path fill="#113600" d="M0 0h18v18H0z"/><path d="M10.956 4.001H6.485a.687.687 0 00-.441.177l-.611.794L8.794 8.05l3.248-3.077c-.15-.185-.48-.6-.604-.776-.126-.176-.374-.203-.482-.195zM3.209 7.654l.916-1.042v5.82c-.34-1.196-1.037-3.679-1.108-4.047a.834.834 0 01.192-.73zM14.175 7.654l-.816-1.042v5.82c.303-1.196.924-3.679.987-4.047.063-.368-.088-.64-.17-.73zM8.451 14.934l-2.4-1.222v-2.156l2.03-.253 2.052-.68 1.313 3.089c-.707.357-2.183 1.102-2.434 1.222a.62.62 0 01-.561 0z" fill="#4B7C4C"/><path d="M5.323 4.786h-.85c-.267 0-.346.174-.348.262.002 2.689.004 8.136 0 8.41-.004.275.204.36.304.363h2.042c.246 0 .277-.245.279-.362v-1.835c.795-.166 1.248-.1 1.736-.1.39 0 .33.466.25.7-.122.387-.412 1.185-.585 1.275-.216.113-.397.27-.474.516a.668.668 0 00.37.78c.348.166.766-.044.906-.361a.738.738 0 00-.037-.623c.11-.285.38-.924.59-1.196.263-.34.336-.442.598-.544.21-.081.6.25.77.427v1.001c0 .198.16.3.24.322h2.003c.305-.014.38-.224.38-.322v-4.64c.536-.244 1.586-1.03 1.498-2.216-.088-1.185-1.036-1.344-1.498-1.276v-.266a.374.374 0 00-.28-.315h-.838c-.121 0-.292.132-.363.198L8.835 7.932c-.97-.876-2.953-2.679-3.13-2.884-.178-.206-.328-.26-.382-.262z" fill="#1D6834"/><path d="M6.671 10.717V9.63l1.048.958-1.048.13z" fill="#4B7C4C"/><path d="M11.445 8.787l2.04-2.302c.002-.17.005-.44.006-.699.111-.114.363-.092.475-.067.234.067.7.372.7 1.049 0 .845-.33 1.266-1.25 1.782-.736.413-1.79 1.211-2.226 1.559-.14.101-.431.41-.473.83-.053.524.896 1.46.896 1.422 0-.037.247-.083.4 0 .152.084.22.239.152.455-.068.216-.341.273-.552.171-.168-.081-.182-.332-.168-.447-.824-.764-1.293-.832-1.424-.771-.124.017-.447.176-.755.669-.308.493-.58 1.182-.677 1.465a.379.379 0 01.095.392c-.06.2-.237.245-.385.24-.147-.005-.331-.12-.331-.381 0-.287.26-.362.393-.38.55-.81.707-1.639.717-1.952.026-.216-.124-.644-.932-.633a8.33 8.33 0 00-1.747.206c0 .14-.129.272-.308.272a.363.363 0 01-.375-.364c0-.169.114-.364.375-.364.165 0 .274.11.308.16.153-.004.664-.047 1.481-.16.818-.113 1.028-.34 1.03-.44.027-.077.013-.328-.246-.721-.259-.393-.769-.892-.992-1.093-.332.192-.566-.07-.575-.24-.01-.168.059-.425.391-.41.333.014.371.35.349.515.204.373.828 1.14 1.685 1.228.857.088 1.639-.624 1.923-.99z" fill="#61A761"/><path d="M5.283 5.179H4.5v8.25h1.875V11.88a.688.688 0 01-.37.087.683.683 0 01-.612-.626c-.057-.447.347-.716.564-.737a.922.922 0 01.418.071c-.004-.23-.01-.8 0-1.233.01-.433.324-.348.468-.25l1.31 1.19c.072.058.246.156.364.087.12-.07.05-.26 0-.346-.279-.48-.686-.963-.867-1.13-.257.07-.405.071-.646-.083-.181-.115-.42-.62-.088-.982.332-.363.71-.269.974-.055.2.162.248.463.24.613.445.725.912.976 1.588.956.54-.016 1.048-.404 1.235-.597l2.172-2.464V5.179h-.733c-1.046.96-3.178 2.921-3.35 3.075a.302.302 0 01-.418 0L5.283 5.18zM11.25 10.46c.22-.295 1.333-1.062 1.875-1.409v4.377H11.25v-.365a.746.746 0 00.398.281h.002c.074.014.438.083.718-.281.223-.29.083-.711-.139-.92-.177-.166-.46-.171-.58-.154l-.399-.483V10.46z" fill="#fff"/></svg>