<!-- by TradingView --><svg width="18" height="18" viewBox="0 0 18 18" xmlns="http://www.w3.org/2000/svg"><path fill="#FF6B6B" d="M0 0h18v18H0z"/><path d="M7.51 6.28c.58-.03.9.05 1.35.46.1.1.15.23.17.4v.07L9 7.27a.1.1 0 0 1-.05.03H8.9a3.68 3.68 0 0 0-1.35-.24c-.43 0-.5-.75-.04-.78ZM7.39 7.65h-.01v-.01c0-.1.07-.19.2-.25a.9.9 0 0 1 .44-.09h.03c.17.01.32.06.44.13.11.08.18.17.17.27a.01.01 0 0 1 0 .01l-1.27-.06Z"/><path fill-rule="evenodd" d="M11.97 10.43c.13.32.36.52.69.58.05-.1-.01-.18-.05-.26-.22-.59-.5-1.29-.24-1.9.01-.03.03-.03.06-.01.13.1.26.14.4.13.06 0 .1-.09.05-.14a2 2 0 0 1-.48-.85c-.05-.2-.06-.46-.07-.71-.02-.52-.04-1.06-.43-1.36-.24-.17-.38-.55-.47-.85-.56-1.76-2.22-2.38-3.8-1.9-1.3.4-2.46 2.17-2.55 3.62-.02.3.41.44.26.76l-.1.2c-.14.3-.26.55-.24.99.07.43.32.8.36 1.23.02.26.01.53-.02.8-.19 1.4.43 3 1.22 4.05.05.08.08.06.08-.03l.01-.46a.68.68 0 0 1 .03-.38c.01-.03.02-.03.04 0 .2.38.43.64.69.77.62.33 1.33.38 2.1.15.03-.03.03-.05.01-.06-.22-.15-.4-.37-.53-.66l-.1-.24c0-.03 0-.04.03-.03l.12.04c.3.1.6.2.9.05-.3-.38-.52-.8-.66-1.26-.1-.35 0-.71.21-.98.16-.2.61-1.06.84-1.08.09 0 .15.05.19.16A5.5 5.5 0 0 0 12 13.33c.31.2.8.33.96-.16.12-.35-.06-.72-.25-1l-.02-.02h-.03l-.02.01-.02.03c-.02.18-.17.63-.37.63-.6.01-.38-1.98-.32-2.38 0-.06.02-.07.04-.01Zm-1.1-4.6c.14-1.9-1.61-2.54-3-2.17-.28.07-.56.22-.86.46a.75.75 0 0 0-.17.27c0 .03 0 .05.03.06H7.29c.03 0 .04.02.05.05 0 .03-.01.06-.04.1a.9.9 0 0 1-.5.12c-.07 0-.2.15-.1.2h.56l.55.02c.03 0 .05.02.04.05 0 .03-.03.07-.06.11-.25.1-.58.15-.97.15-.07 0-.13.04-.15.14.06.08.2.11.4.1.41-.02.81-.05 1.22-.1.05 0 .25-.01.25.09a.5.5 0 0 1-.02.13l.02.03c.04.07 0 .13-.12.2-.4.2-1.07.2-1.51.15-.15-.01-.22.15-.3.27-.06.7.01 1.28-.3 1.93-.1.23-.12.45-.1.7.01.2.14.27.3.25.26-.02.55-.03.86-.02.02 0 .06-.03.1-.09a1.6 1.6 0 0 0-.35-.18c-.11-.03-.17-.13-.09-.25-.03-.05-.03-.14.04-.15a.98.98 0 0 1 1 .35c.24.27.38.61.45 1.02.06.34.14.66.22.99.03.14.09.5.3.35.53-.36.94-1.04 1.14-1.69a11 11 0 0 0 .24-.89c.1-.49-.47-.67-.44-1.08.03-.29.07-.57.14-.86.1-.4.44-.66.75-.82Zm-2.8 4.87c-.15.24-.35.32-.61.26-.07-.01-.15-.1-.23-.24-.07-.12-.14-.37-.28-.4a.47.47 0 0 0-.26.03c-.2.08-.1.51-.4.56-.09.01-.13-.16-.14-.24a.96.96 0 0 1 .07-.61.14.14 0 0 1 .06-.07c.37-.18.89-.15 1.32-.12.09 0 .16.04.22.11.2.21.28.45.25.72Z"/></svg>