<!-- by TradingView --><svg width="18" height="18" viewBox="0 0 18 18" xmlns="http://www.w3.org/2000/svg"><path fill="#073E7E" d="M0 0h18v18H0z"/><path d="m10.72 6.47-.06 2.13c0 .02 0 .03-.02.04l-1.31 1.59a.07.07 0 0 1-.08.02c-.03 0-.03-.04-.03-.08V9.5c0-.03.02-.18.05-.26l.13-.29 1.18-2.5a.07.07 0 0 1 .08-.04c.04.01.06.04.06.07Zm.1 2.48 1.72 2.34c.02.02.02.05 0 .08 0 .02-.03.02-.06.02H11l-1.64-.67a.07.07 0 0 1-.02-.11l1.38-1.67a.07.07 0 0 1 .06-.02c.02 0 .04 0 .05.03Zm.14-2.74c0-.04.03-.06.06-.07.03 0 .06 0 .08.03l1.5 2.7v.08a.07.07 0 0 1-.08.03l-1.56-.39a.07.07 0 0 1-.06-.07l.06-2.31Zm1.87 3.1.05.06.04.07.03.06v.07l-.11 1.63a.07.07 0 0 1-.13.03l-1.54-2.21a.07.07 0 0 1 .07-.11l1.49.36.1.04Zm.33.72c0-.03.03-.05.06-.06.02 0 .05 0 .07.03l.94 1.3c.01.02.01.04 0 .07-.01.02-.03.02-.06.02h-1.06a.07.07 0 0 1-.02-.06l.07-1.3Zm-2.93 1.33c0 .02-.03.03-.06.03H8.73c-.03 0-.05 0-.06-.03a.07.07 0 0 1 .01-.07l.38-.38a.07.07 0 0 1 .09-.01l1.04.38c.03.02.04.05.04.08Zm-2.01.03H6.46c-.03 0-.05 0-.06-.02a.07.07 0 0 1 0-.08l1.33-1.72a.07.07 0 0 1 .1 0l1.03 1.11c.03.03.03.07 0 .1l-.6.6c0 .02-.02.01-.04.01ZM6 11.35H6a.08.08 0 0 1-.06-.05l-.62-1.28a.22.22 0 0 1-.01-.07l.03-.06.06-.1a.48.48 0 0 1 .06-.07.98.98 0 0 1 .13-.1l1.45-.88a.07.07 0 0 1 .09.02l.45.52c.02.02.02.05 0 .07l-1.51 1.97a.08.08 0 0 1-.06.03Zm-.34.02c0 .02-.03.02-.05.02H4.04c-.03 0-.05 0-.07-.03a.07.07 0 0 1 .02-.08l1.05-1.06a.07.07 0 0 1 .12.02l.52 1.07v.06Zm.3-2.41 1-1.5a.07.07 0 0 1 .08-.02c.03.01.05.04.05.08l-.1.93c0 .02-.01.04-.03.05l-.91.56a.07.07 0 0 1-.04 0l-.05-.01a.07.07 0 0 1 0-.1Zm1.4-1.77a.07.07 0 0 1 .13-.03L8.78 8.9l.17.29c.03.08.03.17.03.28 0-.02 0 0 0 0l-.02.77c0 .03-.02.06-.04.07h-.03c-.02 0-.04 0-.05-.02l-.98-1.07-.6-.69a.07.07 0 0 1-.02-.05l.13-1.3Zm3.24-2.01L9.14 8.35a.1.1 0 0 1-.09.06.07.07 0 0 1-.06-.03L7.54 6.34a.26.26 0 0 0-.23-.12c-.08 0-.17.07-.22.14L4.9 9.63l-1.81 1.92c-.08.08-.1.2-.06.3.04.09.13.15.23.15h11.48c.08 0 .2-.05.25-.14.04-.08.01-.23-.05-.31l-1.61-2.44-2.21-3.96a.28.28 0 0 0-.27-.15c-.1 0-.19.1-.23.18Z" fill="#fff"/></svg>