<!-- by TradingView --><svg width="18" height="18" viewBox="0 0 18 18" xmlns="http://www.w3.org/2000/svg"><path fill="url(#ahonhcdbf)" d="M0 0h18v18H0z"/><path d="m9.52 5.71.25-1.65A5.05 5.05 0 0 0 9 4v3.38c.14 0 .28.01.42.05l.44-1.65a3.32 3.32 0 0 0-.34-.07ZM8.19 7.6l-.84-1.44-.3.18-1-1.37c.22-.16.44-.3.67-.41l.77 1.49c.15-.08.31-.15.48-.2l-.52-1.6a5 5 0 0 1 .76-.18l.27 1.68-.34.07.44 1.62c-.14.04-.27.1-.4.16Zm-3.65-.86 1.52.78c-.08.15-.15.31-.2.47l-1.62-.52c.08-.25.18-.5.3-.73Zm7.31.61-1.44.85c.07.12.12.25.16.39l1.62-.44.07.34 1.68-.27c-.04-.26-.1-.52-.19-.76l-1.59.52a3.33 3.33 0 0 0-.2-.49l1.5-.76a5.02 5.02 0 0 0-.42-.67l-1.37 1 .18.3Zm-1.31-3.1a5 5 0 0 1 .72.3l-.77 1.52a3.3 3.3 0 0 0-.48-.2l.53-1.62Zm.12 1.88L9.8 7.59c.12.07.24.16.34.26l2.38-2.4a5.05 5.05 0 0 0-.6-.5l-.98 1.35-.3-.18ZM7.59 8.19l-1.47-.85.19-.3-1.36-.97c.15-.22.33-.42.51-.6l2.39 2.38c-.1.1-.19.22-.26.34Zm-1.8-.05 1.64.44c-.04.14-.05.28-.05.42H4c0-.26.02-.52.06-.78l1.65.26.08-.34Zm6.15 2.35 1.52.78c.12-.24.22-.48.3-.73l-1.62-.52c-.05.16-.12.32-.2.47Zm-2.13-.08.84 1.44.3-.18 1 1.37c-.22.16-.44.3-.67.41l-.77-1.49c-.15.08-.31.15-.48.2l.52 1.6a5 5 0 0 1-.76.18l-.27-1.68.34-.07-.44-1.62c.14-.04.27-.1.4-.16Zm-3.66.25 1.44-.85a1.61 1.61 0 0 1-.16-.39l-1.61.44a3.29 3.29 0 0 1-.08-.34l-1.68.27a5 5 0 0 0 .19.77l1.59-.53c.05.17.12.33.2.49l-1.5.76c.13.23.27.46.42.67l1.37-1a3.3 3.3 0 0 1-.18-.3Zm1.31 3.1a5 5 0 0 1-.72-.3l.77-1.52c.15.08.31.15.48.2l-.53 1.62Zm-.12-1.88.85-1.47a1.63 1.63 0 0 1-.34-.26l-2.38 2.4c.19.18.39.35.6.5l.98-1.35.3.18Zm3.07-2.07 1.47.85-.19.3 1.36.97c-.15.22-.33.42-.51.6l-2.39-2.38c.1-.1.19-.22.26-.34Zm-1.83.76-.43 1.65.33.07-.25 1.65c.25.04.51.06.77.06v-3.38c-.14 0-.28-.01-.42-.05Zm1.99-1.15c.04-.14.05-.28.05-.42H14c0 .26-.02.52-.06.78l-1.65-.26-.08.34-1.64-.44Z" fill="#fff"/><defs><linearGradient id="ahonhcdbf" x1="3.35" y1="3.12" x2="21.9" y2="24.43" gradientUnits="userSpaceOnUse"><stop stop-color="#1A1E21"/><stop offset="1" stop-color="#06060A"/></linearGradient></defs></svg>