<!-- by TradingView --><svg width="18" height="18" viewBox="0 0 18 18" xmlns="http://www.w3.org/2000/svg"><path fill="#F0F3FA" d="M0 0h18v18H0z"/><path d="M7.62 12v-.21c.26-.02.38-.04.38-.37V8.45L6.44 12h-.33c-.37-1.2-.7-2.4-1.11-3.6v2.4c0 .48.04.97.6.97V12H4v-.23c.58-.03.69-.4.69-.93V8.87c0-.41-.3-.62-.69-.64V8h1.74l.75 2.67c.45-.83.9-1.75 1.3-2.67H9v.21c-.24.03-.26.05-.26.36v2.82c0 .3.03.33.26.35V12H7.62ZM13 10.94c-.37.7-.98 1.06-1.83 1.06C10.01 12 9 11.25 9 10.03 9 8.78 10.08 8 11.26 8c.4 0 .94.08 1.28.24l.2-.24H13v1.48h-.25c-.25-.71-.63-1.24-1.45-1.24-.7 0-1.46.59-1.46 1.7 0 .82.65 1.67 1.6 1.67.52 0 .97-.27 1.32-.82l.24.15Z" fill="#181B1E"/><path d="m12.88 5 .83.73 1.03-.4-.45 1 .71.85-1.1-.12-.6.94-.22-1.07L12 6.65l.96-.55-.08-1.1Z" fill="#38A632"/><path d="m10.82 4 .44.59.74-.13-.43.59.35.64-.71-.22-.53.53v-.72L10 4.95l.71-.23.1-.72Z" fill="#8AE385"/></svg>