<!-- by TradingView --><svg width="18" height="18" xmlns="http://www.w3.org/2000/svg"><path fill="#4990E2" d="M0 0h18v18H0z"/><path d="M13.65 7.148c0-.525.425-.935.935-.935.505 0 .915.41.915.9a.935.935 0 01-.935.93c-.72 0-.935.255-.935.935v.06a.92.92 0 01-.915.88h-.02c-.7.02-.915.27-.915.934v.075a.92.92 0 01-1.278.79.936.936 0 01-.577-.865c0-.47.37-.86.84-.92.02-.014.06-.014.1-.014.8 0 .93-.175.93-.9v-.02c0-.485.37-.875.84-.915h.08c.815 0 .935-.195.935-.935zm-4.64.935h.075a.945.945 0 01.86.9.925.925 0 01-.935.935.935.935 0 01-.935-.935c0-.665-.215-.92-.935-.92-.725 0-.935.255-.935.935v.06a.915.915 0 01-.92.86.935.935 0 01-.935-.935c0-.49.37-.88.84-.92h.075c.82 0 .94-.175.94-.915a.935.935 0 011.87 0c0 .74.115.935.935.935zm-4.64 2.77a.935.935 0 11-1.87 0 .935.935 0 011.87 0z" fill="#fff"/></svg>