<!-- by TradingView --><svg width="18" height="18" viewBox="0 0 18 18" xmlns="http://www.w3.org/2000/svg"><path fill="url(#ai2zbob1i)" d="M0 0h18v18H0z"/><path d="m7.44 10.51 1.5 3.07.69-2.33-2.19-.74ZM4.46 8.94l2.28.55.7-2.01-2.98 1.46Zm3.27.99 2.21.73c.07.02.17 0 .23-.03l3.2-1.57-2.08-.66a.38.38 0 0 0-.26.02c-1.02.5-2.29 1-3.3 1.5Zm2.9-2.13L9.09 4.7 7.56 9.22l3.07-1.43ZM3 9l1.72-.85L7.6 6.73a.36.36 0 0 0 .2-.22l1.14-3.36.05-.15.1.18 2.2 4.46c.04.08.13.14.21.16 1.11.39 2.23.76 3.34 1.14L15 9l-.25.13-4.3 2.12a.48.48 0 0 0-.28.3l-1.12 3.33L9 15l-.26-.52-2-4.07a.4.4 0 0 0-.25-.22L3.15 9.06 3 9Z" fill="#fff"/><defs><linearGradient id="ai2zbob1i" x1="3.35" y1="3.12" x2="21.9" y2="24.43" gradientUnits="userSpaceOnUse"><stop stop-color="#1A1E21"/><stop offset="1" stop-color="#06060A"/></linearGradient></defs></svg>