<!-- by TradingView --><svg width="18" height="18" viewBox="0 0 18 18" xmlns="http://www.w3.org/2000/svg"><path fill="#00EC97" d="M0 0h18v18H0z"/><path d="m12.01 4.51-2.08 3.1c-.15.21.13.47.33.29l1.6-1.79c.06-.04.14-.01.14.07v5.59c0 .07-.1.1-.14.05L6.09 4.38c-.2-.25-.5-.38-.81-.38C4.63 4 4 4.33 4 5.07v7.86a1.07 1.07 0 0 0 1.98.56l2.08-3.1c.15-.21-.13-.47-.33-.29l-1.6 1.78c-.05.04-.13 0-.13-.07V6.23c0-.07.1-.1.14-.05l5.76 7.44c.27.33.64.38 1.03.38.6 0 1.07-.48 1.07-1.07V5.07a1.07 1.07 0 0 0-1.99-.56Z"/></svg>