<!-- by TradingView --><svg width="18" height="18" viewBox="0 0 18 18" xmlns="http://www.w3.org/2000/svg"><path fill="url(#aomzwy5l5)" d="M0 0h18v18H0z"/><path d="M14.1 7.45c.12.06.2.15.27.26.07.16-.01.33-.11.47-.13.18-.3.34-.5.5a5.29 5.29 0 0 1-.77.48 17.73 17.73 0 0 0-.02-.5l-.33.18a18.78 18.78 0 0 1-3.58 1.25c-.67.19-1.37.34-2.1.47-.32.06-.63.1-.95.13a59.7 59.7 0 0 0-.5.05v.01l.25.44H5.2a3.67 3.67 0 0 1-1.2-.2.62.62 0 0 1-.3-.22.43.43 0 0 1-.03-.43c.05-.1.12-.2.22-.3a3.51 3.51 0 0 1 .77-.6l.35-.24a.05.05 0 0 0 .03-.05l-.01-.17a5.4 5.4 0 0 1 .16-1.09A3.71 3.71 0 0 1 6 6.45a3.86 3.86 0 0 1 1.55-1.07 4.08 4.08 0 0 1 3.57.3l.1.07a4.42 4.42 0 0 1 1.32 1.41c.02.03.06.03.09.04.23 0 .45.02.67.04.28.02.55.09.8.21Zm-.17.38v-.04a.26.26 0 0 0-.15-.2.97.97 0 0 0-.29-.1 4.61 4.61 0 0 0-.78-.03 12.22 12.22 0 0 1 .22.72v.04c.04.13.07.26.07.4a2.57 2.57 0 0 0 .8-.52.4.4 0 0 0 .13-.27ZM5.1 9.63c0-.07-.02-.12-.04-.12-.21.1-.41.23-.6.36l-.01.01c-.18.13-.58.42-.36.67l.13.1c.15.06.3.1.48.12a4.5 4.5 0 0 0 .78-.02 3.62 3.62 0 0 1-.38-1.12Z" fill="url(#bomzwy5l5)"/><path d="M12.97 9.6c.02-.1.03-.24.03-.39a9.6 9.6 0 0 1-1.1.55 30.84 30.84 0 0 1-2.24.78 21.29 21.29 0 0 1-3.36.66l-.53.04a4.12 4.12 0 0 0 4.03 1.58 4.15 4.15 0 0 0 1.9-.93 4 4 0 0 0 1.27-2.3Z" fill="url(#comzwy5l5)"/><path d="M13 9.17v.04a9.6 9.6 0 0 1-1.1.55 30.85 30.85 0 0 1-2.24.78 21.29 21.29 0 0 1-3.36.66c-.17 0-.35.02-.53.04l-.01-.05-.26-.44v-.01h.01c.1 0 .18 0 .26-.02.4-.05.8-.09 1.19-.16a24.5 24.5 0 0 0 6.03-1.88 18.14 18.14 0 0 1 .02.49Z" fill="#0CC5FE"/><defs><linearGradient id="aomzwy5l5" x1="3.35" y1="3.12" x2="21.9" y2="24.43" gradientUnits="userSpaceOnUse"><stop stop-color="#1A1E21"/><stop offset="1" stop-color="#06060A"/></linearGradient><linearGradient id="bomzwy5l5" x1="7.75" y1="5.61" x2="9.81" y2="12.37" gradientUnits="userSpaceOnUse"><stop stop-color="#B6F9FF"/><stop offset="1" stop-color="#95E2FF"/></linearGradient><linearGradient id="comzwy5l5" x1="7.75" y1="5.61" x2="9.81" y2="12.37" gradientUnits="userSpaceOnUse"><stop stop-color="#B6F9FF"/><stop offset="1" stop-color="#95E2FF"/></linearGradient></defs></svg>