<!-- by TradingView --><svg width="18" height="18" viewBox="0 0 18 18" xmlns="http://www.w3.org/2000/svg"><path fill="#181B1E" d="M0 0h18v18H0z"/><path d="M7.88 11.79A3.04 3.04 0 0 1 6.19 10c-.2.34-.23.9-.15 1.2 1 .4 1.27 1.16 1.27 1.77 0 .6-.26.94-.37 1.17 0 .45.82.86 1.26.86.44 0 .55-.11.8-.23-.53-.12-1-.44-1.38-.92.34-.87.25-1.66.25-2.06Z" fill="#A2CC3C"/><path d="M10.13 11.79A3.04 3.04 0 0 0 11.8 10c.2.34.23.9.15 1.2-1 .4-1.27 1.16-1.27 1.77 0 .6.26.94.37 1.17 0 .45-.82.86-1.26.86-.44 0-.55-.11-.8-.23.53-.12 1-.44 1.38-.92-.34-.87-.26-1.66-.26-2.06Z" fill="#A2CC3C"/><path d="M7 8.6c0-.21-.13-.36-.2-.41-.31 0-2.35-.34-2.35-2.07C4.45 4.4 5.88 4.08 6.21 4 5.49 3.95 4 4.61 4 6.4c0 1.78 1.68 2.53 2.19 2.75-.35 0-.48-.13-.75-.13-.53 0-.71.6-.73.91.07.02.25.07.44.07C6.32 10 7 8.86 7 8.6ZM11 8.6c0-.21.13-.36.2-.41.31 0 2.35-.34 2.35-2.07 0-1.72-1.43-2.04-1.76-2.12.72-.05 2.21.61 2.21 2.4 0 1.78-1.68 2.53-2.19 2.75.35 0 .48-.13.75-.13.53 0 .71.6.73.91-.07.02-.25.07-.44.07C11.68 10 11 8.86 11 8.6Z" fill="#8D298B"/><path d="M7 8c.62.2 1.44.56 2 1 .56-.44 1.38-.8 2-1-.82.07-1.67.28-2 .38A11.3 11.3 0 0 0 7 8Z" fill="#FEAF18"/><path fill-rule="evenodd" d="M7 8a2 2 0 1 0 0-4 2 2 0 0 0 0 4Zm0-.38a1.62 1.62 0 1 0 0-3.24 1.62 1.62 0 0 0 0 3.24Z" fill="#E94437"/><path fill-rule="evenodd" d="M11 8a2 2 0 1 1 0-4 2 2 0 0 1 0 4Zm0-.38a1.62 1.62 0 1 1 0-3.24 1.62 1.62 0 0 1 0 3.24Z" fill="#E94437"/><path d="M10 6.12 11 5l1 1.12L11 7l-1-.88Z" fill="#FAFAFA"/><path fill-rule="evenodd" d="M6.45 5h.23v.22H7V5h.23v.22h.06c.32 0 .59.18.59.4 0 .2-.27.38-.6.38h.12c.33 0 .59.17.59.39 0 .21-.26.39-.6.39h-.16V7H7v-.22h-.33V7h-.23v-.22H6v-.1h.34V5.32H6v-.09h.45V5Zm.23 1.69h.56c.25 0 .45-.14.45-.3 0-.16-.2-.3-.45-.3h-.56v.6Zm0-.78v-.6h.45c.25 0 .45.14.45.3 0 .16-.2.3-.45.3h-.45Z" fill="#FAFAFA"/></svg>