<!-- by TradingView --><svg width="18" height="18" viewBox="0 0 18 18" xmlns="http://www.w3.org/2000/svg"><path fill="#24397D" d="M0 0h18v18H0z"/><path d="M5.79 6.92c.9-.73 3.15-1.62 4.89.67-.94.74-3.23 1.65-4.9-.67ZM7.17 13.99c-.8-.85-1.77-2.95.62-4.64.8.88 1.8 3.03-.62 4.64ZM9.18 10.86c.09-1.13 1-3.26 3.94-2.82-.1 1.15-1.03 3.33-3.94 2.82ZM10.09 4c-.42.7-.78 2.29 1.13 3.1.4-.72.72-2.36-1.13-3.1ZM9.2 11.57c.22.77 1.14 2.14 3.11 1.46-.26-.78-1.24-2.17-3.11-1.46ZM4 9.97c.73.4 2.42.75 3.3-1.06-.78-.37-2.5-.7-3.3 1.06ZM7.38 4.28c-.05.56.25 1.64 1.82 1.57 0-.56-.35-1.65-1.82-1.57ZM11.54 11.12c.37.42 1.4 1 2.46-.1-.42-.4-1.49-.94-2.46.1ZM4.32 12.45c.58.05 1.74-.22 1.69-1.7-.6-.01-1.76.31-1.7 1.7Z" fill="#fff"/></svg>