<!-- by TradingView --><svg width="18" height="18" viewBox="0 0 18 18" xmlns="http://www.w3.org/2000/svg"><path fill="#F0F3FA" d="M0 0h18v18H0z"/><path d="M14 11.02V6.97a.44.44 0 0 0-.17-.35L9.25 3.09a.4.4 0 0 0-.33-.08.47.47 0 0 0-.19.1L4.18 6.6a.47.47 0 0 0-.18.37v4.05c0 .14.07.28.18.37l4.55 3.5a.4.4 0 0 0 .52.01l4.57-3.51a.44.44 0 0 0 .18-.38" fill="#050708"/><path d="M8.38 4.1c.02-.05.1-.1.2-.1h.9c.05.02.1.07.15.1v.57h-.29l-.03-.07v-.27H8.7v.18h-.32v-.4ZM10.56 5.09h.32l.62 1.04v.35h-.1l-.52-.9v1h-.32v-1.5ZM7.43 9h.31l.63.92v.32h-.1l-.53-.75v.84h-.3L7.42 9ZM6.43 5.33h.7v.34l-.75.66-.2-.2.5-.46h-.25v-.34ZM8.13 5.09l.43.6.44-.6v.39l-.44.6c-.14-.2-.3-.39-.43-.59v-.4ZM6.03 9.84l.47.6.47-.6v.39l-.47.6-.47-.59v-.4ZM11.19 11.67l.47.6.47-.6v.4l-.48.6-.46-.6v-.4ZM9.47 6.17h.31v1.2l-.1.13h-.73c-.04-.04-.08-.08-.1-.12v-.55h.3v.34h.32v-1ZM12.44 6.67h.62l.31 1h-.3L12.82 7h-.17l-.22.67h-.31l.3-1ZM6.34 7.83h.63l.31 1h-.31l-.23-.66h-.17l-.23.66h-.3l.3-1ZM9.93 11.33h.63l.31 1h-.31l-.23-.66h-.17l-.23.66h-.3l.3-1ZM8.69 14H9v.67h-.31V14M7.05 7.03c.21-.16.43-.3.65-.45h.42c-.2.16-.43.3-.64.45l.65.44h-.44c-.21-.15-.43-.28-.64-.44ZM4.31 7.33h1.25v.34L5 8l-.16-.2.23-.13H4.3v-.34ZM10.4 8.01c0-.08.08-.18.14-.18h.5v.34h-.32v.33h.94v.33h-1.12c-.07 0-.13-.09-.13-.17V8M4.31 10.18c0-.09.08-.18.13-.18h.5v.33h-.32v.34h.94V11H4.44c-.06 0-.13-.1-.13-.18v-.64M8.38 8.19h1.01c.14 0 .23.1.23.2v.67l-.13.13H9v-.34h.31v-.33h-.94v-.33ZM7.74 12.48h1.02c.13 0 .23.1.23.2v.67l-.13.13h-.5v-.33h.32v-.34h-.94v-.33ZM12.57 8.67h.96c.08.04.17.12.16.2V10h-.31V9h-.63v.33h-.31V8.8l.13-.12ZM9.76 9.67h.96c.08.04.17.12.15.21V11h-.3v-1h-.63v.33h-.31V9.8l.13-.12ZM5.25 8.67h.31v1h-.31v-1M6.18 11.95l.76-.62.2.23-.49.4h.78v.32H6.18v-.33ZM8.06 11.32l.77-.65.2.24-.5.41h.78v.35H8.06v-.35ZM11.81 10.49l.77-.66.2.25-.5.4h.78v.35h-1.25v-.34ZM10.48 12.5c.1-.08.4.1.4.1v.02s-.49.23-.72.38h.4v.33h-.94V13l.86-.5Z" fill="#fff"/></svg>