<!-- by TradingView --><svg width="18" height="18" fill="none" xmlns="http://www.w3.org/2000/svg"><path fill="url(#paint0_linear_1530)" d="M0 0h18v18H0z"/><path d="M13.026 13.026L4.974 4.974l8.052 8.052zm0-8.052l-8.052 8.052 8.052-8.052z" fill="#000"/><path fill-rule="evenodd" clip-rule="evenodd" d="M9.707 9l3.673 3.673-.707.707L9 9.707 5.327 13.38l-.707-.707L8.293 9 4.62 5.327l.707-.707L9 8.293l3.673-3.673.707.707L9.707 9z" fill="#FCD309"/><path d="M6.55 9l2.455-2.445L11.45 9l-2.445 2.445L6.55 9z" fill="#FCD309"/><path fill-rule="evenodd" clip-rule="evenodd" d="M9.006 5.848L12.157 9l-3.151 3.152L5.842 9l3.164-3.152zM7.259 9l1.745 1.739L10.743 9 9.004 7.261 7.26 9z" fill="url(#paint1_linear_1530)"/><defs><linearGradient id="paint0_linear_1530" x1="3.349" y1="3.122" x2="21.904" y2="24.434" gradientUnits="userSpaceOnUse"><stop stop-color="#1A1E21"/><stop offset="1" stop-color="#06060A"/></linearGradient><linearGradient id="paint1_linear_1530" x1="7.016" y1="6.942" x2="13.512" y2="14.417" gradientUnits="userSpaceOnUse"><stop stop-color="#1A1E21"/><stop offset="1" stop-color="#06060A"/></linearGradient></defs></svg>