<!-- by TradingView --><svg width="18" height="18" fill="none" xmlns="http://www.w3.org/2000/svg"><path fill="url(#paint0_linear_1530)" d="M0 0h18v18H0z"/><path d="M7.338 8.665L9.476 13l.142-.44-2.134-4.347-.146.452z" fill="url(#paint1_linear_1530)"/><path d="M7.856 7.068l2.137 4.335.142-.439-2.133-4.348-.146.452z" fill="url(#paint2_linear_1530)"/><path d="M8.376 5.462l2.137 4.335.142-.44L8.522 5.01l-.146.452z" fill="url(#paint3_linear_1530)"/><path fill-rule="evenodd" clip-rule="evenodd" d="M3.5 13h2.062c.11 0 .217-.04.307-.113a.632.632 0 00.198-.298L8.525 5H6.463c-.11 0-.217.04-.307.113a.632.632 0 00-.199.297L3.5 13zm5.976 0h2.06c.11 0 .218-.04.308-.113a.633.633 0 00.199-.298L14.5 5h-2.062c-.11 0-.216.04-.307.113a.631.631 0 00-.198.297L9.476 13z" fill="url(#paint4_linear_1530)"/><defs><linearGradient id="paint0_linear_1530" x1="3.349" y1="3.122" x2="21.904" y2="24.434" gradientUnits="userSpaceOnUse"><stop stop-color="#1A1E21"/><stop offset="1" stop-color="#06060A"/></linearGradient><linearGradient id="paint1_linear_1530" x1="9.995" y1="12.389" x2="6.476" y2="9.399" gradientUnits="userSpaceOnUse"><stop offset=".01" stop-color="#17EAD9"/><stop offset="1" stop-color="#6078EA"/></linearGradient><linearGradient id="paint2_linear_1530" x1="10.513" y1="10.792" x2="6.994" y2="7.802" gradientUnits="userSpaceOnUse"><stop offset=".01" stop-color="#17EAD9"/><stop offset="1" stop-color="#6078EA"/></linearGradient><linearGradient id="paint3_linear_1530" x1="11.033" y1="9.186" x2="7.514" y2="6.196" gradientUnits="userSpaceOnUse"><stop offset=".01" stop-color="#17EAD9"/><stop offset="1" stop-color="#6078EA"/></linearGradient><linearGradient id="paint4_linear_1530" x1="10.413" y1="5" x2="6.017" y2="11.807" gradientUnits="userSpaceOnUse"><stop stop-color="#40A9E2"/><stop offset="1" stop-color="#17EAD9"/></linearGradient></defs></svg>