<!-- by TradingView --><svg width="18" height="18" viewBox="0 0 18 18" xmlns="http://www.w3.org/2000/svg"><path fill="url(#ajwiwzeir)" d="M0 0h18v18H0z"/><path d="M5.28 8.81c0 .3-.24.53-.54.53a.53.53 0 0 1-.54-.53c0-.29.24-.53.54-.53.3 0 .54.24.54.53Zm8.55 0c0 .3-.25.53-.54.53a.53.53 0 0 1-.54-.53c0-.29.24-.53.54-.53.3 0 .54.24.54.53Zm-4.28 2.1c0 .3-.24.53-.54.53a.53.53 0 0 1-.53-.53.53.53 0 0 1 1.08 0ZM7.4 9.88c0 .29-.24.53-.54.53a.53.53 0 0 1-.53-.53.53.53 0 1 1 1.08 0Zm4.27 0a.53.53 0 0 1-1.08 0c0-.3.25-.54.55-.54.3 0 .53.24.53.54Zm-6.57.54a.36.36 0 0 1-.73 0c0-.2.17-.36.37-.36.2 0 .36.16.36.36Zm8.55 0a.36.36 0 0 1-.73 0c0-.2.17-.36.37-.36.2 0 .36.16.36.36Zm-4.27 2.13c0 .2-.16.36-.37.36a.36.36 0 0 1-.36-.36.36.36 0 0 1 .73 0Zm-2.15-1.06c0 .2-.17.35-.37.35a.36.36 0 0 1-.36-.35.36.36 0 0 1 .73 0Zm4.27 0c0 .2-.16.35-.36.35a.36.36 0 0 1-.37-.35c0-.2.17-.36.37-.36.2 0 .36.16.36.36Zm-6.57.2c0 .1-.08.18-.19.18a.19.19 0 0 1-.19-.18c0-.1.09-.19.2-.19.1 0 .18.08.18.19Zm8.55 0c0 .1-.09.18-.2.18a.19.19 0 0 1-.18-.18c0-.1.08-.19.19-.19.1 0 .19.08.19.19ZM9.2 13.8c0 .1-.08.19-.19.19a.19.19 0 0 1-.18-.19c0-.1.08-.18.18-.18.1 0 .2.08.2.18Zm-2.15-1.06c0 .1-.08.19-.19.19a.19.19 0 0 1-.19-.19c0-.1.09-.19.2-.19.1 0 .18.09.18.19Zm4.28 0c0 .1-.09.19-.2.19a.19.19 0 0 1-.18-.19c0-.1.08-.19.19-.19.1 0 .19.09.19.19Zm-1.6-8.03c0 .4-.33.72-.73.72a.72.72 0 0 1-.73-.72c0-.4.33-.72.73-.72.4 0 .73.32.73.72Zm0 2.12c0 .4-.33.72-.73.72a.72.72 0 0 1-.73-.72c0-.4.33-.71.73-.71.4 0 .73.32.73.71Zm0 2.1c0 .4-.33.72-.73.72a.72.72 0 0 1-.73-.72c0-.4.33-.72.73-.72.4 0 .73.33.73.72ZM14 6.84c0 .4-.33.72-.73.72a.72.72 0 0 1-.72-.72c0-.4.32-.71.72-.71.4 0 .73.32.73.71Zm-8.55 0a.72.72 0 0 1-1.45 0c0-.4.33-.71.73-.71.4 0 .72.32.72.71ZM7.6 5.78a.72.72 0 0 1-1.45 0c0-.4.33-.72.73-.72.4 0 .72.32.72.72Zm0 2.1a.72.72 0 0 1-1.45 0c0-.4.33-.72.73-.72.4 0 .72.32.72.72Zm4.28-2.1c0 .4-.33.72-.73.72a.72.72 0 0 1-.73-.72c0-.4.33-.72.73-.72.4 0 .73.32.73.72Zm0 2.1c0 .4-.33.72-.73.72a.72.72 0 0 1-.73-.72c0-.4.33-.72.73-.72.4 0 .73.32.73.72Z" fill="#fff"/><defs><linearGradient id="ajwiwzeir" x1="3.35" y1="3.12" x2="21.9" y2="24.43" gradientUnits="userSpaceOnUse"><stop stop-color="#1A1E21"/><stop offset="1" stop-color="#06060A"/></linearGradient></defs></svg>