<!-- by TradingView --><svg width="18" height="18" viewBox="0 0 18 18" xmlns="http://www.w3.org/2000/svg"><path fill="#007CFF" d="M0 0h18v18H0z"/><path d="M4.6 5.98c-1.07 2.22-.47 4.98 0 6.02l1.76-1.87c-.17-.72-.13-1.8.08-2.7.26-1.07 1.14-2.14 2.51-2.16.96 0 1.64.47 1.78.7l-5.98 6.38a6 6 0 0 0 2.07 2.16c1.03.58 2.6.6 3.61.3a5.2 5.2 0 0 0 3.35-3.85 7.97 7.97 0 0 0-.38-4.98l-1.73 1.85c.11.72.1 2.32-.3 3.33-.4 1.02-1.21 1.58-2.42 1.58-.69 0-1.47-.48-1.69-.74l5.97-6.4C11.8 3.04 9.28 2.87 8.37 3.04c-.91.17-2.7.7-3.77 2.93Z" fill="#fff"/></svg>