<!-- by TradingView --><svg width="18" height="18" viewBox="0 0 18 18" xmlns="http://www.w3.org/2000/svg"><path fill="#030C17" d="M0 0h18v18H0z"/><path d="M13.96 14a7.05 7.05 0 0 0-.03-9.95A7 7 0 0 0 4 4.08L13.96 14Z" fill="#1C242E"/><path d="m13.26 6.65-.9-.91-.48.5h-.01l-.4.4-2.44 2.48-1.55-1.57c-.32.33-.53.77-.58 1.25l2.13 2.16 2.4-2.44a2.49 2.49 0 1 1-.94-1.5l1.07-1.08A3.98 3.98 0 0 0 5 9a4 4 0 1 0 7.61-1.7l.65-.65Z" fill="#fff"/><path d="m6.9 8.8 2.13 2.16V9.12L7.48 7.55A2.1 2.1 0 0 0 6.9 8.8Z" fill="url(#a4qinx2jm)"/><defs><linearGradient id="a4qinx2jm" x1="5.84" y1="9.09" x2="8.07" y2="9.86" gradientUnits="userSpaceOnUse"><stop stop-color="#1C313F"/><stop offset="1" stop-color="#fff"/></linearGradient></defs></svg>