<!-- by TradingView --><svg width="18" height="18" xmlns="http://www.w3.org/2000/svg"><path fill="#1D3F7B" d="M0 0h18v18H0z"/><path d="M5.873 4.004H4V5.78c.388-.736 1.113-1.41 1.873-1.777zM13.993 5.737V4.004h-1.812c.658.417 1.377 1.095 1.812 1.733zM4 13.99v-1.778c.432.647 1.199 1.353 1.86 1.778H4zM12.201 13.997h1.794v-1.734c-.428.628-1.148 1.319-1.793 1.734z" fill="#fff"/><path d="M12.994 8.997a3.997 3.997 0 11-7.995 0 3.997 3.997 0 017.995 0zm-4.002 4.992a4.997 4.997 0 100-9.993 4.997 4.997 0 000 9.993z" fill="#fff"/></svg>