<!-- by TradingView --><svg width="18" height="18" viewBox="0 0 18 18" xmlns="http://www.w3.org/2000/svg"><path fill="url(#a4hb4oxrp)" d="M0 0h18v18H0z"/><path d="M11.76 4c-1.18 0-2.23.97-2.26 2.15v2.4c-.22 0-.25.03-.5.03s-.28 0-.5.03V6.15c0-1.18-1-2.18-2.22-2.15C5 4 4.03 5 4 6.15v5.73A2.23 2.23 0 0 0 6.28 14c1.18-.03 2.22-.97 2.22-2.12v-2.4c.22 0 .25-.03.5-.03s.28 0 .5-.03v2.43A2.24 2.24 0 0 0 11.76 14c1.18-.03 2.24-1 2.24-2.15v-5.7C14 4.97 12.94 4 11.76 4ZM6.28 5C7 5 7.5 5.43 7.5 6.15v2.52c-.62.1-1.3.28-1.89.53-.24.13-.4.25-.61.44v-3.5C5 5.47 5.57 5 6.28 5Zm1.22 6.88C7.5 12.6 7 13 6.28 13 5.57 13 5 12.6 5 11.88v-.56c0-.5.3-1 .99-1.28.46-.21.98-.34 1.51-.43v2.27ZM11.76 13c-.71 0-1.26-.4-1.26-1.12V9.36c.62-.1 1.33-.28 1.92-.53.24-.13.36-.25.58-.44v3.5c0 .7-.55 1.11-1.24 1.11Zm.28-4.98a6.3 6.3 0 0 1-1.54.43v-2.3c0-.72.55-1.15 1.26-1.15.72 0 1.24.43 1.24 1.15v.56c.03.53-.27 1-.96 1.3Z" fill="#fff"/><defs><linearGradient id="a4hb4oxrp" x1="15.51" y1="2.75" x2="3.83" y2="16.33" gradientUnits="userSpaceOnUse"><stop stop-color="#00E8A2"/><stop offset="1" stop-color="#00B1E2"/></linearGradient></defs></svg>