<!-- by TradingView --><svg width="18" height="18" viewBox="0 0 18 18" xmlns="http://www.w3.org/2000/svg"><path fill="#34445B" d="M0 0h18v18H0z"/><path d="m9.42 7 1-1.9c.24.05.48.01.7-.1.2-.12.37-.3.46-.53.09-.23.1-.49.03-.73a1.06 1.06 0 0 0-.42-.57.98.98 0 0 0-1.3.17 1.08 1.08 0 0 0-.07 1.35L8.58 7A3.83 3.83 0 0 0 5 11.04 4.1 4.1 0 0 0 8.94 15 4 4 0 0 0 13 11.1C13 9 11.5 7.26 9.42 7Zm-.48 6.12c-1.36 0-2.16-1.18-2.09-2.39A2.09 2.09 0 0 1 9.2 8.76c.77.1 1.46.57 1.74 1.32a1.22 1.22 0 0 0-.62-.44c-.8-.24-1.57.43-1.57 1.22 0 .81.78 1.47 1.57 1.23.24-.08.46-.23.61-.44a2.22 2.22 0 0 1-2 1.47Z" fill="#fff"/></svg>