<!-- by TradingView --><svg width="18" height="18" viewBox="0 0 18 18" xmlns="http://www.w3.org/2000/svg"><path fill="#5F45BA" d="M0 0h18v18H0z"/><path d="M5.93 4.76a.5.5 0 1 1-.86-.52.5.5 0 0 1 .86.52ZM4.35 4.8a.4.4 0 1 1-.7-.41.4.4 0 0 1 .7.41ZM9.59 13.96a5 5 0 1 0-2.47-9.61c-.45.22-.74.47-.74.97 0 .68.57.93 1.05.93.1 0 .48-.12.57-.15.33-.12.77-.12 1.14-.1A2.99 2.99 0 0 1 12 8.97C12 10.78 10.65 12 8.87 12 6.96 12 6.07 10.25 6 8.66c-.02-.63-.36-1.08-1-1.08-.53 0-.83.3-.96.8a5 5 0 0 0 5.55 5.59Z" fill="#fff"/><path d="M5.09 6.7a.79.79 0 1 1-1.35-.8.79.79 0 0 1 1.35.8Z" fill="#fff"/></svg>