<!-- by TradingView --><svg width="18" height="18" viewBox="0 0 18 18" xmlns="http://www.w3.org/2000/svg"><path fill="#F0F3FA" d="M0 0h18v18H0z"/><path d="m4.51 7.82 4.45 2.4c.22.11.48.11.7 0l3.83-2.08a.94.94 0 0 0 0-1.68L9.1 4.11a.91.91 0 0 0-.86 0L4.5 6.14a.94.94 0 0 0 0 1.68Z" fill="url(#awbhd10k2)"/><path d="M5.46 9.32 9 11.2c.24.12.52.12.75-.01l2.73-1.57 1 .54a.94.94 0 0 1 .01 1.68L9.66 13.9a.75.75 0 0 1-.7 0l-4.45-2.4a.94.94 0 0 1 0-1.68l.95-.5Z" fill="url(#bwbhd10k2)"/><defs><linearGradient id="awbhd10k2" x1="4" y1="7.21" x2="12.92" y2="7.15" gradientUnits="userSpaceOnUse"><stop stop-color="#02DAFF"/><stop offset="1" stop-color="#5414F1"/></linearGradient><linearGradient id="bwbhd10k2" x1="4" y1="10.9" x2="12.92" y2="10.84" gradientUnits="userSpaceOnUse"><stop stop-color="#FECF7B"/><stop offset="1" stop-color="#EF26A8"/></linearGradient></defs></svg>