<!-- by TradingView --><svg width="18" height="18" xmlns="http://www.w3.org/2000/svg"><path fill="#F0F3FA" d="M0 0h18v18H0z"/><path d="M5.943 13.076a3.801 3.801 0 002.64 1.29c.6-.034 1.166-.291 1.585-.721.83-.71 1.699-1.37 2.606-1.977l.512-.208a2.54 2.54 0 00.896-.689c.256-.338.402-.745.42-1.168a3.299 3.299 0 00-.54-1.589 9.95 9.95 0 01-8.12 5.063z" fill="#0293D6"/><path d="M7.079 4.569a2.397 2.397 0 012.35-.669c.195.068.375.172.531.308a5.214 5.214 0 002.934.96c.272.029.808.12 1.168.57.272.36.3.747.3.927a4.164 4.164 0 01-.3 1.35L7.083 4.568h-.004z" fill="#EBE638"/><path d="M5.943 13.076a3.812 3.812 0 01-1.049-.3c-.416-.18-.928-.388-1.257-.96a1.833 1.833 0 01-.24-.957c.008-.636.16-1.26.449-1.824.288-.7.48-1.441.572-2.19l.148-.6c.088-.3.148-.6.36-.896l.328-.36a2.845 2.845 0 011.829-.42 9.348 9.348 0 00-1.14 8.508z" fill="#BAD147"/><path d="M7.079 4.568c-.028 0 1.62.089 2.641.449l.84.36c-.332-.028-2.428-.12-4.017 1.469-2.005 2.04-1.345 4.822-1.32 4.974a3.057 3.057 0 01-.657-2.07 7.191 7.191 0 012.517-5.182h-.004z" fill="#78B650"/><path d="M11.097 11.968a5.992 5.992 0 00-.536-6.591 4.096 4.096 0 012.28 1.2c.36.3.805.749 1.225 1.437a8.84 8.84 0 01-2.961 3.954h-.008z" fill="#2F8260"/><path d="M12.057 6.698a3.413 3.413 0 00-1.468-1.321c-.24-.06-2.49-.42-4.194 1.229a4.894 4.894 0 00-1.469 3.357 5.122 5.122 0 001.08 3.114 7.09 7.09 0 002.694 0c.448-.089 1.497-.269 2.4-1.049.117-.12 1.434-1.349 1.522-3.294 0-.332 0-1.168-.565-2.04v.004zm-1.08 4.341A2.964 2.964 0 018.792 12c-.18 0-1.38-.032-2.217-1.02-.12-.149-.72-.869-.693-1.945.06-1.441 1.201-2.281 1.441-2.458.208-.152.72-.48 1.469-.512a2.373 2.373 0 011.437.3c1.376.749 1.44 2.55 1.44 2.67 0 .328 0 1.228-.692 2.005z" fill="#085229"/></svg>