<!-- by TradingView --><svg width="18" height="18" viewBox="0 0 18 18" xmlns="http://www.w3.org/2000/svg"><path fill="#F0F3FA" d="M0 0h18v18H0z"/><path d="M6.78 5.3c.2-.23.36-.42.53-.59-2.81-.1-2 2.06-2.91 4.26-1.06 2.52.12 3.48 1.88 3.78a4.1 4.1 0 0 1-.6-1.03c-1.13-1.52-.67-4.3 1.1-6.42ZM13.55 8a8.65 8.65 0 0 1-3.15 4.1c-.7.48-1.57.77-2.54.77a9.5 9.5 0 0 1-1.58-.12c.3.36.65.67 1.06.88 2.54 1.3 2.7-1.12 5.4-2.35 1.5-.7 1.5-2.04.81-3.29Z" fill="#EFE812"/><path d="M10.4 5.47c.38.07.73.2 1.05.4.86.5 1.64 1.29 2.1 2.12.46-1.37.25-2.44-.76-2.64-1.1-.21-1.96-.28-2.79-.9-1.02-.75-1.91-.5-2.69.26l.17.01c1.08.07 2.1.3 2.92.75Z" fill="#EEE809"/><path d="M6.78 5.3c-1.77 2.13-2.23 4.9-1.1 6.42a4.87 4.87 0 0 1 .25-4.13 4.32 4.32 0 0 1 4.47-2.12 6.93 6.93 0 0 0-3.09-.76 8.2 8.2 0 0 0-.53.6Z" fill="#DEC21C"/><path d="M11.45 5.86c-.32-.19-.67-.32-1.05-.39 1.08.6 1.8 1.62 1.8 3.23-.02 1.4-.7 2.65-1.8 3.4A8.65 8.65 0 0 0 13.55 8a6.04 6.04 0 0 0-2.1-2.14Z" fill="#E5CB22"/><path d="M10.22 11.33a2.54 2.54 0 0 1-3.62-.83 2.92 2.92 0 0 1 .78-3.83c1.32-1 3.01-.6 3.63.83.6 1.4.43 3-.79 3.83Zm.18-5.86c-1.58-.3-3.5.43-4.47 2.12a4.87 4.87 0 0 0 .35 5.16c.5.09 1.03.12 1.57.12.98 0 1.85-.29 2.55-.77 1.1-.75 1.78-2 1.8-3.4 0-1.61-.72-2.63-1.8-3.23Z" fill="#CCA727"/></svg>