<!-- by TradingView --><svg width="18" height="18" viewBox="0 0 18 18" xmlns="http://www.w3.org/2000/svg"><path fill="url(#ad3fpqbx1)" d="M0 0h18v18H0z"/><path d="M7 11h2v2H7v-2Z" fill="url(#bd3fpqbx1)"/><path d="M9 5h.74C11.54 5 13 6.2 13 8s-1.46 3-3.26 3H7V7h2v2h.74C10.33 9 11 8.6 11 8s-.67-1-1.26-1H9V5Z" fill="url(#cd3fpqbx1)"/><path d="M5 9h2v2H5V9Z" fill="url(#dd3fpqbx1)"/><path d="M7 9h2v2H7V9Z" fill="url(#ed3fpqbx1)"/><defs><linearGradient id="ad3fpqbx1" x1="3.35" y1="3.12" x2="21.9" y2="24.43" gradientUnits="userSpaceOnUse"><stop stop-color="#1A1E21"/><stop offset="1" stop-color="#06060A"/></linearGradient><linearGradient id="bd3fpqbx1" x1="7" y1="11.6" x2="9" y2="12.44" gradientUnits="userSpaceOnUse"><stop stop-color="#3EFF6E"/><stop offset="1" stop-color="#16DDDE"/></linearGradient><linearGradient id="cd3fpqbx1" x1="6.48" y1="6.78" x2="13.57" y2="9.99" gradientUnits="userSpaceOnUse"><stop stop-color="#FF5B3C"/><stop offset="1" stop-color="#FF3196"/></linearGradient><linearGradient id="dd3fpqbx1" x1="5" y1="9.6" x2="7" y2="10.44" gradientUnits="userSpaceOnUse"><stop stop-color="#FF6F3F"/><stop offset="1" stop-color="#FFC546"/></linearGradient><linearGradient id="ed3fpqbx1" x1="7" y1="9.6" x2="9" y2="10.44" gradientUnits="userSpaceOnUse"><stop stop-color="#E059FE"/><stop offset="1" stop-color="#656FFF"/></linearGradient></defs></svg>