<!-- by TradingView --><svg width="18" height="18" viewBox="0 0 18 18" xmlns="http://www.w3.org/2000/svg"><path fill="url(#arbw12zop)" d="M0 0h18v18H0z"/><path d="M12.5 12.5h-7l3-6.5.5-.5.5.5 3 6.5Z" fill="#0079F0"/><path d="M7.87 5.75c.46-1 1.8-1 2.26 0l2.8 6.2c.22.48-.11 1.05-.62 1.05H5.69c-.5 0-.84-.57-.62-1.06l2.8-6.19Zm1.63.75c-.32-.75-.7-.75-1 0L6 12h6L9.5 6.5Z" fill="#fff"/><defs><linearGradient id="arbw12zop" x1="3.35" y1="3.12" x2="21.9" y2="24.43" gradientUnits="userSpaceOnUse"><stop stop-color="#1A1E21"/><stop offset="1" stop-color="#06060A"/></linearGradient></defs></svg>