<!-- by TradingView --><svg width="18" height="18" viewBox="0 0 18 18" xmlns="http://www.w3.org/2000/svg"><path fill="#FC2952" d="M0 0h18v18H0z"/><path d="M11.22 4H6.8L4.03 7.5 4 7.54l.96 4.43 4.01 2.01L9 14l4.04-2.01.96-4.43L11.22 4Zm.7 6.22 1.22-1.55-.53 2.45-.7-.9Zm-5.46.46 1.8 2.26-2.58-1.28.78-.98Zm1.1-6.08h2.91L9 6.55 7.56 4.6ZM9 7.5l2.2 2.75L9 13.02l-2.2-2.77L9 7.51ZM6.43 9.77 4.7 7.6l2.24-2.8 1.69 2.23-2.2 2.74Zm5.11.95.78.95-2.54 1.28 1.76-2.23Zm1.8-3.1L11.58 9.8 9.4 7.02l1.69-2.23 2.24 2.82ZM6.08 10.2l-.7.87-.53-2.42 1.23 1.55Z" fill="#F0F3FA"/></svg>