<!-- by TradingView --><svg width="18" height="18" viewBox="0 0 18 18" xmlns="http://www.w3.org/2000/svg"><path fill="#F0F3FA" d="M0 0h18v18H0z"/><path d="M10.7 9.92H8.8l-.92.97h1.88l.93-.97ZM12.31 8.05h-1.87l-.95.97h1.9l.92-.97ZM12.97 5.08c.21.22.38.52.44.85.11.55-.09 1.1-.47 1.5h-1.88l1.12-1.16c.08-.11.13-.22.07-.34a.36.36 0 0 0-.05-.06l.77-.8ZM9.17 11.49H7.29l-.93.95 1.88.02.93-.97Z" fill="#E1DED9"/><path d="M6 10v1.92l.94-.98V9L6 9.99ZM9.11 6.74v1.92l1.09-1.13V5.6L9.1 6.74ZM7.5 8.42v1.93l1.06-1.1V7.32L7.5 8.42ZM12.22 5.84c-.04-.05-.06-.05-.12-.07l-.07-.01c-.07 0-.09 0-.15.04-.02 0-.03.03-.05.04l-1.06 1.1V5.02a1.48 1.48 0 0 1 .67-.35 1.42 1.42 0 0 1 .33-.05h.12a1.77 1.77 0 0 1 .45.09 1.62 1.62 0 0 1 .6.39l-.72.75Z" fill="#fff"/><path d="m4 14 1.25-1.48V9.74l4.86-4.9a2.13 2.13 0 0 1 3.55.22 2.36 2.36 0 0 1 .03 2.39c-.1.16-.46.56-.45.55l-4.75 5.06H5.8l-.87.94H4Zm5.15-2.5H7.28l-.9.94h1.87l.9-.94ZM5.87 9.99v1.93l.94-.98V9l-.94.98Zm4.8-.05H8.8l-.9.94h1.86l.9-.94ZM7.44 8.42v1.93l.93-1.06V7.36l-.93 1.06Zm4.86-.36h-1.87L9.52 9h1.86l.92-.94ZM9 6.74v1.92l.94-.96V5.77L9 6.74Zm3.92.7c.26-.31.45-.57.49-.99.04-.42-.08-.86-.33-1.2A1.6 1.6 0 0 0 12 4.63c-.18-.02-.37-.01-.55.03-.37.1-.6.36-.88.6v1.93l1.27-1.34.05-.05c.06-.03.08-.03.14-.03h.08c.06.03.08.03.12.08l.05.06a.31.31 0 0 1 .03.22c-.02.07-.04.08-.08.14l-1.16 1.18h1.86Z" fill="#212121"/></svg>