<!-- by TradingView --><svg width="18" height="18" viewBox="0 0 18 18" xmlns="http://www.w3.org/2000/svg"><path fill="url(#acitd3xut)" d="M0 0h18v18H0z"/><path d="M11.88 4.16c.16.15.16.38 0 .53L10.38 6 8.9 4.69a.34.34 0 0 1 0-.53l1.2-1.05a.46.46 0 0 1 .6 0l1.19 1.05Z" fill="#B805F7"/><path d="m8.77 3.86-.34.3a.34.34 0 0 0 0 .53l.34.3L7.62 6l-1.5-1.31a.34.34 0 0 1 0-.53l1.2-1.05a.46.46 0 0 1 .6 0l.85.75Z" fill="#F4D70D"/><path fill="#B805F7" d="M5 7h8v2H5z"/><path d="M7 9H5v5h8V9h-2v3H7V9Z" fill="#F4D70D"/><defs><linearGradient id="acitd3xut" x1="3.35" y1="3.12" x2="21.9" y2="24.43" gradientUnits="userSpaceOnUse"><stop stop-color="#1A1E21"/><stop offset="1" stop-color="#06060A"/></linearGradient></defs></svg>