<!-- by TradingView --><svg width="18" height="18" viewBox="0 0 18 18" xmlns="http://www.w3.org/2000/svg"><path fill="url(#aaj5wjgca)" d="M0 0h18v18H0z"/><path d="M14.63 5.03a.64.64 0 0 0-.66.17l-2.91 3.13c-.53-.57-1.06-1.09-1.6-1.67-.02-.03-.17-.17-.42-.2-.32-.01-.51.2-.53.22-.53.57-1.08 1.08-1.6 1.65L4.02 5.21c-.24-.2-.57-.25-.79-.14a.54.54 0 0 0-.24.26v7.36a.6.6 0 0 0 .36.29c.28.08.5-.06.53-.08L6.9 9.67c.58.62 1.16 1.18 1.74 1.8a.66.66 0 0 0 .68 0l1.74-1.8 2.73 2.92c.2.35.63.49.9.37.25-.1.3-.39.31-.42V5.47c0-.2-.16-.38-.37-.44ZM4 11.33V6.67l2.38 2.35L4 11.33Zm5.09-.8c-.01.02-.05.05-.1.05-.07 0-.11-.04-.12-.04-.47-.5-.9-1.02-1.37-1.52L8.82 7.5a.6.6 0 0 1 .19-.03c.06 0 .1.02.15.03L10.5 9l-1.41 1.54Zm4.91.8-2.38-2.31L14 6.67v4.66Z" fill="#fff"/><defs><linearGradient id="aaj5wjgca" x1="9" y1="0" x2="9" y2="18" gradientUnits="userSpaceOnUse"><stop stop-color="#39A3DB"/><stop offset="1" stop-color="#1B3586"/></linearGradient></defs></svg>