<!-- by TradingView --><svg width="18" height="18" viewBox="0 0 18 18" xmlns="http://www.w3.org/2000/svg"><path fill="#5140A4" d="M0 0h18v18H0z"/><path d="M9 12.43a.42.42 0 0 0 0-.84A2.58 2.58 0 0 1 6.4 9a.42.42 0 0 0-.83 0A3.43 3.43 0 0 0 9 12.44ZM9 5.57a.42.42 0 0 0 0 .84A2.58 2.58 0 0 1 11.6 9a.42.42 0 0 0 .83 0A3.43 3.43 0 0 0 9 5.56Z" fill="#05C7FF"/><path d="M9 7a2 2 0 0 1 2 2 .46.46 0 0 1-.92 0A1.08 1.08 0 1 0 9 10.09.46.46 0 0 1 9 11a2 2 0 1 1 0-4ZM10.85 10.85c.2-.19.2-.5 0-.7a.5.5 0 0 0-.7 0c-.2.19-.2.5 0 .7.2.2.51.2.7 0ZM9 4a.42.42 0 0 0 0 .84A4.14 4.14 0 0 1 13.16 9 .42.42 0 0 0 14 9a4.98 4.98 0 0 0-5-5ZM9 14a.42.42 0 0 0 0-.84A4.14 4.14 0 0 1 4.84 9a.42.42 0 0 0-.42-.42A.42.42 0 0 0 4 9a4.98 4.98 0 0 0 5 5Z" fill="#05C7FF"/></svg>