<!-- by TradingView --><svg width="18" height="18" viewBox="0 0 18 18" xmlns="http://www.w3.org/2000/svg"><path fill="#F0F3FA" d="M0 0h18v18H0z"/><path d="M11.81 12.5v.5H14l-.5-.5h-1.69Z" fill="#12E3BC"/><path d="M9.5 12v-1H5V5h6v9h3v-1h-2V4H4v8h5.5Z" fill="#14F4C8"/><path d="M7 6.7 5 5v6l2-1.5V6.7Z" fill="url(#aezlorqlo)"/><path d="M5.5 10.5 5 11h4.5l-.5-.5H5.5Z" fill="#068F82"/><path d="M5.5 5.5 5 5h6l-.5.5h-5Z" fill="url(#bezlorqlo)"/><path d="m11 5-.5.5v8l.5.5V5Z" fill="#068F82"/><defs><linearGradient id="aezlorqlo" x1="5.09" y1="7.75" x2="7.44" y2="7.75" gradientUnits="userSpaceOnUse"><stop stop-color="#068F82"/><stop offset="1" stop-color="#12E3BC"/></linearGradient><linearGradient id="bezlorqlo" x1="6.97" y1="5.25" x2="6.97" y2="5.41"><stop offset="1" stop-color="#12E3BC"/></linearGradient></defs></svg>