<!-- by TradingView --><svg width="18" height="18" viewBox="0 0 18 18" xmlns="http://www.w3.org/2000/svg"><path fill="#4155FF" d="M0 0h18v18H0z"/><path d="M14.98 6.58a.37.37 0 0 0-.35-.24.37.37 0 0 0-.33.2c-.1.21-.2.41-.32.6a5.32 5.32 0 0 0-6.36-3.29 5.3 5.3 0 0 0-3.84 6.07A6.85 6.85 0 0 0 3 11.27a.37.37 0 0 0 .35.4.37.37 0 0 0 .35-.22c.1-.2.2-.4.33-.6a5.32 5.32 0 0 0 6.36 3.3 5.3 5.3 0 0 0 3.84-6.07c.29-.38.53-.78.73-1.21a.37.37 0 0 0 .02-.29ZM13.58 9a4.61 4.61 0 0 1-4.02 4.56 4.56 4.56 0 0 1-5-3.46A6.8 6.8 0 0 1 8.04 8c.75-.2 1.51-.33 2.29-.36l-1.1 1.1.52.53 1.98-2L9.47 5l-.51.52 1.38 1.39c-.84.02-1.66.15-2.47.37a8.28 8.28 0 0 0-3.44 1.9V9a4.61 4.61 0 0 1 4.02-4.55 4.56 4.56 0 0 1 4.99 3.44A6.77 6.77 0 0 1 9.96 10c-.75.2-1.51.32-2.28.35l1.09-1.1-.52-.52-1.98 2L8.53 13l.52-.52-1.38-1.4c.83-.02 1.66-.14 2.47-.36a8.28 8.28 0 0 0 3.43-1.9V9Z" fill="#fff"/></svg>