<!-- by TradingView --><svg width="18" height="18" viewBox="0 0 18 18" xmlns="http://www.w3.org/2000/svg"><path fill="#F0F3FA" d="M0 0h18v18H0z"/><path d="M4.33 9a4.67 4.67 0 1 1 9.34 0 4.67 4.67 0 0 1-9.34 0Z" fill="#F7931A"/><path d="M11.1 8.45c.08-.58-.36-.9-.98-1.11l.2-.79-.48-.12-.2.77-.38-.1.2-.77-.49-.12-.2.8-.3-.08-.67-.17-.13.52.36.09c.2.05.22.17.22.27l-.22.9.05.03-.06-.02-.31 1.27c-.03.06-.09.15-.22.11l-.35-.08-.24.55.63.15.34.1-.2.8.48.11.2-.79.38.1-.2.8.49.11.2-.8c.82.16 1.44.1 1.7-.65.21-.6-.01-.94-.44-1.17.31-.07.55-.28.61-.7ZM10 10c-.16.6-1.17.27-1.5.2l.27-1.07c.33.08 1.38.24 1.22.86Zm.14-1.56c-.14.55-.98.27-1.25.2l.24-.96c.27.07 1.15.2 1 .76Z" fill="#fff"/><path fill-rule="evenodd" d="M9 15A6 6 0 1 0 9 3a6 6 0 0 0 0 12Zm0-1A5 5 0 1 0 9 4a5 5 0 0 0 0 10Z" fill="#B3BDC7"/></svg>