<!-- by TradingView --><svg width="18" height="18" viewBox="0 0 18 18" xmlns="http://www.w3.org/2000/svg"><path fill="url(#aejphhtdz)" d="M0 0h18v18H0z"/><path d="M8 10.2v3.24c0 .09-.11.14-.19.09L6.1 12.25a.21.21 0 0 1-.07-.07.2.2 0 0 1-.02-.1V6.75c0-.4.37-.74.83-.74h4.34c.46 0 .83.33.83.74v1.91c0 .53-.57.72-.85.76.57 0 .8.46.85.7v1.98c0 .06-.03.12-.09.16l-1.72 1.27a.12.12 0 0 1-.12.02.11.11 0 0 1-.05-.04.1.1 0 0 1-.02-.06v-2.66c0-.4-.38-.78-.84-.78h-.92c-.13 0-.24.09-.24.2Zm0-3.15V8.9c0 .07.06.11.12.11h1.14c.4 0 .74-.29.74-.65v-1.3C10 7 9.94 7 9.88 7H8.12C8.06 7 8 7 8 7.05Z" fill="url(#bejphhtdz)"/><path fill-rule="evenodd" d="M12.83 5H5.18c-.11 0-.18.08-.18.15v7.04l.02.06.05.05 3.82 2.94a.2.2 0 0 0 .23 0H8.9l4.05-2.94a.15.15 0 0 0 .06-.11V5.15a.15.15 0 0 0-.05-.1.17.17 0 0 0-.06-.04h-.06ZM14 4.87a.84.84 0 0 0-.28-.62.95.95 0 0 0-.67-.25h-8.1c-.53 0-.95.39-.95.87v7.32a.88.88 0 0 0 .36.68l4.06 2.94a1 1 0 0 0 1.17 0l4.05-2.93c.11-.08.2-.19.26-.3.07-.12.1-.26.1-.39V4.87Z" fill="url(#cejphhtdz)"/><path fill-rule="evenodd" d="M12.72 4.61H5.27c-.37 0-.68.3-.68.66v7.05a.66.66 0 0 0 .26.52l3.73 2.84a.7.7 0 0 0 .83 0l3.71-2.84a.66.66 0 0 0 .26-.52V5.28a.67.67 0 0 0-.67-.67Zm.86.67a.84.84 0 0 0-.54-.79.86.86 0 0 0-.33-.05H5.28a.85.85 0 0 0-.86.83v7.05a.83.83 0 0 0 .33.66l3.72 2.84a.89.89 0 0 0 1.07 0l3.71-2.84a.84.84 0 0 0 .33-.66V5.28Z" fill="url(#dejphhtdz)"/><defs><linearGradient id="aejphhtdz" x1="3.35" y1="3.12" x2="21.9" y2="24.43" gradientUnits="userSpaceOnUse"><stop stop-color="#1A1E21"/><stop offset="1" stop-color="#06060A"/></linearGradient><linearGradient id="bejphhtdz" x1="9" y1="6" x2="9" y2="14.65" gradientUnits="userSpaceOnUse"><stop offset=".08" stop-color="#F5F5F5"/><stop offset="1" stop-color="#fff" stop-opacity="0"/></linearGradient><linearGradient id="cejphhtdz" x1="9" y1="3" x2="9" y2="16" gradientUnits="userSpaceOnUse"><stop offset=".4" stop-color="#01367E"/><stop offset=".86" stop-color="#101216"/></linearGradient><linearGradient id="dejphhtdz" x1="9" y1="3.44" x2="9" y2="16" gradientUnits="userSpaceOnUse"><stop stop-color="#fff"/><stop offset=".9" stop-color="#101216"/></linearGradient></defs></svg>