<!-- by TradingView --><svg width="18" height="18" viewBox="0 0 18 18" xmlns="http://www.w3.org/2000/svg"><path fill="#F0F3FA" d="M0 0h18v18H0z"/><circle cx="9" cy="8.96" r="5.6" fill="url(#acjloepnf)"/><path fill-rule="evenodd" d="M9 14.64A5.64 5.64 0 1 0 9 3.36a5.64 5.64 0 0 0 0 11.28Zm0-.4A5.24 5.24 0 1 0 9 3.76a5.24 5.24 0 0 0 0 10.48Z" fill="#FF7534"/><path fill-rule="evenodd" d="M9 15A6 6 0 1 0 9 3a6 6 0 0 0 0 12Zm0-.43A5.57 5.57 0 1 0 9 3.43a5.57 5.57 0 0 0 0 11.14Z" fill="#FFD58D"/><path fill-rule="evenodd" d="m7.44 8.45-.58.68.81.3c.01.31.09.44.12.47l-.3.28.3.32.3-.32c.22.09.45.08.53.07l.29.82.71-.65.18-.79c1.65-1.5 1.83-2.7 1.72-3.1-1.46-.11-2.77 1.1-3.24 1.7l-.84.22Zm.03 2.34-2.44 2.25-.26-.28 2.45-2.25.25.28Zm-.78.05-2 1.83-.27-.28 2.01-1.83.26.28Zm.68.64-2.02 1.86-.26-.28L7.1 11.2l.26.28ZM9.6 8.82a.47.47 0 1 0 0-.94.47.47 0 0 0 0 .94Z" fill="#fff"/><defs><linearGradient id="acjloepnf" x1="4.3" y1="12.71" x2="14.6" y2="5.13" gradientUnits="userSpaceOnUse"><stop stop-color="#FB9533"/><stop offset=".26" stop-color="#FEBA67"/><stop offset=".75" stop-color="#FF9976"/><stop offset="1" stop-color="#FF6350"/></linearGradient></defs></svg>