<!-- by TradingView --><svg width="18" height="18" xmlns="http://www.w3.org/2000/svg"><path fill="#F0F3FA" d="M0 0h18v18H0z"/><circle cx="9" cy="9" r="3" fill="#F08619"/><path d="M7 11V7h2.898C10.603 7 11 7.665 11 8.197c0 .425-.184.694-.276.775.22.222.276.624.276.798.017.762-.628 1.23-.981 1.23H7z" fill="#fff"/><path d="M9 15a6 6 0 005.197-9h-2.546A4 4 0 019 12.994L9.01 13H4.528A5.985 5.985 0 009 15zm-5.197-3a6 6 0 019.67-7H9.193a4 4 0 00-2.833 7H3.803z" fill="#4E4294"/><path d="M9.863 8H8v.492h1.863c.046-.014.137-.081.137-.237 0-.157-.091-.235-.137-.255zM9.863 9.51H8v.493h1.863c.046-.014.137-.081.137-.238 0-.156-.091-.234-.137-.254z" fill="#F08619"/></svg>