<!-- by TradingView --><svg width="18" height="18" viewBox="0 0 18 18" xmlns="http://www.w3.org/2000/svg"><path fill="#F0F3FA" d="M0 0h18v18H0z"/><path d="M8.1 6.1c.25.1.51-.08.62-.32.04-.08.04-.15-.02-.2-.12-.1-.4.03-.51.12l-.2.18c-.19.16-.38.26-.59.3l-.13-.02c-.05-.02-.1-.03-.15-.01-.25.06-.47.33-.53.57-.02.08-.01.14.04.19.14.13.4-.08.5-.2l.09-.14.14-.2c.19-.18.5-.35.74-.27Zm1 .3c.18 0 .3-.07.37-.21.08-.17 0-.4-.18-.44a.4.4 0 0 0-.35.11.81.81 0 0 0-.12.16l-.11.16a.82.82 0 0 1-.49.23.6.6 0 0 1-.22-.03l-.04-.01c-.22-.06-.46.12-.57.33-.1.2-.06.46.17.5.15.03.29-.02.42-.16.06-.06.1-.14.14-.22a1 1 0 0 1 .11-.19.75.75 0 0 1 .56-.3.5.5 0 0 1 .17.03l.14.03Zm-3 1.26c-.1.28-.06.56.09.62.14.07.34-.11.44-.4.1-.27.06-.55-.09-.61-.14-.06-.34.11-.44.4Zm2.46-.14a.79.79 0 0 0-.26-.05.79.79 0 0 0-.64.6c-.05.2-.13.37-.3.47-.22.12-.45-.01-.5-.26a.68.68 0 0 1 .13-.59c.1-.14.27-.2.43-.15a.6.6 0 0 0 .23.05.84.84 0 0 0 .57-.33c.05-.07.08-.15.11-.22l.1-.2c.1-.13.21-.19.36-.2.33 0 .53.36.36.67a.45.45 0 0 1-.42.24l-.17-.03Z" fill="url(#aw1ydmfnu)"/><path d="M10.49 6.46c.08.37-.2.63-.53.5-.4-.17-.69.28-.49.66.15.28.6.38.74 0 .03-.06.03-.12.04-.19l.01-.12c.05-.22.15-.37.33-.42.05-.02.12 0 .18.01.1.03.2.05.25-.08.1-.32-.45-.95-.53-.56a.48.48 0 0 0 0 .2Zm.7.23c.06.2.13.39-.05.55-.07.05-.14.03-.22 0-.07-.02-.14-.04-.2 0-.12.05-.18.15-.2.3-.02.25.05.44.22.58.25.2.5-.04.47-.33-.01-.1-.01-.19 0-.28 0-.12.05-.4.2-.4a1.22 1.22 0 0 1 .18 0h.02l.01-.02v-.02c.01-.29-.24-.62-.44-.77h-.04l-.02.02v.02c-.02.11.02.23.06.35Zm.48 1.74c-.22-.09-.4.17-.48.38-.05.12-.08.24-.1.37-.02.2-.15.4-.35.43-.2.05-.36-.13-.41-.33-.07-.29.05-.67.34-.74.07-.01.14 0 .2.03l.12.03c.3.04.47-.37.44-.64-.02-.1-.01-.21 0-.32.02-.14.12-.25.24-.15.2.17.34.67.19.9-.05.07-.13.07-.19.04Zm-2.1.84c-.26 0-.48-.24-.48-.54 0-.3.22-.55.48-.55s.48.25.48.54c0 .3-.21.55-.48.55Z" fill="url(#bw1ydmfnu)"/><path d="M6.08 10.47c-.04-.13-.12-.4.02-.48a.06.06 0 0 1 .06 0c.3.15.45-.31.46-.55 0-.09 0-.17.02-.25.07-.36.43-.45.63-.14.12.2.14.5 0 .7-.1.14-.22.18-.39.12a.28.28 0 0 0-.38.15c-.08.18-.04.35 0 .52v.08c.03.08.02.16 0 .24l-.02.03a.07.07 0 0 1-.06.02H6.4c-.15-.08-.26-.28-.32-.44Zm.9-.23c.35.14.64-.23.67-.6.02-.22.16-.4.37-.44.42-.06.7.52.42.86a.39.39 0 0 1-.37.15c-.05 0-.1-.02-.14-.03a.6.6 0 0 0-.2-.03c-.32.02-.47.29-.44.6.03.22-.1.46-.33.3-.16-.1-.25-.28-.29-.53-.03-.2.12-.36.31-.28Zm.56.65c-.01.17-.02.3-.15.45-.08.09-.2.07-.3.03-.04-.02-.08 0-.11.05a.1.1 0 0 0-.01.07.9.9 0 0 0 .38.52c.03.01.05.01.07 0 .01 0 .02 0 .03-.02l.01-.05c0-.08-.02-.16-.05-.24-.06-.19.03-.38.22-.4.07 0 .13.01.2.03.1.03.19.06.31-.05.39-.32-.11-.96-.47-.72a.3.3 0 0 0-.13.25v.08Z" fill="url(#cw1ydmfnu)"/><path d="M10.51 9.9c-.26-.08-.5.16-.58.42a.76.76 0 0 1-.1.23c-.23.3-.5.4-.83.3a.42.42 0 0 0-.42.06c-.18.15-.21.45-.04.6.13.13.28.14.46.04.1-.06.16-.16.21-.27l.09-.15c.16-.22.5-.41.77-.31.19.07.36.02.51-.15.19-.2.28-.67-.07-.77Zm.43 1.18c.32.1.61-.39.61-.69 0-.21-.17-.28-.33-.18a.86.86 0 0 0-.31.4c-.1.24-.26.41-.49.52a.5.5 0 0 1-.43.01c-.26-.1-.54.17-.62.43-.03.13.02.26.15.28.21.04.44-.1.57-.29.16-.24.55-.58.85-.48Zm-.1.51c-.12.22-.47.53-.73.45-.21-.07-.56.11-.73.22-.17.13-.4.24-.6.2 0 0-.02 0-.02-.02-.01 0-.02-.01-.02-.03a.08.08 0 0 1 0-.06c.18-.25.38-.34.62-.28.26.07.63-.1.8-.32.16-.18.33-.34.55-.37.13-.02.18.1.12.21Zm-2.1.36c.04.13-.05.28-.2.34-.16.07-.31.02-.36-.11-.04-.13.05-.28.2-.34.15-.06.31-.01.35.11Z" fill="url(#dw1ydmfnu)"/><path d="M7.35 4A5.26 5.26 0 0 0 4 8.98 5.25 5.25 0 0 0 7.48 14l.13-.28A4.94 4.94 0 0 1 4.3 8.98a4.95 4.95 0 0 1 3.2-4.7L7.35 4Zm3.16.28.14-.28A5.26 5.26 0 0 1 14 8.98 5.25 5.25 0 0 1 10.52 14l-.13-.28a4.94 4.94 0 0 0 3.32-4.74 4.95 4.95 0 0 0-3.2-4.7Z" fill="url(#ew1ydmfnu)"/><path d="M11.26 12.66a3.93 3.93 0 0 1-4.42.07l-.18.24a4.2 4.2 0 0 0 4.78-.06l-.18-.25Zm.04-7.3a3.93 3.93 0 0 0-4.5-.06l-.17-.26a4.2 4.2 0 0 1 4.84.07l-.17.26Z" fill="url(#fw1ydmfnu)"/><path d="M6.01 5.55A4.81 4.81 0 0 0 4.6 9c0 1.4.58 2.66 1.5 3.52l.14-.28A4.49 4.49 0 0 1 4.88 9c0-1.26.5-2.4 1.3-3.2l-.17-.25Zm5.76.21.14-.28A4.8 4.8 0 0 1 13.41 9c0 1.36-.55 2.6-1.42 3.45l-.18-.25a4.5 4.5 0 0 0 1.3-3.2c0-1.28-.51-2.44-1.34-3.24Z" fill="url(#gw1ydmfnu)"/><path d="M8.16 4.94a4.1 4.1 0 0 0-2.98 4.05c0 2 1.3 3.68 3.03 4.07l.15-.29a3.77 3.77 0 0 1-2.89-3.78c0-1.85 1.22-3.4 2.83-3.76l-.14-.3Zm1.54.3.14-.3a4.1 4.1 0 0 1 2.98 4.05c0 2-1.3 3.68-3.03 4.07l-.15-.29a3.77 3.77 0 0 0 2.89-3.78c0-1.85-1.22-3.4-2.83-3.76Z" fill="url(#hw1ydmfnu)"/><defs><linearGradient id="aw1ydmfnu" x1="9.15" y1="6.03" x2="6.24" y2="8.05" gradientUnits="userSpaceOnUse"><stop stop-color="#26B7DE"/><stop offset="1" stop-color="#164B6E"/></linearGradient><linearGradient id="bw1ydmfnu" x1="11.65" y1="6.81" x2="9.32" y2="8.86" gradientUnits="userSpaceOnUse"><stop stop-color="#EF3D2C"/><stop offset="1" stop-color="#A41D43"/></linearGradient><linearGradient id="cw1ydmfnu" x1="8.26" y1="9.63" x2="6.57" y2="10.93" gradientUnits="userSpaceOnUse"><stop stop-color="#5AB547"/><stop offset="1" stop-color="#3F8044"/></linearGradient><linearGradient id="dw1ydmfnu" x1="11.21" y1="10.25" x2="8.18" y2="11.81" gradientUnits="userSpaceOnUse"><stop stop-color="#F6BF14"/><stop offset="1" stop-color="#C18C2B"/></linearGradient><linearGradient id="ew1ydmfnu" x1="9" y1="4" x2="9" y2="14" gradientUnits="userSpaceOnUse"><stop stop-color="#A41D43"/><stop offset=".46" stop-color="#F03E2C"/><stop offset="1" stop-color="#A61E44"/></linearGradient><linearGradient id="fw1ydmfnu" x1="6.79" y1="5.56" x2="11.35" y2="5.56" gradientUnits="userSpaceOnUse"><stop stop-color="#185375"/><stop offset=".47" stop-color="#27BDE4"/><stop offset="1" stop-color="#185679"/></linearGradient><linearGradient id="gw1ydmfnu" x1="11.94" y1="6.03" x2="5.56" y2="11.89" gradientUnits="userSpaceOnUse"><stop stop-color="#C18C2B"/><stop offset=".48" stop-color="#F4BD15"/><stop offset="1" stop-color="#C18C2B"/></linearGradient><linearGradient id="hw1ydmfnu" x1="9" y1="4.94" x2="9" y2="13.06" gradientUnits="userSpaceOnUse"><stop stop-color="#3F8044"/><stop offset=".52" stop-color="#5CB947"/><stop offset="1" stop-color="#408144"/></linearGradient></defs></svg>