<!-- by TradingView --><svg width="18" height="18" viewBox="0 0 18 18" xmlns="http://www.w3.org/2000/svg"><path fill="#F0F3FA" d="M0 0h18v18H0z"/><path fill-rule="evenodd" d="M10.83 5.04c.76.35 1.38.88 1.86 1.6a.93.93 0 0 0-.31.63.9.9 0 0 0 .92.98c.02 0 .03.01.03.03l.07.55c.01.53-.06 1.04-.24 1.53a4.54 4.54 0 0 1-2.82 2.68l-.49.15c-1.17.3-2.43.28-3.57-.14-.21-.07-.4-.16-.55-.25-.1-.06-.12-.05-.04.04a3.92 3.92 0 0 0 2.5 1.12l.4.04h.71A5 5 0 1 0 4 8.83c-.02.65.09 1.26.33 1.85.24.57.6 1.04 1.06 1.38.52.4 1.14.56 1.85.52a5.83 5.83 0 0 0 3.2-1.36 3.9 3.9 0 0 0 1.17-2.33 4.39 4.39 0 0 0 .01-.89L9.07 6.26h-.04L6.47 8a.05.05 0 0 0-.03.05v.42a4 4 0 0 0 1.45 2.95h.04l.66-.26.01-.01v-.01h-.01A3.34 3.34 0 0 1 7.1 8.36l1.91-1.3a.05.05 0 0 1 .07 0l1.89 1.28.02.05-.07.58a3.22 3.22 0 0 1-.9 1.74c-.18.17-.41.34-.71.5-.74.44-1.62.75-2.49.7a1.92 1.92 0 0 1-.92-.3 2.4 2.4 0 0 1-.88-1.03l-.2-.52a.05.05 0 0 1 0-.03v-.02a.53.53 0 0 0-.14-.92.04.04 0 0 1-.02-.03v-.04a4.52 4.52 0 0 1 .4-1.78l.06.01a.1.1 0 0 0 .04.03c.54.12 1-.02 1.36-.44.3-.42.34-.9.1-1.45a.02.02 0 0 1 0-.02 4.3 4.3 0 0 1 4.2-.34ZM6.29 6.8c.34-.4.39-.81.15-1.26l-.01-.01H6.4c-.48.38-.87.8-1.16 1.3l-.1.18a.05.05 0 0 0 .02.07c.44.12.81.03 1.12-.28Zm6.48.06c-.42.48-.12 1.14.5 1.2.01 0 .02 0 .01-.02a4.68 4.68 0 0 0-.48-1.19.04.04 0 0 0-.03.01Zm-8.1 2.52.06.4v.01c.04 0 .06-.03.07-.07a.34.34 0 0 0 .01-.15v-.01a.4.4 0 0 0-.04-.12l-.01-.02a.14.14 0 0 0-.04-.04.06.06 0 0 0-.04-.01Z" fill="url(#a2ygphfiz)"/><path fill-rule="evenodd" d="M12.5 9.85a.47.47 0 0 1 .33.5.47.47 0 0 1-.35.4.48.48 0 0 1-.57-.61.47.47 0 0 1 .6-.3Zm-.21.7c-.18-.07-.24-.19-.18-.36.12-.2.37-.22.49-.02.06.13.03.23-.08.33-.07.06-.15.08-.23.05Z" fill="url(#b2ygphfiz)"/><path d="m9.03 10.64.1-.53a.02.02 0 0 1 .02-.02.02.02 0 0 1 .02 0l.07.11h.03l.06-.3v-.01a.02.02 0 0 0-.02 0h-.58a.02.02 0 0 0 0 .01l.05.3a.02.02 0 0 0 .02 0l.08-.1h.02l.01.02.08.52H9a.02.02 0 0 0 .02.01v-.01Z" fill="url(#c2ygphfiz)"/><path d="M8.81 9.23V8.4c0-.21.2-.49.32-.66a.02.02 0 0 1 .03 0c.14.2.31.44.3.68v.81c0 .02.02.03.04.04a1.04 1.04 0 0 1 .48.36.02.02 0 0 1-.02.02H8.32a.02.02 0 0 1-.02-.03c.14-.16.3-.28.49-.35.02 0 .02-.02.02-.04Z" fill="#25223D"/><defs><linearGradient id="a2ygphfiz" x1="9" y1="4" x2="9" y2="14" gradientUnits="userSpaceOnUse"><stop stop-color="#00A89E"/><stop offset="1" stop-color="#ABDDD7"/></linearGradient><linearGradient id="b2ygphfiz" x1="9" y1="4" x2="9" y2="14" gradientUnits="userSpaceOnUse"><stop stop-color="#00A89E"/><stop offset="1" stop-color="#ABDDD7"/></linearGradient><linearGradient id="c2ygphfiz" x1="9" y1="4" x2="9" y2="14" gradientUnits="userSpaceOnUse"><stop stop-color="#00A89E"/><stop offset="1" stop-color="#ABDDD7"/></linearGradient></defs></svg>