<!-- by TradingView --><svg width="18" height="18" xmlns="http://www.w3.org/2000/svg"><path fill="#0072FF" d="M0 0h18v18H0z"/><path d="M12.644 7.28L10.449 12h-.863l2.303-4.968c.266.042.522.125.76.247h-.005zm-3.83-2.771L5.45 11.77a2.552 2.552 0 01-1.066-.932 2.447 2.447 0 01-.388-1.34 2.399 2.399 0 01.179-.945c.123-.3.305-.575.537-.807a2.54 2.54 0 01.815-.545 2.6 2.6 0 01.968-.2c0-1.324 1.022-2.4 2.317-2.493zM11.493 7L9.177 12h-.955l2.913-6.278c.227.375.354.812.354 1.28h.005zm.854 4.845l1.486-3.203a2.43 2.43 0 01-.065 1.898 2.541 2.541 0 01-1.42 1.305zm.66-4.328c.204.158.39.344.535.56l-1.808 3.909a2.366 2.366 0 01-.245.013h-.564l2.081-4.482zM9.003 4.5c.354 0 .69.075.995.212L6.623 12h-.127c-.305 0-.608-.057-.89-.168L9.003 4.5zm1.94.935L7.9 12H6.882l3.326-7.187c.284.158.534.368.736.618v.004z" fill="#fff"/></svg>