<!-- by TradingView --><svg width="18" height="18" xmlns="http://www.w3.org/2000/svg"><path fill="#B30D23" d="M0 0h18v18H0z"/><path d="M9.544 11.822L9 12.857l-.545-1.035c-3.296-.256-5.884-2.754-5.884-2.754 0-.006 2.518-2.426 5.738-2.748l.433-.743L9 5.143l.44.743.245.434c3.232.316 5.744 2.748 5.744 2.748s-2.588 2.498-5.885 2.754zM3.116 9.068s2.488 1.725 4.988 2.094l-1.218-2.32.334-.583.305.577-.006.006 1.182 2.38c.098.003.196.003.293 0h.275l.879-1.773.632-1.201.328.582-1.218 2.326c2.5-.357 4.994-2.046 4.994-2.094 0-.041-2.371-1.653-4.813-2.063l.37.654-.311.63-.802-1.368A6.027 6.027 0 009 6.903c-.105 0-.217 0-.334.012l-.82 1.368-.304-.6.387-.679c-2.436.417-4.813 2.064-4.813 2.064z" fill="#fff"/></svg>