<!-- by TradingView --><svg width="18" height="18" viewBox="0 0 18 18" xmlns="http://www.w3.org/2000/svg"><path fill="url(#ayp5zlrdb)" d="M0 0h18v18H0z"/><path d="M12.38 6.9a.35.35 0 0 1-.24.1H4.21c-.17 0-.27-.19-.17-.32L5.6 5.1c.07-.06.15-.1.24-.1h7.96c.17 0 .27.19.17.32L12.38 6.9Z" fill="url(#byp5zlrdb)"/><path d="M12.38 12.9a.35.35 0 0 1-.24.1H4.21c-.17 0-.27-.19-.17-.32L5.6 11.1c.07-.07.15-.1.24-.1h7.96c.17 0 .27.19.17.32l-1.58 1.59Z" fill="url(#cyp5zlrdb)"/><path d="M12.38 8.1a.35.35 0 0 0-.24-.1H4.21c-.17 0-.27.19-.17.32L5.6 9.9c.07.06.15.1.24.1h7.96c.17 0 .27-.19.17-.32l-1.58-1.59Z" fill="url(#dyp5zlrdb)"/><defs><linearGradient id="ayp5zlrdb" x1="3.35" y1="3.12" x2="21.9" y2="24.43" gradientUnits="userSpaceOnUse"><stop stop-color="#1A1E21"/><stop offset="1" stop-color="#06060A"/></linearGradient><linearGradient id="byp5zlrdb" x1="4.35" y1="7.81" x2="13.48" y2="5.12" gradientUnits="userSpaceOnUse"><stop stop-color="#6E73E3"/><stop offset=".32" stop-color="#41B8C8"/><stop offset=".58" stop-color="#27E2B7"/><stop offset="1" stop-color="#16FC99"/></linearGradient><linearGradient id="cyp5zlrdb" x1="3.8" y1="12.68" x2="14.2" y2="11.22" gradientUnits="userSpaceOnUse"><stop stop-color="#9E48FF"/><stop offset=".34" stop-color="#8D4DF9"/><stop offset=".57" stop-color="#6B7AE1"/><stop offset=".95" stop-color="#45B3CE"/></linearGradient><linearGradient id="dyp5zlrdb" x1="4.39" y1="9" x2="13.81" y2="9" gradientUnits="userSpaceOnUse"><stop stop-color="#8654F3"/><stop offset=".47" stop-color="#549AD6"/><stop offset=".93" stop-color="#26D9B2"/></linearGradient></defs></svg>