<!-- by TradingView --><svg width="18" height="18" viewBox="0 0 18 18" xmlns="http://www.w3.org/2000/svg"><path fill="url(#aktpdb0zb)" d="M0 0h18v18H0z"/><path d="M11.33 12.14c-.06.18-1.1.86-1.98.86C8.05 13 7 12.24 7 11.27c0-.9 1.28-1.32 2.6-1.82 1.6-.56 2.4-1.56 2.4-2.92C12 4.91 10.74 4 8.83 4c-1 0-2.3.54-2.63.9l.6.62A4.7 4.7 0 0 1 8.83 5C10.17 5 11 5.87 11 6.53c0 .9-.59 1.46-1.94 1.98C7.4 9.14 6 9.76 6 11.18 6 12.68 7.04 14 9.35 14c.95 0 2.04-.54 2.65-1.21l-.67-.65Z" fill="#fff"/><defs><linearGradient id="aktpdb0zb" x1="3.35" y1="3.12" x2="21.9" y2="24.43" gradientUnits="userSpaceOnUse"><stop stop-color="#1A1E21"/><stop offset="1" stop-color="#06060A"/></linearGradient></defs></svg>