<!-- by TradingView --><svg width="18" height="18" viewBox="0 0 18 18" xmlns="http://www.w3.org/2000/svg"><path fill="url(#adugop3hr)" d="M0 0h18v18H0z"/><path d="M4.88 8.54c0-4.2 2.91-5.18 4.37-5.14 2.87 0 4.07 2.18 4.07 4.66 0 1.69 1.12 2.25 1.68 2.33 0 .44-.19.88-.96.88s-1.3.62-1.3 1.36c0 .75-.4.96-.92.96-.51 0-.94.2-1.2.79-.22.46-.75.6-1 .62-1.12 0-4.74-1.2-4.74-6.46Z" fill="#2D9C83"/><path d="M4.16 8.32c0-4.2 2.91-5.18 4.37-5.15 2.87 0 4.07 2.19 4.07 4.66 0 1.69 1.12 2.26 1.68 2.33 0 .44-.19.88-.96.88s-1.29.62-1.29 1.37c0 .74-.41.95-.92.95-.52 0-.95.2-1.21.79-.22.46-.75.6-1 .62-1.12 0-4.74-1.2-4.74-6.45Z" fill="#FAFAF7"/><path fill-rule="evenodd" d="M8.53 3A4.39 4.39 0 0 0 5.7 4.02c-.95.8-1.7 2.15-1.7 4.3 0 2.67.92 4.33 2 5.32 1.08.99 2.3 1.3 2.9 1.3h.01c.15 0 .36-.05.57-.16.22-.1.44-.28.57-.56.12-.26.27-.43.44-.54.17-.1.38-.15.61-.15.28 0 .56-.05.77-.24.21-.18.33-.48.33-.88 0-.66.45-1.2 1.12-1.2.42 0 .7-.12.9-.33.18-.2.23-.48.23-.72v-.15l-.15-.02a1.71 1.71 0 0 1-.95-.51 2.27 2.27 0 0 1-.58-1.65 5.5 5.5 0 0 0-1-3.36A3.88 3.88 0 0 0 8.53 3ZM5.9 4.3c-.86.73-1.57 1.97-1.57 4.03 0 2.58.88 4.14 1.9 5.07A4.43 4.43 0 0 0 8.9 14.6c.1 0 .27-.04.44-.12a.86.86 0 0 0 .41-.4c.15-.32.34-.55.58-.7.23-.14.5-.2.77-.2.24 0 .43-.04.55-.15.12-.1.22-.29.22-.62 0-.83.58-1.54 1.45-1.54.36 0 .55-.1.65-.22.08-.1.12-.21.14-.35-.3-.07-.67-.24-1-.58-.38-.4-.67-1-.67-1.89 0-1.2-.3-2.33-.93-3.15a3.56 3.56 0 0 0-2.98-1.34c-.7-.01-1.75.21-2.63.95Z" fill="#28404E"/><circle cx="6.75" cy="6.75" r="1.25" fill="#28404E"/><path d="M7 5.81h-.01a.96.96 0 0 0-.99.94.96.96 0 0 0 1 .94V5.8Z" fill="#18B68B"/><path d="M11 6.75a1.25 1.25 0 1 1-2.5 0 1.25 1.25 0 0 1 2.5 0Z" fill="#28404E"/><path d="M10 5.81h-.01a.96.96 0 0 0-.99.94.96.96 0 0 0 1 .94V5.8Z" fill="#60E6C5"/><defs><linearGradient id="adugop3hr" x1="3.25" y1="6.01" x2="18" y2="18" gradientUnits="userSpaceOnUse"><stop stop-color="#5DE4C3"/><stop offset="1" stop-color="#1BB88D"/></linearGradient></defs></svg>