<!-- by TradingView --><svg width="18" height="18" xmlns="http://www.w3.org/2000/svg"><path fill="#E53431" d="M0 0h18v18H0z"/><path d="M6.955 3.561a.124.124 0 01.15 0l.625.48a.126.126 0 01.046.133.127.127 0 01-.057.078.124.124 0 01-.139-.008l-.55-.42L5.231 5.19l7.896 5.996a.125.125 0 01.05.1.128.128 0 01-.05.102l-.58.44a.124.124 0 01-.174-.025.128.128 0 01.025-.177l.45-.34-7.902-5.995a.126.126 0 01-.05-.1.128.128 0 01.05-.102l2-1.528h.01zm2.004 0a.124.124 0 01.15 0l4.018 3.05a.126.126 0 01-.075.229h-2.008a.129.129 0 01-.075-.026L8.335 4.816a.126.126 0 01-.046-.133.127.127 0 01.057-.077.124.124 0 01.139.007l2.598 1.974h1.595L9.039 3.824 6.521 5.737a.124.124 0 01-.199-.12.128.128 0 01.049-.083l2.588-1.973zM5.501 6.192a.124.124 0 01.175.025.128.128 0 01-.025.177l-.42.32 7.896 6a.124.124 0 01.05.1.127.127 0 01-.05.102l-2.009 1.523a.124.124 0 01-.15 0l-.574-.44a.127.127 0 01.057-.227.124.124 0 01.093.024l.505.38 1.799-1.366-7.902-5.996a.126.126 0 01-.05-.1.128.128 0 01.05-.102l.55-.42h.005zm-.48 4.968h2.01c.024 0 .05.01.074.026l2.604 1.978a.125.125 0 01.049.083.128.128 0 01-.06.127.124.124 0 01-.139-.008L6.99 11.413H5.396l3.638 2.763 2.514-1.908a.124.124 0 01.175.026.128.128 0 01-.025.177L9.11 14.439a.124.124 0 01-.15 0l-4.013-3.05a.124.124 0 01-.1-.053.128.128 0 01.063-.195.123.123 0 01.112.02z" fill="#fff"/></svg>