<!-- by TradingView --><svg width="18" height="18" fill="none" xmlns="http://www.w3.org/2000/svg"><path fill="url(#paint0_linear_1530)" d="M0 0h18v18H0z"/><path d="M11.801 3.12c.044.119-.317.264-.503.321l.53-.12-.433.28c.116-.073.407-.208.635-.16.227.048.126.198.046.266.132-.038.17.091.172.16-.134.188-.403.583-.403.664 0 .1.02.178-.1.255-.119.077-.185.355-.075.462.11.107.71.865.816 1.161.106.296-.437.688-.545.776-.108.088-.209.131-.27.118-.05-.011-.042-.062-.031-.086.02-.018.011-.052-.189-.048a.254.254 0 01-.27-.231c-.015-.09-.063-.28-.14-.317-.197-.095-.465.107-.535.157l-1.281.77c-.094.081-.255.251-.145.29.138.05 1.467.84 1.605.963.138.123.813 1.042.923 1.381.11.34.055.13.159.37.103.241-.173.9-.42 1.197-.249.296-.958.826-1.544 1.104-.585.277-1.425.512-1.632.524-.207.012-.2.204-.22.228l-.2.253c.034-.002.103.009.103.068 0 .06-.138.21-.207.278-.091.255-.283.77-.316.79-.041.023-.055-.018-.081-.095l-.002-.005c-.028-.08-.2 0-.269 0s-.262.031-.317 0c-.055-.03-.055-.326-.255-.511s-.103-.58-.068-.734c.034-.155.35-.55.158-.759-.193-.21-.882-1.172-.985-1.702-.103-.53.49-1.345.634-1.345.144 0 .392.08.475.124.083.043 0 .246.069.283.069.037.517.247.579.303.061.055-.062.382 0 .37.05-.01.149-.033.192-.044v.512c0 .104.124.085.186.062.51-.019 1.764-.802 1.963-1.049.2-.246.262-.48.248-.56-.013-.081-1.081-.482-1.625-.827-.435-.277-.779-.9-.896-1.178-.14-.3-.367-1.028-.158-1.536.21-.508 1.855-1.203 2.652-1.486.19-.337.647-1.104.95-1.474.38-.463.965-.37 1.02-.222z" fill="#fff"/><defs><linearGradient id="paint0_linear_1530" x1="3.349" y1="3.122" x2="21.904" y2="24.434" gradientUnits="userSpaceOnUse"><stop stop-color="#1A1E21"/><stop offset="1" stop-color="#06060A"/></linearGradient></defs></svg>