<!-- by TradingView --><svg width="18" height="18" viewBox="0 0 18 18" xmlns="http://www.w3.org/2000/svg"><path fill="url(#avjhhwkd2)" d="M0 0h18v18H0z"/><path d="m13.88 8.48-1.52 1.34c.05.1.07.2.04.31-.04.1-.1.17-.18.22l.38 2.08a.74.74 0 0 0 .44-.34c.21-.34.36-.74.41-1.15.04-.27.12-.54.24-.78.19-.37.3-.79.3-1.2a.82.82 0 0 0-.11-.48Z" fill="url(#bvjhhwkd2)"/><path d="M11.78 9.85a.33.33 0 0 1 .45-.14l1.54-1.35c-.27-.26-.72-.33-1.13-.2l-2.66.9a.28.28 0 0 0-.15.13l1.95.66Z" fill="#EA302A"/><path d="M11.48 11.92c.24.34.61.56.96.55l-.39-2.07-.08-.02a.36.36 0 0 1-.24-.35l-1.95-.67c0 .06.02.12.05.17l1.65 2.39Z" fill="url(#cvjhhwkd2)"/><path d="m10.96 13.63-1.68-1.11a.33.33 0 0 1-.26.13.33.33 0 0 1-.25-.11L7 13.57c.1.15.24.27.44.33.37.1.78.13 1.17.06.25-.05.52-.05.77 0 .4.07.8.05 1.18-.06.17-.05.3-.15.39-.27Z" fill="url(#dvjhhwkd2)"/><path d="M9.08 11.93a.36.36 0 0 1 .27.41l1.7 1.12c.15-.35.08-.82-.18-1.2L9.23 9.9a.28.28 0 0 0-.15-.11v2.15Z" fill="url(#evjhhwkd2)"/><path d="M7.12 12.27c-.24.35-.32.8-.2 1.13l1.75-1.02a.38.38 0 0 1-.01-.1c0-.15.1-.29.24-.34V9.8a.28.28 0 0 0-.13.1l-1.65 2.38Z" fill="url(#fvjhhwkd2)"/><path d="M5.64 9.82 4.12 8.48a.82.82 0 0 0-.12.48c.02.41.12.83.31 1.2.12.24.2.5.24.78.05.41.2.81.41 1.15.12.18.27.3.44.34l.38-2.08a.35.35 0 0 1-.18-.22.38.38 0 0 1 .04-.3Z" fill="url(#gvjhhwkd2)"/><path d="M5.58 12.46c.34 0 .71-.2.95-.55l1.64-2.38a.3.3 0 0 0 .06-.17l-1.95.66c0 .16-.09.3-.24.35a.33.33 0 0 1-.08.02l-.38 2.07Z" fill="url(#hvjhhwkd2)"/><path d="M5.82 9.7c.16-.06.32.01.4.16l1.95-.67a.28.28 0 0 0-.15-.12l-2.66-.9c-.41-.14-.86-.06-1.13.2l1.54 1.35.05-.02Z" fill="#DA181F"/><path d="m10.79 5.97-.74-1.94a.7.7 0 0 1 .47.02c.36.15.7.38.98.68.18.2.4.37.63.49.35.18.67.45.91.77a.8.8 0 0 1 .17.54l-2-.26a.36.36 0 0 0-.14-.25.33.33 0 0 0-.28-.05Z" fill="url(#ivjhhwkd2)"/><path d="m10.79 5.97-.74-1.94a.7.7 0 0 1 .47.02c.36.15.7.38.98.68.18.2.4.37.63.49.35.18.67.45.91.77a.8.8 0 0 1 .17.54l-2-.26a.36.36 0 0 0-.14-.25.33.33 0 0 0-.28-.05Z" fill="url(#jvjhhwkd2)" fill-opacity=".2"/><path d="M10.53 6.12c-.1.14-.09.33.02.45L9.37 8.31a.31.31 0 0 1-.06-.19V5.2c0-.45.21-.88.52-1.07l.73 1.95a.35.35 0 0 0-.03.05Z" fill="url(#kvjhhwkd2)"/><path d="M10.53 6.12c-.1.14-.09.33.02.45L9.37 8.31a.31.31 0 0 1-.06-.19V5.2c0-.45.21-.88.52-1.07l.73 1.95a.35.35 0 0 0-.03.05Z" fill="url(#lvjhhwkd2)" fill-opacity=".2"/><path d="M13.2 6.72c-.1.35-.4.66-.8.79l-2.66.9a.27.27 0 0 1-.17 0l1.2-1.74c.15.05.3 0 .4-.13a.37.37 0 0 0 .04-.07l1.99.25Z" fill="url(#mvjhhwkd2)"/><path d="M13.2 6.72c-.1.35-.4.66-.8.79l-2.66.9a.27.27 0 0 1-.17 0l1.2-1.74c.15.05.3 0 .4-.13a.37.37 0 0 0 .04-.07l1.99.25Z" fill="url(#nvjhhwkd2)" fill-opacity=".2"/><path d="m8.05 4.03-.73 1.94a.33.33 0 0 0-.3.05.36.36 0 0 0-.13.25l-2 .26a.8.8 0 0 1 .17-.54c.24-.32.56-.6.91-.77.24-.12.45-.29.63-.49.28-.3.62-.53.98-.68a.7.7 0 0 1 .47-.02Z" fill="url(#ovjhhwkd2)"/><path d="M5.7 7.5c-.38-.13-.69-.43-.79-.78l2-.26c0 .03.02.06.03.08.1.13.25.18.4.13l1.2 1.74a.27.27 0 0 1-.17 0l-2.66-.9Z" fill="url(#pvjhhwkd2)"/><path d="M7.45 6.57a.38.38 0 0 0-.01-.5l.73-1.95c.3.19.51.62.51 1.07v2.94c0 .07-.01.13-.05.18L7.45 6.57Z" fill="url(#qvjhhwkd2)"/><defs><linearGradient id="avjhhwkd2" x1="3.35" y1="3.12" x2="21.9" y2="24.43" gradientUnits="userSpaceOnUse"><stop stop-color="#1A1E21"/><stop offset="1" stop-color="#06060A"/></linearGradient><linearGradient id="bvjhhwkd2" x1="11.39" y1="9.24" x2="13.07" y2="11.45" gradientUnits="userSpaceOnUse"><stop offset=".46" stop-color="#EA302A"/><stop offset="1" stop-color="#C5151B"/></linearGradient><linearGradient id="cvjhhwkd2" x1="11.39" y1="9.24" x2="13.07" y2="11.45" gradientUnits="userSpaceOnUse"><stop offset=".46" stop-color="#EA302A"/><stop offset="1" stop-color="#C5151B"/></linearGradient><linearGradient id="dvjhhwkd2" x1="8.98" y1="14" x2="8.98" y2="12.36" gradientUnits="userSpaceOnUse"><stop stop-color="#AF0F14"/><stop offset="1" stop-color="#DA181F"/></linearGradient><linearGradient id="evjhhwkd2" x1="8.98" y1="14" x2="8.98" y2="12.36" gradientUnits="userSpaceOnUse"><stop stop-color="#AF0F14"/><stop offset="1" stop-color="#DA181F"/></linearGradient><linearGradient id="fvjhhwkd2" x1="8.98" y1="14" x2="8.98" y2="12.36" gradientUnits="userSpaceOnUse"><stop stop-color="#AF0F14"/><stop offset="1" stop-color="#DA181F"/></linearGradient><linearGradient id="gvjhhwkd2" x1="4" y1="11.5" x2="5.8" y2="10.37" gradientUnits="userSpaceOnUse"><stop stop-color="#AF0F14"/><stop offset=".87" stop-color="#DA181F"/></linearGradient><linearGradient id="hvjhhwkd2" x1="4" y1="11.5" x2="5.8" y2="10.37" gradientUnits="userSpaceOnUse"><stop stop-color="#AF0F14"/><stop offset=".87" stop-color="#DA181F"/></linearGradient><linearGradient id="ivjhhwkd2" x1="11.28" y1="4.69" x2="9.26" y2="7.84" gradientUnits="userSpaceOnUse"><stop stop-color="#F9B198"/><stop offset="1" stop-color="#EE1C25"/></linearGradient><linearGradient id="kvjhhwkd2" x1="11.18" y1="4.69" x2="9.13" y2="7.79" gradientUnits="userSpaceOnUse"><stop stop-color="#F9B198"/><stop offset="1" stop-color="#EE1C25"/></linearGradient><linearGradient id="mvjhhwkd2" x1="11.28" y1="4.69" x2="9.26" y2="7.84" gradientUnits="userSpaceOnUse"><stop stop-color="#F9B198"/><stop offset="1" stop-color="#EE1C25"/></linearGradient><linearGradient id="ovjhhwkd2" x1="6.24" y1="4.95" x2="8.65" y2="9.03" gradientUnits="userSpaceOnUse"><stop stop-color="#EE2729"/><stop offset="1" stop-color="#EE1C25"/></linearGradient><linearGradient id="pvjhhwkd2" x1="6.24" y1="4.95" x2="8.65" y2="9.03" gradientUnits="userSpaceOnUse"><stop stop-color="#EE2729"/><stop offset="1" stop-color="#EE1C25"/></linearGradient><linearGradient id="qvjhhwkd2" x1="6.26" y1="4.95" x2="8.69" y2="8.98" gradientUnits="userSpaceOnUse"><stop stop-color="#EE2729"/><stop offset="1" stop-color="#EE1C25"/></linearGradient><radialGradient id="jvjhhwkd2" cx="0" cy="0" r="1" gradientUnits="userSpaceOnUse" gradientTransform="matrix(.76132 -.90517 .8151 .68555 10.7 6.87)"><stop stop-color="#F1373A"/><stop offset="1" stop-color="#EC5F33"/></radialGradient><radialGradient id="lvjhhwkd2" cx="0" cy="0" r="1" gradientUnits="userSpaceOnUse" gradientTransform="rotate(-50.6 12.57 -7.8) scale(1.17135 1.05021)"><stop stop-color="#F1373A"/><stop offset="1" stop-color="#EC5F33"/></radialGradient><radialGradient id="nvjhhwkd2" cx="0" cy="0" r="1" gradientUnits="userSpaceOnUse" gradientTransform="matrix(.76132 -.90517 .8151 .68555 10.7 6.87)"><stop stop-color="#F1373A"/><stop offset="1" stop-color="#EC5F33"/></radialGradient></defs></svg>