<!-- by TradingView --><svg width="18" height="18" viewBox="0 0 18 18" xmlns="http://www.w3.org/2000/svg"><path fill="url(#a1xpk3hfc)" d="M0 0h18v18H0z"/><path fill-rule="evenodd" d="M13.37 10.32a.7.7 0 0 0-.37.52c-.03.14.02.32.06.45.14.47.25.87.33 1.2.04.15.07.38 0 .53-.1.21-.3.4-.55.4-.14.01-.29 0-.43-.04l-1.07-.3c-.3-.1-.63-.15-.88.1-.07.08-.13.17-.2.28l-.14.27c-.18.32-.36.66-.56.96a.64.64 0 0 1-.62.3.58.58 0 0 1-.4-.17c-.1-.11-.2-.25-.3-.43a362.2 362.2 0 0 1-.64-1.13c-.22-.3-.57-.3-.89-.2a44.63 44.63 0 0 1-1.4.36.64.64 0 0 1-.67-.33.61.61 0 0 1-.07-.45l.1-.43.3-1.04a.7.7 0 0 0-.1-.65c-.07-.09-.21-.19-.42-.3l-.82-.45c-.15-.09-.3-.18-.42-.29-.21-.17-.25-.46-.17-.72.06-.2.27-.34.45-.44.3-.18.62-.35.95-.53.21-.12.35-.21.4-.28.2-.26.19-.5.1-.8-.13-.42-.24-.82-.34-1.22-.03-.1-.04-.2-.04-.29 0-.18.09-.35.26-.5.25-.2.59-.13.87-.05l.98.28c.31.1.62.13.85-.1.07-.07.14-.17.22-.3l.64-1.15.14-.17a.65.65 0 0 1 1.02.08c.1.13.18.27.27.42l.5.91c.2.35.5.46.92.34l1.16-.33c.1-.03.21-.04.31-.06.26-.02.47.08.63.3.13.19.12.43.07.64a37.67 37.67 0 0 1-.4 1.46c-.05.3.1.56.37.71l.94.52.4.26c.22.15.32.36.28.63a.6.6 0 0 1-.24.42c-.12.1-.25.18-.4.26l-.98.55Zm-.36-.6c-.6.33-.85.99-.66 1.66a102.17 102.17 0 0 0 .35 1.3l-.01.03a71.43 71.43 0 0 0-1.13-.31 2.49 2.49 0 0 0-.6-.12c-.61 0-1.04.32-1.32.85a38.8 38.8 0 0 1-.64 1.1.03.03 0 0 1-.02 0 1.48 1.48 0 0 0-.06-.1l-.06-.1-.57-1.02a1.4 1.4 0 0 0-1.62-.67 47.06 47.06 0 0 0-1.37.37.02.02 0 0 1-.01 0v-.02c-.01 0-.01 0 0 0a42.46 42.46 0 0 1 .36-1.33l.01-.05a1.4 1.4 0 0 0-.76-1.65A81.74 81.74 0 0 1 3.75 9h.01l.25-.15.99-.56c.38-.21.6-.54.7-.97.05-.26 0-.5-.08-.78A85.34 85.34 0 0 1 5.3 5.3c.09 0 .16.03.24.05l.81.23c.3.09.53.14.68.14.4 0 .74-.13 1.02-.41.1-.1.19-.22.28-.4A87.9 87.9 0 0 1 9 3.77h.01l.16.26.49.9c.11.2.25.39.44.52.26.2.55.29.86.28.17 0 .39-.05.67-.14a38.69 38.69 0 0 1 1.07-.28v.01c0 .09-.03.17-.05.25l-.29 1.01c-.16.54-.07 1.1.34 1.49.1.1.3.23.57.38l.94.53c.04.02.04.04 0 .06-.27.17-.56.32-.84.48l-.36.2Zm-1.62 1.64a3.39 3.39 0 0 0-4.8-4.77 3.39 3.39 0 0 0 4.8 4.77ZM9.78 8.6c.33-.16.6-.16.95-.02l.06.03c.09.04.15.07.25 0l.02-.01c.06-.04.12-.08.15-.14.04-.11 0-.2-.09-.27a1.74 1.74 0 0 0-1.64-.07c-.15.07-.42.23-.45.4v.05C9 8.62 9 8.67 9 8.73v1.8h.53a.14.14 0 0 0 .14-.14V8.87c0-.1 0-.23.1-.28Zm-1.42-.2c-.06.18-.22.21-.39.18a1.21 1.21 0 0 0-.8.1c-.06.03-.13.03-.19 0a.55.55 0 0 1-.19-.15c-.06-.09-.04-.21.05-.27.39-.26.88-.29 1.34-.18.15.03.24.15.18.32Z" fill="#fff"/><defs><linearGradient id="a1xpk3hfc" x1="3.35" y1="3.12" x2="21.9" y2="24.43" gradientUnits="userSpaceOnUse"><stop stop-color="#1A1E21"/><stop offset="1" stop-color="#06060A"/></linearGradient></defs></svg>