<!-- by TradingView --><svg width="18" height="18" viewBox="0 0 18 18" xmlns="http://www.w3.org/2000/svg"><path fill="#2862FF" d="M0 0h18v18H0z"/><path d="M9 4c2.82 0 5 2.18 5 5s-2.18 5-5 5-5-2.18-5-5 2.18-5 5-5Zm1.54 4V7h1.15V6H6.31v1h1.15v1h-.52c-.81.01-1.4.57-1.4 1.38 0 .82.6 1.62 1.42 1.62h.5v1H8.5v-1h1v1h1.04v-1h.84c.31 0 .5-.2.5-.48 0-.27-.19-.52-.5-.52h-.84V9h.84c.31 0 .5-.18.5-.46 0-.27-.19-.54-.5-.54h-.84ZM9.5 10h-1V9h1v1Zm0-2h-1V7h1v1Zm-2.04 2h-.5c-.27 0-.5-.27-.5-.51-.02-.25.23-.49.5-.49h.5v1Z" fill="#fff"/></svg>