<!-- by TradingView --><svg width="18" height="18" viewBox="0 0 18 18" xmlns="http://www.w3.org/2000/svg"><path fill="url(#ae0vrctf2)" d="M0 0h18v18H0z"/><path d="M5 9.7c-.1 2.78 2.79 4.02 4.25 4.3.5-1.13 1.77-1.25 2.34-1.59.5-.3 1.3-.85 1.4-2.4.09-1.24-.81-2.43-1.27-2.87-.03.68-.46 1.06-1.03 1.04-.58-.03-.96-.58-.73-1.23.19-.53.24-1.1.25-1.31C10.18 4.32 9 3.34 8.42 3c.07 1.78-.3 2.25-1.9 3.65A4.15 4.15 0 0 0 5 9.7Z" fill="#fff"/><path d="M11.55 4.64v-.4c.52.51.7 1.2.73 1.47 0 .13 0 .4-.23.53a1 1 0 0 0-.38.47.95.95 0 0 1-.68-.9c0-.15.06-.48.28-.7.21-.21.28-.4.28-.47Z" fill="#fff"/><path d="M7 10V9h4v1H9.5v2h-1v-2H7Z" fill="#FF6D11"/><defs><linearGradient id="ae0vrctf2" x1="12.96" y1="1.33" x2="4.99" y2="16.8" gradientUnits="userSpaceOnUse"><stop stop-color="#EE6833"/><stop offset="1" stop-color="#F2A23E"/></linearGradient></defs></svg>