<!-- by TradingView --><svg width="18" height="18" viewBox="0 0 18 18" xmlns="http://www.w3.org/2000/svg"><path fill="#F0F3FA" d="M0 0h18v18H0z"/><path fill-rule="evenodd" d="M6 6h4.87c.36.02 1.07.3 1.07 1.26v.56c0 .14-.1.52-.52.91.2.06.58.35.58 1.03v.78c0 .49-.26 1.46-1.35 1.46H7V7H6V6Zm2 1h1v4H8V7Zm2.48 0H10v1.5h.48c.29 0 .52-.14.52-.31V7.3c0-.17-.23-.31-.52-.31Zm.06 2H10v2h.54c.26 0 .46-.16.46-.37V9.37c0-.2-.2-.37-.46-.37Z" fill="#9E091C"/><path d="m10.12 7.92-3.13 3.02h1.66L6.52 16l3.88-6.4-1-.08.72-1.6Z" fill="#FABD17"/><path d="m8.8 10 1.32-2.07-.48 1.3 2.04-.38L6.53 16l3.77-6.3-1.5.3Z" fill="url(#akkxjwdnz)"/><path d="M14 9a5 5 0 0 1-5.51 4.97l.26-.48.25.01a4.5 4.5 0 1 0-2.18-.56l-.18.47A5 5 0 1 1 14 9Z" fill="#F4BE0F"/><defs><linearGradient id="akkxjwdnz" x1="11.37" y1="9.04" x2="7.88" y2="10.64" gradientUnits="userSpaceOnUse"><stop stop-color="#F04206"/><stop offset="1" stop-color="#F8BA16"/></linearGradient></defs></svg>