<!-- by TradingView --><svg width="18" height="18" viewBox="0 0 18 18" xmlns="http://www.w3.org/2000/svg"><path fill="#7A2BF9" d="M0 0h18v18H0z"/><path fill-rule="evenodd" d="M13.62 10.91A5 5 0 1 0 4.38 7.1a5 5 0 0 0 9.24 3.82Zm-5.4-6.43a4.38 4.38 0 0 0-1.89.79c-.04.04.08.1.2.07a4.9 4.9 0 0 1 1.45.01c.2.02.5.09.92.2.1.02.18-.03.23-.11.19-.33.4-.6.68-.85a.06.06 0 0 0-.03-.1 4.51 4.51 0 0 0-.92-.08c-.21 0-.42.04-.64.07Zm.76 4.47c.05 0 .11-.01.18-.04l.65-.31c.61-.3 1.24-.52 1.9-.68.14-.04.25-.18.23-.32a4.6 4.6 0 0 0-.06-.36c-.05-.21-.25-.35-.43-.47l-.09-.06a8.13 8.13 0 0 0-1.79-.95c-.08-.03-.1-.08-.06-.15.18-.34.48-.72.85-.84.43-.14.83.23 1.04.56.18.28.33.59.44.92a7.08 7.08 0 0 1 .37 2c.03.4.03.8 0 1.2v.02c0 .15-.01.32-.12.4l-.4.3a14.5 14.5 0 0 1-3.25 1.72c-.34.12-.69.23-1.06.31-.32.08-.62.13-.91.14a1.5 1.5 0 0 1-.62-.08c-.47-.17.01-.85.19-1.05l.32-.37c.03-.03.06-.1.03-.13-.14-.18-.27-.2-.42-.04-.24.24-.44.52-.63.85-.05.1-.15.03-.2-.04a4.52 4.52 0 0 1-.73-2.3c0-.26-.1-1.01.2-1.15.49 1.58 1.96 2.7 3.38 3.42.14.07.27.13.4.17.15.05.4-.07.53-.16.05-.03.07-.1.06-.16l-.04-.21c-.12-.57-.25-1.13-.25-1.71a8.14 8.14 0 0 1 .47-2.99c.02-.06 0-.1-.06-.13a.77.77 0 0 0-.23-.07h-.02a.23.23 0 0 0-.1.14c-.11.39-.2.7-.24.95-.08.47-.19.9-.22 1.39 0 .18-.09.27-.26.37-.33.2-.57.39-.83.58l-.49.36c-.12.08-.23-.01-.32-.1-.73-.61-1.45-1.53-1.45-2.53 0-.5.18-.96.6-1.23a3.07 3.07 0 0 1 1.85-.42c.19.02.38.03.56.06 1.36.2 2.65.83 3.72 1.69.04.03-.06.07-.08.07-.88.23-1.72.56-2.53.98-.08.04-.2.46-.08.45Zm-.62 2.22.14.05c.03.01.06-.01.05-.04-.18-.58-.22-1.2-.27-1.8-.47.3-.88.59-1.31.93.41.33.92.64 1.4.86Zm3.8-5.25a2.13 2.13 0 0 1-.08-.2c-.03-.09.08-.06.11-.03.4.4.72.86.97 1.37.02.03.15.33.04.32a8.04 8.04 0 0 0-.5-.03.2.2 0 0 1-.2-.16 6.84 6.84 0 0 0-.35-1.27Zm1.18 2.64c.05-.06.09-.14.12-.23.04-.12.08-.26-.01-.37-.13-.15-.38-.2-.59-.21h-.11a.06.06 0 0 0-.05.1l.54.72c.02.03.08.03.1 0Zm-.4.53c-.08.1-.17.18-.27.25-.04.03-.05-.05-.05-.07a6.81 6.81 0 0 0 .01-.68c0-.04.06-.06.1-.03l.22.35c.02.06.03.13-.01.18Zm-.5 2.46c.59-.27.9-.75.91-1.38 0-.15-.03-.3-.06-.44a.41.41 0 0 0-.07-.18.07.07 0 0 0-.1-.02l-.38.32a.57.57 0 0 0-.2.4c-.04.4-.12.8-.24 1.2-.02.08.08.13.14.1Zm-2.35.06a14.6 14.6 0 0 0 1.93-1.17c.04-.03.07-.02.07.03v.14l-.27 1.03a.17.17 0 0 1-.15.13c-.49.07-.97.04-1.46-.02-.08-.01-.28-.06-.12-.14Zm2.02.78.24-.26c.04-.04 0-.1-.05-.08-.05.01-.2.03-.23.09l-.1.22c-.04.09.1.07.14.03Zm-2.78-.08-.08-.19c-.03-.05 0-.14.06-.15h.1a7.59 7.59 0 0 0 2 .24c.02.01.17 0 .14.07-.24.5-.73 1.23-1.39.99a1.11 1.11 0 0 1-.38-.27 2.6 2.6 0 0 1-.45-.7Zm-2.78.58a4.72 4.72 0 0 0 1.67.63c.43.09.88.06 1.32.05.04 0 .17-.05.1-.12-.1-.13-.24-.26-.34-.39a3.3 3.3 0 0 1-.39-.7c-.05-.1-.08-.18-.21-.13-.4.15-.83.28-1.28.39-.3.07-.6.1-.9.16-.08.01.01.1.03.1Z" fill="#fff"/></svg>