<!-- by TradingView --><svg width="18" height="18" xmlns="http://www.w3.org/2000/svg"><path fill="#63CEFC" d="M0 0h18v18H0z"/><path fill-rule="evenodd" d="M14 5.982L9.034 3 4 5.982v5.965L9.034 15 14 11.947V5.982zm-5 6.956l-1.011.662L9 14.246l1.032-.646L9 12.938zm-2.61-.215l2.625-1.491 2.665 1.491-.89.527-1.775-.964-1.72.964-.906-.527zm2.583-3.216l-4.26 2.329.99.512 3.27-1.772 3.371 1.772.943-.512-4.314-2.329zm-1.084-.131V8.35L9 7.646l1.111.705v1.025L9 8.748l-1.111.628zM6.222 7.389v2.925l1.111-.62v-1.78l1.645-.959 1.689.958v1.781l1.11.62V7.39l-2.799-1.65-2.756 1.65zm-1.666 3.84v-4.87L9 3.762l4.444 2.597v4.87l-1.11-.61V6.936L9 5.019 5.667 6.935v3.685l-1.111.608z" fill="#fff"/></svg>