<!-- by TradingView --><svg width="18" height="18" viewBox="0 0 18 18" xmlns="http://www.w3.org/2000/svg"><path fill="url(#aezj2svz4)" d="M0 0h18v18H0z"/><path d="M13.88 7.31A5.25 5.25 0 0 0 9.2 8.54l-.2.21-.22-.22a5.24 5.24 0 0 0-4.66-1.27 4.46 4.46 0 0 0 1.32 4.36 5.28 5.28 0 0 0 7.07.04 4.48 4.48 0 0 0 1.36-4.35Z" fill="#14F195"/><path d="M10.7 12.73A6.18 6.18 0 0 0 9 8.76a6.18 6.18 0 0 0-1.73 3.94c1.1.38 2.28.4 3.42.03Z" fill="#14B572"/><path d="M10.76 5.56c0-.08 0-.16-.02-.24l-.55-.18s0 .01 0 0a5.21 5.21 0 0 0-2.92.15c-.02.1-.03.19-.03.3 0 .07 0 .15.02.23.18.06.37.14.55.18 0 0 0 .01 0 0 .97.23 1.98.18 2.92-.15l.03-.29Z" fill="#14F195"/><defs><linearGradient id="aezj2svz4" x1="3.35" y1="3.12" x2="21.9" y2="24.43" gradientUnits="userSpaceOnUse"><stop stop-color="#1A1E21"/><stop offset="1" stop-color="#06060A"/></linearGradient></defs></svg>