<!-- by TradingView --><svg width="18" height="18" viewBox="0 0 18 18" xmlns="http://www.w3.org/2000/svg"><path fill="url(#aha5vzyb0)" d="M0 0h18v18H0z"/><path d="M5.79 11.78c-.02-.16-.03-.3-.03-.46 0-.28-.01-.55-.03-.81-.02-.23.07-.49.06-.74 0-.3 0-.54.03-.7.04-.24.1-.47.1-.72l-.02-1.5c0-.09.01-.18.04-.26A.78.78 0 0 0 6 6.37c.01-.19 0-.39.06-.56.05-.17.2-.31.26-.48.07-.16.18-.3.32-.44.17-.15.35-.31.55-.42.2-.12.42-.2.64-.26.34-.08.76-.14 1.25-.19a3.8 3.8 0 0 1 1.5.14l.35.06c.11.01.23.05.35.1.18.1.39.19.54.31.17.14.32.3.46.5.1.15.18.33.21.49l.13.52c.05.22.07.41.06.58-.04.41-.06.81-.08 1.2-.01.24 0 .46.04.67a2 2 0 0 1 0 1.05c-.05.14-.08.28-.1.41-.03.16.01.34.01.5a11.92 11.92 0 0 1-.02 1.05c.14.15.28.28.43.39.03.03.05.06.05.1l-.02 1.03c0 .08-.06.14-.14.18l-1.25.64a.56.56 0 0 1-.3.06l-6.15-.34c-.09 0-.13-.05-.13-.12L5 12.44c0-.08.02-.13.09-.18a23.78 23.78 0 0 0 .7-.48Z" fill="#E0E2C2"/><path d="M11.78 9.1c.04-.06.1-.1.18-.15h.01v-.02a.03.03 0 0 0 0-.03l-.07-.08a.02.02 0 0 1-.01-.02l.01-.02.32-.2a.05.05 0 0 0 .03-.04V8.4c0-.03.02-.04.05-.03h.02c.03.02.05.03.05.06l.07.59c.02.16.01.34-.03.5-.04.1-.06.22-.09.33-.04.16-.03.35-.03.52.02.3.03.6.02.9 0 .1-.01.26-.11.3a74.96 74.96 0 0 1-.94.37l.07-.74c0-.16.03-.31.05-.43a.64.64 0 0 0-.02-.27c-.07-.29-.09-.59-.05-.9.06-.38.05-.77.06-1.15 0-.16.01-.33.04-.52.03-.3.06-.63.07-.96 0-.24-.01-.47-.07-.7a14.04 14.04 0 0 1-.17-.75c-.04-.3-.3-.48-.55-.66-.05-.04-.08-.1-.13-.13-.25-.14-.5-.32-.75-.4l-.25-.12a18.74 18.74 0 0 0 .45.03c.07 0 .26.05.57.14.15.04.33.02.48.08.17.07.3.15.39.22.08.06.14.17.18.3.02.11-.05.16-.13.21-.02.01-.02.02-.01.03l.06.15c0 .01 0 .02.02.01l.02-.02-.02-.1v-.03c.05-.06.14-.11.23-.1.27.04.37.22.42.43.04.18.08.37.14.56.06.23.08.45.06.66-.04.4-.07.75-.07 1.05 0 .16-.04.29-.14.39l-.01.03v.18c0 .06-.03.1-.08.14a9.14 9.14 0 0 1-.28.21c.03.05.04.09.04.13l-.01.04-.08.07-.02.03v.04c0 .02 0 .03.01 0Z" fill="#0D0311"/><path d="M12.35 6.52c-.03.01-.04.02-.05.01h-.03l-.02.01v.01a3.83 3.83 0 0 0-.01.14l.03.02c.06.01.09.03.08.06l-.06.66c0 .15 0 .3-.02.45 0 .12-.04.2-.1.28-.1.11.01.28-.1.36a4.07 4.07 0 0 1-.3.23v.04l.04.08v.03l-.02.03c-.08.04-.1.1-.07.18.03.1.04.2.04.3 0 .02.01.02.02 0 .03-.09.06-.17.07-.26a.18.18 0 0 1 .1-.12c.07-.04.11-.1.06-.19a.05.05 0 0 1-.01-.03c0-.02.01-.03.02-.03l.27-.18h.02l.01.01a8.44 8.44 0 0 1 .05.69c-.02.08-.01.17-.04.25-.09.23-.12.44-.1.67l.01.95c0 .1 0 .2-.03.3 0 0 0 .02-.02.03a.1.1 0 0 1-.03.02l-.78.33h-.02l-.01-.01v-.1c.03-.22.05-.45.06-.67 0-.08 0-.15.03-.21a.6.6 0 0 0 0-.35 2.1 2.1 0 0 1-.07-.75c.04-.33.05-.63.06-.91a8.38 8.38 0 0 1 .08-1.27l.04-.52c0-.2 0-.4-.03-.59 0-.08-.03-.18-.07-.31-.07-.24-.1-.48-.16-.72a.73.73 0 0 0-.13-.27c-.12-.16-.32-.27-.47-.4a7.2 7.2 0 0 0-.69-.43c-.03-.02-.03-.03.01-.03.13-.01.3.05.43.09.2.05.44.06.62.13.1.03.2.09.3.15.12.08.16.2.2.31v.05l-.03.03-.07.07c-.08.06 0 .15.01.23l-.01.04-.05.03c-.02.01-.02.02-.02.04l.01.01.21-.07c.02 0 .03-.02.04-.03v-.13l.01-.03.03-.02a.1.1 0 0 1 .03 0c.17-.03.3.05.36.18.02.05.05.1.06.16a6.22 6.22 0 0 0 .2.78l.01.19Z" fill="#4301BD"/><path d="M6.09 11.16a.75.75 0 0 0 .2-.08c-.08.01-.15.04-.21.07a.19.19 0 0 1-.07.02c-.01 0-.02 0-.02-.02 0-.2 0-.39-.03-.57a.81.81 0 0 1 0-.25c.06-.26.08-.5.07-.74 0-.19 0-.39.05-.58.05-.27.07-.49.07-.67V7.16c0-.09-.02-.2.1-.25h.03a2.3 2.3 0 0 1 .26.2.05.05 0 0 1 0 .04s0 .02-.02.02v.01c-.02.05 0 .05.02.01a.5.5 0 0 0 .08-.12v-.02c-.04-.03-.08-.05-.1-.09-.06-.1-.13-.17-.17-.27l-.13-.36a.31.31 0 0 1-.02-.16c.04-.24.12-.42.23-.55.05-.06.1-.13.12-.2.12-.33.46-.55.75-.77l.15-.08h.05l.04.02.06.08c.01.06.03.1.07.15v.13c0 .01.02.02.04.01a.1.1 0 0 1 .04 0c.02 0 .03 0 .02-.02a.74.74 0 0 1-.15-.3l.01-.12c0-.02 0-.03.02-.05a7.24 7.24 0 0 1 1.2-.1c.57 0 1.08.16 1.5.47.03.02.04.04.03.06a3.06 3.06 0 0 0 0 .25.64.64 0 0 1 .06-.2h.01a.02.02 0 0 1 .02 0c.26.2.52.32.56.65.04.28.1.54.18.78l.03.14c0 .47.03.97-.05 1.42-.04.23-.06.43-.06.6 0 .4-.01.8-.05 1.17-.02.23-.02.46.04.69a.9.9 0 0 1 .03.32 42.4 42.4 0 0 0-.13 1.22c0 .02-.02.03-.03.02-1.03-.02-2.14-.1-3.16-.14-.6-.02-1.18-.06-1.77-.09h-.02l-.02-.02c-.02-.12-.06-.47.07-.55Z"/><path d="M8.09 5.25c-.05-.06-.13-.13-.15-.2-.02-.04-.02-.07-.06-.1-.12-.09-.22-.26-.2-.4l.02-.03h.03c.43-.09.86-.11 1.3-.1a2.43 2.43 0 0 1 1.28.47v.03l.02.29c0 .07-.08.15-.1.22-.02.04 0 .05.03.02.15-.11.22-.24.21-.39l.01-.01a.02.02 0 0 1 .02 0c.23.15.44.3.47.56a8.26 8.26 0 0 0 .16.73c.03.1.04.2.05.3 0 .43 0 .8-.03 1.13-.02.2-.07.4-.08.6l-.01.75c-.01.42-.13.84-.02 1.25.05.18.04.36.02.54a10.18 10.18 0 0 0-.1 1h-.01l-4.83-.23c-.02 0-.04-.01-.04-.03-.02-.1-.06-.4.08-.45.1-.03.21-.06.26-.16a.8.8 0 0 1 .18-.22c.07-.06.06-.07-.03-.03-.1.04-.17.1-.22.18-.05.07-.2.09-.27.1h-.02v-.01c0-.12 0-.23-.02-.34a1.61 1.61 0 0 1-.01-.35c.03-.22.06-.44.06-.66 0-.24.03-.5.07-.8.05-.35.07-.68.06-1-.01-.27-.02-.55-.01-.82 0-.04 0-.07.03-.1.02-.02.04-.02.07 0l.14.12.01.01v.02l-.02.1c0 .02.01.04.04.04.1 0 .15-.1.19-.17.01-.03.02-.07-.02-.1a.9.9 0 0 1-.2-.26L6.3 6.4a.53.53 0 0 1-.03-.24.87.87 0 0 1 .17-.45c.09-.11.15-.2.18-.3.07-.17.2-.32.37-.45a9.85 9.85 0 0 1 .48-.33h.02l.02.02.07.14c.05.1.03.19.05.28.01.05.04.09.08.1.04.03.06.02.05-.02a.96.96 0 0 0-.03-.1c0-.02 0-.03.02-.03h.04l.02.02c.03.05.05.12.1.15a2.37 2.37 0 0 0 .18.07v-.01Z" fill="#6A00FA"/><path d="M7.62 4.64c.03.1.07.2.15.3 0 .02 0 .02-.02.02a.1.1 0 0 0-.04 0c-.02.01-.03 0-.03-.02v-.1l-.01-.02a.3.3 0 0 1-.07-.15h.02v-.03Z" fill="#6A00FA"/><path d="M10.25 7.68c0 .03 0 .05.02.06.05.24.04.47-.01.7a.67.67 0 0 1-.18.3c-.2.21-.38.39-.55.54a.18.18 0 0 0-.05.13 171.09 171.09 0 0 0-.02.52l-.43-.02h-.08c-.02-.01-.03-.03-.03-.06a7.75 7.75 0 0 1-.02-.26 4.88 4.88 0 0 1-.18 0v.26c0 .03-.02.05-.05.04h-.44l-.02-.03-.02-.28v-.03a.42.42 0 0 0-.16 0H8L8 9.58l-.01.27s0 .02-.02.02l-.02.01h-.4l-.07-.01h-.02v-.01l-.01-.01a2.9 2.9 0 0 1 0-.44c.01-.1-.03-.18-.1-.25l-.3-.32c-.25-.28-.33-.69-.24-1.03.16-.63.6-1.03 1.34-1.2.33-.09.72-.06 1.05.07.46.18.94.56 1.05 1Z"/><path d="M9.02 9.5a2.86 2.86 0 0 0-.4-.01c-.02 0-.03 0-.03.02l-.02.27h-.25l-.01-.01V9.5c0-.02 0-.03-.03-.04h-.37a.03.03 0 0 0-.02 0l-.01.02v.24c0 .02-.02.02-.03.02h-.22c-.02 0-.02-.01-.02-.02v-.48c0-.05-.01-.1-.05-.14l-.4-.44c-.24-.27-.23-.61-.13-.94.17-.58.77-.97 1.46-1 .28-.01.55.05.8.18.64.35.95.97.71 1.6a.78.78 0 0 1-.2.26l-.4.37a.32.32 0 0 0-.1.22 34.57 34.57 0 0 1 0 .44h-.25v-.26c0-.02 0-.03-.03-.03Z" fill="#E0E2C2"/><path d="M10.25 7.68c.06.05.09.1.1.13.04.19.05.36.02.53-.02.14-.07.28-.16.42l-.15.17a18.78 18.78 0 0 1-.36.34c-.06.04-.1.1-.11.14a.64.64 0 0 0-.02.2l-.01.01h-.02V9.6c-.03-.14 0-.26.1-.34.14-.11.27-.24.4-.37.09-.08.15-.16.2-.24.12-.21.14-.48.1-.74a.45.45 0 0 0-.07-.17.12.12 0 0 1-.02-.06Z" fill="#4301BD"/><path d="M8.25 8.18c0 .05-.01.1-.04.14a.37.37 0 0 1-.09.12.44.44 0 0 1-.14.07.49.49 0 0 1-.16.03.46.46 0 0 1-.3-.12.33.33 0 0 1-.11-.25c0-.05 0-.1.03-.14a.37.37 0 0 1 .1-.11.44.44 0 0 1 .13-.08c.06-.02.11-.03.17-.02.1 0 .22.04.3.1.07.08.11.17.11.26ZM9.59 8.2c0 .1-.04.2-.12.26a.45.45 0 0 1-.3.1.45.45 0 0 1-.3-.1.34.34 0 0 1-.12-.26c0-.04.01-.1.03-.14a.36.36 0 0 1 .1-.11.43.43 0 0 1 .13-.08.48.48 0 0 1 .46.08c.08.06.12.16.12.25Z"/><path d="M7.72 7.96c-.1.06-.18.2-.15.31 0 .02 0 .02-.01 0-.07-.1.01-.3.15-.33.03 0 .03 0 .01.02ZM9.07 7.98c-.1.09-.16.18-.16.27 0 .07-.01.07-.03 0-.03-.12.03-.22.17-.28.04-.02.05-.02.02.01Z" fill="#E0E2C2"/><path d="M7.7 8.11c-.08.12-.05.25.06.3.1.06.25 0 .33-.11.07-.12.04-.25-.06-.3-.11-.06-.26 0-.33.11ZM9.04 8.15c-.07.12-.04.25.07.3.1.05.25-.01.32-.13.07-.12.04-.25-.07-.3-.1-.05-.25 0-.32.13Z" fill="#6A00FA"/><path d="m8.08 9.04.4-.6a.03.03 0 0 1 .03 0v.01l.34.6a.02.02 0 0 1 0 .02h-.77v-.03Z"/><path d="m8.5 8.8-.1.15c-.03.03-.06.04-.1.02-.02 0-.02 0-.01-.02l.17-.24.02-.01h.02c.02.03.02.06 0 .1Z" fill="#E0E2C2"/><path d="M8.5 8.8c.05.03.08.08.1.13.02.04 0 .06-.03.06a.19.19 0 0 1-.17-.04l.1-.16Z" fill="#4301BD"/><path d="M12.36 12.13a.22.22 0 0 1-.1.08 36.87 36.87 0 0 0-.8.35h-.01a1.87 1.87 0 0 1-.17-.37l.01-.01 1-.41h.07c.09.07.17.14.25.24v.03a.29.29 0 0 1-.23.08l-.02.01Z" fill="#0F043F"/><path d="m5.97 11.95 5.03.24H11l.01.02.15.35v.02l-.02.01-5.6-.31h-.01l-.01-.02v-.02l.42-.28.02-.01Z"/><path d="m6 12 4.95.24h.01l.01.01.11.26a.02.02 0 0 1 0 .01v.01h-.02l-5.37-.3h-.01l-.01-.01v-.02l.31-.2H6Z" fill="#6A00FA"/><path d="M12.54 12.43a.13.13 0 0 0 .01-.07c0-.04.03-.07.08-.08h.05c.04-.01.06 0 .06.03a6.65 6.65 0 0 1-.03.81l-1.18.6v.01h-.01V12.78l.02-.01.9-.42h.05l.02.07c0 .02.01.02.03 0Z"/><path d="m12.58 12.47.04-.1c0-.02.02-.03.04-.03l.02.01v.06c-.04.2-.05.37-.03.54v.03c.03.03.03.05.03.09 0 0 0 .02-.02.02a3.99 3.99 0 0 1-.27.13l-.02.01v.01c-.03.04-.06.06-.1.05h-.01v.02a.77.77 0 0 0-.12.05v.01a.16.16 0 0 0-.08.04l-.03.02c-.06 0-.06.04-.1.05h-.04a.23.23 0 0 1-.16.08l-.07.01a.06.06 0 0 1-.05 0h-.02v-.03c-.03-.1-.03-.22-.02-.34.02-.11.01-.23 0-.35v-.03l.03-.02.74-.34c.06-.03.08-.02.06.04a.1.1 0 0 1-.03.04.05.05 0 0 0-.01.03l-.01.2c0 .01 0 .02-.02.03a.24.24 0 0 1-.1.06c-.05.01-.05.02 0 .03.09.02.18-.03.21-.1a.25.25 0 0 1 .05-.07.06.06 0 0 0 .01-.04c0-.06-.01-.16.06-.2l.02-.01Z" fill="#0F043F"/><path d="M6 13.03a.42.42 0 0 0-.3 0h-.05l-.12-.05a.32.32 0 0 0-.17 0 .03.03 0 0 1-.03 0v-.01l-.01-.01v-.4l.01-.02a.03.03 0 0 1 .02 0l5.8.33h.04l.01.04v.78l-.01.03-.03.01c-.1 0-.27.02-.33-.04-.1-.07-.14-.18-.19-.27a.18.18 0 0 0-.07-.08.1.1 0 0 0-.05-.02c-.02 0-.03 0-.02.02a1.14 1.14 0 0 1 .12.34l-.01.01h-.22l-.9-.03-.12-.03a81.32 81.32 0 0 0-2.38-.12 76.86 76.86 0 0 0-1.66-.11c0-.07-.02-.17.02-.22.04-.05.11-.13.2-.1.06.04.15.05.22 0a.46.46 0 0 1 .22-.04c.04 0 .04 0 0-.01Z" fill="#4301BD"/><defs><linearGradient id="aha5vzyb0" x1="3.35" y1="3.12" x2="21.9" y2="24.43" gradientUnits="userSpaceOnUse"><stop stop-color="#1A1E21"/><stop offset="1" stop-color="#06060A"/></linearGradient></defs></svg>