<!-- by TradingView --><svg width="18" height="18" fill="none" xmlns="http://www.w3.org/2000/svg"><path fill="url(#paint0_linear_1530)" d="M0 0h18v18H0z"/><path fill-rule="evenodd" clip-rule="evenodd" d="M6.168 6.523c.627-.856 2.457-2.389 4.756-1.663 2.3.726 3.009 2.845 3.076 3.814-.14-.72-.853-2.23-2.584-2.502.939.684 2.577 2.642 1.622 4.997-.954 2.355-2.92 2.867-3.783 2.83.698-.056 2.181-.638 2.526-2.526-.478.673-1.876 1.982-3.643 1.84C5.93 13.135 4.28 11.638 4 9.557c.114.66.782 2.033 2.539 2.246-.707-.436-2.07-1.86-1.866-4.073.254-2.766 2.83-3.692 3.973-3.73-.785.124-2.38.803-2.478 2.523zM9 11a2 2 0 100-4 2 2 0 000 4z" fill="#92FFBE"/><defs><linearGradient id="paint0_linear_1530" x1="3.349" y1="3.122" x2="21.904" y2="24.434" gradientUnits="userSpaceOnUse"><stop stop-color="#1A1E21"/><stop offset="1" stop-color="#06060A"/></linearGradient></defs></svg>