<!-- by TradingView --><svg width="18" height="18" viewBox="0 0 18 18" xmlns="http://www.w3.org/2000/svg"><path fill="#98E5B7" d="M0 0h18v18H0z"/><path d="M5.74 13.9 4.11 5.05l5.3-.87c1.27-.2 3.16-.24 3.98 1.58.66 1.46-.36 2.87-.95 3.4l2.4 3.11-4.12.76-1.58-2.46-.17.04.54 2.64-3.77.63Z" fill="#fff"/><path d="M11.6 4.13c.75.2 1.46.67 1.88 1.6.34.76.24 1.5 0 2.12a3.95 3.95 0 0 1-.92 1.32L15 12.35l-4.33.79-1.57-2.46h-.01l.53 2.65-3.95.67L4 4.98l.1-.01 5.3-.87a5.4 5.4 0 0 1 2.2.03Zm-.06.18a5.2 5.2 0 0 0-2.12-.03l-5.2.85 1.6 8.66 3.57-.6-.53-2.64.33-.08 1.58 2.47 3.9-.72-2.36-3.07.06-.05c.29-.26.68-.73.92-1.32.24-.58.33-1.27.01-1.97a2.57 2.57 0 0 0-1.76-1.5Z"/><path d="m8.1 5.51 2.45-.4c.65-.11 2.2-.04 2.66 1.36.56 1.75-.52 2.76-1.46 3.07l-2.7.51c-.98.23-2.75-.44-2.75-2.1 0-1.67 1.2-2.32 1.8-2.44Zm2.82 4.02c1.25 0 2.27-.98 2.27-2.18 0-1.2-1.02-2.17-2.27-2.17s-2.26.97-2.26 2.17 1.01 2.18 2.26 2.18Z"/></svg>