<!-- by TradingView --><svg xmlns="http://www.w3.org/2000/svg" width="18" height="18"><path fill="#178DD0" d="M0 0h18v18H0z"/><path d="M5.16 4.44C5 4.64 5 4.93 5 5.5c0 .57 0 .85.16 1.06l.06.07c.18.18.44.2.96.25a36.03 36.03 0 005.64 0c.52-.04.78-.07.96-.25a.76.76 0 00.06-.07c.16-.2.16-.5.16-1.06 0-.58 0-.87-.16-1.07a.76.76 0 00-.06-.08c-.18-.18-.45-.2-.97-.24a36.44 36.44 0 00-5.62 0c-.52.04-.78.06-.97.24a.76.76 0 00-.06.08zm.16 4.65c-.16.12-.18.29-.22.62a15.28 15.28 0 00-.04 3.18c.05.5.07.75.28.93.2.18.48.18 1.04.18h.9c.34 0 .5 0 .61-.1.11-.1.11-.26.11-.59v-2.63c0-.49 0-.73-.24-1.04-.23-.3-.39-.34-.7-.43a3.37 3.37 0 00-.5-.1c-.22-.04-.4-.06-.56-.07-.35-.04-.53-.06-.68.06zm7.58.62c-.04-.33-.06-.5-.22-.62-.15-.12-.33-.1-.68-.06l-.56.06-.5.1c-.31.1-.47.14-.7.44-.24.3-.24.55-.24 1.04v2.63c0 .33 0 .49.1.59.11.1.28.1.62.1h.9c.56 0 .83 0 1.04-.18.2-.18.23-.43.28-.93a15.46 15.46 0 00-.04-3.18z" fill="#fff"/></svg>