<!-- by TradingView --><svg width="18" height="18" viewBox="0 0 18 18" xmlns="http://www.w3.org/2000/svg"><path fill="#F0F3FA" d="M0 0h18v18H0z"/><path fill-rule="evenodd" d="M9.35 13.33c2.18 0 4-1.49 4.42-3.47l.74-.24A5.13 5.13 0 0 1 9.35 14c-.88 0-1.72-.21-2.45-.59.23-.12.42-.28.59-.46.56.24 1.2.38 1.86.38Zm-1.39-1.75c1.01-.16 2.65-.59 4.68-1.52l.02-.08c2.22-1.05 3.6-2.32 3.3-3.24-.2-.61-1.1-.96-2.4-1.03l.42.7c.36.05.66.12.89.21.34.14.41.27.43.32.01.05.03.2-.18.49-.2.29-.56.63-1.09 1-.35.25-.76.5-1.22.73a3.33 3.33 0 0 0-.4-1.73c-.2.71-.87 1.24-1.67 1.24A1.7 1.7 0 0 1 9 7c0-.54.26-1.01.67-1.32l-.33-.01a3.4 3.4 0 0 0-3.4 4c1.1.03 1.97.87 2.01 1.91Zm-.01.34a18.7 18.7 0 0 0 4.49-1.4 3.57 3.57 0 0 1-4.5 1.52v-.12Zm-3-2.04a4.42 4.42 0 0 1 4.4-5.22 4.46 4.46 0 0 1 4.44 3.62l.65-.31A5.15 5.15 0 0 0 9.35 4a5.1 5.1 0 0 0-5.2 5c0 .46.07.9.2 1.33.16-.18.36-.33.6-.45Zm-1.06 1.23c-.3-.04-.56-.1-.76-.18-.34-.14-.41-.27-.43-.32-.01-.05-.03-.2.18-.5.2-.29.56-.63 1.09-1h.01V8.3c-1.4.87-2.17 1.79-1.94 2.5.16.51.8.84 1.77.98a1.95 1.95 0 0 1 .08-.67Zm6.12-.81.71-.24.02-.01h-.4l-.12-.38-.13.38h-.4l.33.23v.02Zm1-.35.12-.04.3-.22.1.06.22-.1-.06-.16.43-.31h-.53l-.16-.51-.16.5h-.53l.42.32-.14.46ZM10.05 9c0 .37-.3.67-.69.67-.38 0-.7-.3-.7-.67 0-.37.32-.67.7-.67.38 0 .7.3.7.67Zm-1.03.67.08.25h.26l-.21.16.08.25-.21-.15-.22.15.08-.25-.21-.16h.26l.09-.25Z" fill="#2AA6E0"/><path d="M9.63 6.2c.2.34.54.7 1.04.95.55.26 1.04.31 1.4.28-.19.53-.7.9-1.32.9-.77 0-1.4-.6-1.4-1.33 0-.3.1-.57.28-.8Zm.25-.25c.24-.18.54-.28.87-.28a1.37 1.37 0 0 1 1.4 1.42 2.33 2.33 0 0 1-2.27-1.14Z" fill="#F8D123"/><path d="M7.23 12.69c.23-.28.37-.64.37-1.02 0-.92-.78-1.67-1.75-1.67-.34 0-.66.1-.93.26a9.06 9.06 0 0 0 2.31 2.43Zm-.63.48c-.22.1-.48.16-.75.16-.97 0-1.75-.74-1.75-1.66 0-.32.1-.62.26-.87a8.4 8.4 0 0 0 2.24 2.37Z" fill="#3467B0"/></svg>