<!-- by TradingView --><svg width="18" height="18" viewBox="0 0 18 18" xmlns="http://www.w3.org/2000/svg"><path fill="#F0F3FA" d="M0 0h18v18H0z"/><path d="M14 10.48V5c-2.29 0-3 1.72-3 2.5v2.93c0 2.35-3.35 2.79-5.1 2.79 1.34.62 2.78.78 3.34.78 3.8 0 4.76-2.35 4.76-3.52Z" fill="url(#agdsav012)"/><path d="M4 10.09V5l1.43.4v4.5c0 1.87 1.59 2.47 2.38 2.53-.38.16-1.11.2-1.43.2-1.9 0-2.38-1.7-2.38-2.54Z" fill="url(#bgdsav012)"/><path d="M7 6.96c0-1.1-1.1-1.5-1.57-1.57v4.7c0 1.95 1.43 2.34 2.14 2.34.86 0 1.59-.39 1.9-.58C7.39 12.16 7 10.8 7 10.09V6.96Z" fill="url(#cgdsav012)"/><defs><linearGradient id="agdsav012" x1="9.95" y1="5" x2="9.95" y2="14" gradientUnits="userSpaceOnUse"><stop stop-color="#A41351"/><stop offset="1" stop-color="#E0196C"/></linearGradient><linearGradient id="bgdsav012" x1="5.9" y1="5" x2="5.9" y2="12.63" gradientUnits="userSpaceOnUse"><stop stop-color="#1631B6"/><stop offset="1" stop-color="#025DE1"/></linearGradient><linearGradient id="cgdsav012" x1="7.45" y1="5.39" x2="7.45" y2="12.43" gradientUnits="userSpaceOnUse"><stop stop-color="#133BC1"/><stop offset="1" stop-color="#0264EB"/></linearGradient></defs></svg>