<!-- by TradingView --><svg width="18" height="18" viewBox="0 0 18 18" xmlns="http://www.w3.org/2000/svg"><path fill="#001845" d="M0 0h18v18H0z"/><path d="M13.57 11.02A5 5 0 0 1 6.3 4.8a5 5 0 1 0 7.27 6.23Z" fill="url(#a3sbfmzl2)"/><path d="M12.26 12.37A4.67 4.67 0 0 1 4.31 9c0-.73.17-1.42.47-2.04l.63.48V5.72l-1.25.78.36.27a5 5 0 0 0 7.98 5.8l-.24-.2Zm-6.4-6.84a4.69 4.69 0 0 1 7.41 5.42l-.52-.39v1.25l-.04.06.04.03v.22l.16-.07.03.03L13 12l1-.5-.48-.36a5 5 0 0 0-7.9-5.83l.23.22Z" fill="#23DD00"/><path d="M8.69 5.56v.65c-.2.03-.38.08-.55.16-.26.12-.48.29-.64.5-.15.22-.23.47-.23.76 0 .34.12.62.35.84.24.21.56.38.97.5l.64.18c.18.05.35.1.5.17.17.07.3.16.39.26.1.11.15.25.15.42 0 .19-.06.35-.17.5-.11.13-.27.24-.46.32a1.8 1.8 0 0 1-1.23.03 1.07 1.07 0 0 1-.44-.29.8.8 0 0 1-.2-.48h-.64a1.41 1.41 0 0 0 .9 1.24c.2.09.41.14.66.17v.95h.62v-.96c.27-.02.5-.08.7-.18.28-.13.5-.31.64-.53.15-.23.22-.48.22-.76A1.17 1.17 0 0 0 10.35 9a2.1 2.1 0 0 0-.48-.25 4.64 4.64 0 0 0-.45-.15l-.53-.14c-.1-.02-.2-.06-.31-.1-.12-.04-.23-.1-.33-.16a.88.88 0 0 1-.26-.24.72.72 0 0 1 .04-.8c.1-.12.23-.22.4-.3.17-.07.38-.1.6-.1.32 0 .59.06.8.2.22.14.34.34.37.6h.61c0-.26-.09-.5-.24-.7-.15-.2-.36-.37-.62-.48a2 2 0 0 0-.63-.17v-.64H8.7Z" fill="#fff"/><defs><linearGradient id="a3sbfmzl2" x1="7.44" y1="8.06" x2="6.03" y2="12.75" gradientUnits="userSpaceOnUse"><stop stop-color="#01306D" stop-opacity=".49"/><stop offset=".78" stop-color="#156EBD"/><stop offset="1" stop-color="#2D79AD"/></linearGradient></defs></svg>