<!-- by TradingView --><svg width="18" height="18" viewBox="0 0 18 18" xmlns="http://www.w3.org/2000/svg"><path fill="#2775CA" d="M0 0h18v18H0z"/><path d="M9 14A4.99 4.99 0 1 0 9 4a4.99 4.99 0 1 0 0 10Z" fill="#fff"/><path d="M10.38 9.8c0-.74-.44-.99-1.32-1.1-.62-.07-.75-.24-.75-.53 0-.3.21-.48.63-.48.37 0 .58.12.68.44.03.06.09.1.15.1h.33c.09 0 .15-.06.15-.15v-.02c-.08-.46-.46-.9-.94-.93v-.46c0-.09-.06-.15-.16-.17h-.28c-.08 0-.16.06-.18.17v.46c-.63.08-1.04.56-1.04 1.08 0 .69.41.96 1.29 1.06.58.1.77.23.77.56 0 .34-.3.57-.69.57-.54 0-.73-.23-.8-.55-.01-.08-.07-.12-.14-.12h-.35a.14.14 0 0 0-.15.15v.02c.09.52.42.87 1.1.98v.46c0 .08.07.14.17.16h.3c.09 0 .14-.06.16-.16v-.46c.63-.1 1.06-.53 1.06-1.09Z" fill="#2775CA"/><path d="M7.87 12a3.1 3.1 0 0 1-1.79-4.02c.32-.88.94-1.54 1.8-1.85.08-.05.12-.1.12-.21v-.3c0-.08-.04-.14-.12-.16-.03 0-.07 0-.09.02a3.7 3.7 0 0 0-2.37 4.7 3.69 3.69 0 0 0 2.37 2.47c.08.04.17 0 .19-.09.02-.02.02-.04.02-.08v-.3c0-.05-.06-.14-.13-.18Zm2.34-6.52c-.09-.04-.17 0-.2.08l-.01.09v.29c0 .08.06.16.12.2 1.63.59 2.4 2.4 1.8 4a2.94 2.94 0 0 1-1.79 1.84.21.21 0 0 0-.13.2v.3c0 .08.05.15.13.17.02 0 .06 0 .08-.02 1.98-.63 3-2.71 2.37-4.7a3.7 3.7 0 0 0-2.37-2.45Z" fill="#2775CA"/></svg>