<!-- by TradingView --><svg width="18" height="18" xmlns="http://www.w3.org/2000/svg"><path fill="#4380F5" d="M0 0h18v18H0z"/><path d="M11.778 6.806C11.583 6.215 10.764 5 9.048 5 6.917 5 6.094 6.843 6.107 7.588c-.974-.051-2.959.414-3.107 2.684-.017.784.51 2.426 2.756 2.728h6.791c.809-.126 2.432-.848 2.453-2.728.02-1.88-1.549-2.528-2.438-2.648-.89-.12-2.735.1-3.262 2.234h-.305A1.002 1.002 0 007 10a1.001 1.001 0 001.704.714h.995c.127-.012.58-.154.602-.515.026-.45.11-1.644 1.811-1.73.559-.027 1.795.298 1.888 1.803 0 .536-.147 1.63-1.888 1.728H5.756C5.141 11.935 4 11.626 4 10.272S5.076 8.535 5.67 8.47c.232-.026.6-.003.896.085.167.024.506-.153.443-.718C6.929 7.13 7.621 6 9 6c.426 0 1.306.045 1.886 1.116.09-.08.446-.31.892-.31zM8.5 9.922v.154A.502.502 0 017.5 10a.502.502 0 01.999-.077z" fill="#fff"/></svg>