<!-- by TradingView --><svg width="18" height="18" viewBox="0 0 18 18" xmlns="http://www.w3.org/2000/svg"><path fill="#F0F3FA" d="M0 0h18v18H0z"/><path d="m6.01 5.07 2.6 2.62c.1.1.1.26 0 .36L6 10.67c-.1.1-.25.1-.35 0L3.07 8.05a.25.25 0 0 1 0-.35l2.6-2.63c.1-.1.25-.1.34 0Zm3.17 3.26 2.59 2.62c.1.1.1.25 0 .35l-2.6 2.63c-.1.1-.25.1-.35 0L6.23 11.3a.25.25 0 0 1 0-.36l2.6-2.62c.1-.1.25-.1.35 0Zm3.16-3.26 2.59 2.62c.1.1.1.26 0 .36l-2.6 2.62c-.1.1-.25.1-.34 0l-2.6-2.62a.25.25 0 0 1 0-.35L12 5.07c.1-.1.25-.1.35 0Z" fill="url(#aiqc3u5ly)"/><defs><linearGradient id="aiqc3u5ly" x1="14.08" y1="6.17" x2="6.98" y2="12.6" gradientUnits="userSpaceOnUse"><stop stop-color="#5C84F9"/><stop offset=".28" stop-color="#5D70F8"/><stop offset=".57" stop-color="#5F5BF6"/><stop offset="1" stop-color="#6349F4"/></linearGradient></defs></svg>