<!-- by TradingView --><svg width="18" height="18" fill="none" xmlns="http://www.w3.org/2000/svg"><path fill="#DB2264" d="M0 0h18v18H0z"/><path d="M9.326 13c-.456-.01-.858-.163-1.184-.488-1.205-1.214-2.422-2.417-3.638-3.63-.902-.9-.543-2.418.673-2.797.641-.195 1.228-.054 1.705.423 1.206 1.192 2.39 2.384 3.585 3.576.325.326.51.716.532 1.182a1.674 1.674 0 01-1.282 1.669c-.12.032-.26.043-.39.065zM12.51 6c.822 0 1.49.658 1.49 1.49s-.658 1.5-1.49 1.51c-.823.01-1.5-.678-1.51-1.5A1.51 1.51 0 0112.51 6z" fill="#fff"/></svg>