<!-- by TradingView --><svg width="18" height="18" viewBox="0 0 18 18" xmlns="http://www.w3.org/2000/svg"><path fill="#F0F3FA" d="M0 0h18v18H0z"/><path d="M7.37 6.53 5.35 5.16c-.7-.48-1.64.23-1.27.97C5 7.96 6.11 10.18 6.5 11l1.36-2.72c.3-.62.1-1.35-.49-1.75Z" fill="url(#a0waomfib)"/><path d="m13.25 4.53 1.59 3.16c.35.7.11 1.54-.57 1.98l-6.5 4.25c-.41.26-.93-.15-.72-.56l4.41-8.83c.35-.7 1.43-.7 1.79 0Z" fill="url(#b0waomfib)"/><defs><linearGradient id="a0waomfib" x1="4.88" y1="8.37" x2="7.62" y2="6.68" gradientUnits="userSpaceOnUse"><stop stop-color="#00BEFF"/><stop offset="1" stop-color="#00FF95"/></linearGradient><linearGradient id="b0waomfib" x1="5.54" y1="11.32" x2="14.15" y2="5.98" gradientUnits="userSpaceOnUse"><stop stop-color="#00BEFF"/><stop offset="1" stop-color="#00FF95"/></linearGradient></defs></svg>