<!-- by TradingView --><svg width="18" height="18" xmlns="http://www.w3.org/2000/svg"><path fill="url(#paint0_linear)" d="M0 0h18v18H0z"/><path d="M14.173 6.322c.056 0 .091.064.071.117l-.126.3a.077.077 0 01-.072.045h-.688c-.028 0-.056.02-.068.05l-.226.52c-.011.024.02.069.046.069h.607c.056 0 .092.066.072.115l-.188.38c-.014.028-.042.055-.072.056h-.688c-.03-.002-.071.006-.083.034l-2.083 4.939c-.009.025-.034.054-.06.053H7.437c-.03.001-.072-.063-.072-.063l-1.64-4.381h2.884l.415.778 1.95-4.266c.015-.027.043-.068.073-.068h2.88c.052 0 .09.087.068.134L13.53 6.27c-.012.025.009.052.036.052h.608zm-4.714.414a.077.077 0 01-.07.047H4.162a.078.078 0 01-.07-.047l-.335-.288c-.021-.048.018-.126.07-.126h.608c.028 0 .046-.015.035-.041l-.294-1.153c-.02-.048.019-.127.07-.128h2.88c.03 0 .058.035.07.063L7.52 6.29c.013.028.04.032.07.032h2.013c.055 0 .092.073.069.126l-.213.288zm-.57 1.187c-.013.028-.041.05-.07.05H4.613c-.03 0-.058-.023-.07-.05l-.286-.381c-.021-.048.018-.119.07-.119h4.75c.055 0 .092.067.07.119l-.26.38z" fill="#fff"/><defs><linearGradient id="paint0_linear" x1="2.367" y1="2.932" x2="15.791" y2="15.129" gradientUnits="userSpaceOnUse"><stop stop-color="#F82B1E"/><stop offset="1" stop-color="#531685"/></linearGradient></defs></svg>