<!-- by TradingView --><svg width="18" height="18" viewBox="0 0 18 18" xmlns="http://www.w3.org/2000/svg"><path fill="#FF5847" d="M0 0h18v18H0z"/><path d="M9 5.25A3.78 3.78 0 0 0 5.25 9c0 2.05 1.7 3.75 3.75 3.75s3.75-1.7 3.75-3.75S11.05 5.25 9 5.25ZM9 14a5 5 0 1 1 .01-10.01A5 5 0 0 1 9 14Z" fill="#fff"/><path d="M7.75 9 9 10.25 10.25 9 9 7.75 7.75 9ZM9 12a.72.72 0 0 1-.51-.21L6.2 9.5a.72.72 0 0 1 0-1.02L8.5 6.2a.72.72 0 0 1 1.02 0L11.8 8.5c.28.28.28.74 0 1.02L9.5 11.8A.72.72 0 0 1 9 12Z" fill="#fff"/></svg>