<!-- by TradingView --><svg width="18" height="18" xmlns="http://www.w3.org/2000/svg"><path fill="url(#paint0_linear)" d="M0 0h18v18H0z"/><path d="M12.282 5.997L16 11h-1.37l-.98-1.254L12.657 11h-1.144l-.576-1H8.976l.59-1h.74l-.571-.889-2.573 3.886H6.048L6.741 11H5.57l-.66-2.476L4.229 11H3.027L2 7h.933l.706 2.634L4.38 7H5.5l.682 2.626L6.906 7h.916l-.928 3.571L9.157 7h1.15l1.773 2.889.857-.908-2.031-2.984h1.376z" fill="#fff"/><path d="M14.594 7.393h1.319L14.666 8.65l-.588-.755.515-.503z" fill="#FFB800"/><defs><linearGradient id="paint0_linear" x1="3.349" y1="3.122" x2="21.904" y2="24.434" gradientUnits="userSpaceOnUse"><stop stop-color="#1A1E21"/><stop offset="1" stop-color="#06060A"/></linearGradient></defs></svg>