<!-- by TradingView --><svg width="18" height="18" viewBox="0 0 18 18" xmlns="http://www.w3.org/2000/svg"><path fill="url(#azkpjimkn)" d="M0 0h18v18H0z"/><path d="m14.63 7.13-.67.73.68.76L16 7.13h-1.37ZM10.41 6l2.62 2.98-1 .77L10.26 7H9.1L6 12h1.18l2.5-3.75.78 1.13h-.93l-.59.74h1.96l.54.88h1.18l1.18-1.25L14.82 11H16l-4.41-5H10.4Z" fill="#fff"/><path d="m6.8 7-.6 2.4L5.6 7H4.4l-.6 2.4L3.2 7H2l1.2 4h1.2L5 8.6l.6 2.4h1.2L8 7H6.8Z" fill="#fff"/><defs><linearGradient id="azkpjimkn" x1="9" y1="0" x2="9" y2="18" gradientUnits="userSpaceOnUse"><stop stop-color="#5031B1"/><stop offset="1" stop-color="#2C1C60"/></linearGradient></defs></svg>