<!-- by TradingView --><svg width="18" height="18" viewBox="0 0 18 18" xmlns="http://www.w3.org/2000/svg"><path fill="#F0F3FA" d="M0 0h18v18H0z"/><path d="M8 7H4l3.34.7 1.5 3.11L8 7Z" fill="#15A4FC"/><path d="m12.76 6.93.05 3.25-1.51-1.8 1.46-1.45Z" fill="url(#adcpagxut)"/><path d="m11.84 7.85.92-.92L14 8.33l-2.16-.48Z" fill="#15A4FC"/><path d="M12.81 10.18 9.86 6.53l-2.07-.46 1.04 4.74.1 1.74 3.9-2.37h-.02Z" fill="url(#bdcpagxut)"/><path d="m4.85 15 4.33-2.6-.33-1.59-4 4.19Z" fill="url(#cdcpagxut)"/><path d="M3 5h5.56l1.3 1.53L3 5Z" fill="#15A4FC"/><defs><linearGradient id="adcpagxut" x1="11.98" y1="6.86" x2="12.19" y2="9.94" gradientUnits="userSpaceOnUse"><stop stop-color="#0094FF"/><stop offset="1" stop-color="#1145EA"/></linearGradient><linearGradient id="bdcpagxut" x1="10.52" y1="10.73" x2="8.12" y2="6.9" gradientUnits="userSpaceOnUse"><stop stop-color="#15A4FC"/><stop offset="1" stop-color="#1145EA"/></linearGradient><linearGradient id="cdcpagxut" x1="6.99" y1="13.22" x2="9.86" y2="11.19" gradientUnits="userSpaceOnUse"><stop stop-color="#15A4FC"/><stop offset="1" stop-color="#1145EA"/></linearGradient></defs></svg>