<!-- by TradingView --><svg width="18" height="18" viewBox="0 0 18 18" xmlns="http://www.w3.org/2000/svg"><path fill="#F0F3FA" d="M0 0h18v18H0z"/><path fill-rule="evenodd" d="m13.46 10.2-.26-1.55s.01 0 0 0l-.55-.93V7.7l.03-.03a.55.55 0 0 0 .08-.1l.1-.33a5.9 5.9 0 0 0 .1-.54 3.47 3.47 0 0 0-.16-.75 9 9 0 0 0-.65-1.48c-.1.04-.21.11-.32.2-.08.07-.15.13-.2.2a10.16 10.16 0 0 0-1.04 1.27l-.4.76c-.01 0-.01 0 0 0a12.46 12.46 0 0 1 .7.37 3.57 3.57 0 0 1 .5.26l.12.14.14.22a4.54 4.54 0 0 0 .27.43l.2.23a10.87 10.87 0 0 1 .44.58 2.62 2.62 0 0 1 .08.2l-.3.23v.03l.16.37a4.1 4.1 0 0 1 .29 1.07 5.75 5.75 0 0 1 .05.16l.32-.05.1-.22a3.83 3.83 0 0 0 .13-.73h.07Zm-8.92 0h.07v.01a9.15 9.15 0 0 0 .13.68c.02.09.05.17.1.25v.02l.32.04a5.78 5.78 0 0 1 .07-.26c0-.08.02-.15.03-.21.06-.26.13-.52.24-.76a21.54 21.54 0 0 0 .15-.4l-.29-.22c0-.04.02-.07.03-.1.04-.1.08-.18.12-.22a4.83 4.83 0 0 0 .36-.46 3.06 3.06 0 0 1 .27-.32l.1-.16.19-.32a.76.76 0 0 1 .28-.3 3.41 3.41 0 0 1 .5-.23 12.75 12.75 0 0 1 .68-.37l-.47-.72h-.01a9.38 9.38 0 0 0-.82-1.05 3.73 3.73 0 0 0-.7-.6l-.04-.02c-.1.12-.17.25-.22.37L5.57 5c-.11.25-.22.51-.31.78a4.23 4.23 0 0 0-.22 1.03 4.85 4.85 0 0 0 .23.8 11.77 11.77 0 0 1 .08.1l-.56.93v.01l-.25 1.55Zm7.58.64a4.07 4.07 0 0 0-1.82 1.23 3.21 3.21 0 0 0-.71-1.48.73.73 0 0 0-.06-.06.14.14 0 0 1-.04-.05.74.74 0 0 1-.05-.23l-.01-.22a3.9 3.9 0 0 1 .1-.7l.13-.37c.04-.12.09-.23.15-.33.06-.09.13-.16.21-.2h.04l.6-.04c.07 0 .15-.03.23-.06.1-.04.12-.1.08-.19a1.83 1.83 0 0 0-.74-.77c.17.05.33.12.47.22.4.27.7.67.9 1.18.03.1.12.21.26.31l.21.15c.03.03.01.06-.07.11a.2.2 0 0 0-.03.03l-.29.28c.24.2.4.46.47.8a1.9 1.9 0 0 1 .04.37l-.07.02Zm-6.27-.01h.02l.02.01h.01l.4.17a4.34 4.34 0 0 1 1.38 1.04 3.2 3.2 0 0 1 .7-1.45.97.97 0 0 1 .08-.08.1.1 0 0 0 .03-.04.83.83 0 0 0 .05-.29 3.27 3.27 0 0 0-.3-1.47.69.69 0 0 0-.29-.3 7.66 7.66 0 0 1-.8-.07c-.1-.03-.14-.07-.14-.12 0-.03 0-.06.02-.08a1.82 1.82 0 0 1 .75-.79 1.84 1.84 0 0 0-.46.22 2.31 2.31 0 0 0-.91 1.18.54.54 0 0 1-.15.22 2.78 2.78 0 0 1-.34.25c-.03.03 0 .06.08.12l.03.02a228.3 228.3 0 0 1 .28.29c-.21.17-.36.4-.44.7a1.91 1.91 0 0 0-.06.46l.04.01Zm3.09 1.78-.64-.4h-.01l-.04-.2V12l.34-.27h.01a2.23 2.23 0 0 0 .38.13H9a2.16 2.16 0 0 0 .4-.12l.34.26v.01l-.04.2h-.01l-.64.4.43.07.08.2.12-.17.15.02h.01l.2-.08.01-.01.23-.42c.06 0 .1 0 .16-.02.1-.04.25-.1.44-.2h.03a15.67 15.67 0 0 1-.55 1 .65.65 0 0 1-.1.12l-.13.1a2.17 2.17 0 0 1-.61.3 16.65 16.65 0 0 1-.26.01l-.12.01a22.45 22.45 0 0 1-.64-.01 2.25 2.25 0 0 1-.7-.38.82.82 0 0 1-.17-.2l-.2-.33A17.57 17.57 0 0 1 7.1 12l.04.01a4.81 4.81 0 0 0 .56.21l.23.42.21.09h.01l.18-.03.13.19.08-.22.4-.06Zm1.84-6.12.8.29a68.64 68.64 0 0 0 .75.24.27.27 0 0 0 .04-.1l.05-.25a3.3 3.3 0 0 0-.03-.99 1.64 1.64 0 0 0-.32-.59 6.88 6.88 0 0 1-.13.15 567.86 567.86 0 0 1-.95 1.06 1.47 1.47 0 0 1-.21.19Zm-4.84-1.4a1.57 1.57 0 0 0-.38 1.1v.1a3.53 3.53 0 0 0 .11.72c.01.02.02.02.04.02a27.56 27.56 0 0 0 1.52-.54 8.6 8.6 0 0 1-.52-.52 347.98 347.98 0 0 0-.77-.88Zm4.36 4.06-.1.06-.2-.52c0-.01 0-.01 0 0l.3.46Zm.43.84-.2-.43h-.16l.36.43c0 .02 0 .02 0 0Zm-2.12 3.27v.14a152.52 152.52 0 0 0-.33-.26c-.02-.04-.01-.08 0-.1.03-.04.07-.06.13-.06a8.14 8.14 0 0 0 .14-.02l.11-.2.1.19a15.47 15.47 0 0 0 .29-.01 18.3 18.3 0 0 0 .18 0l.1-.2.1.22h.02l.12.02c.08 0 .13.03.15.08v.03l-.07.1-.04.04a22.16 22.16 0 0 0-.23.17v-.14L9 13.5l-.38-.24Z" fill="#040707"/><path fill-rule="evenodd" d="M4 10.26v.07l.02.08c.03.06.06.11.12.15v.01c.03.2.08.38.14.57a.82.82 0 0 0 .26.41 9.34 9.34 0 0 1 1.71.37c.13.05.23.1.31.15l.02.03a17.97 17.97 0 0 0 .57 1.03c.09.15.18.26.27.33.15.13.33.24.52.34a1.9 1.9 0 0 0 .6.19 24.6 24.6 0 0 1 .6 0 31.45 31.45 0 0 1 .4-.01c.14-.02.3-.07.45-.14a2.8 2.8 0 0 0 .73-.51c.07-.1.14-.2.2-.32.18-.3.34-.6.5-.91 0-.02.04-.04.09-.07.06-.04.12-.06.19-.09a9.02 9.02 0 0 1 1.76-.39.76.76 0 0 0 .15-.17c.06-.1.1-.22.15-.37a3.9 3.9 0 0 0 .1-.45.32.32 0 0 0 .13-.32v-.05a185.34 185.34 0 0 1-.22-1.27.26.26 0 0 0 .05-.21 256.33 256.33 0 0 1-.57-.99 6.58 6.58 0 0 0 .24-.98l-.03-.22a9.04 9.04 0 0 0-.6-1.82 1.83 1.83 0 0 0-.47-.67.13.13 0 0 0-.09-.03c-.16 0-.32.04-.46.11-.17.09-.33.21-.5.37l-.22.2a9.38 9.38 0 0 0-.81 1l-.53-.03a403.1 403.1 0 0 0-.79.23 139.6 139.6 0 0 0-.76-.23l-.54.03a10.34 10.34 0 0 0-1.03-1.2l-.02-.02a3.03 3.03 0 0 0-.5-.35.98.98 0 0 0-.43-.11c-.04 0-.06 0-.09.02l-.18.18c-.12.15-.22.32-.3.5l-.06.15a9.68 9.68 0 0 0-.5 1.44 2.78 2.78 0 0 0-.06.54 6.33 6.33 0 0 0 .24.9 160.45 160.45 0 0 1-.58.98c-.01.07 0 .14.04.2v.03A836.16 836.16 0 0 1 4 10.26Zm6.64-4.88a9.96 9.96 0 0 0-.28.38l-.6-.03-.75.24h-.02a364.35 364.35 0 0 1-.77-.24 316.89 316.89 0 0 1-.59.03A10.36 10.36 0 0 0 6.6 4.54a2.7 2.7 0 0 0-.34-.27 1.05 1.05 0 0 0-.53-.19H5.7l-.04.03-.07.07c-.15.15-.26.33-.34.54l-.07.15a10.16 10.16 0 0 0-.5 1.47 2.63 2.63 0 0 0-.05.49 5.82 5.82 0 0 0 .24.9 152.19 152.19 0 0 1-.59 1c0 .07.01.12.06.17l-.22 1.3-.01.04c-.02.12.02.2.13.28a3.95 3.95 0 0 0 .19.7.71.71 0 0 0 .2.28 9.4 9.4 0 0 1 1.72.37c.12.04.22.1.3.15l.02.03a17.83 17.83 0 0 0 .59 1.07c.03.06.07.11.12.17a2.66 2.66 0 0 0 .62.44 1.79 1.79 0 0 0 .52.17 120.36 120.36 0 0 0 .42.02h.23a135.78 135.78 0 0 0 .42-.03l.21-.06c.25-.1.49-.23.72-.42a.98.98 0 0 0 .19-.2l.16-.26.48-.9.05-.05.28-.14a9.5 9.5 0 0 1 1.71-.36.72.72 0 0 0 .21-.3c.04-.07.06-.15.09-.23a4 4 0 0 0 .1-.46c.1-.05.13-.14.13-.24l-.02-.06v-.04a2449.19 2449.19 0 0 0-.22-1.27.2.2 0 0 0 .06-.17 188.93 188.93 0 0 1-.59-1l.07-.18a3.41 3.41 0 0 0 .16-.99 4.67 4.67 0 0 0-.23-.9 9.64 9.64 0 0 0-.36-.9 1.63 1.63 0 0 0-.48-.68.94.94 0 0 0-.52.16 2.5 2.5 0 0 0-.36.29c-.25.22-.5.5-.78.85Z" fill="#373636"/><path d="M10.54 9.56h-.17l-.83.01c-.01 0-.01 0 0 0l.66-.36.1-.06 1.1-.6v.01l-.58.99h-.28ZM8.45 9.57l-1.28-.02-.59-.99 1.87 1v.01Z" fill="#45C6E4"/></svg>