<!-- by TradingView --><svg xmlns="http://www.w3.org/2000/svg" width="18" height="18" viewBox="0 0 18 18"><path fill="#F0F3FA" d="M0 0h18v18H0z"/><ellipse cx="9" cy="5.9" rx="4" ry="1.9" fill="#F0C419"/><path d="M5 6.76v1.21C5 9 6.8 9.87 9 9.87s4-.86 4-1.9V6.76h-.02c-.18.97-1.9 1.72-3.98 1.72-2.09 0-3.8-.75-3.98-1.72H5z" fill="#25AE5F"/><path d="M5 8.83v1.2c0 1.05 1.8 1.9 4 1.9s4-.85 4-1.9v-1.2h-.02c-.18.96-1.9 1.72-3.98 1.72-2.09 0-3.8-.76-3.98-1.72H5z" fill="#E64C3C"/><path d="M5 10.9v1.2C5 13.15 6.8 14 9 14s4-.85 4-1.9v-1.2h-.02c-.18.96-1.9 1.72-3.98 1.72-2.09 0-3.8-.76-3.98-1.72H5z" fill="#7A69A7"/></svg>