<!-- by TradingView --><svg width="18" height="18" viewBox="0 0 18 18" xmlns="http://www.w3.org/2000/svg"><path fill="#270458" d="M0 0h18v18H0z"/><path fill="url(#aw1r2n1yz)" d="M0 0h18v18H0z"/><path d="M13.89 10.18c-.14-.37-.4-.76-.79-1.18.38-.42.65-.81.79-1.18.16-.4.15-.76-.03-1.04a.97.97 0 0 0-.23-.25.88.88 0 0 0-.12-.31c-.18-.28-.5-.46-.96-.54a4.54 4.54 0 0 0-1.5.04c-.2-.52-.44-.93-.71-1.22-.3-.33-.64-.5-.99-.5-.11 0-.23.02-.35.06A1.08 1.08 0 0 0 8.65 4c-.35 0-.68.17-1 .5-.26.3-.5.7-.7 1.22a4.52 4.52 0 0 0-1.5-.04c-.46.08-.78.26-.96.54-.06.1-.1.2-.12.31a.97.97 0 0 0-.23.25c-.18.28-.19.63-.03 1.04.14.37.4.76.79 1.18-.38.42-.65.81-.79 1.18-.16.4-.15.76.03 1.04.06.1.14.18.23.25.02.11.06.22.12.31.18.28.5.46.96.54.18.03.36.05.57.05.28 0 .6-.03.93-.09.2.52.44.93.7 1.22.32.33.65.5 1 .5.11 0 .23-.02.35-.06.12.04.24.06.35.06.35 0 .68-.17 1-.5.26-.3.5-.7.7-1.22a5.68 5.68 0 0 0 1.5.04c.46-.08.78-.26.96-.54.06-.1.1-.2.12-.31.1-.07.17-.16.23-.25.18-.28.19-.63.03-1.04Zm-.25-3.39.06.08c.3.47 0 1.23-.8 2.07a7.14 7.14 0 0 1-.83.77c-.23.18-.46.35-.7.51l-.1.07a12.52 12.52 0 0 1-2.3 1.22l-.17.06-.14.06h-.02l-.14.05-.02.01-.13.05h-.02l-.14.05h-.02l-.13.05h-.02l-.14.05-.14.04h-.01v-.01l-.03-.09-.01-.02-.03-.1v-.01l-.03-.1v-.02l-.03-.1.28-.09h.02l.15-.05.1-.04.04-.01c.27-.1.54-.2.8-.32l.05-.02c.55-.25 1.09-.53 1.6-.84l.16-.1.04-.03.55-.37.16-.12.03-.02a1.96 1.96 0 0 1 .16-.12l.35-.29.07-.06.02-.01.16-.15.24-.23.06-.07.02-.01.06-.07c.3-.32.53-.64.69-.93.14-.27.22-.52.23-.74Zm-3.57 4.4h.01l.07-.04.04-.02.21-.11.04-.02.07-.04v.01l-.01.08v.04l-.02.07-.01.04-.02.07v.04l-.38-.12Zm.33.3-.02.06v.03l-.02.04v.03l-.02.05v.02l-.02.05v.02l-.05.14c-.34-.1-.68-.2-1.04-.34l.19-.08.15-.07.14-.07.03-.02.11-.05c.18.07.37.13.55.18Zm-3.1-2.5v-.38a2.27 2.27 0 0 1 .01-.12v-.06l.01-.05V8.27l.01-.07v-.09A12.75 12.75 0 0 1 9 7.23l.04.01.1.05.06.03.06.02.05.03.06.03.05.02.06.03.04.02.07.04.04.02.08.04.03.01.22.12.03.02.07.04.04.02.07.04.04.02.06.04.05.02.06.04.04.03.06.03.05.03.1.06.03.02v.09l.01.06v.06l.01.05V8.54l.01.07V9.57l-.01.05v.12l-.01.05v.1l-.04.02-.05.03c-.02 0-.04.02-.05.03l-.05.03-.06.03-.04.03-.06.04-.05.02-.1.06-.06.04-.05.02-.07.04-.03.02-.11.06-.14.07-.08.04-.04.02-.07.04-.04.02-.11.05a9.4 9.4 0 0 1-.11.05l-.04.02-.02.01-.05.03-.06.02-.05.03-.04.01a13.22 13.22 0 0 1-1.66-.88V9.8l-.01-.07v-.05l-.01-.06v-.16l-.01-.07V9Zm2.55-2.3a8.59 8.59 0 0 0-.1-.05l-.04-.01-.15-.07-.08-.04-.06-.03-.04-.01-.14-.06c.34-.14.7-.26 1.03-.35l.02.07.03.09.01.04.01.03.01.05.01.03.02.04v.03l.02.05v.02c-.18.05-.37.11-.55.18Zm.6 0v.04l.02.07v.04l.03.1.02.1h-.01l-.21-.12-.11-.05-.04-.02-.07-.04.36-.12Zm-.65.18.13.06.37.2.03.01.06.04.04.02.06.03.03.02.04.02v.02a6.23 6.23 0 0 1 .02.14l.02.14.02.15v.02l.02.14v.01h-.01l-.15-.1-.03-.01-.13-.08a20.95 20.95 0 0 0-1.23-.62l-.05-.03L9 7.03a14.19 14.19 0 0 0-.81-.32l-.04-.01-.1-.04-.17-.05-.13-.04-.02-.01-.05-.02-.08-.02c0-.04.02-.07.03-.1v-.03l.03-.1.03-.1v-.02l.04-.1.15.04.14.05h.02l.29.1h.02l.13.05h.02a6.15 6.15 0 0 1 .3.12h.01c.34.13.67.28 1 .44ZM7.7 6.73l.16.05.08.03-.45.24.02-.08v-.02l.03-.13.02-.12V6.7l.14.04Zm.1.34.37-.18.04.01.04.02.06.02.04.01.06.03.05.01.05.03.05.02.06.02.04.02.06.02.04.02.03.01c-.49.23-.96.48-1.42.76v-.07l.01-.06v-.05a5.42 5.42 0 0 1 .03-.16v-.04l.01-.06v-.04l.02-.06v-.04l.01-.04.36-.2Zm.27 3.44c.23.13.48.25.72.36l-.03.01-.03.02-.11.04-.06.02-.05.02-.05.03-.05.01-.06.02-.04.02-.06.02a1.49 1.49 0 0 1-.08.03 13.7 13.7 0 0 1-.72-.38v-.04l-.01-.04-.01-.06v-.04l-.02-.06v-.1l-.02-.05v-.1l-.01-.06v-.04l-.01-.03.7.4Zm-.36.57.23.11-.08.03h-.03l-.12.05h-.01l-.12.04h-.01v-.01l-.03-.11-.03-.13v-.03l-.02-.08.22.13Zm3.9-2.3v-.02l.29.24-.02.02h-.02l-.06.06-.03.02-.06.05-.02.02-.08.06V8.77Zm-.02-.25v-.15l-.01-.15v-.01l-.01-.14v-.03l-.02-.15c.3.2.58.43.84.65l-.1.1-.02.02-.04.04-.02.02-.04.03-.02.02-.04.03-.02.02-.04.04-.01.01-.45-.35Zm1.87-1.9V6.85a.33.33 0 0 1 0 .05l-.01.03v.02l-.02.03v.05a1.85 1.85 0 0 1-.04.11l-.02.06-.01.03-.02.03v.03l-.02.03-.01.02-.01.02v.01l-.02.03-.02.03-.01.03-.02.03-.02.03-.01.03-.02.03-.02.04-.02.02-.02.04-.02.03-.02.03a.54.54 0 0 1-.04.06l-.03.03-.02.04-.02.03-.03.03-.02.03-.03.04-.02.03-.03.03a2.62 2.62 0 0 1-.11.13l-.03.03-.03.04-.03.03-.04.04-.02.02-.05.05-.01.02c-.3-.26-.64-.51-1-.76l-.01-.13-.01-.05-.02-.11a2.45 2.45 0 0 0-.02-.16l-.02-.07-.01-.1-.02-.06-.01-.09-.02-.07-.02-.08-.01-.07-.02-.09-.02-.06v-.04c.97-.18 1.73-.13 2.15.14Zm-.1-.33a.6.6 0 0 1 .04.09 3.72 3.72 0 0 0-2.15-.1l-.01-.04v-.03l-.02-.05-.01-.02-.02-.05v-.02L11.15 6a2 2 0 0 0-.03-.1v-.03c1.13-.18 1.94-.03 2.23.42Zm-4-2.13c.6 0 1.15.61 1.55 1.67a6.86 6.86 0 0 1 .26.9 9.18 9.18 0 0 1 .25 2.36v.25l-.01.03-.02.02-.1.07-.02.01-.24.18-.03.01-.12.08h-.01l.01-.2v-.18l.01-.16v-.04c0-.31 0-.62-.02-.93l-.01-.18v-.04l-.08-.63-.03-.18v-.04l-.13-.61-.03-.1c-.04-.17-.1-.35-.16-.52l-.03-.08v-.04l-.03-.05-.01-.04-.02-.05-.01-.03-.02-.05-.02-.03-.02-.05-.01-.03-.03-.06v-.02l-.04-.07v-.02a4.91 4.91 0 0 0-.07-.13l-.04-.07-.02-.03-.02-.04-.01-.02a1.76 1.76 0 0 0-.08-.13l-.04-.06-.01-.02-.12-.15-.01-.03-.03-.03-.01-.02a1.92 1.92 0 0 0-.04-.03l-.05-.07a.8.8 0 0 0-.04-.04l-.02-.02-.03-.03-.02-.01-.02-.03-.02-.01-.03-.03a2.58 2.58 0 0 0-.05-.04H9.4l-.04-.04h-.01l-.05-.04-.04-.02a.8.8 0 0 1 .1 0Zm-.58.2h.02l.02-.02a.66.66 0 0 1 .05-.03l.02-.01.02-.02.05-.02.02-.01H9L9 4.24l.03.01.02.01.02.01.05.03.02.01.02.01.03.02.02.01.02.02.05.03.02.02.04.04.02.02.03.02.02.02.02.02a.72.72 0 0 1 .04.04l.02.02.02.03.03.02.02.02.02.03.06.08.02.02a4.32 4.32 0 0 1 .1.15l.02.03.02.03.03.06.02.03.02.03.02.04.02.03.02.04.01.03.02.04.02.03.02.04.02.04.01.04.02.03.02.04a1 1 0 0 0 .01.04l.02.04.02.04.02.04.01.04.02.05.01.03.03.08c-.4.11-.8.25-1.21.42a8.29 8.29 0 0 0-.11-.05h-.02a41.96 41.96 0 0 0-.3-.11l-.02-.01-.14-.05H8.4l-.13-.05-.02-.01L8.1 6h-.02l-.14-.05-.15-.04v-.03l.03-.06.01-.03.02-.05.01-.04.02-.04.02-.04.01-.04.02-.03.02-.04.01-.04.02-.04L8 5.4l.02-.04.01-.03.04-.07.02-.04.01-.03.02-.04.02-.03.02-.03.04-.06.02-.03.02-.03.01-.03.03-.03.01-.03.03-.03.01-.02.03-.04.01-.02.04-.04.01-.02a.67.67 0 0 1 .03-.04l.02-.01.02-.03.02-.02.03-.03.01-.02.03-.02.02-.02.02-.02.02-.02.02-.02.02-.01.03-.02.04-.04.02-.01ZM4.65 6.3c.2-.33.69-.5 1.36-.5.26 0 .56.03.88.08v.02l-.08.22v.02l-.04.11v.03l-.02.03a3.71 3.71 0 0 0-2.14.08.77.77 0 0 1 .04-.09Zm-.1.32c.25-.16.63-.25 1.1-.25.32 0 .67.04 1.06.11l-.01.03-.01.04v.03l-.03.08v.04l-.01.03-.02.08-.01.05v.02l-.02.08-.01.06v.02l-.02.08-.01.06v.02l-.02.08-.01.06v.03a2.74 2.74 0 0 0-.02.13l-.01.07-.01.09-.03.01-.03.03-.04.02a.97.97 0 0 1-.04.03l-.03.03-.04.02-.03.03-.03.01v.01l-.05.03-.03.02-.04.03-.01.01-.02.01-.04.03-.03.03-.03.02-.01.01-.02.02c-.02 0-.03.02-.04.03l-.03.02-.02.02h-.02v.01l-.03.03-.03.02-.03.03h-.01l-.01.01-.02.02-.03.02-.03.03-.03.02a.76.76 0 0 0-.06.06c-.02 0-.03.02-.04.03l-.02.01c-.66-.68-1-1.32-.94-1.8Zm-.25.25a.74.74 0 0 1 .06-.08c.03.5.38 1.11 1 1.75l-.01.02-.06.05-.06.06a4.4 4.4 0 0 0-.06.05l-.05.05a3.5 3.5 0 0 0-.07.07l-.03.03c-.74-.82-1-1.54-.72-2Zm.22 3.74v.02l-.03.04v.02l-.03.06-.02.06v.02l-.02.03v.03l-.01.03-.02.06v.05l-.01.03-.01.04v.01a.7.7 0 0 0 0 .05l-.01.02v.03a.84.84 0 0 1-.06-.08c-.3-.47 0-1.23.8-2.07a7.67 7.67 0 0 1 .56-.55l.1-.07.01-.02.1-.08h.01l.1-.09.11-.08.02-.02.12-.09.1-.08.12-.08h.01l-.01.14v.03l-.01.12v.03l-.02.17V8.53l-.03.02h-.01l-.01.02-.04.03-.03.02-.04.03-.03.02-.04.03-.03.03-.04.03-.02.01-.04.04-.03.02-.04.04-.02.01-.06.06-.07.06-.06.05-.36.34-.06.06v.01l-.07.07-.02.02-.04.04-.03.03-.03.04-.02.02-.04.05-.02.03-.05.05v.01c-.05.04-.08.09-.11.13l-.02.03-.03.04-.02.02-.03.04-.02.03-.02.04-.02.02-.03.05-.01.02a1.13 1.13 0 0 0-.04.06 4.96 4.96 0 0 0-.09.15l-.02.04v.02l-.03.04-.01.02-.02.04Zm1.89-1.5v.12L6.1 9l.02-.02h.01l.06-.06.03-.02.06-.05.03-.02.07-.06h.02V9.11Zm0 .36.01.11v.04l.01.15v.01l.01.14v.03l.02.15c-.3-.2-.59-.43-.84-.65l.05-.05v-.01l.05-.04.02-.02.04-.04.02-.02.04-.03.02-.02.04-.03.02-.02.04-.04.01-.01.44.35Zm-1.86 1.9v-.27l.01-.03v-.02l.01-.03.01-.03v-.03l.02-.02a1.22 1.22 0 0 1 .07-.2v-.03l.02-.03.04-.08.02-.03.01-.03.02-.03.02-.03a.7.7 0 0 1 .01-.03l.02-.03.02-.03.04-.07.02-.03.02-.03.02-.03.02-.03.05-.06.02-.04.03-.03.02-.03.03-.03.02-.04.03-.03.03-.03a.73.73 0 0 1 .05-.07l.03-.03.03-.03.03-.04.03-.03.03-.04.03-.03.04-.04.02-.02c.3.26.64.52 1 .76l.01.13.01.05.02.11v.07l.02.1.02.06.01.1.02.06.01.09.05.22.02.09.02.06v.04c-.97.18-1.73.13-2.15-.14Zm.1.33a.71.71 0 0 1-.04-.09c.27.13.63.2 1.05.2.33 0 .7-.05 1.1-.12v.01a6 6 0 0 1 .01.05v.03l.02.04.01.03.02.05v.02l.02.07.03.07v.02l.02.04c-1.14.18-1.95.03-2.24-.42Zm4 2.13c-.6 0-1.16-.61-1.55-1.68l-.19-.59a8.99 8.99 0 0 1-.3-2.14 11.3 11.3 0 0 1 .3-2.98l.03-.1.16-.5c.4-1.06.96-1.67 1.55-1.67h.1l-.03.03h-.01l-.05.04a.51.51 0 0 0-.06.04l-.03.03-.02.01-.03.03-.02.01-.02.03-.02.02-.03.02-.05.06-.05.05-.01.02a.83.83 0 0 0-.03.03l-.02.02-.03.03-.01.03-.03.03-.02.02-.02.04-.02.02-.03.04v.02l-.05.06-.04.06-.01.02c0 .02-.02.03-.03.05l-.01.02-.02.04-.02.03-.02.04-.02.03-.02.05-.01.02-.03.06v.02l-.05.1a2.12 2.12 0 0 0-.06.13l-.02.03c0 .02 0 .03-.02.05a3.2 3.2 0 0 0-.03.08l-.01.04-.02.05-.01.03-.03.09-.03.08c-.05.15-.1.3-.13.45l-.03.09-.01.08c-.05.17-.08.35-.11.53v.03l-.03.1-.08.72v.04a11.22 11.22 0 0 0 0 1.88v.04c.02.27.05.54.1.81v.04l.01.05.1.48.02.08.03.1.13.44.03.08.02.08.02.04.02.05.01.04a1.59 1.59 0 0 0 .07.16c0 .03.02.05.03.08l.03.06.04.1.04.07v.02l.03.05.02.02.02.05.02.02.02.05.01.02.03.05.01.02.08.12.01.02a3.5 3.5 0 0 0 .09.12l.03.03.01.02.03.04.01.02.04.03v.02l.05.04.04.05.02.01a.46.46 0 0 0 .05.05l.02.03.02.01.03.03.02.01a.5.5 0 0 0 .03.03h.01l.04.04h.01l.05.03.01.01.03.02a.8.8 0 0 1-.1 0Zm.56-.2-.02.02-.03.02h-.02l-.02.02-.02.02h-.03l-.02.02h-.02l-.02.02H9l-.03-.01-.02-.01-.02-.01-.03-.02h-.02l-.02-.02-.02-.01-.03-.02a2.27 2.27 0 0 0-.04-.03l-.02-.01a1.15 1.15 0 0 1-.09-.07l-.02-.02-.02-.02a.76.76 0 0 1-.04-.04l-.03-.02-.01-.02a1 1 0 0 1-.03-.03l-.02-.02-.02-.03-.02-.01a.94.94 0 0 1-.03-.04v-.01l-.05-.05-.01-.02-.03-.04-.01-.02a1.18 1.18 0 0 1-.07-.09l-.01-.03a.53.53 0 0 1-.02-.03l-.02-.03-.02-.03-.02-.03-.02-.03-.02-.04-.02-.03-.01-.03-.04-.07-.02-.04L8 12.6l-.02-.03-.02-.04-.01-.04-.02-.04-.02-.03-.01-.04-.02-.04-.02-.04-.01-.04-.02-.05-.01-.03-.02-.06-.01-.02.15-.05.16-.05.14-.04.15-.05.03-.01.13-.05h.03a8.37 8.37 0 0 0 .3-.12 6 6 0 0 0 .12-.05c.41.17.82.3 1.21.41v.03l-.03.06-.01.03-.02.05-.01.04-.02.04-.02.04-.01.04-.02.04-.02.04-.01.03-.02.05-.02.03-.02.04-.02.03c0 .01 0 .03-.02.04l-.01.03-.02.04a11.36 11.36 0 0 1-.04.07l-.02.03s0 .02-.02.03l-.01.03-.02.03-.02.03-.02.03-.02.03-.02.03-.02.03-.02.03-.02.03-.04.05-.02.03-.02.02-.02.03-.02.02-.03.02c0 .01 0 .02-.02.03l-.02.02-.02.02-.02.02-.02.02-.02.02-.02.02-.03.02-.02.02-.02.02-.04.03-.03.02-.02.02Zm1.86-1.99-.03.1-.14.41c-.4 1.07-.96 1.68-1.55 1.68l-.1-.01.03-.02h.01l.05-.04.05-.03.01-.01.03-.03.02-.01.03-.03.01-.01.03-.03.02-.01.03-.04h.01l.04-.05.05-.05.01-.02.04-.03.01-.02.03-.04.01-.02.03-.03.02-.02.02-.04.02-.02.03-.04v-.02l.05-.06.04-.06v-.02l.04-.05v-.02l.05-.07.02-.05.02-.02.02-.05.01-.02.03-.06v-.02l.05-.1.03-.05.01-.03.02-.05.02-.03.01-.05.02-.03.02-.05.01-.04.02-.05.01-.03.03-.09.16-.53.02-.09.02-.07v-.03l.02-.05v-.03l.02-.05v-.03l.01-.05a.8.8 0 0 0 .01-.03l.01-.05v-.03l.02-.05v-.03l.01-.05v-.03l.01-.03h.02l.1-.07.04-.02.12-.08.03-.01.1-.07.04-.02.12-.08-.01.12v.02l-.03.15v.05l-.04.16-.02.1v.05l-.03.1-.01.05-.02.1-.02.04a8.31 8.31 0 0 1-.05.22Zm2.28.06c-.29.45-1.1.6-2.24.42a4.58 4.58 0 0 0 .08-.24v-.02l.04-.11v-.03l.02-.03c.4.07.76.11 1.09.11.42 0 .78-.06 1.05-.19a.69.69 0 0 1-.04.09Zm.1-.32c-.42.27-1.18.32-2.16.14l.01-.04v-.03l.02-.03.02-.08v-.04l.01-.03.02-.08.01-.05v-.03l.02-.07.01-.06v-.02l.02-.08.01-.06v-.02l.02-.08v-.06l.01-.02v-.02l.01-.06.01-.06v-.02l.01-.05.01-.09.02-.01.04-.03.04-.02.03-.03.04-.03.04-.02.03-.03.03-.02.04-.03.04-.02.04-.03.01-.01.02-.02.04-.02.03-.03.02-.02.02-.01.02-.02.04-.03.03-.02.02-.02h.01l.01-.01.03-.03.04-.03.02-.02h.01l.01-.01.02-.02.03-.02.04-.04.02-.01.04-.04.02-.02.05-.04c.67.68 1 1.32.95 1.8Zm.25-.25a.68.68 0 0 1-.06.08c-.03-.5-.38-1.11-1-1.75l.02-.02.03-.03.02-.02.04-.04.02-.02.04-.03.02-.02.04-.04.01-.01.05-.05.02-.02.03-.03c.74.82 1 1.54.72 2Z" fill="#fff"/><defs><linearGradient id="aw1r2n1yz" x1="18" y1="0" x2="0" y2="18" gradientUnits="userSpaceOnUse"><stop stop-color="#673AA1"/><stop offset=".81" stop-color="#090073" stop-opacity=".32"/><stop offset="1" stop-color="#1F014E"/></linearGradient></defs></svg>