<!-- by TradingView --><svg width="18" height="18" fill="none" xmlns="http://www.w3.org/2000/svg"><path fill="#F0F3FA" d="M0 0h18v18H0z"/><path d="M8 8.84L4 6.526c0-.173.235-.467.571-.904.305-.396.506-.503.726-.622L5.3 5l3.746 2.102L12.721 5c.208.082.626.287.887.801.262.515.392.708.392.936L10 8.84v4.827c-.126.133-.346.334-1.026.334s-.82-.2-.974-.334V8.84z" fill="url(#paint0_linear_1530)"/><path fill-rule="evenodd" clip-rule="evenodd" d="M10 9.376v3.865c-.439-.484-1.031-1.356-.999-2.216.032-.85.59-1.397.999-1.65z" fill="url(#paint1_linear_1530)"/><path fill-rule="evenodd" clip-rule="evenodd" d="M7.92 8.792L4.464 6.798c.654-.05 1.795-.042 2.473.306.693.356.934 1.2.983 1.688z" fill="url(#paint2_linear_1530)"/><path fill-rule="evenodd" clip-rule="evenodd" d="M9.082 7.081c.387.212 1.19.44 1.999.001.823-.446 1.383-1.49 1.605-2.062L9.082 7.08z" fill="url(#paint3_linear_1530)"/><defs><linearGradient id="paint0_linear_1530" x1="9" y1="5" x2="9" y2="14" gradientUnits="userSpaceOnUse"><stop stop-color="#8C58BD"/><stop offset=".656" stop-color="#561694"/></linearGradient><linearGradient id="paint1_linear_1530" x1="10.197" y1="10.585" x2="9.117" y2="11.94" gradientUnits="userSpaceOnUse"><stop stop-color="#FC17C5"/><stop offset="1" stop-color="#FDD6FF"/></linearGradient><linearGradient id="paint2_linear_1530" x1="5.123" y1="7.97" x2="7.843" y2="7.28" gradientUnits="userSpaceOnUse"><stop stop-color="#AA52A9"/><stop offset="1" stop-color="#FB35E1"/></linearGradient><linearGradient id="paint3_linear_1530" x1="9.562" y1="7.251" x2="12.029" y2="4.842" gradientUnits="userSpaceOnUse"><stop stop-color="#EA3AC0"/><stop offset="1" stop-color="#12040E"/></linearGradient></defs></svg>