<!-- by TradingView --><svg xmlns="http://www.w3.org/2000/svg" width="18" height="18"><path fill="#F0F3FA" d="M0 0h18v18H0z"/><path d="M8.28 6.54L7.12 7.59 9.3 10H4a3.75 3.75 0 014.28-3.46zm.95.27l-.2.19h.59a3.74 3.74 0 00-.39-.2zM10.75 8H8.73l2.14 2.4-2.22 2.04H7.37L9 11H4.06a3.76 3.76 0 106.69-3z" fill="#05F1A4"/><path d="M13.93 7h-4.9l1.58-1.44H9.36L7.12 7.6 9.3 10H7.24a3.75 3.75 0 116.68-3zm.06 1H8.73l2.14 2.4-1.15 1.06A3.75 3.75 0 0013.99 8zm-5.22 3.2L9 11h-.63l.4.2z" fill="#00AFA4"/></svg>