<!-- by TradingView --><svg width="18" height="18" viewBox="0 0 18 18" xmlns="http://www.w3.org/2000/svg"><path fill="url(#av5isd4qf)" d="M0 0h18v18H0z"/><path opacity=".8" d="m5 4.24 6 2.94 2-.7-6.4-2.94-1.6.7Z" fill="url(#bv5isd4qf)"/><path d="M5 4.24v1.59l4.18 2.04L5 9.95v1.57l6 2.94V12.9l-4.07-2.01L11 8.76V7.18L5 4.24Z" fill="url(#cv5isd4qf)"/><path opacity=".8" d="m11 7.18 2-.7v1.57l-2 .7V7.18Zm0 7.27 2-.7v-4.9l-2 .7v4.9Z" fill="url(#dv5isd4qf)"/><defs><linearGradient id="av5isd4qf" x1="3.35" y1="3.12" x2="21.9" y2="24.43" gradientUnits="userSpaceOnUse"><stop stop-color="#1A1E21"/><stop offset="1" stop-color="#06060A"/></linearGradient><linearGradient id="bv5isd4qf" x1="11.67" y1="7.07" x2="7.67" y2="2.43" gradientUnits="userSpaceOnUse"><stop stop-color="#60AAAC"/><stop offset="1" stop-color="#347181"/></linearGradient><linearGradient id="cv5isd4qf" x1="8" y1="4.24" x2="8" y2="14.46" gradientUnits="userSpaceOnUse"><stop stop-color="#5AC1C1"/><stop offset="1" stop-color="#216B79"/></linearGradient><linearGradient id="dv5isd4qf" x1="9.8" y1="13.02" x2="13.41" y2="9.35" gradientUnits="userSpaceOnUse"><stop stop-color="#5AC1C1"/><stop offset="1" stop-color="#216B79"/></linearGradient></defs></svg>